# Blender 5.2.0 LTS
# www.blender.org
mtllib glass.mtl
o Cube.001
v 0.910326 0.000000 0.089674
v 0.910326 0.000000 0.910326
v 0.089674 0.000000 0.910326
v 0.089674 0.000000 0.089674
v 0.910326 0.031155 0.910326
v 0.910326 0.031155 0.089674
v 0.089674 0.031155 0.910326
v 0.089674 0.031155 0.089674
v 1.000000 0.910326 0.089674
v 1.000000 0.910326 0.910326
v 1.000000 0.089674 0.910326
v 1.000000 0.089674 0.089674
v 0.968845 0.910326 0.910326
v 0.968845 0.910326 0.089674
v 0.968845 0.089674 0.910326
v 0.968845 0.089674 0.089674
v 0.089674 1.000000 0.089674
v 0.089674 1.000000 0.910326
v 0.910326 1.000000 0.910326
v 0.910326 1.000000 0.089674
v 0.089674 0.968845 0.910326
v 0.089674 0.968845 0.089674
v 0.910326 0.968845 0.910326
v 0.910326 0.968845 0.089674
v 0.000000 0.089674 0.089674
v 0.000000 0.089674 0.910326
v 0.000000 0.910326 0.910326
v 0.000000 0.910326 0.089674
v 0.031155 0.089674 0.910326
v 0.031155 0.089674 0.089674
v 0.031155 0.910326 0.910326
v 0.031155 0.910326 0.089674
vn -1.0000 -0.0000 -0.0000
vn -0.0000 -1.0000 -0.0000
vn -0.0000 1.0000 -0.0000
vn 1.0000 -0.0000 -0.0000
vn -0.0000 -0.0000 -1.0000
vn -0.0000 -0.0000 1.0000
vt 0.000100 0.517557
vt 0.000100 0.000100
vt 0.015723 0.015236
vt 0.015236 0.501934
vt 0.499468 0.499131
vt 0.017325 0.499131
vt 0.017325 0.016988
vt 0.499468 0.016988
vt 0.502421 0.015723
vt 0.501934 0.502421
vt 0.517557 0.000100
vt 0.517557 0.517557
s 0
usemtl glass
f 4/1/1 3/2/1 7/3/1 8/4/1
f 2/5/2 3/6/2 4/7/2 1/8/2
f 5/9/3 6/10/3 8/4/3 7/3/3
f 2/11/4 1/12/4 6/10/4 5/9/4
f 1/12/5 4/1/5 8/4/5 6/10/5
f 3/2/6 2/11/6 5/9/6 7/3/6
f 12/1/2 11/2/2 15/3/2 16/4/2
f 10/5/4 11/6/4 12/7/4 9/8/4
f 13/9/1 14/10/1 16/4/1 15/3/1
f 10/11/3 9/12/3 14/10/3 13/9/3
f 9/12/5 12/1/5 16/4/5 14/10/5
f 11/2/6 10/11/6 13/9/6 15/3/6
f 20/1/4 19/2/4 23/3/4 24/4/4
f 18/5/3 19/6/3 20/7/3 17/8/3
f 21/9/2 22/10/2 24/4/2 23/3/2
f 18/11/1 17/12/1 22/10/1 21/9/1
f 17/12/5 20/1/5 24/4/5 22/10/5
f 19/2/6 18/11/6 21/9/6 23/3/6
f 28/1/3 27/2/3 31/3/3 32/4/3
f 26/5/1 27/6/1 28/7/1 25/8/1
f 29/9/4 30/10/4 32/4/4 31/3/4
f 26/11/2 25/12/2 30/10/2 29/9/2
f 25/12/5 28/1/5 32/4/5 30/10/5
f 27/2/6 26/11/6 29/9/6 31/3/6
