# Blender 4.5.3 LTS
# www.blender.org
mtllib left_upper_leg.mtl
o Cube.001
v -0.133371 -0.337445 0.555670
v -0.133371 0.009645 1.035161
v -0.133371 -0.222810 0.555670
v -0.133371 0.124280 1.035161
v -0.225079 -0.337445 0.555670
v -0.225079 0.009645 1.035161
v -0.225079 -0.222810 0.555670
v -0.225079 0.124280 1.035161
vn 1.0000 -0.0000 -0.0000
vn -0.0000 0.8100 -0.5864
vn -1.0000 -0.0000 -0.0000
vn -0.0000 -0.8100 0.5864
vn -0.0000 -0.0000 -1.0000
vn -0.0000 -0.0000 1.0000
vt 0.417238 0.186074
vt 0.417238 0.398992
vt 0.376515 0.186074
vt 0.376515 0.398992
s 0
usemtl atlas
f 1/1/1 3/1/1 4/2/1 2/2/1
f 3/1/2 7/3/2 8/4/2 4/2/2
f 7/3/3 5/3/3 6/4/3 8/4/3
f 5/3/4 1/1/4 2/2/4 6/4/4
f 3/1/5 1/1/5 5/3/5 7/3/5
f 8/4/6 6/4/6 2/2/6 4/2/6
o Cylinder.109
v -0.128572 0.216422 1.029509
v -0.226743 0.216422 1.029509
v -0.128572 0.213437 0.999205
v -0.226743 0.213437 0.999205
v -0.128572 0.204598 0.970065
v -0.226743 0.204598 0.970065
v -0.128572 0.190243 0.943210
v -0.226743 0.190243 0.943210
v -0.128572 0.170926 0.919671
v -0.226743 0.170926 0.919671
v -0.128572 0.147387 0.900353
v -0.226743 0.147387 0.900353
v -0.128572 0.120531 0.885998
v -0.226743 0.120531 0.885998
v -0.128572 0.091392 0.877159
v -0.226743 0.091392 0.877159
v -0.128572 0.061087 0.874174
v -0.226743 0.061087 0.874174
v -0.128572 0.030783 0.877159
v -0.226743 0.030783 0.877159
v -0.128572 0.001644 0.885998
v -0.226743 0.001644 0.885998
v -0.128572 -0.025212 0.900353
v -0.226743 -0.025212 0.900353
v -0.128572 -0.048751 0.919671
v -0.226743 -0.048751 0.919671
v -0.128572 -0.068068 0.943210
v -0.226743 -0.068068 0.943210
v -0.128572 -0.082423 0.970065
v -0.226743 -0.082423 0.970065
v -0.128572 -0.091262 0.999205
v -0.226743 -0.091262 0.999205
v -0.128572 -0.094247 1.029509
v -0.226743 -0.094247 1.029509
v -0.128572 -0.091262 1.059813
v -0.226743 -0.091262 1.059813
v -0.128572 -0.082423 1.088953
v -0.226743 -0.082423 1.088953
v -0.128572 -0.068068 1.115808
v -0.226743 -0.068068 1.115808
v -0.128572 -0.048751 1.139347
v -0.226743 -0.048751 1.139347
v -0.128572 -0.025212 1.158665
v -0.226743 -0.025212 1.158665
v -0.128572 0.001644 1.173019
v -0.226743 0.001644 1.173019
v -0.128572 0.030783 1.181859
v -0.226743 0.030783 1.181859
v -0.128572 0.061087 1.184843
v -0.226743 0.061087 1.184843
v -0.128572 0.091392 1.181859
v -0.226743 0.091392 1.181859
v -0.128572 0.120531 1.173019
v -0.226743 0.120531 1.173019
v -0.128572 0.147387 1.158665
v -0.226743 0.147387 1.158665
v -0.128572 0.170926 1.139347
v -0.226743 0.170926 1.139347
v -0.128572 0.190243 1.115808
v -0.226743 0.190243 1.115808
v -0.128572 0.204598 1.088953
v -0.226743 0.204598 1.088953
v -0.128572 0.213437 1.059813
v -0.226743 0.213437 1.059813
vn -0.0000 1.0000 -0.0000
vn -0.0000 0.9808 -0.1951
vn -0.0000 0.9239 -0.3827
vn -0.0000 0.8315 -0.5556
vn -0.0000 0.7071 -0.7071
vn -0.0000 0.5556 -0.8315
vn -0.0000 0.3827 -0.9239
vn -0.0000 0.1951 -0.9808
vn -0.0000 -0.0000 -1.0000
vn -0.0000 -0.1951 -0.9808
vn -0.0000 -0.3827 -0.9239
vn -0.0000 -0.5556 -0.8315
vn -0.0000 -0.7071 -0.7071
vn -0.0000 -0.8315 -0.5556
vn -0.0000 -0.9239 -0.3827
vn -0.0000 -0.9808 -0.1951
vn -0.0000 -1.0000 -0.0000
vn -0.0000 -0.9808 0.1951
vn -0.0000 -0.9239 0.3827
vn -0.0000 -0.8315 0.5556
vn -0.0000 -0.7071 0.7071
vn -0.0000 -0.5556 0.8315
vn -0.0000 -0.3827 0.9239
vn -0.0000 -0.1951 0.9808
vn -0.0000 -0.0000 1.0000
vn -0.0000 0.1951 0.9808
vn -0.0000 0.3827 0.9239
vn -0.0000 0.5556 0.8315
vn -0.0000 0.7071 0.7071
vn -0.0000 0.8315 0.5556
vn -0.0000 0.9239 0.3827
vn -1.0000 -0.0000 -0.0000
vn -0.0000 0.9808 0.1951
vn 1.0000 -0.0000 -0.0000
vt 0.450425 0.182805
vt 0.448799 0.167809
vt 0.488428 0.150192
vt 0.490447 0.165681
vt 0.445095 0.152617
vt 0.484355 0.134457
vt 0.439456 0.137687
vt 0.478383 0.118948
vt 0.432065 0.123467
vt 0.470704 0.104122
vt 0.423139 0.110381
vt 0.461539 0.090418
vt 0.412934 0.098837
vt 0.451149 0.078258
vt 0.401741 0.089221
vt 0.439828 0.068044
vt 0.389890 0.081890
vt 0.427906 0.060151
vt 0.377751 0.077160
vt 0.415755 0.054918
vt 0.365731 0.075298
vt 0.403780 0.052634
vt 0.354268 0.076496
vt 0.392422 0.053516
vt 0.343823 0.080852
vt 0.382138 0.057686
vt 0.334859 0.088348
vt 0.373394 0.065146
vt 0.327819 0.098821
vt 0.366630 0.075749
vt 0.323097 0.111953
vt 0.362235 0.089181
vt 0.320997 0.127261
vt 0.360509 0.104958
vt 0.321710 0.144112
vt 0.361631 0.122425
vt 0.325276 0.161748
vt 0.365627 0.140796
vt 0.331576 0.179334
vt 0.372357 0.159193
vt 0.340326 0.196018
vt 0.381514 0.176716
vt 0.351099 0.210994
vt 0.392648 0.192511
vt 0.363357 0.223566
vt 0.405197 0.205837
vt 0.376492 0.233195
vt 0.418535 0.216116
vt 0.389880 0.239524
vt 0.432024 0.222967
vt 0.402918 0.242392
vt 0.445058 0.226213
vt 0.415067 0.241819
vt 0.457099 0.225871
vt 0.425869 0.237980
vt 0.467700 0.222120
vt 0.434965 0.231176
vt 0.476516 0.215271
vt 0.442095 0.221795
vt 0.483306 0.205727
vt 0.447092 0.210286
vt 0.487922 0.193950
vt 0.490300 0.180433
vt 0.449872 0.197126
s 1
usemtl atlas
f 9/5/7 11/6/8 12/7/8 10/8/7
f 11/6/8 13/9/9 14/10/9 12/7/8
f 13/9/9 15/11/10 16/12/10 14/10/9
f 15/11/10 17/13/11 18/14/11 16/12/10
f 17/13/11 19/15/12 20/16/12 18/14/11
f 19/15/12 21/17/13 22/18/13 20/16/12
f 21/17/13 23/19/14 24/20/14 22/18/13
f 23/19/14 25/21/15 26/22/15 24/20/14
f 25/21/15 27/23/16 28/24/16 26/22/15
f 27/23/16 29/25/17 30/26/17 28/24/16
f 29/25/17 31/27/18 32/28/18 30/26/17
f 31/27/18 33/29/19 34/30/19 32/28/18
f 33/29/19 35/31/20 36/32/20 34/30/19
f 35/31/20 37/33/21 38/34/21 36/32/20
f 37/33/21 39/35/22 40/36/22 38/34/21
f 39/35/22 41/37/23 42/38/23 40/36/22
f 41/37/23 43/39/24 44/40/24 42/38/23
f 43/39/24 45/41/25 46/42/25 44/40/24
f 45/41/25 47/43/26 48/44/26 46/42/25
f 47/43/26 49/45/27 50/46/27 48/44/26
f 49/45/27 51/47/28 52/48/28 50/46/27
f 51/47/28 53/49/29 54/50/29 52/48/28
f 53/49/29 55/51/30 56/52/30 54/50/29
f 55/51/30 57/53/31 58/54/31 56/52/30
f 57/53/31 59/55/32 60/56/32 58/54/31
f 59/55/32 61/57/33 62/58/33 60/56/32
f 61/57/33 63/59/34 64/60/34 62/58/33
f 63/59/34 65/61/35 66/62/35 64/60/34
f 65/61/35 67/63/36 68/64/36 66/62/35
f 67/63/36 69/65/37 70/66/37 68/64/36
f 12/7/38 14/10/38 16/12/38 18/14/38 20/16/38 22/18/38 24/20/38 26/22/38 28/24/38 30/26/38 32/28/38 34/30/38 36/32/38 38/34/38 40/36/38 42/38/38 44/40/38 46/42/38 48/44/38 50/46/38 52/48/38 54/50/38 56/52/38 58/54/38 60/56/38 62/58/38 64/60/38 66/62/38 68/64/38 70/66/38 72/67/38 10/8/38
f 69/65/37 71/68/39 72/67/39 70/66/37
f 71/68/39 9/5/7 10/8/7 72/67/39
f 9/5/40 71/68/40 69/65/40 67/63/40 65/61/40 63/59/40 61/57/40 59/55/40 57/53/40 55/51/40 53/49/40 51/47/40 49/45/40 47/43/40 45/41/40 43/39/40 41/37/40 39/35/40 37/33/40 35/31/40 33/29/40 31/27/40 29/25/40 27/23/40 25/21/40 23/19/40 21/17/40 19/15/40 17/13/40 15/11/40 13/9/40 11/6/40
o Cube.003
v -0.246099 -0.358563 0.554129
v -0.246099 -0.086018 0.914443
v -0.246099 -0.199355 0.554129
v -0.246099 0.191675 0.914443
v -0.266146 -0.358563 0.554129
v -0.266146 -0.086018 0.914443
v -0.266146 -0.199355 0.554129
v -0.266146 0.191675 0.914443
v -0.246099 -0.126038 1.044574
v -0.246099 0.231492 1.044574
v -0.266146 0.231492 1.044574
v -0.266146 -0.126038 1.044574
v -0.246099 -0.048100 1.176447
v -0.246099 0.153756 1.176447
v -0.266146 0.153756 1.176447
v -0.266146 -0.048100 1.176447
v -0.246099 -0.278959 0.554129
v -0.246099 0.051059 0.914443
v -0.266146 -0.278959 0.554129
v -0.266146 0.051059 0.914443
v -0.246099 0.052235 1.044574
v -0.266146 0.052235 1.044574
v -0.246099 0.052235 1.207655
v -0.266146 0.052235 1.207655
v -0.266146 -0.097194 1.126824
v -0.246099 -0.097194 1.126824
v -0.246099 0.202604 1.126824
v -0.266146 0.202604 1.126824
v -0.246099 0.052235 1.126824
v -0.266146 0.052235 1.126824
v -0.246099 -0.116335 0.968094
v -0.246099 0.221641 0.968094
v -0.266146 -0.116335 0.968094
v -0.266146 0.221641 0.968094
v -0.266146 0.051647 0.968094
v -0.246099 0.051647 0.968094
vn 1.0000 -0.0000 -0.0000
vn -0.0000 0.3637 -0.9315
vn -0.0000 0.7852 -0.6193
vn -1.0000 -0.0000 -0.0000
vn -0.0000 -0.7975 0.6033
vn -0.0000 -0.9978 0.0666
vn -0.0000 -0.0000 -1.0000
vn -0.0000 -0.8480 0.5301
vn -0.0000 -0.5194 0.8545
vn -0.0000 -0.9492 -0.3148
vn -0.0000 -0.9944 0.1053
vn -0.0000 0.9496 -0.3134
vn -0.0000 0.9945 0.1046
vn -0.0000 -0.0017 1.0000
vn -0.0000 0.8485 0.5292
vn -0.0000 0.5191 0.8547
vt 0.665648 0.787469
vt 0.649054 0.769543
vt 0.648680 0.606383
vt 0.677992 0.638047
vt 0.682241 0.805394
vt 0.706565 0.668914
vt 0.689950 0.626731
vt 0.707049 0.610656
vt 0.744210 0.650800
vt 0.724966 0.664557
vt 0.756719 0.627160
vt 0.757660 0.605761
vt 0.654515 0.588451
vt 0.669683 0.570291
vt 0.743772 0.576662
vt 0.694226 0.559651
vt 0.715583 0.560306
vt 0.725571 0.593511
s 1
usemtl atlas
f 89/69/41 75/70/41 76/71/41 90/72/41
f 75/70/42 79/70/42 80/71/43 76/71/43
f 91/69/44 77/73/44 78/74/44 92/72/44
f 77/73/45 73/73/45 74/74/46 78/74/46
f 89/69/47 73/73/47 77/73/47 91/69/47
f 108/75/41 93/76/41 81/77/41 103/78/41
f 98/79/48 85/80/49 88/80/49 97/79/48
f 103/78/50 81/77/51 84/77/51 105/78/50
f 106/81/52 83/82/53 82/82/53 104/81/52
f 107/75/44 94/76/44 83/82/44 106/81/44
f 96/83/54 88/80/49 85/80/49 95/83/54
f 100/84/55 87/85/56 86/85/56 99/84/55
f 102/86/44 96/83/44 87/85/44 100/84/44
f 101/86/41 95/83/41 85/80/41 98/79/41
f 99/84/41 86/85/41 95/83/41 101/86/41
f 97/79/44 88/80/44 96/83/44 102/86/44
f 87/85/56 96/83/54 95/83/54 86/85/56
f 105/78/44 84/77/44 94/76/44 107/75/44
f 104/81/41 82/82/41 93/76/41 108/75/41
f 75/70/42 89/69/47 91/69/47 79/70/42
f 79/70/44 91/69/44 92/72/44 80/71/44
f 73/73/41 89/69/41 90/72/41 74/74/41
f 84/77/44 97/79/44 102/86/44 94/76/44
f 82/82/41 99/84/41 101/86/41 93/76/41
f 93/76/41 101/86/41 98/79/41 81/77/41
f 94/76/44 102/86/44 100/84/44 83/82/44
f 83/82/53 100/84/55 99/84/55 82/82/53
f 81/77/51 98/79/48 97/79/48 84/77/51
f 76/71/41 104/81/41 108/75/41 90/72/41
f 78/74/44 105/78/44 107/75/44 92/72/44
f 92/72/44 107/75/44 106/81/44 80/71/44
f 80/71/43 106/81/52 104/81/52 76/71/43
f 74/74/46 103/78/50 105/78/50 78/74/46
f 90/72/41 108/75/41 103/78/41 74/74/41
o Cube.021
v -0.132508 -0.373876 0.566698
v -0.116438 -0.316501 0.645144
v -0.132508 -0.355023 0.552909
v -0.116438 -0.297648 0.631355
v -0.227222 -0.373876 0.566698
v -0.243293 -0.316501 0.645144
v -0.227222 -0.355023 0.552909
v -0.243293 -0.297648 0.631355
v -0.132508 -0.361049 0.540915
v -0.132508 -0.384271 0.543430
v -0.227222 -0.361049 0.540915
v -0.227222 -0.384271 0.543430
v -0.132508 -0.360272 0.527515
v -0.132508 -0.381640 0.518082
v -0.227222 -0.360272 0.527515
v -0.227222 -0.381640 0.518082
vn 0.9866 -0.0963 -0.1317
vn -0.0000 0.8072 -0.5903
vn -0.9866 -0.0963 -0.1317
vn -0.0000 -0.8072 0.5903
vn -0.0000 -0.9130 0.4079
vn -0.0000 0.5903 0.8072
vn -0.0000 -0.9947 -0.1032
vn -0.0000 0.8935 -0.4490
vn 1.0000 -0.0000 -0.0000
vn -1.0000 -0.0000 -0.0000
vn -0.0000 0.9983 0.0579
vn -0.0000 0.4038 -0.9148
vt 0.864206 0.822166
vt 0.864206 0.814043
vt 0.854740 0.860252
vt 0.854740 0.868374
vt 0.919997 0.814043
vt 0.929464 0.860252
vt 0.919997 0.822166
vt 0.929464 0.868374
vt 0.919997 0.808460
vt 0.864206 0.808460
vt 0.919997 0.793529
vt 0.864206 0.793529
vt 0.864206 0.806978
vt 0.919997 0.806978
vt 0.864206 0.799085
vt 0.919997 0.799085
s 0
usemtl atlas
f 109/87/57 111/88/57 112/89/57 110/90/57
f 111/88/58 115/91/58 116/92/58 112/89/58
f 115/91/59 113/93/59 114/94/59 116/92/59
f 113/93/60 109/87/60 110/90/60 114/94/60
f 113/93/61 120/95/61 118/96/61 109/87/61
f 116/92/62 114/94/62 110/90/62 112/89/62
f 120/95/63 124/97/63 122/98/63 118/96/63
f 111/88/64 117/99/64 119/100/64 115/91/64
f 109/87/65 118/96/65 117/99/65 111/88/65
f 115/91/66 119/100/66 120/95/66 113/93/66
f 117/99/67 121/101/67 123/102/67 119/100/67
f 119/100/66 123/102/66 124/97/66 120/95/66
f 118/96/65 122/98/65 121/101/65 117/99/65
f 121/101/68 122/98/68 124/97/68 123/102/68
o Cube.022
v -0.116438 -0.302348 0.664495
v -0.116438 -0.283495 0.650706
v -0.243293 -0.302348 0.664495
v -0.243293 -0.283495 0.650706
v -0.116438 -0.194126 0.812461
v -0.116438 -0.161963 0.816869
v -0.243293 -0.161963 0.816869
v -0.243293 -0.194126 0.812461
vn -0.0000 -0.5903 -0.8072
vn -0.0000 -0.1358 0.9907
vn -1.0000 -0.0000 -0.0000
vn 1.0000 -0.0000 -0.0000
vn -0.0000 -0.8072 0.5903
vn -0.0000 0.8072 -0.5903
vt 0.680440 0.832588
vt 0.605716 0.832588
vt 0.605716 0.840711
vt 0.680440 0.840711
vt 0.680440 0.930467
vt 0.680440 0.927870
vt 0.605716 0.927870
vt 0.605716 0.930467
s 0
usemtl atlas
f 128/103/69 126/104/69 125/105/69 127/106/69
f 131/107/70 132/108/70 129/109/70 130/110/70
f 127/106/71 132/108/71 131/107/71 128/103/71
f 126/104/72 130/110/72 129/109/72 125/105/72
f 125/105/73 129/109/73 132/108/73 127/106/73
f 128/103/74 131/107/74 130/110/74 126/104/74
o Cylinder.113
v -0.159118 -0.095246 0.678360
v -0.202589 -0.095246 0.678360
v -0.159118 -0.095918 0.671543
v -0.202589 -0.095918 0.671543
v -0.159118 -0.097906 0.664989
v -0.202589 -0.097906 0.664989
v -0.159118 -0.101135 0.658948
v -0.202589 -0.101135 0.658948
v -0.159118 -0.105480 0.653653
v -0.202589 -0.105480 0.653653
v -0.159118 -0.110775 0.649308
v -0.202589 -0.110775 0.649308
v -0.159118 -0.116816 0.646079
v -0.202589 -0.116816 0.646079
v -0.159118 -0.123371 0.644090
v -0.202589 -0.123371 0.644090
v -0.159118 -0.130187 0.643419
v -0.202589 -0.130187 0.643419
v -0.159118 -0.137004 0.644090
v -0.202589 -0.137004 0.644090
v -0.159118 -0.143558 0.646079
v -0.202589 -0.143558 0.646079
v -0.159118 -0.149599 0.649308
v -0.202589 -0.149599 0.649308
v -0.159118 -0.154894 0.653653
v -0.202589 -0.154894 0.653653
v -0.159118 -0.159239 0.658948
v -0.202589 -0.159239 0.658948
v -0.159118 -0.162468 0.664989
v -0.202589 -0.162468 0.664989
v -0.159118 -0.164457 0.671543
v -0.202589 -0.164457 0.671543
v -0.159118 -0.165128 0.678360
v -0.202589 -0.165128 0.678360
v -0.159118 -0.164457 0.685176
v -0.202589 -0.164457 0.685176
v -0.159118 -0.162468 0.691731
v -0.202589 -0.162468 0.691731
v -0.159118 -0.159239 0.697772
v -0.202589 -0.159239 0.697772
v -0.159118 -0.154894 0.703067
v -0.202589 -0.154894 0.703067
v -0.159118 -0.149599 0.707412
v -0.202589 -0.149599 0.707412
v -0.159118 -0.143558 0.710641
v -0.202589 -0.143558 0.710641
v -0.159118 -0.137004 0.712629
v -0.202589 -0.137004 0.712629
v -0.159118 -0.130187 0.713301
v -0.202589 -0.130187 0.713301
v -0.159118 -0.123371 0.712629
v -0.202589 -0.123371 0.712629
v -0.159118 -0.116816 0.710641
v -0.202589 -0.116816 0.710641
v -0.159118 -0.110775 0.707412
v -0.202589 -0.110775 0.707412
v -0.159118 -0.105480 0.703067
v -0.202589 -0.105480 0.703067
v -0.159118 -0.101135 0.697772
v -0.202589 -0.101135 0.697772
v -0.159118 -0.097906 0.691731
v -0.202589 -0.097906 0.691731
v -0.159118 -0.095918 0.685176
v -0.202589 -0.095918 0.685176
vn -0.0000 1.0000 -0.0000
vn -0.0000 0.9808 -0.1951
vn -0.0000 0.9239 -0.3827
vn -0.0000 0.8315 -0.5556
vn -0.0000 0.7071 -0.7071
vn -0.0000 0.5556 -0.8315
vn -0.0000 0.3827 -0.9239
vn -0.0000 0.1951 -0.9808
vn -0.0000 -0.0000 -1.0000
vn -0.0000 -0.1951 -0.9808
vn -0.0000 -0.3827 -0.9239
vn -0.0000 -0.5556 -0.8315
vn -0.0000 -0.7071 -0.7071
vn -0.0000 -0.8315 -0.5556
vn -0.0000 -0.9239 -0.3827
vn -0.0000 -0.9808 -0.1951
vn -0.0000 -1.0000 -0.0000
vn -0.0000 -0.9808 0.1951
vn -0.0000 -0.9239 0.3827
vn -0.0000 -0.8315 0.5556
vn -0.0000 -0.7071 0.7071
vn -0.0000 -0.5556 0.8315
vn -0.0000 -0.3827 0.9239
vn -0.0000 -0.1951 0.9808
vn -0.0000 -0.0000 1.0000
vn -0.0000 0.1951 0.9808
vn -0.0000 0.3827 0.9239
vn -0.0000 0.5556 0.8315
vn -0.0000 0.7071 0.7071
vn -0.0000 0.8315 0.5556
vn -0.0000 0.9239 0.3827
vn -1.0000 -0.0000 -0.0000
vn -0.0000 0.9808 0.1951
vn 1.0000 -0.0000 -0.0000
vt 0.423530 0.135303
vt 0.423530 0.128364
vt 0.379282 0.128364
vt 0.379282 0.135303
vt 0.423530 0.121692
vt 0.379282 0.121692
vt 0.423530 0.115544
vt 0.379282 0.115544
vt 0.423530 0.110154
vt 0.379282 0.110154
vt 0.423530 0.105731
vt 0.379282 0.105731
vt 0.423530 0.102445
vt 0.379282 0.102445
vt 0.423530 0.100421
vt 0.379282 0.100421
vt 0.423530 0.099737
vt 0.379282 0.099737
vt 0.423530 0.142241
vt 0.379282 0.142241
vt 0.423530 0.148913
vt 0.379282 0.148913
vt 0.423530 0.155062
vt 0.379282 0.155062
vt 0.423530 0.160451
vt 0.379282 0.160451
vt 0.423530 0.164874
vt 0.379282 0.164874
vt 0.423530 0.168161
vt 0.379282 0.168161
vt 0.423530 0.170185
vt 0.379282 0.170185
vt 0.423530 0.170868
vt 0.379282 0.170868
s 1
usemtl atlas
f 133/111/75 135/112/76 136/113/76 134/114/75
f 135/112/76 137/115/77 138/116/77 136/113/76
f 137/115/77 139/117/78 140/118/78 138/116/77
f 139/117/78 141/119/79 142/120/79 140/118/78
f 141/119/79 143/121/80 144/122/80 142/120/79
f 143/121/80 145/123/81 146/124/81 144/122/80
f 145/123/81 147/125/82 148/126/82 146/124/81
f 147/125/82 149/127/83 150/128/83 148/126/82
f 149/127/83 151/125/84 152/126/84 150/128/83
f 151/125/84 153/123/85 154/124/85 152/126/84
f 153/123/85 155/121/86 156/122/86 154/124/85
f 155/121/86 157/119/87 158/120/87 156/122/86
f 157/119/87 159/117/88 160/118/88 158/120/87
f 159/117/88 161/115/89 162/116/89 160/118/88
f 161/115/89 163/112/90 164/113/90 162/116/89
f 163/112/90 165/111/91 166/114/91 164/113/90
f 165/111/91 167/129/92 168/130/92 166/114/91
f 167/129/92 169/131/93 170/132/93 168/130/92
f 169/131/93 171/133/94 172/134/94 170/132/93
f 171/133/94 173/135/95 174/136/95 172/134/94
f 173/135/95 175/137/96 176/138/96 174/136/95
f 175/137/96 177/139/97 178/140/97 176/138/96
f 177/139/97 179/141/98 180/142/98 178/140/97
f 179/141/98 181/143/99 182/144/99 180/142/98
f 181/143/99 183/141/100 184/142/100 182/144/99
f 183/141/100 185/139/101 186/140/101 184/142/100
f 185/139/101 187/137/102 188/138/102 186/140/101
f 187/137/102 189/135/103 190/136/103 188/138/102
f 189/135/103 191/133/104 192/134/104 190/136/103
f 191/133/104 193/131/105 194/132/105 192/134/104
f 136/113/106 138/116/106 140/118/106 142/120/106 144/122/106 146/124/106 148/126/106 150/128/106 152/126/106 154/124/106 156/122/106 158/120/106 160/118/106 162/116/106 164/113/106 166/114/106 168/130/106 170/132/106 172/134/106 174/136/106 176/138/106 178/140/106 180/142/106 182/144/106 184/142/106 186/140/106 188/138/106 190/136/106 192/134/106 194/132/106 196/130/106 134/114/106
f 193/131/105 195/129/107 196/130/107 194/132/105
f 195/129/107 133/111/75 134/114/75 196/130/107
f 133/111/108 195/129/108 193/131/108 191/133/108 189/135/108 187/137/108 185/139/108 183/141/108 181/143/108 179/141/108 177/139/108 175/137/108 173/135/108 171/133/108 169/131/108 167/129/108 165/111/108 163/112/108 161/115/108 159/117/108 157/119/108 155/121/108 153/123/108 151/125/108 149/127/108 147/125/108 145/123/108 143/121/108 141/119/108 139/117/108 137/115/108 135/112/108
