# Blender 4.5.3 LTS
# www.blender.org
mtllib left_upper_arm.mtl
o Cylinder.003
v -0.198104 -0.121217 1.471053
v -0.198104 -0.102569 1.471053
v -0.231919 -0.144335 1.471053
v -0.231919 -0.125686 1.471053
v -0.363317 -0.093089 1.418857
v -0.323153 -0.144335 1.471053
v -0.323153 -0.125686 1.471053
v -0.363317 -0.116008 1.471053
v -0.363317 -0.097360 1.471053
v -0.363317 -0.076064 1.405668
v -0.363317 -0.076064 1.424317
v -0.363317 -0.079902 1.432044
v -0.189982 -0.096773 1.525518
v -0.231919 -0.113119 1.541864
v -0.231919 -0.099933 1.528678
v -0.179833 -0.083586 1.512331
v -0.172511 -0.076064 1.521583
v -0.172511 -0.076064 1.540232
v -0.231919 -0.076064 1.544701
v -0.231919 -0.076064 1.563350
v -0.363317 -0.093089 1.521834
v -0.323153 -0.113119 1.541864
v -0.323153 -0.099933 1.528678
v -0.363317 -0.079902 1.508647
v -0.363317 -0.076064 1.516374
v -0.323153 -0.076064 1.544701
v -0.323153 -0.076064 1.563350
v -0.363317 -0.076064 1.535023
v -0.198104 0.019148 1.471053
v -0.198104 0.037796 1.471053
v -0.231919 0.042265 1.471053
v -0.231919 0.060914 1.471053
v -0.363317 -0.041711 1.405668
v -0.363317 -0.041711 1.424317
v -0.363317 -0.007357 1.405668
v -0.363317 -0.007357 1.424317
v -0.363317 -0.003519 1.432044
v -0.363317 0.009668 1.418857
v -0.323153 0.042265 1.471053
v -0.323153 0.060914 1.471053
v -0.363317 0.013938 1.471053
v -0.363317 0.032587 1.471053
v -0.172511 -0.041711 1.521583
v -0.172511 -0.007357 1.521583
v -0.179833 0.000165 1.512331
v -0.172511 -0.041711 1.540232
v -0.172511 -0.007357 1.540232
v -0.231919 -0.041711 1.544701
v -0.231919 -0.041711 1.563350
v -0.231919 -0.007357 1.544701
v -0.231919 -0.007357 1.563350
v -0.189982 0.013351 1.525518
v -0.231919 0.016511 1.528678
v -0.231919 0.029698 1.541864
v -0.363317 -0.041711 1.516374
v -0.363317 -0.003519 1.508647
v -0.363317 -0.007357 1.516374
v -0.323153 -0.041711 1.544701
v -0.323153 -0.041711 1.563350
v -0.323153 -0.007357 1.544701
v -0.323153 -0.007357 1.563350
v -0.363317 -0.041711 1.535023
v -0.363317 -0.007357 1.535023
v -0.363317 0.009668 1.521834
v -0.323153 0.016511 1.528678
v -0.323153 0.029698 1.541864
v -0.410980 -0.103917 1.446227
v -0.447632 -0.103003 1.446227
v -0.410980 -0.115690 1.473038
v -0.410980 -0.115712 1.480181
v -0.410980 -0.097042 1.473038
v -0.410980 -0.097064 1.480071
v -0.518249 -0.110239 1.446227
v -0.518249 -0.111306 1.469150
v -0.518249 -0.114975 1.477506
v -0.518249 -0.093531 1.471261
v -0.518249 -0.096326 1.477506
v -0.410980 -0.082274 1.412634
v -0.410980 -0.082118 1.412467
v -0.412203 -0.082274 1.412642
v -0.410980 -0.080889 1.430233
v -0.410980 -0.082274 1.433020
v -0.424655 -0.082274 1.431930
v -0.410980 -0.078991 1.429452
v -0.410980 -0.055913 1.412467
v -0.410980 -0.043313 1.408543
v -0.410980 -0.052785 1.429452
v -0.410980 -0.043313 1.426406
v -0.499447 -0.082274 1.425086
v -0.464452 -0.082274 1.435213
v -0.518249 -0.082274 1.426023
v -0.518249 -0.082274 1.441009
v -0.518249 -0.077709 1.441009
v -0.518249 -0.046921 1.415012
v -0.518249 -0.046921 1.431106
v -0.410980 -0.085043 1.446227
v -0.419348 -0.084831 1.446227
v -0.518249 -0.092622 1.446227
v -0.564268 -0.101589 1.434333
v -0.561520 -0.114778 1.448461
v -0.561520 -0.096129 1.448918
v -0.547778 -0.114778 1.478735
v -0.547778 -0.096129 1.478735
v -0.591751 -0.049393 1.419446
v -0.591751 -0.049393 1.434327
v -0.636341 -0.049393 1.426186
v -0.636341 -0.049393 1.439376
v -0.564268 -0.088402 1.445967
v -0.410980 -0.107399 1.498601
v -0.507170 -0.115115 1.498601
v -0.518249 -0.115040 1.498601
v -0.508922 -0.096455 1.498601
v -0.518249 -0.096392 1.498601
v -0.410980 -0.088459 1.498601
v -0.410980 -0.082274 1.509193
v -0.410980 -0.081918 1.509325
v -0.419377 -0.082274 1.509444
v -0.410980 -0.078991 1.515219
v -0.410980 -0.070499 1.517787
v -0.410980 -0.043313 1.517787
v -0.464452 -0.082274 1.513923
v -0.518249 -0.082274 1.513618
v -0.518249 -0.057975 1.520965
v -0.518249 -0.046921 1.520965
v -0.410980 -0.082274 1.532084
v -0.410980 -0.082118 1.532204
v -0.412203 -0.082274 1.532132
v -0.410980 -0.070499 1.535650
v -0.410980 -0.043313 1.535650
v -0.518249 -0.082274 1.529854
v -0.518249 -0.057975 1.537059
v -0.518249 -0.046921 1.537059
v -0.561520 -0.114778 1.509010
v -0.561520 -0.096129 1.508553
v -0.564268 -0.101589 1.523138
v -0.564268 -0.088402 1.511504
v -0.591751 -0.049393 1.523144
v -0.636341 -0.049393 1.518095
v -0.591751 -0.049393 1.538025
v -0.636341 -0.049393 1.531285
v -0.410980 -0.016128 1.408543
v -0.410980 -0.016128 1.426406
v -0.410980 -0.005532 1.412359
v -0.410980 0.007940 1.422796
v -0.410980 -0.008284 1.429312
v -0.410980 -0.005246 1.435427
v -0.410980 -0.003634 1.436066
v -0.518249 -0.035867 1.415012
v -0.518249 -0.035867 1.431106
v -0.518249 -0.010369 1.440555
v -0.518249 -0.009134 1.443041
v -0.518249 -0.001426 1.427417
v -0.518249 0.004052 1.431661
v -0.410980 0.000913 1.446227
v -0.518249 -0.003894 1.445118
v -0.518249 -0.003398 1.446227
v -0.518249 0.001723 1.457670
v -0.518249 0.001723 1.476264
v -0.410980 0.010692 1.425631
v -0.518249 0.012998 1.440875
v -0.410980 0.019736 1.446227
v -0.410980 0.010181 1.466936
v -0.410980 0.010181 1.472656
v -0.410980 0.028829 1.466936
v -0.410980 0.028829 1.472656
v -0.518249 0.015347 1.446227
v -0.518249 0.020372 1.457670
v -0.518249 0.020372 1.476264
v -0.591751 0.001388 1.437735
v -0.636341 0.001388 1.442397
v -0.591751 -0.011798 1.448258
v -0.591751 -0.004072 1.451321
v -0.636341 -0.011798 1.451723
v -0.636341 -0.004072 1.454438
v -0.591751 -0.004072 1.478735
v -0.636341 -0.004072 1.478735
v -0.591751 0.014577 1.451321
v -0.636341 0.014577 1.454438
v -0.591751 0.014577 1.478735
v -0.636341 0.014577 1.478735
v -0.410980 -0.035469 1.514880
v -0.410980 -0.003634 1.502406
v -0.410980 -0.001867 1.498601
v -0.410980 -0.003634 1.508126
v -0.410980 -0.008284 1.514880
v -0.410980 -0.006671 1.514241
v -0.518249 -0.021423 1.511517
v -0.518249 -0.003894 1.488360
v -0.518249 -0.003894 1.498601
v -0.518249 -0.010369 1.511517
v -0.518249 -0.003894 1.506953
v -0.518249 -0.005129 1.509440
v -0.518249 0.007520 1.515440
v -0.410980 -0.032718 1.531833
v -0.410980 -0.005532 1.531833
v -0.410980 -0.002780 1.528999
v -0.518249 -0.012479 1.524655
v -0.518249 -0.001426 1.524655
v -0.410980 0.017119 1.498601
v -0.410980 0.010692 1.512842
v -0.410980 0.010692 1.518562
v -0.518249 0.012998 1.492603
v -0.518249 0.012998 1.498601
v -0.518249 0.012998 1.511196
v -0.636341 -0.004072 1.503033
v -0.591751 -0.011798 1.509213
v -0.591751 -0.004072 1.506150
v -0.591751 0.001388 1.519736
v -0.636341 -0.011798 1.505748
v -0.636341 0.001388 1.515074
v -0.636341 0.014577 1.503033
v -0.591751 0.014577 1.506150
vn -0.1845 -0.0000 -0.9828
vn 0.3023 -0.0000 -0.9532
vn 0.2873 -0.2879 -0.9136
vn -0.1824 -0.3084 -0.9336
vn 0.1903 0.2755 0.9423
vn -0.2883 0.2473 0.9251
vn -0.3023 -0.0000 0.9532
vn 0.1845 -0.0000 0.9828
vn 0.8676 0.4925 -0.0678
vn 0.9601 0.2794 -0.0109
vn 0.9126 0.4085 -0.0160
vn 0.8604 0.5054 -0.0645
vn 1.0000 -0.0000 -0.0000
vn 0.3864 0.2602 0.8849
vn 0.3626 -0.0000 0.9319
vn 0.2723 -0.7484 -0.6047
vn -0.1989 -0.7791 -0.5946
vn 0.0210 -0.9998 -0.0013
vn -0.0000 -1.0000 -0.0000
vn 0.0407 -0.8328 0.5521
vn 0.0650 -0.8259 0.5601
vn -1.0000 -0.0000 -0.0000
vn 0.3029 -0.0018 -0.9530
vn 0.3469 -0.4303 -0.8333
vn 0.4380 0.6921 0.5737
vn 0.2200 0.7474 0.6269
vn -0.0000 1.0000 -0.0000
vn -0.0169 0.9999 0.0015
vn -0.0580 0.9109 -0.4086
vn -0.0326 0.9267 -0.3743
vn -0.3427 0.3097 0.8869
vn -0.3146 0.0020 0.9492
vn -0.3626 -0.0000 -0.9319
vn -0.3738 -0.3091 -0.8745
vn -0.7915 -0.6112 -0.0000
vn -0.5913 -0.8064 -0.0000
vn -0.2616 0.8826 0.3907
vn -0.2777 0.7193 0.6368
vn 0.2339 0.8947 0.3806
vn 0.4912 0.8074 0.3269
vn 0.2613 -0.8803 -0.3960
vn 0.2997 -0.8202 -0.4874
vn 0.2571 -0.9561 -0.1409
vn -0.3272 0.7355 0.5934
vn -0.3911 -0.7387 -0.5490
vn -0.0927 0.5264 -0.8452
vn -0.0974 0.5201 -0.8485
vn 0.4208 0.1534 -0.8941
vn 0.8058 0.2937 -0.5142
vn -0.2103 -0.9057 -0.3681
vn -0.2565 0.9567 0.1373
vn -0.4448 -0.8440 -0.2996
vn -0.1202 0.3193 -0.9400
vn -0.1065 0.1671 -0.9802
vn -0.9551 -0.0529 0.2916
vn -0.9176 -0.3273 0.2254
vn -0.9462 -0.2348 0.2227
vn -0.9376 -0.0323 0.3461
vn 0.0792 -0.3392 0.9374
vn 0.0840 -0.3636 0.9278
vn 0.0898 -0.3286 0.9402
vn 0.0827 -0.1732 0.9814
vn -0.8620 -0.4539 0.2257
vn 0.4680 -0.0000 -0.8838
vn 0.9014 -0.0000 -0.4329
vn -0.0000 -0.0000 -1.0000
vn -1.0000 -0.0056 -0.0000
vn 0.2873 0.2879 -0.9136
vn -0.1824 0.3084 -0.9336
vn -0.2883 -0.2473 0.9251
vn 0.1903 -0.2755 0.9423
vn 0.9126 -0.4085 -0.0160
vn 0.9601 -0.2794 -0.0109
vn 0.8676 -0.4925 -0.0678
vn 0.8604 -0.5054 -0.0645
vn 0.3864 -0.2602 0.8849
vn -0.1989 0.7791 -0.5946
vn 0.2723 0.7484 -0.6047
vn 0.0407 -0.8328 -0.5521
vn 0.0348 -0.8220 -0.5685
vn 0.3104 0.3552 -0.8818
vn 0.2200 -0.7474 0.6269
vn 0.4380 -0.6921 0.5737
vn -0.0326 0.9267 0.3743
vn -0.0235 0.9091 0.4158
vn -0.3123 -0.3171 0.8955
vn -0.3738 0.3091 -0.8745
vn -0.2777 -0.7193 0.6368
vn -0.2616 -0.8826 0.3907
vn 0.2339 -0.8947 0.3806
vn 0.4912 -0.8074 0.3269
vn 0.2664 0.7884 -0.5546
vn 0.2613 0.8803 -0.3960
vn 0.1902 0.9680 -0.1637
vn -0.2832 -0.7630 0.5811
vn -0.3911 0.7387 -0.5490
vn -0.0927 0.5264 0.8452
vn -0.0548 0.5192 0.8529
vn 0.4208 -0.1534 -0.8941
vn 0.8058 -0.2937 -0.5142
vn -0.2103 0.9057 -0.3681
vn -0.1859 -0.9688 0.1640
vn -0.4448 0.8440 -0.2996
vn -0.1202 0.3193 0.9400
vn -0.0524 0.1637 0.9851
vn -0.9462 -0.2348 -0.2227
vn -0.9176 -0.3273 -0.2254
vn -0.9551 -0.0529 -0.2916
vn -0.9376 -0.0323 -0.3461
vn 0.0456 -0.3638 -0.9304
vn 0.0792 -0.3392 -0.9374
vn 0.0312 -0.1824 -0.9827
vn 0.0898 -0.3286 -0.9402
vn -0.8620 -0.4539 -0.2257
vn -0.0426 0.9978 -0.0508
vn -0.0457 0.7848 -0.6181
vn -0.0426 0.9977 -0.0518
vn -0.0538 0.9474 -0.3154
vn -0.0420 0.9984 -0.0380
vn -0.0150 0.4045 -0.9144
vn -0.0371 0.6285 -0.7769
vn -0.0378 0.6354 -0.7712
vn -0.0336 0.3663 -0.9299
vn -0.0253 0.0366 -0.9990
vn -0.0004 -0.0017 -1.0000
vn -0.0002 0.2445 -0.9697
vn -0.0051 -0.0360 -0.9993
vn 0.0258 -0.0418 -0.9988
vn 0.0206 -0.5113 -0.8591
vn 0.0118 -0.3893 -0.9210
vn -0.0095 -0.3007 -0.9537
vn 0.0102 -0.8627 -0.5057
vn 0.0322 -0.8925 -0.4499
vn 0.0271 -0.8304 -0.5565
vn 0.0326 -0.4728 -0.8805
vn 0.0537 -0.9180 -0.3929
vn 0.0509 -0.9985 -0.0188
vn 0.0436 -0.9990 0.0025
vn 0.0150 -0.9952 -0.0962
vn 0.0398 -0.9233 0.3819
vn 0.0531 -0.8953 0.4423
vn 0.0542 -0.8928 0.4473
vn 0.0701 -0.9930 0.0952
vn 0.0849 -0.8197 0.5665
vn 0.0670 -0.8608 0.5046
vn 0.0677 -0.5287 0.8461
vn 0.0672 -0.5037 0.8612
vn 0.0887 -0.3843 0.9190
vn 0.0794 -0.4716 0.8782
vn 0.0514 -0.0418 0.9978
vn 0.0749 0.0018 0.9972
vn 0.0738 -0.0002 0.9973
vn 0.0719 -0.0203 0.9972
vn 0.0967 -0.2993 0.9492
vn 0.0971 0.0433 0.9943
vn 0.0603 0.4101 0.9100
vn 0.0648 0.3721 0.9259
vn 0.0396 0.2749 0.9607
vn 0.0326 0.4517 0.8916
vn 0.0200 0.6852 0.7281
vn 0.0196 0.6918 0.7218
vn 0.0004 0.8398 0.5429
vn -0.0025 0.8578 0.5140
vn -0.0276 0.9730 0.2290
vn 0.0494 -0.9973 0.0551
vn 0.0489 -0.9979 0.0415
vn 0.0580 -0.9409 0.3336
vn 0.0495 -0.9972 0.0562
vn 0.0452 -0.8108 0.5835
vn 0.0228 -0.4085 0.9125
vn 0.0331 -0.6686 0.7429
vn 0.0311 -0.6542 0.7557
vn 0.0056 -0.4545 0.8907
vn -0.0239 0.0017 0.9997
vn 0.0076 -0.0470 0.9989
vn -0.0172 -0.2559 0.9666
vn -0.0122 0.0314 0.9994
vn -0.0500 0.3649 0.9297
vn -0.0568 0.0527 0.9970
vn -0.0065 0.3037 0.9527
vn -0.0149 0.5082 0.8611
vn -0.0483 0.8012 0.5964
vn -0.0391 0.6222 0.7819
vn -0.0231 0.6995 0.7142
vn -0.0132 0.8910 0.4538
vn -0.0510 0.9986 0.0172
vn -0.0539 0.9191 0.3903
vn -0.0008 0.9931 0.1175
vn -0.0358 0.9994 -0.0031
vn -0.0673 0.7850 -0.6158
vn -0.0635 0.8097 -0.5834
vn -0.0398 0.9233 -0.3820
vn -0.0681 0.9909 -0.1164
vn -0.0813 0.8818 -0.4645
vn -0.0818 0.3383 -0.9375
vn -0.0828 0.3717 -0.9246
vn -0.0869 0.6203 -0.7795
vn -0.0841 0.6972 -0.7119
vn -0.1020 0.5003 -0.8598
vn -0.0972 0.0009 -0.9953
vn -0.0985 -0.0016 -0.9951
vn -0.0698 0.0527 -0.9962
vn -0.1126 0.3018 -0.9467
vn -0.0946 0.0422 -0.9946
vn -0.0870 -0.3517 -0.9321
vn -0.0767 -0.4169 -0.9057
vn -0.1255 -0.0531 -0.9907
vn -0.0683 -0.2349 -0.9696
vn -0.0303 -0.6572 -0.7531
vn -0.0515 -0.4511 -0.8910
vn 0.0001 -0.8405 -0.5418
vn 0.0011 -0.8454 -0.5342
vn -0.0286 -0.6718 -0.7402
vn 0.0362 -0.9701 -0.2400
vn -0.0000 -0.0000 1.0000
vt 0.913197 0.571074
vt 0.913197 0.666946
vt 0.932794 0.571074
vt 0.932794 0.666946
vt 0.945427 0.666622
vt 0.945103 0.570750
vt 0.893038 0.527006
vt 0.908501 0.508646
vt 0.888904 0.508646
vt 0.879182 0.516341
vt 0.896359 0.666946
vt 0.896359 0.571074
vt 0.843878 0.949199
vt 0.843878 0.996056
vt 0.818345 0.996056
vt 0.815070 0.949199
vt 0.815493 0.996056
vt 0.805692 0.996056
vt 0.883430 0.709153
vt 0.910216 0.571074
vt 0.901485 0.709410
vt 0.921281 0.707610
vt 0.802518 0.996056
vt 0.788658 0.996056
vt 0.835806 0.666946
vt 0.910216 0.666946
vt 0.835806 0.571074
vt 0.835806 0.535541
vt 0.875311 0.709153
vt 0.835806 0.709153
vt 0.889168 0.709153
vt 0.800794 0.949199
vt 0.781574 0.949199
vt 0.812545 0.917431
vt 0.809444 0.920319
vt 0.797218 0.920319
vt 0.812065 0.917431
vt 0.811852 0.949199
vt 0.765554 0.708381
vt 0.786693 0.709153
vt 0.744986 0.706582
vt 0.797213 0.949199
vt 0.780956 0.709153
vt 0.794813 0.709153
vt 0.843878 0.902991
vt 0.955933 0.666689
vt 0.955933 0.571074
vt 0.932154 0.508389
vt 0.869411 0.996056
vt 0.872686 0.949199
vt 0.872264 0.996056
vt 0.882064 0.996056
vt 0.872686 0.949199
vt 0.953676 0.703497
vt 0.885238 0.996056
vt 0.899099 0.996056
vt 0.886963 0.949199
vt 0.906182 0.949199
vt 0.930902 0.919291
vt 0.878313 0.920319
vt 0.875211 0.917431
vt 0.875691 0.917431
vt 0.875905 0.949199
vt 0.751671 0.681643
vt 0.890544 0.949199
vt 0.837892 0.759238
vt 0.844614 0.759349
vt 0.864510 0.759279
vt 0.863900 0.862301
vt 0.864055 0.872077
vt 0.842586 0.871960
vt 0.880855 0.815429
vt 0.877123 0.768011
vt 0.876595 0.759201
vt 0.876899 0.759192
vt 0.882217 0.759238
vt 0.882216 0.759238
vt 0.882919 0.759261
vt 0.884915 0.759238
vt 0.885874 0.871988
vt 0.880243 0.871964
vt 0.880855 0.815429
vt 0.888255 0.871960
vt 0.884159 0.759252
vt 0.881860 0.759238
vt 0.878326 0.871960
vt 0.881163 0.871977
vt 0.880430 0.759214
vt 0.874763 0.759238
vt 0.873531 0.871961
vt 0.875119 0.871928
vt 0.878326 0.871961
vt 0.869314 0.759317
vt 0.865241 0.759306
vt 0.837490 0.759238
vt 0.841281 0.871961
vt 0.854902 0.872088
vt 0.865166 0.872018
vt 0.832011 0.759125
vt 0.809897 0.759200
vt 0.799040 0.759238
vt 0.809793 0.871944
vt 0.822616 0.871774
vt 0.841281 0.871960
vt 0.808552 0.871960
vt 0.797614 0.759317
vt 0.791943 0.759238
vt 0.803756 0.871961
vt 0.805353 0.872067
vt 0.808552 0.871961
vt 0.791187 0.759056
vt 0.788888 0.759238
vt 0.793828 0.871961
vt 0.796664 0.871735
vt 0.803757 0.871961
vt 0.788888 0.759238
vt 0.789782 0.759389
vt 0.792089 0.759238
vt 0.803387 0.872016
vt 0.802208 0.872093
vt 0.798143 0.815429
vt 0.795690 0.773579
vt 0.798143 0.815429
vt 0.793761 0.759213
vt 0.796289 0.759225
vt 0.842586 0.871961
vt 0.835477 0.871913
vt 0.809692 0.871958
vt 0.808998 0.767969
vt 0.809122 0.759186
vt 0.837891 0.759238
vt 0.842586 0.871960
vt 0.863868 0.872111
vt 0.863653 0.860505
vt 0.864365 0.759305
vt 0.844658 0.759364
vt 0.948274 0.754680
vt 0.947693 0.754723
vt 0.948135 0.755993
vt 0.918131 0.758018
vt 0.939066 0.755670
vt 0.929190 0.870297
vt 0.916646 0.871071
vt 0.911040 0.871464
vt 0.948135 0.755993
vt 0.898455 0.759442
vt 0.912325 0.758509
vt 0.896095 0.871987
vt 0.891635 0.872043
vt 0.885729 0.759238
vt 0.896062 0.759418
vt 0.898455 0.759442
vt 0.882778 0.872010
vt 0.877989 0.871961
vt 0.837490 0.759238
vt 0.865153 0.759284
vt 0.880333 0.759309
vt 0.877989 0.871960
vt 0.865530 0.872050
vt 0.859590 0.872092
vt 0.788074 0.759238
vt 0.810007 0.759184
vt 0.832064 0.759129
vt 0.837490 0.759238
vt 0.822830 0.871756
vt 0.810056 0.871897
vt 0.804093 0.871960
vt 0.841281 0.871960
vt 0.772907 0.758628
vt 0.785217 0.759085
vt 0.804093 0.871960
vt 0.794582 0.871745
vt 0.789455 0.871712
vt 0.752620 0.757204
vt 0.766899 0.757936
vt 0.772907 0.758628
vt 0.789455 0.871712
vt 0.774291 0.870975
vt 0.769801 0.871133
vt 0.762474 0.738254
vt 0.755970 0.750977
vt 0.752620 0.757204
vt 0.782217 0.867189
vt 0.779002 0.845237
vt 0.762751 0.739706
vt 0.769801 0.871133
vt 0.762751 0.739706
vt 0.762755 0.738484
vt 0.809581 0.871948
vt 0.833080 0.871894
vt 0.842586 0.871961
vt 0.837892 0.759238
vt 0.809197 0.759190
vt 0.808655 0.797656
vt 0.551783 0.000502
vt 0.551659 0.000000
vt 0.573253 0.000000
vt 0.573366 0.000220
vt 0.576617 0.016637
vt 0.576616 0.055049
vt 0.573016 0.070019
vt 0.573017 0.108431
vt 0.570342 0.112320
vt 0.560496 0.131356
vt 0.555100 0.131356
vt 0.541667 0.140437
vt 0.541667 0.113610
vt 0.545256 0.111113
vt 0.550652 0.111113
vt 0.556420 0.106822
vt 0.557023 0.104544
vt 0.557023 0.066132
vt 0.559765 0.055049
vt 0.559765 0.016637
vt 0.557343 0.004639
vt 0.549546 0.639254
vt 0.541667 0.639254
vt 0.541667 0.615387
vt 0.553548 0.615387
vt 0.557552 0.623127
vt 0.566244 0.635766
vt 0.566244 0.651385
vt 0.577946 0.700048
vt 0.577946 0.715667
vt 0.571149 0.750000
vt 0.555833 0.750000
vt 0.562764 0.715667
vt 0.562764 0.700048
vt 0.553851 0.664022
vt 0.553851 0.648403
vt 0.551891 0.640999
vt 0.571149 0.750000
vt 0.573298 0.997149
vt 0.573253 1.000000
vt 0.551659 1.000000
vt 0.551896 0.980429
vt 0.556121 0.875378
vt 0.438390 0.793821
vt 0.439274 0.750000
vt 0.453411 0.750000
vt 0.447943 0.875378
vt 0.444847 0.968129
vt 0.445874 1.000000
vt 0.426643 1.000000
vt 0.426650 0.997149
vt 0.458333 1.000000
vt 0.458333 0.980497
vt 0.458333 0.750000
vt 0.458333 0.750000
vt 0.458333 0.914579
vt 0.444592 0.628026
vt 0.453285 0.615387
vt 0.458333 0.612067
vt 0.458333 0.638553
vt 0.457288 0.639254
vt 0.455328 0.646658
vt 0.452983 0.648403
vt 0.444069 0.684430
vt 0.444069 0.700048
vt 0.453411 0.743551
vt 0.453411 0.750000
vt 0.428887 0.700048
vt 0.428887 0.684430
vt 0.440589 0.635766
vt 0.476541 0.631317
vt 0.476541 0.604967
vt 0.506125 0.604967
vt 0.532123 0.615387
vt 0.525372 0.639254
vt 0.506125 0.631317
vt 0.448748 0.111113
vt 0.458333 0.117538
vt 0.458333 0.144134
vt 0.438904 0.131356
vt 0.436230 0.127468
vt 0.426384 0.108431
vt 0.422784 0.093461
vt 0.422784 0.055049
vt 0.426486 0.037246
vt 0.426486 0.000220
vt 0.426643 0.000000
vt 0.445875 0.000000
vt 0.443245 0.001956
vt 0.442509 0.004639
vt 0.442509 0.041666
vt 0.439635 0.055049
vt 0.439635 0.093461
vt 0.442377 0.104544
vt 0.448145 0.108835
vt 0.500385 0.130633
vt 0.541667 0.113610
vt 0.541667 0.140437
vt 0.500385 0.156983
vt 0.491284 0.156983
vt 0.458333 0.144134
vt 0.458333 0.117538
vt 0.491284 0.130633
vt 0.541667 0.775822
vt 0.541667 0.750000
vt 0.541667 0.771739
vt 0.541667 1.000000
vt 0.498165 0.750000
vt 0.508101 0.750000
vt 0.508101 0.750000
vt 0.494806 0.750000
vt 0.512358 0.000000
vt 0.541667 0.000000
vt 0.512183 0.000000
vt 0.500993 0.000000
vt 0.458333 0.000000
s 1
usemtl atlas
f 48/1/1 58/2/2 60/2/3 50/1/4
f 51/3/5 61/4/6 59/5/7 49/6/8
f 52/7/9 47/8/10 44/9/11 45/10/12
f 44/9/11 47/8/10 46/8/13 43/9/13
f 47/8/14 51/3/5 49/6/8 46/8/15
f 60/2/3 65/11/16 53/12/17 50/1/4
f 175/13/18 176/14/19 174/15/20 172/16/21
f 173/17/22 174/15/22 178/15/22 170/18/22
f 58/2/2 55/19/23 57/19/24 60/2/3
f 176/14/22 180/14/22 178/15/22 174/15/22
f 47/8/14 52/7/25 54/20/26 51/3/5
f 180/14/27 179/13/28 177/16/29 178/15/30
f 61/4/6 63/21/31 62/22/32 59/5/7
f 43/9/33 48/1/1 50/1/4 44/9/34
f 107/23/35 173/17/22 170/18/22 106/24/36
f 40/25/37 66/26/38 54/20/26 32/27/39
f 52/7/25 30/28/40 32/27/39 54/20/26
f 39/25/41 65/11/16 56/29/42 41/30/43
f 61/4/6 66/26/38 64/31/44 63/21/31
f 50/1/4 53/12/17 45/10/45 44/9/34
f 170/18/46 178/15/30 177/16/29 169/32/47
f 66/26/38 61/4/6 51/3/5 54/20/26
f 65/11/16 60/2/3 57/19/24 56/29/42
f 30/28/48 52/7/9 45/10/12 29/28/49
f 65/11/16 39/25/41 31/27/50 53/12/17
f 42/30/51 64/31/44 66/26/38 40/25/37
f 53/12/17 31/27/50 29/28/52 45/10/45
f 106/24/53 170/18/46 169/32/47 104/33/54
f 101/34/55 108/35/56 99/36/57 100/37/58
f 174/15/20 173/17/59 171/38/60 172/16/21
f 35/39/13 36/40/13 34/40/13 33/41/13
f 173/17/59 107/23/61 105/42/62 171/38/60
f 38/43/13 37/44/13 36/40/13 35/39/13
f 108/35/56 105/42/63 104/33/63 99/36/57
f 38/43/13 42/30/64 41/30/65 37/44/13
f 41/30/65 42/30/64 40/25/66 39/25/66
f 31/27/66 39/25/66 40/25/66 32/27/66
f 31/27/66 32/27/66 30/28/48 29/28/49
f 105/42/19 107/23/35 106/24/36 104/33/19
f 102/45/67 103/45/67 101/34/55 100/37/58
f 26/2/68 58/2/2 48/1/1 19/1/69
f 59/5/7 27/46/70 20/47/71 49/6/8
f 17/9/72 18/48/73 13/7/74 16/10/75
f 17/9/72 43/9/13 46/8/13 18/48/73
f 49/6/8 20/47/71 18/48/76 46/8/15
f 15/12/77 23/11/78 26/2/68 19/1/69
f 205/49/79 176/14/19 175/13/18 207/50/80
f 209/51/22 210/52/22 211/49/22 205/49/22
f 25/19/81 55/19/23 58/2/2 26/2/68
f 176/14/22 205/49/22 211/49/22 180/14/22
f 18/48/76 20/47/71 14/20/82 13/7/83
f 180/14/27 211/49/84 212/53/85 179/13/28
f 62/22/32 28/54/86 27/46/70 59/5/7
f 19/1/69 48/1/1 43/9/33 17/9/87
f 210/52/22 209/51/22 138/55/35 140/56/36
f 14/20/82 22/26/88 6/25/89 3/27/90
f 13/7/83 14/20/82 3/27/90 1/28/91
f 24/29/92 23/11/78 7/25/93 9/30/94
f 27/46/70 28/54/86 21/31/95 22/26/88
f 16/10/96 15/12/77 19/1/69 17/9/87
f 212/53/85 211/49/84 210/52/97 208/57/98
f 20/47/71 27/46/70 22/26/88 14/20/82
f 25/19/81 26/2/68 23/11/78 24/29/92
f 16/10/75 13/7/74 1/28/99 2/28/100
f 4/27/101 7/25/93 23/11/78 15/12/77
f 22/26/88 21/31/95 8/30/102 6/25/89
f 15/12/77 16/10/96 2/28/103 4/27/101
f 140/56/104 139/58/105 208/57/98 210/52/97
f 135/59/106 136/60/107 134/61/108 133/62/109
f 206/63/110 209/51/111 205/49/79 207/50/80
f 10/64/13 33/41/13 34/40/13 11/40/13
f 137/65/112 138/55/113 209/51/111 206/63/110
f 11/40/13 12/44/13 5/43/13 10/64/13
f 139/58/114 137/65/114 136/60/107 135/59/106
f 5/43/13 12/44/13 9/30/65 8/30/64
f 6/25/66 8/30/64 9/30/65 7/25/66
f 6/25/66 7/25/66 4/27/66 3/27/66
f 4/27/66 2/28/100 1/28/99 3/27/66
f 140/56/36 138/55/35 137/65/19 139/58/19
f 134/61/108 103/45/67 102/45/67 133/62/109
f 103/45/115 134/61/116 24/29/92 9/30/94 71/66/117 72/67/118 114/68/118 112/69/118 113/70/118 77/71/119
f 24/29/92 134/61/116 136/60/120 121/72/121 117/73/122 115/74/122 116/75/122 118/76/123 25/19/81
f 25/19/81 118/77/123 119/78/124 120/79/125 55/19/23
f 123/80/126 122/81/126 121/82/121 136/60/120 137/65/112 124/83/127
f 55/19/23 120/79/125 181/84/128 185/85/129 57/19/24
f 137/65/112 206/63/110 190/86/130 187/87/131 124/83/127
f 57/19/24 185/85/129 186/88/132 184/89/133 56/29/42
f 206/63/110 207/50/80 191/90/134 192/91/135 190/92/130
f 56/29/42 184/89/133 182/93/136 183/94/136 163/95/137 41/30/43
f 175/13/18 158/96/138 188/97/139 189/98/139 191/90/134 207/50/80
f 41/30/43 163/95/137 162/99/140 154/100/140 147/101/141 37/44/142
f 156/102/143 157/103/143 158/104/138 175/13/18 172/16/21 155/105/144
f 37/44/142 147/101/141 146/106/145 145/107/146 36/40/147
f 150/108/148 151/109/149 155/110/144 172/16/21 171/38/60
f 36/40/147 145/107/146 142/111/150 88/112/151 34/40/152
f 105/42/62 95/113/153 149/114/154 150/115/148 171/38/60
f 34/40/152 88/116/151 87/117/155 84/118/156 11/40/157
f 92/119/158 93/120/158 95/113/153 105/42/62 108/35/159 90/121/160
f 83/122/161 90/123/160 108/35/159 101/34/162 12/44/163 11/40/157 84/118/156 81/124/161 82/125/161
f 12/44/163 101/34/162 103/45/115 77/126/119 76/127/164 98/128/164 97/129/164 96/130/164 71/131/117 9/30/94
f 102/45/165 75/132/166 111/133/167 110/134/167 109/135/167 70/136/167 69/66/168 8/30/102 21/31/95 133/62/169
f 126/137/170 125/138/171 127/139/172 135/59/173 133/62/169 21/31/95 28/54/86
f 62/22/32 129/140/174 128/141/175 126/137/170 28/54/86
f 130/142/176 131/143/176 132/144/177 139/58/105 135/59/173 127/145/172
f 63/21/31 195/146/178 194/147/179 129/140/174 62/22/32
f 139/58/105 132/144/177 197/148/180 198/149/181 208/57/98
f 64/31/44 201/150/182 196/151/183 195/152/178 63/21/31
f 198/149/181 193/153/184 204/154/185 212/53/85 208/57/98
f 42/30/51 165/155/186 199/156/187 200/157/187 201/150/182 64/31/44
f 179/13/28 212/53/85 204/158/185 203/159/188 202/160/188 168/104/189
f 38/43/190 159/161/191 161/162/192 164/163/192 165/164/186 42/30/51
f 167/165/193 166/166/193 160/167/194 177/16/29 179/13/28 168/168/189
f 35/39/195 143/169/196 144/170/197 159/161/191 38/43/190
f 160/171/194 153/172/198 152/173/199 169/32/47 177/16/29
f 33/41/200 86/174/201 141/175/202 143/176/196 35/39/195
f 104/33/54 169/32/47 152/177/199 148/178/203 94/179/204
f 10/64/205 79/180/206 85/181/207 86/182/201 33/41/200
f 91/183/208 89/184/208 80/185/209 99/36/210 104/33/54 94/186/204
f 5/43/211 100/37/212 99/36/210 80/187/209 78/188/213 79/180/206 10/64/205
f 73/189/214 74/190/214 75/191/166 102/45/165 100/37/212 5/43/211 8/30/102 69/192/168 67/193/214 68/194/214
s 0
f 116/195/22 115/196/22 125/197/22 126/198/22 128/199/22 129/200/22 194/201/22 195/202/22 196/203/22 201/204/22 200/205/22 199/206/22 183/207/22 182/208/22 184/209/22 186/210/22 185/211/22 181/212/22 120/213/22 119/214/22 118/215/22
f 191/216/13 189/217/13 203/218/13 204/219/13 193/220/13 198/221/13 197/222/13 132/223/13 131/224/13 130/225/13 122/226/13 123/227/13 124/228/13 187/229/13 190/230/13 192/231/13
f 122/226/27 130/232/27 127/233/27 125/234/27 115/235/27 117/236/27 121/237/27
f 89/238/27 91/239/27 92/240/27 90/241/27 83/242/27 82/243/27 78/244/27 80/245/27
f 67/246/215 96/246/215 97/247/215 98/248/215 73/249/215 68/250/215
f 153/251/13 160/252/13 166/253/13 156/254/13 155/255/13 151/256/13 150/257/13 149/258/13 95/259/13 93/260/13 92/261/13 91/239/13 94/262/13 148/263/13 152/264/13
f 157/265/13 156/254/13 166/253/13 167/266/13 168/267/13 202/268/13 203/218/13 189/217/13 188/269/13 158/270/13
f 147/271/22 154/272/22 161/273/22 159/274/22 144/275/22 143/276/22 141/277/22 86/278/22 85/279/22 79/280/22 78/281/22 82/282/22 81/283/22 84/284/22 87/285/22 88/286/22 142/287/22 145/288/22 146/289/22
f 163/290/22 183/291/22 199/292/22 165/293/22 164/294/22 161/295/22 154/296/22 162/297/22
f 110/298/66 111/299/66 113/299/66 112/300/66 114/301/66 109/301/66
f 73/249/13 98/249/13 76/302/13 77/303/13 113/299/13 111/299/13 75/304/13 74/305/13
f 70/306/22 109/307/22 114/307/22 72/308/22 71/309/22 96/310/22 67/310/22 69/309/22
o Cylinder.004
v -0.299011 -0.044638 1.532350
v -0.418883 -0.044638 1.532350
v -0.299011 -0.032945 1.531199
v -0.418883 -0.032945 1.531199
v -0.299011 -0.021702 1.527788
v -0.418883 -0.021702 1.527788
v -0.299011 -0.011339 1.522249
v -0.418883 -0.011339 1.522249
v -0.299011 -0.002257 1.514795
v -0.418883 -0.002257 1.514795
v -0.299011 0.005197 1.505713
v -0.418883 0.005197 1.505713
v -0.299011 0.010736 1.495350
v -0.418883 0.010736 1.495350
v -0.299011 0.014146 1.484107
v -0.418883 0.014146 1.484107
v -0.299011 0.015298 1.472414
v -0.418883 0.015298 1.472414
v -0.299011 0.014146 1.460721
v -0.418883 0.014146 1.460721
v -0.299011 0.010736 1.449477
v -0.418883 0.010736 1.449477
v -0.299011 0.005197 1.439115
v -0.418883 0.005197 1.439115
v -0.299011 -0.002257 1.430032
v -0.418883 -0.002257 1.430032
v -0.299011 -0.011339 1.422579
v -0.418883 -0.011339 1.422579
v -0.299011 -0.021702 1.417040
v -0.418883 -0.021702 1.417040
v -0.299011 -0.032945 1.413629
v -0.418883 -0.032945 1.413629
v -0.299011 -0.044638 1.412477
v -0.418883 -0.044638 1.412477
v -0.299011 -0.056331 1.413629
v -0.418883 -0.056331 1.413629
v -0.299011 -0.067575 1.417040
v -0.418883 -0.067575 1.417040
v -0.299011 -0.077937 1.422579
v -0.418883 -0.077937 1.422579
v -0.299011 -0.087020 1.430032
v -0.418883 -0.087020 1.430032
v -0.299011 -0.094473 1.439115
v -0.418883 -0.094473 1.439115
v -0.299011 -0.100012 1.449477
v -0.418883 -0.100012 1.449477
v -0.299011 -0.103423 1.460721
v -0.418883 -0.103423 1.460721
v -0.299011 -0.104575 1.472414
v -0.418883 -0.104575 1.472414
v -0.299011 -0.103423 1.484107
v -0.418883 -0.103423 1.484107
v -0.299011 -0.100012 1.495350
v -0.418883 -0.100012 1.495350
v -0.299011 -0.094473 1.505713
v -0.418883 -0.094473 1.505713
v -0.299011 -0.087020 1.514795
v -0.418883 -0.087020 1.514795
v -0.299011 -0.077937 1.522249
v -0.418883 -0.077937 1.522249
v -0.299011 -0.067575 1.527788
v -0.418883 -0.067575 1.527788
v -0.299011 -0.056331 1.531199
v -0.418883 -0.056331 1.531199
vn -0.0000 -0.0000 1.0000
vn -0.0000 0.1951 0.9808
vn -0.0000 0.3827 0.9239
vn -0.0000 0.5556 0.8315
vn -0.0000 0.7071 0.7071
vn -0.0000 0.8315 0.5556
vn -0.0000 0.9239 0.3827
vn -0.0000 0.9808 0.1951
vn -0.0000 1.0000 -0.0000
vn -0.0000 0.9808 -0.1951
vn -0.0000 0.9239 -0.3827
vn -0.0000 0.8315 -0.5556
vn -0.0000 0.7071 -0.7071
vn -0.0000 0.5556 -0.8315
vn -0.0000 0.3827 -0.9239
vn -0.0000 0.1951 -0.9808
vn -0.0000 -0.0000 -1.0000
vn -0.0000 -0.1951 -0.9808
vn -0.0000 -0.3827 -0.9239
vn -0.0000 -0.5556 -0.8315
vn -0.0000 -0.7071 -0.7071
vn -0.0000 -0.8315 -0.5556
vn -0.0000 -0.9239 -0.3827
vn -0.0000 -0.9808 -0.1951
vn -0.0000 -1.0000 -0.0000
vn -0.0000 -0.9808 0.1951
vn -0.0000 -0.9239 0.3827
vn -0.0000 -0.8315 0.5556
vn -0.0000 -0.7071 0.7071
vn -0.0000 -0.5556 0.8315
vn -0.0000 -0.3827 0.9239
vn -1.0000 -0.0000 -0.0000
vn -0.0000 -0.1951 0.9808
vn 1.0000 -0.0000 -0.0000
vt 0.463983 0.334380
vt 0.463983 0.332692
vt 0.288281 0.332692
vt 0.288281 0.334380
vt 0.463983 0.327693
vt 0.288281 0.327693
vt 0.463983 0.319575
vt 0.288281 0.319575
vt 0.463983 0.308649
vt 0.288281 0.308649
vt 0.463983 0.295337
vt 0.288281 0.295337
vt 0.463983 0.280148
vt 0.288281 0.280148
vt 0.463983 0.263668
vt 0.288281 0.263668
vt 0.463983 0.246529
vt 0.288281 0.246529
vt 0.463983 0.229390
vt 0.288281 0.229390
vt 0.463983 0.212910
vt 0.288281 0.212910
vt 0.463983 0.197722
vt 0.288281 0.197722
vt 0.463983 0.184409
vt 0.288281 0.184409
vt 0.463983 0.173483
vt 0.288281 0.173483
vt 0.463983 0.165365
vt 0.288281 0.165365
vt 0.463983 0.160366
vt 0.288281 0.160366
vt 0.463983 0.158678
vt 0.288281 0.158678
s 1
usemtl atlas
f 213/311/216 215/312/217 216/313/217 214/314/216
f 215/312/217 217/315/218 218/316/218 216/313/217
f 217/315/218 219/317/219 220/318/219 218/316/218
f 219/317/219 221/319/220 222/320/220 220/318/219
f 221/319/220 223/321/221 224/322/221 222/320/220
f 223/321/221 225/323/222 226/324/222 224/322/221
f 225/323/222 227/325/223 228/326/223 226/324/222
f 227/325/223 229/327/224 230/328/224 228/326/223
f 229/327/224 231/329/225 232/330/225 230/328/224
f 231/329/225 233/331/226 234/332/226 232/330/225
f 233/331/226 235/333/227 236/334/227 234/332/226
f 235/333/227 237/335/228 238/336/228 236/334/227
f 237/335/228 239/337/229 240/338/229 238/336/228
f 239/337/229 241/339/230 242/340/230 240/338/229
f 241/339/230 243/341/231 244/342/231 242/340/230
f 243/341/231 245/343/232 246/344/232 244/342/231
f 245/343/232 247/341/233 248/342/233 246/344/232
f 247/341/233 249/339/234 250/340/234 248/342/233
f 249/339/234 251/337/235 252/338/235 250/340/234
f 251/337/235 253/335/236 254/336/236 252/338/235
f 253/335/236 255/333/237 256/334/237 254/336/236
f 255/333/237 257/331/238 258/332/238 256/334/237
f 257/331/238 259/329/239 260/330/239 258/332/238
f 259/329/239 261/327/240 262/328/240 260/330/239
f 261/327/240 263/325/241 264/326/241 262/328/240
f 263/325/241 265/323/242 266/324/242 264/326/241
f 265/323/242 267/321/243 268/322/243 266/324/242
f 267/321/243 269/319/244 270/320/244 268/322/243
f 269/319/244 271/317/245 272/318/245 270/320/244
f 271/317/245 273/315/246 274/316/246 272/318/245
f 216/313/247 218/316/247 220/318/247 222/320/247 224/322/247 226/324/247 228/326/247 230/328/247 232/330/247 234/332/247 236/334/247 238/336/247 240/338/247 242/340/247 244/342/247 246/344/247 248/342/247 250/340/247 252/338/247 254/336/247 256/334/247 258/332/247 260/330/247 262/328/247 264/326/247 266/324/247 268/322/247 270/320/247 272/318/247 274/316/247 276/313/247 214/314/247
f 273/315/246 275/312/248 276/313/248 274/316/246
f 275/312/248 213/311/216 214/314/216 276/313/248
f 213/311/249 275/312/249 273/315/249 271/317/249 269/319/249 267/321/249 265/323/249 263/325/249 261/327/249 259/329/249 257/331/249 255/333/249 253/335/249 251/337/249 249/339/249 247/341/249 245/343/249 243/341/249 241/339/249 239/337/249 237/335/249 235/333/249 233/331/249 231/329/249 229/327/249 227/325/249 225/323/249 223/321/249 221/319/249 219/317/249 217/315/249 215/312/249
o Cylinder.005
v -0.407224 -0.011043 1.472414
v -0.650097 -0.011044 1.472414
v -0.407224 -0.011331 1.469491
v -0.650097 -0.011331 1.469491
v -0.407224 -0.012184 1.466680
v -0.650097 -0.012184 1.466680
v -0.407224 -0.013569 1.464089
v -0.650097 -0.013569 1.464089
v -0.407224 -0.015432 1.461818
v -0.650097 -0.015432 1.461818
v -0.407224 -0.017703 1.459955
v -0.650097 -0.017703 1.459955
v -0.407224 -0.020293 1.458570
v -0.650097 -0.020293 1.458570
v -0.407224 -0.023104 1.457718
v -0.650097 -0.023104 1.457718
v -0.407224 -0.026028 1.457430
v -0.650097 -0.026028 1.457430
v -0.407224 -0.028951 1.457718
v -0.650097 -0.028951 1.457718
v -0.407224 -0.031762 1.458570
v -0.650097 -0.031762 1.458570
v -0.407224 -0.034352 1.459955
v -0.650097 -0.034352 1.459955
v -0.407224 -0.036623 1.461818
v -0.650097 -0.036623 1.461818
v -0.407224 -0.038486 1.464089
v -0.650097 -0.038486 1.464089
v -0.407224 -0.039871 1.466680
v -0.650097 -0.039871 1.466680
v -0.407224 -0.040724 1.469491
v -0.650097 -0.040724 1.469491
v -0.407224 -0.041012 1.472414
v -0.650097 -0.041012 1.472414
v -0.407224 -0.040724 1.475337
v -0.650097 -0.040724 1.475337
v -0.407224 -0.039871 1.478148
v -0.650097 -0.039871 1.478148
v -0.407224 -0.038486 1.480739
v -0.650097 -0.038486 1.480739
v -0.407224 -0.036623 1.483009
v -0.650097 -0.036623 1.483009
v -0.407224 -0.034352 1.484873
v -0.650097 -0.034352 1.484873
v -0.407224 -0.031762 1.486257
v -0.650097 -0.031762 1.486257
v -0.407224 -0.028951 1.487110
v -0.650097 -0.028951 1.487110
v -0.407224 -0.026028 1.487398
v -0.650097 -0.026028 1.487398
v -0.407224 -0.023104 1.487110
v -0.650097 -0.023104 1.487110
v -0.407224 -0.020293 1.486257
v -0.650097 -0.020293 1.486257
v -0.407224 -0.017703 1.484873
v -0.650097 -0.017703 1.484873
v -0.407224 -0.015432 1.483009
v -0.650097 -0.015432 1.483009
v -0.407224 -0.013569 1.480739
v -0.650097 -0.013569 1.480739
v -0.407224 -0.012184 1.478148
v -0.650097 -0.012184 1.478148
v -0.407224 -0.011331 1.475337
v -0.650097 -0.011331 1.475337
vn -0.0000 1.0000 -0.0000
vn -0.0000 0.9808 -0.1951
vn -0.0000 0.9239 -0.3827
vn -0.0000 0.8315 -0.5556
vn -0.0000 0.7071 -0.7071
vn -0.0000 0.5556 -0.8315
vn -0.0000 0.3827 -0.9239
vn -0.0000 0.1951 -0.9808
vn -0.0000 -0.0000 -1.0000
vn -0.0000 -0.1951 -0.9808
vn -0.0000 -0.3827 -0.9239
vn -0.0000 -0.5556 -0.8315
vn -0.0000 -0.7071 -0.7071
vn -0.0000 -0.8315 -0.5556
vn -0.0000 -0.9239 -0.3827
vn -0.0000 -0.9808 -0.1951
vn -0.0000 -1.0000 -0.0000
vn -0.0000 -0.9808 0.1951
vn -0.0000 -0.9239 0.3827
vn -0.0000 -0.8315 0.5556
vn -0.0000 -0.7071 0.7071
vn -0.0000 -0.5556 0.8315
vn -0.0000 -0.3827 0.9239
vn -0.0000 -0.1951 0.9808
vn -0.0000 -0.0000 1.0000
vn -0.0000 0.1951 0.9808
vn -0.0000 0.3827 0.9239
vn -0.0000 0.5556 0.8315
vn -0.0000 0.7071 0.7071
vn -0.0000 0.8315 0.5556
vn -0.0000 0.9239 0.3827
vn -1.0000 -0.0000 -0.0000
vn -0.0000 0.9808 0.1951
vn 1.0000 -0.0000 -0.0000
vt 0.141603 0.121539
vt 0.138428 0.121539
vt 0.138428 0.385338
vt 0.141603 0.385338
vt 0.135375 0.121539
vt 0.135375 0.385338
vt 0.132561 0.121539
vt 0.132561 0.385338
vt 0.130095 0.121539
vt 0.130095 0.385338
vt 0.128071 0.121539
vt 0.128071 0.385338
vt 0.126567 0.121539
vt 0.126567 0.385338
vt 0.125641 0.121539
vt 0.125641 0.385338
vt 0.125328 0.121539
vt 0.125328 0.385338
vt 0.144778 0.121539
vt 0.144778 0.385338
vt 0.147832 0.121539
vt 0.147832 0.385338
vt 0.150645 0.121539
vt 0.150645 0.385338
vt 0.153112 0.121539
vt 0.153112 0.385338
vt 0.155136 0.121539
vt 0.155136 0.385338
vt 0.156640 0.121539
vt 0.156640 0.385338
vt 0.157566 0.121539
vt 0.157566 0.385338
vt 0.157878 0.121539
vt 0.157878 0.385338
s 1
usemtl atlas
f 277/345/250 279/346/251 280/347/251 278/348/250
f 279/346/251 281/349/252 282/350/252 280/347/251
f 281/349/252 283/351/253 284/352/253 282/350/252
f 283/351/253 285/353/254 286/354/254 284/352/253
f 285/353/254 287/355/255 288/356/255 286/354/254
f 287/355/255 289/357/256 290/358/256 288/356/255
f 289/357/256 291/359/257 292/360/257 290/358/256
f 291/359/257 293/361/258 294/362/258 292/360/257
f 293/361/258 295/359/259 296/360/259 294/362/258
f 295/359/259 297/357/260 298/358/260 296/360/259
f 297/357/260 299/355/261 300/356/261 298/358/260
f 299/355/261 301/353/262 302/354/262 300/356/261
f 301/353/262 303/351/263 304/352/263 302/354/262
f 303/351/263 305/349/264 306/350/264 304/352/263
f 305/349/264 307/346/265 308/347/265 306/350/264
f 307/346/265 309/345/266 310/348/266 308/347/265
f 309/345/266 311/363/267 312/364/267 310/348/266
f 311/363/267 313/365/268 314/366/268 312/364/267
f 313/365/268 315/367/269 316/368/269 314/366/268
f 315/367/269 317/369/270 318/370/270 316/368/269
f 317/369/270 319/371/271 320/372/271 318/370/270
f 319/371/271 321/373/272 322/374/272 320/372/271
f 321/373/272 323/375/273 324/376/273 322/374/272
f 323/375/273 325/377/274 326/378/274 324/376/273
f 325/377/274 327/375/275 328/376/275 326/378/274
f 327/375/275 329/373/276 330/374/276 328/376/275
f 329/373/276 331/371/277 332/372/277 330/374/276
f 331/371/277 333/369/278 334/370/278 332/372/277
f 333/369/278 335/367/279 336/368/279 334/370/278
f 335/367/279 337/365/280 338/366/280 336/368/279
f 280/347/281 282/350/281 284/352/281 286/354/281 288/356/281 290/358/281 292/360/281 294/362/281 296/360/281 298/358/281 300/356/281 302/354/281 304/352/281 306/350/281 308/347/281 310/348/281 312/364/281 314/366/281 316/368/281 318/370/281 320/372/281 322/374/281 324/376/281 326/378/281 328/376/281 330/374/281 332/372/281 334/370/281 336/368/281 338/366/281 340/364/281 278/348/281
f 337/365/280 339/363/282 340/364/282 338/366/280
f 339/363/282 277/345/250 278/348/250 340/364/282
f 277/345/283 339/363/283 337/365/283 335/367/283 333/369/283 331/371/283 329/373/283 327/375/283 325/377/283 323/375/283 321/373/283 319/371/283 317/369/283 315/367/283 313/365/283 311/363/283 309/345/283 307/346/283 305/349/283 303/351/283 301/353/283 299/355/283 297/357/283 295/359/283 293/361/283 291/359/283 289/357/283 287/355/283 285/353/283 283/351/283 281/349/283 279/346/283
o Cylinder.006
v -0.404092 -0.074607 1.442446
v -0.404092 -0.074607 1.502382
v -0.404092 -0.046603 1.442446
v -0.404092 -0.046603 1.502382
v -0.706400 -0.074607 1.442446
v -0.706400 -0.074607 1.502382
v -0.706400 -0.046603 1.442446
v -0.706400 -0.046603 1.502382
vn 1.0000 -0.0000 -0.0000
vn -0.0000 1.0000 -0.0000
vn -1.0000 -0.0000 -0.0000
vn -0.0000 -1.0000 -0.0000
vn -0.0000 -0.0000 -1.0000
vn -0.0000 -0.0000 1.0000
vt 0.375122 0.149056
vt 0.416125 0.149056
vt 0.375122 0.355868
vt 0.416125 0.355868
s 0
usemtl atlas
f 341/379/284 343/379/284 344/380/284 342/380/284
f 343/379/285 347/381/285 348/382/285 344/380/285
f 347/381/286 345/381/286 346/382/286 348/382/286
f 345/381/287 341/379/287 342/380/287 346/382/287
f 343/379/288 341/379/288 345/381/288 347/381/288
f 348/382/289 346/382/289 342/380/289 344/380/289
o Cylinder.009
v -0.687425 -0.073234 1.522671
v -0.687425 -0.073234 1.487794
v -0.693003 -0.072685 1.522671
v -0.693003 -0.072685 1.487794
v -0.698368 -0.071057 1.522671
v -0.698368 -0.071057 1.487794
v -0.703312 -0.068415 1.522671
v -0.703312 -0.068415 1.487794
v -0.707645 -0.064859 1.522671
v -0.707645 -0.064858 1.487794
v -0.711201 -0.060525 1.522671
v -0.711201 -0.060525 1.487794
v -0.713844 -0.055581 1.522671
v -0.713844 -0.055581 1.487794
v -0.715471 -0.050217 1.522671
v -0.715471 -0.050217 1.487794
v -0.716020 -0.044638 1.522671
v -0.716020 -0.044638 1.487794
v -0.715471 -0.039059 1.522671
v -0.715471 -0.039059 1.487794
v -0.713844 -0.033695 1.522671
v -0.713844 -0.033695 1.487794
v -0.711201 -0.028751 1.522671
v -0.711201 -0.028751 1.487794
v -0.707645 -0.024418 1.522671
v -0.707645 -0.024418 1.487794
v -0.703312 -0.020862 1.522671
v -0.703312 -0.020862 1.487794
v -0.698368 -0.018219 1.522671
v -0.698368 -0.018219 1.487794
v -0.693003 -0.016592 1.522671
v -0.693003 -0.016592 1.487794
v -0.687425 -0.016042 1.522671
v -0.687425 -0.016042 1.487794
v -0.681846 -0.016592 1.522671
v -0.681846 -0.016592 1.487794
v -0.676481 -0.018219 1.522671
v -0.676481 -0.018219 1.487794
v -0.671538 -0.020862 1.522671
v -0.671538 -0.020862 1.487794
v -0.667204 -0.024418 1.522671
v -0.667204 -0.024418 1.487794
v -0.663648 -0.028751 1.522671
v -0.663648 -0.028751 1.487794
v -0.661005 -0.033695 1.522671
v -0.661005 -0.033695 1.487794
v -0.659378 -0.039059 1.522671
v -0.659378 -0.039059 1.487794
v -0.658829 -0.044638 1.522671
v -0.658829 -0.044638 1.487794
v -0.659378 -0.050217 1.522671
v -0.659378 -0.050217 1.487794
v -0.661005 -0.055581 1.522671
v -0.661005 -0.055581 1.487794
v -0.663648 -0.060525 1.522671
v -0.663648 -0.060525 1.487794
v -0.667204 -0.064858 1.522671
v -0.667204 -0.064858 1.487794
v -0.671538 -0.068415 1.522671
v -0.671538 -0.068415 1.487794
v -0.676481 -0.071057 1.522671
v -0.676481 -0.071057 1.487794
v -0.681846 -0.072685 1.522671
v -0.681846 -0.072685 1.487794
v -0.687425 -0.073234 1.422156
v -0.687425 -0.073234 1.457034
v -0.693003 -0.072685 1.422156
v -0.693003 -0.072685 1.457034
v -0.698368 -0.071057 1.422156
v -0.698368 -0.071057 1.457034
v -0.703312 -0.068415 1.422156
v -0.703312 -0.068415 1.457034
v -0.707645 -0.064859 1.422156
v -0.707645 -0.064858 1.457034
v -0.711201 -0.060525 1.422156
v -0.711201 -0.060525 1.457034
v -0.713844 -0.055581 1.422156
v -0.713844 -0.055581 1.457034
v -0.715471 -0.050217 1.422156
v -0.715471 -0.050217 1.457034
v -0.716020 -0.044638 1.422156
v -0.716020 -0.044638 1.457034
v -0.715471 -0.039059 1.422156
v -0.715471 -0.039059 1.457034
v -0.713844 -0.033695 1.422156
v -0.713844 -0.033695 1.457034
v -0.711201 -0.028751 1.422156
v -0.711201 -0.028751 1.457034
v -0.707645 -0.024418 1.422156
v -0.707645 -0.024418 1.457034
v -0.703312 -0.020862 1.422156
v -0.703312 -0.020862 1.457034
v -0.698368 -0.018219 1.422156
v -0.698368 -0.018219 1.457034
v -0.693003 -0.016592 1.422156
v -0.693003 -0.016592 1.457034
v -0.687425 -0.016042 1.422156
v -0.687425 -0.016042 1.457034
v -0.681846 -0.016592 1.422156
v -0.681846 -0.016592 1.457034
v -0.676481 -0.018219 1.422156
v -0.676481 -0.018219 1.457034
v -0.671538 -0.020862 1.422156
v -0.671538 -0.020862 1.457034
v -0.667204 -0.024418 1.422156
v -0.667204 -0.024418 1.457034
v -0.663648 -0.028751 1.422156
v -0.663648 -0.028751 1.457034
v -0.661005 -0.033695 1.422156
v -0.661005 -0.033695 1.457034
v -0.659378 -0.039059 1.422156
v -0.659378 -0.039059 1.457034
v -0.658829 -0.044638 1.422156
v -0.658829 -0.044638 1.457034
v -0.659378 -0.050217 1.422156
v -0.659378 -0.050217 1.457034
v -0.661005 -0.055581 1.422156
v -0.661005 -0.055581 1.457034
v -0.663648 -0.060525 1.422156
v -0.663648 -0.060525 1.457034
v -0.667204 -0.064858 1.422156
v -0.667204 -0.064858 1.457034
v -0.671538 -0.068415 1.422156
v -0.671538 -0.068415 1.457034
v -0.676481 -0.071057 1.422156
v -0.676481 -0.071057 1.457034
v -0.681846 -0.072685 1.422156
v -0.681846 -0.072685 1.457034
vn -0.0000 -1.0000 -0.0000
vn -0.1951 -0.9808 -0.0000
vn -0.3827 -0.9239 -0.0000
vn -0.5556 -0.8315 -0.0000
vn -0.7071 -0.7071 -0.0000
vn -0.8315 -0.5556 -0.0000
vn -0.9239 -0.3827 -0.0000
vn -0.9808 -0.1951 -0.0000
vn -1.0000 -0.0000 -0.0000
vn -0.9808 0.1951 -0.0000
vn -0.9239 0.3827 -0.0000
vn -0.8315 0.5556 -0.0000
vn -0.7071 0.7071 -0.0000
vn -0.5556 0.8315 -0.0000
vn -0.3827 0.9239 -0.0000
vn -0.1951 0.9808 -0.0000
vn -0.0000 1.0000 -0.0000
vn 0.1951 0.9808 -0.0000
vn 0.3827 0.9239 -0.0000
vn 0.5556 0.8315 -0.0000
vn 0.7071 0.7071 -0.0000
vn 0.8315 0.5556 -0.0000
vn 0.9239 0.3827 -0.0000
vn 0.9808 0.1951 -0.0000
vn 1.0000 -0.0000 -0.0000
vn 0.9808 -0.1951 -0.0000
vn 0.9239 -0.3827 -0.0000
vn 0.8315 -0.5556 -0.0000
vn 0.7071 -0.7071 -0.0000
vn 0.5556 -0.8315 -0.0000
vn 0.3827 -0.9239 -0.0000
vn -0.0000 -0.0000 -1.0000
vn 0.1951 -0.9808 -0.0000
vn -0.0000 -0.0000 1.0000
vt 0.388237 0.297360
vt 0.397606 0.298283
vt 0.397606 0.298283
vt 0.406615 0.301016
vt 0.406615 0.301016
vt 0.414918 0.305454
vt 0.414918 0.305454
vt 0.422196 0.311426
vt 0.428169 0.318704
vt 0.432607 0.327007
vt 0.435340 0.336016
vt 0.436262 0.345386
vt 0.435340 0.354755
vt 0.435340 0.354755
vt 0.432607 0.363765
vt 0.428169 0.372067
vt 0.428169 0.372068
vt 0.422196 0.379345
vt 0.414918 0.385318
vt 0.406615 0.389756
vt 0.397606 0.392489
vt 0.388237 0.393412
vt 0.378867 0.392489
vt 0.369858 0.389756
vt 0.361555 0.385318
vt 0.361555 0.385318
vt 0.354277 0.379345
vt 0.348304 0.372068
vt 0.348304 0.372068
vt 0.343867 0.363765
vt 0.343867 0.363765
vt 0.341133 0.354755
vt 0.340211 0.345386
vt 0.341133 0.336016
vt 0.341133 0.336016
vt 0.343867 0.327007
vt 0.348304 0.318704
vt 0.354277 0.311426
vt 0.354277 0.311426
vt 0.361555 0.305454
vt 0.361555 0.305454
vt 0.369858 0.301016
vt 0.369858 0.301016
vt 0.378867 0.298283
vt 0.378867 0.298283
s 1
usemtl atlas
f 349/383/290 351/384/291 352/385/291 350/383/290
f 351/384/291 353/386/292 354/387/292 352/385/291
f 353/386/292 355/388/293 356/389/293 354/387/292
f 355/388/293 357/390/294 358/390/294 356/389/293
f 357/390/294 359/391/295 360/391/295 358/390/294
f 359/391/295 361/392/296 362/392/296 360/391/295
f 361/392/296 363/393/297 364/393/297 362/392/296
f 363/393/297 365/394/298 366/394/298 364/393/297
f 365/394/298 367/395/299 368/396/299 366/394/298
f 367/395/299 369/397/300 370/397/300 368/396/299
f 369/397/300 371/398/301 372/399/301 370/397/300
f 371/398/301 373/400/302 374/400/302 372/399/301
f 373/400/302 375/401/303 376/401/303 374/400/302
f 375/401/303 377/402/304 378/402/304 376/401/303
f 377/402/304 379/403/305 380/403/305 378/402/304
f 379/403/305 381/404/306 382/404/306 380/403/305
f 381/404/306 383/405/307 384/405/307 382/404/306
f 383/405/307 385/406/308 386/406/308 384/405/307
f 385/406/308 387/407/309 388/408/309 386/406/308
f 387/407/309 389/409/310 390/409/310 388/408/309
f 389/409/310 391/410/311 392/411/311 390/409/310
f 391/410/311 393/412/312 394/413/312 392/411/311
f 393/412/312 395/414/313 396/414/313 394/413/312
f 395/414/313 397/415/314 398/415/314 396/414/313
f 397/415/314 399/416/315 400/417/315 398/415/314
f 399/416/315 401/418/316 402/418/316 400/417/315
f 401/418/316 403/419/317 404/419/317 402/418/316
f 403/419/317 405/420/318 406/421/318 404/419/317
f 405/420/318 407/422/319 408/423/319 406/421/318
f 407/422/319 409/424/320 410/425/320 408/423/319
f 352/385/321 354/387/321 356/389/321 358/390/321 360/391/321 362/392/321 364/393/321 366/394/321 368/396/321 370/397/321 372/399/321 374/400/321 376/401/321 378/402/321 380/403/321 382/404/321 384/405/321 386/406/321 388/408/321 390/409/321 392/411/321 394/413/321 396/414/321 398/415/321 400/417/321 402/418/321 404/419/321 406/421/321 408/423/321 410/425/321 412/426/321 350/383/321
f 409/424/320 411/427/322 412/426/322 410/425/320
f 411/427/322 349/383/290 350/383/290 412/426/322
f 349/383/323 411/427/323 409/424/323 407/422/323 405/420/323 403/419/323 401/418/323 399/416/323 397/415/323 395/414/323 393/412/323 391/410/323 389/409/323 387/407/323 385/406/323 383/405/323 381/404/323 379/403/323 377/402/323 375/401/323 373/400/323 371/398/323 369/397/323 367/395/323 365/394/323 363/393/323 361/392/323 359/391/323 357/390/323 355/388/323 353/386/323 351/384/323
f 413/383/290 414/383/290 416/385/291 415/384/291
f 415/384/291 416/385/291 418/387/292 417/386/292
f 417/386/292 418/387/292 420/389/293 419/388/293
f 419/388/293 420/389/293 422/390/294 421/390/294
f 421/390/294 422/390/294 424/391/295 423/391/295
f 423/391/295 424/391/295 426/392/296 425/392/296
f 425/392/296 426/392/296 428/393/297 427/393/297
f 427/393/297 428/393/297 430/394/298 429/394/298
f 429/394/298 430/394/298 432/396/299 431/395/299
f 431/395/299 432/396/299 434/397/300 433/397/300
f 433/397/300 434/397/300 436/399/301 435/398/301
f 435/398/301 436/399/301 438/400/302 437/400/302
f 437/400/302 438/400/302 440/401/303 439/401/303
f 439/401/303 440/401/303 442/402/304 441/402/304
f 441/402/304 442/402/304 444/403/305 443/403/305
f 443/403/305 444/403/305 446/404/306 445/404/306
f 445/404/306 446/404/306 448/405/307 447/405/307
f 447/405/307 448/405/307 450/406/308 449/406/308
f 449/406/308 450/406/308 452/408/309 451/407/309
f 451/407/309 452/408/309 454/409/310 453/409/310
f 453/409/310 454/409/310 456/411/311 455/410/311
f 455/410/311 456/411/311 458/413/312 457/412/312
f 457/412/312 458/413/312 460/414/313 459/414/313
f 459/414/313 460/414/313 462/415/314 461/415/314
f 461/415/314 462/415/314 464/417/315 463/416/315
f 463/416/315 464/417/315 466/418/316 465/418/316
f 465/418/316 466/418/316 468/419/317 467/419/317
f 467/419/317 468/419/317 470/421/318 469/420/318
f 469/420/318 470/421/318 472/423/319 471/422/319
f 471/422/319 472/423/319 474/425/320 473/424/320
f 416/385/323 414/383/323 476/426/323 474/425/323 472/423/323 470/421/323 468/419/323 466/418/323 464/417/323 462/415/323 460/414/323 458/413/323 456/411/323 454/409/323 452/408/323 450/406/323 448/405/323 446/404/323 444/403/323 442/402/323 440/401/323 438/400/323 436/399/323 434/397/323 432/396/323 430/394/323 428/393/323 426/392/323 424/391/323 422/390/323 420/389/323 418/387/323
f 473/424/320 474/425/320 476/426/322 475/427/322
f 475/427/322 476/426/322 414/383/290 413/383/290
f 413/383/321 415/384/321 417/386/321 419/388/321 421/390/321 423/391/321 425/392/321 427/393/321 429/394/321 431/395/321 433/397/321 435/398/321 437/400/321 439/401/321 441/402/321 443/403/321 445/404/321 447/405/321 449/406/321 451/407/321 453/409/321 455/410/321 457/412/321 459/414/321 461/415/321 463/416/321 465/418/321 467/419/321 469/420/321 471/422/321 473/424/321 475/427/321
o Plane.003
v -0.416302 -0.036578 1.489580
v -0.445408 -0.036465 1.489473
v -0.416593 -0.026582 1.489580
v -0.445099 -0.026470 1.489475
v -0.416268 -0.031575 1.484584
v -0.445431 -0.031460 1.484477
v -0.416627 -0.031585 1.494577
v -0.445076 -0.031474 1.494471
v -0.416627 -0.031585 1.494577
v -0.445076 -0.031474 1.494471
v -0.416268 -0.031575 1.484584
v -0.445431 -0.031460 1.484477
v -0.416593 -0.026582 1.489580
v -0.445099 -0.026470 1.489475
v -0.416302 -0.036578 1.489580
v -0.445408 -0.036465 1.489473
v -0.445408 -0.036465 1.489473
v -0.473928 -0.035459 1.492021
v -0.445099 -0.026470 1.489475
v -0.473912 -0.025459 1.492065
v -0.445431 -0.031460 1.484477
v -0.474628 -0.030436 1.487093
v -0.445076 -0.031474 1.494471
v -0.473213 -0.030482 1.496992
v -0.445076 -0.031474 1.494471
v -0.473213 -0.030482 1.496992
v -0.445431 -0.031460 1.484477
v -0.474628 -0.030436 1.487093
v -0.445099 -0.026470 1.489475
v -0.473912 -0.025459 1.492065
v -0.445408 -0.036465 1.489473
v -0.473928 -0.035459 1.492021
v -0.473928 -0.035459 1.492021
v -0.501014 -0.038117 1.496893
v -0.473912 -0.025459 1.492065
v -0.503128 -0.028353 1.497322
v -0.474628 -0.030436 1.487093
v -0.503022 -0.033225 1.492199
v -0.473213 -0.030482 1.496992
v -0.501120 -0.033245 1.502016
v -0.473213 -0.030482 1.496992
v -0.501120 -0.033245 1.502016
v -0.474628 -0.030436 1.487093
v -0.503022 -0.033225 1.492199
v -0.473912 -0.025459 1.492065
v -0.503128 -0.028353 1.497322
v -0.473928 -0.035459 1.492021
v -0.501014 -0.038117 1.496893
v -0.501014 -0.038117 1.496893
v -0.526980 -0.046917 1.501608
v -0.503128 -0.028353 1.497322
v -0.530862 -0.037732 1.502358
v -0.503022 -0.033225 1.492199
v -0.529736 -0.042266 1.497050
v -0.501120 -0.033245 1.502016
v -0.528106 -0.042383 1.506916
v -0.501120 -0.033245 1.502016
v -0.528106 -0.042383 1.506916
v -0.503022 -0.033225 1.492199
v -0.529736 -0.042266 1.497050
v -0.503128 -0.028353 1.497322
v -0.530862 -0.037732 1.502358
v -0.501014 -0.038117 1.496893
v -0.526980 -0.046917 1.501608
v -0.526980 -0.046917 1.501608
v -0.552210 -0.059556 1.505083
v -0.530862 -0.037732 1.502358
v -0.556759 -0.050691 1.505929
v -0.529736 -0.042266 1.497050
v -0.555149 -0.054991 1.500552
v -0.528106 -0.042383 1.506916
v -0.553821 -0.055255 1.510460
v -0.528106 -0.042383 1.506916
v -0.553821 -0.055255 1.510460
v -0.529736 -0.042266 1.497050
v -0.555149 -0.054991 1.500552
v -0.530862 -0.037732 1.502358
v -0.556759 -0.050691 1.505929
v -0.526980 -0.046917 1.501608
v -0.552210 -0.059556 1.505083
v -0.552210 -0.059556 1.505083
v -0.577893 -0.072811 1.507787
v -0.556759 -0.050691 1.505929
v -0.582049 -0.063751 1.508594
v -0.555149 -0.054991 1.500552
v -0.580512 -0.068087 1.503223
v -0.553821 -0.055255 1.510460
v -0.579430 -0.068475 1.513157
v -0.553821 -0.055255 1.510460
v -0.579430 -0.068475 1.513157
v -0.555149 -0.054991 1.500552
v -0.580512 -0.068087 1.503223
v -0.556759 -0.050691 1.505929
v -0.582049 -0.063751 1.508594
v -0.552210 -0.059556 1.505083
v -0.577893 -0.072811 1.507787
v -0.577893 -0.072811 1.507787
v -0.605599 -0.083346 1.509690
v -0.582049 -0.063751 1.508594
v -0.607965 -0.073655 1.510387
v -0.580512 -0.068087 1.503223
v -0.607025 -0.078202 1.505054
v -0.579430 -0.068475 1.513157
v -0.606538 -0.078800 1.515024
v -0.579430 -0.068475 1.513157
v -0.606538 -0.078800 1.515024
v -0.580512 -0.068087 1.503223
v -0.607025 -0.078202 1.505054
v -0.582049 -0.063751 1.508594
v -0.607965 -0.073655 1.510387
v -0.577893 -0.072811 1.507787
v -0.605599 -0.083346 1.509690
v -0.605599 -0.083346 1.509690
v -0.636318 -0.083916 1.508876
v -0.607965 -0.073655 1.510387
v -0.634067 -0.074208 1.509714
v -0.607025 -0.078202 1.505054
v -0.634638 -0.078763 1.504335
v -0.606538 -0.078800 1.515024
v -0.635747 -0.079362 1.514255
v -0.606538 -0.078800 1.515024
v -0.635747 -0.079362 1.514255
v -0.607025 -0.078202 1.505054
v -0.634638 -0.078763 1.504335
v -0.607965 -0.073655 1.510387
v -0.634067 -0.074208 1.509714
v -0.605599 -0.083346 1.509690
v -0.636318 -0.083916 1.508876
v -0.636318 -0.083916 1.508876
v -0.663685 -0.075039 1.505470
v -0.634067 -0.074208 1.509714
v -0.661099 -0.065418 1.506340
v -0.634638 -0.078763 1.504335
v -0.661737 -0.069957 1.500955
v -0.635747 -0.079362 1.514255
v -0.663047 -0.070500 1.510854
v -0.635747 -0.079362 1.514255
v -0.663047 -0.070500 1.510854
v -0.634638 -0.078763 1.504335
v -0.661737 -0.069957 1.500955
v -0.634067 -0.074208 1.509714
v -0.661099 -0.065418 1.506340
v -0.636318 -0.083916 1.508876
v -0.663685 -0.075039 1.505470
v -0.663685 -0.075039 1.505470
v -0.691119 -0.069601 1.502795
v -0.661099 -0.065418 1.506340
v -0.689896 -0.059703 1.503530
v -0.661737 -0.069957 1.500955
v -0.690067 -0.064338 1.498192
v -0.663047 -0.070500 1.510854
v -0.690948 -0.064967 1.508133
v -0.663047 -0.070500 1.510854
v -0.690948 -0.064967 1.508133
v -0.661737 -0.069957 1.500955
v -0.690067 -0.064338 1.498192
v -0.661099 -0.065418 1.506340
v -0.689896 -0.059703 1.503530
v -0.663685 -0.075039 1.505470
v -0.691119 -0.069601 1.502795
vn -0.0037 -0.0001 1.0000
vn -0.0039 -1.0000 -0.0012
vn 0.0039 1.0000 0.0012
vn 0.0037 0.0001 -1.0000
vn 0.0891 -0.0038 0.9960
vn -0.0351 -0.9994 0.0001
vn 0.0351 0.9994 -0.0001
vn -0.0891 0.0038 -0.9960
vn 0.1775 -0.0047 0.9841
vn 0.0947 -0.9953 -0.0192
vn -0.0947 0.9953 0.0192
vn -0.1775 0.0047 -0.9841
vn 0.1801 -0.0042 0.9836
vn 0.3099 -0.9487 -0.0622
vn -0.3099 0.9487 0.0622
vn -0.1801 0.0042 -0.9836
vn 0.1460 -0.0193 0.9891
vn 0.4370 -0.8956 -0.0826
vn -0.4370 0.8956 0.0826
vn -0.1460 0.0193 -0.9891
vn 0.1213 -0.0326 0.9921
vn 0.4501 -0.8890 -0.0839
vn -0.4501 0.8890 0.0839
vn -0.1213 0.0326 -0.9921
vn 0.0874 -0.0494 0.9949
vn 0.3507 -0.9336 -0.0739
vn -0.3507 0.9336 0.0739
vn -0.0874 0.0494 -0.9949
vn -0.0245 -0.0790 0.9966
vn 0.0213 -0.9980 -0.0594
vn -0.0213 0.9980 0.0594
vn 0.0245 0.0790 -0.9966
vn -0.1402 -0.0522 0.9887
vn -0.2973 -0.9504 -0.0910
vn 0.2973 0.9504 0.0910
vn 0.1402 0.0522 -0.9887
vn -0.1087 -0.0603 0.9922
vn -0.1866 -0.9793 -0.0784
vn 0.1866 0.9793 0.0784
vn 0.1087 0.0603 -0.9922
vt 0.529298 0.500826
vt 0.502994 0.500826
vt 0.502994 0.561899
vt 0.529298 0.561899
s 0
usemtl atlas
f 477/428/324 479/429/324 480/430/324 478/431/324
f 481/428/325 483/429/325 484/430/325 482/431/325
f 485/428/326 487/429/326 488/430/326 486/431/326
f 489/428/327 491/429/327 492/430/327 490/431/327
f 493/428/328 495/429/328 496/430/328 494/431/328
f 497/428/329 499/429/329 500/430/329 498/431/329
f 501/428/330 503/429/330 504/430/330 502/431/330
f 505/428/331 507/429/331 508/430/331 506/431/331
f 509/428/332 511/429/332 512/430/332 510/431/332
f 513/428/333 515/429/333 516/430/333 514/431/333
f 517/428/334 519/429/334 520/430/334 518/431/334
f 521/428/335 523/429/335 524/430/335 522/431/335
f 525/428/336 527/429/336 528/430/336 526/431/336
f 529/428/337 531/429/337 532/430/337 530/431/337
f 533/428/338 535/429/338 536/430/338 534/431/338
f 537/428/339 539/429/339 540/430/339 538/431/339
f 541/428/340 543/429/340 544/430/340 542/431/340
f 545/428/341 547/429/341 548/430/341 546/431/341
f 549/428/342 551/429/342 552/430/342 550/431/342
f 553/428/343 555/429/343 556/430/343 554/431/343
f 557/428/344 559/429/344 560/430/344 558/431/344
f 561/428/345 563/429/345 564/430/345 562/431/345
f 565/428/346 567/429/346 568/430/346 566/431/346
f 569/428/347 571/429/347 572/430/347 570/431/347
f 573/428/348 575/429/348 576/430/348 574/431/348
f 577/428/349 579/429/349 580/430/349 578/431/349
f 581/428/350 583/429/350 584/430/350 582/431/350
f 585/428/351 587/429/351 588/430/351 586/431/351
f 589/428/352 591/429/352 592/430/352 590/431/352
f 593/428/353 595/429/353 596/430/353 594/431/353
f 597/428/354 599/429/354 600/430/354 598/431/354
f 601/428/355 603/429/355 604/430/355 602/431/355
f 605/428/356 607/429/356 608/430/356 606/431/356
f 609/428/357 611/429/357 612/430/357 610/431/357
f 613/428/358 615/429/358 616/430/358 614/431/358
f 617/428/359 619/429/359 620/430/359 618/431/359
f 621/428/360 623/429/360 624/430/360 622/431/360
f 625/428/361 627/429/361 628/430/361 626/431/361
f 629/428/362 631/429/362 632/430/362 630/431/362
f 633/428/363 635/429/363 636/430/363 634/431/363
