# Blender 4.5.3 LTS
# www.blender.org
mtllib left_piston_housing.mtl
o Cylinder.114
v -0.180853 -0.108762 0.476946
v -0.185033 -0.109173 0.476946
v -0.189053 -0.110393 0.476946
v -0.192757 -0.112372 0.476946
v -0.196004 -0.115037 0.476946
v -0.198668 -0.118284 0.476946
v -0.200648 -0.121988 0.476946
v -0.201867 -0.126007 0.476946
v -0.202279 -0.130187 0.476946
v -0.201867 -0.134367 0.476946
v -0.200648 -0.138386 0.476946
v -0.198668 -0.142091 0.476946
v -0.196004 -0.145337 0.476946
v -0.192757 -0.148002 0.476946
v -0.189053 -0.149982 0.476946
v -0.185033 -0.151201 0.476946
v -0.180853 -0.151613 0.476946
v -0.176673 -0.151201 0.476946
v -0.172654 -0.149982 0.476946
v -0.168950 -0.148002 0.476946
v -0.165703 -0.145337 0.476946
v -0.163039 -0.142091 0.476946
v -0.161059 -0.138386 0.476946
v -0.159840 -0.134367 0.476946
v -0.159428 -0.130187 0.476946
v -0.159840 -0.126007 0.476946
v -0.161059 -0.121988 0.476946
v -0.163039 -0.118284 0.476946
v -0.165703 -0.115037 0.476946
v -0.168950 -0.112372 0.476946
v -0.172654 -0.110393 0.476946
v -0.176673 -0.109173 0.476946
v -0.180853 -0.108762 0.338776
v -0.185033 -0.109173 0.338776
v -0.189053 -0.110393 0.338776
v -0.192757 -0.112372 0.338776
v -0.196004 -0.115037 0.338776
v -0.198668 -0.118284 0.338776
v -0.200648 -0.121988 0.338776
v -0.201867 -0.126007 0.338776
v -0.202279 -0.130187 0.338776
v -0.201867 -0.134367 0.338776
v -0.200648 -0.138386 0.338776
v -0.198668 -0.142091 0.338776
v -0.196004 -0.145337 0.338776
v -0.192757 -0.148002 0.338776
v -0.189053 -0.149982 0.338776
v -0.185033 -0.151201 0.338776
v -0.180853 -0.151613 0.338776
v -0.176674 -0.151201 0.338776
v -0.172654 -0.149982 0.338776
v -0.168950 -0.148002 0.338776
v -0.165703 -0.145337 0.338776
v -0.163039 -0.142091 0.338776
v -0.161059 -0.138386 0.338776
v -0.159840 -0.134367 0.338776
v -0.159428 -0.130187 0.338776
v -0.159840 -0.126007 0.338776
v -0.161059 -0.121988 0.338776
v -0.163039 -0.118284 0.338776
v -0.165703 -0.115037 0.338776
v -0.168950 -0.112372 0.338776
v -0.172654 -0.110393 0.338776
v -0.176674 -0.109173 0.338776
vn -0.5556 -0.8315 -0.0000
vn -0.3827 -0.9239 -0.0000
vn -0.0000 -0.0000 1.0000
vn -0.0000 -0.0000 -1.0000
vn -0.0000 1.0000 -0.0000
vn -0.1951 0.9808 -0.0000
vn 0.8315 0.5556 -0.0000
vn 0.7071 0.7071 -0.0000
vn -0.1951 -0.9808 -0.0000
vn -0.3827 0.9239 -0.0000
vn 0.5556 0.8315 -0.0000
vn -0.0000 -1.0000 -0.0000
vn -0.5556 0.8315 -0.0000
vn 0.3827 0.9239 -0.0000
vn 0.1951 -0.9808 -0.0000
vn -0.7071 0.7071 -0.0000
vn 0.1951 0.9808 -0.0000
vn 0.3827 -0.9239 -0.0000
vn -0.8315 0.5556 -0.0000
vn 0.5556 -0.8315 -0.0000
vn -0.9239 0.3827 -0.0000
vn 0.7071 -0.7071 -0.0000
vn -0.9808 0.1951 -0.0000
vn 0.8315 -0.5556 -0.0000
vn -1.0000 -0.0000 -0.0000
vn 0.9239 -0.3827 -0.0000
vn -0.9808 -0.1951 -0.0000
vn 0.9808 -0.1951 -0.0000
vn -0.9239 -0.3827 -0.0000
vn 1.0000 -0.0000 -0.0000
vn -0.8315 -0.5556 -0.0000
vn 0.9808 0.1951 -0.0000
vn -0.7071 -0.7071 -0.0000
vn 0.9239 0.3827 -0.0000
vt 0.444554 0.138797
vt 0.403189 0.138797
vt 0.403189 0.137689
vt 0.444554 0.137689
vt 0.444554 0.135234
vt 0.444554 0.136485
vt 0.444554 0.139769
vt 0.444554 0.140567
vt 0.444554 0.141160
vt 0.444554 0.141525
vt 0.444554 0.141648
vt 0.444554 0.133983
vt 0.444554 0.132779
vt 0.444554 0.131670
vt 0.444554 0.130698
vt 0.444554 0.129901
vt 0.444554 0.129308
vt 0.444554 0.128943
vt 0.444554 0.128820
vt 0.403189 0.135234
vt 0.403189 0.133983
vt 0.403189 0.132779
vt 0.403189 0.131670
vt 0.403189 0.130698
vt 0.403189 0.129901
vt 0.403189 0.129308
vt 0.403189 0.128943
vt 0.403189 0.128820
vt 0.403189 0.136485
vt 0.403189 0.139769
vt 0.403189 0.140567
vt 0.403189 0.141160
vt 0.403189 0.141525
vt 0.403189 0.141648
s 1
usemtl atlas
f 14/1/1 46/2/1 47/3/2 15/4/2
f 1/5/3 2/6/3 3/4/3 4/1/3 5/7/3 6/8/3 7/9/3 8/10/3 9/11/3 10/10/3 11/9/3 12/8/3 13/7/3 14/1/3 15/4/3 16/6/3 17/5/3 18/12/3 19/13/3 20/14/3 21/15/3 22/16/3 23/17/3 24/18/3 25/19/3 26/18/3 27/17/3 28/16/3 29/15/3 30/14/3 31/13/3 32/12/3
f 33/20/4 64/21/4 63/22/4 62/23/4 61/24/4 60/25/4 59/26/4 58/27/4 57/28/4 56/27/4 55/26/4 54/25/4 53/24/4 52/23/4 51/22/4 50/21/4 49/20/4 48/29/4 47/3/4 46/2/4 45/30/4 44/31/4 43/32/4 42/33/4 41/34/4 40/33/4 39/32/4 38/31/4 37/30/4 36/2/4 35/3/4 34/29/4
f 1/5/5 33/20/5 34/29/6 2/6/6
f 28/16/7 60/25/7 61/24/8 29/15/8
f 15/4/2 47/3/2 48/29/9 16/6/9
f 2/6/6 34/29/6 35/3/10 3/4/10
f 29/15/8 61/24/8 62/23/11 30/14/11
f 16/6/9 48/29/9 49/20/12 17/5/12
f 3/4/10 35/3/10 36/2/13 4/1/13
f 30/14/11 62/23/11 63/22/14 31/13/14
f 17/5/12 49/20/12 50/21/15 18/12/15
f 4/1/13 36/2/13 37/30/16 5/7/16
f 31/13/14 63/22/14 64/21/17 32/12/17
f 18/12/15 50/21/15 51/22/18 19/13/18
f 5/7/16 37/30/16 38/31/19 6/8/19
f 32/12/17 64/21/17 33/20/5 1/5/5
f 19/13/18 51/22/18 52/23/20 20/14/20
f 6/8/19 38/31/19 39/32/21 7/9/21
f 20/14/20 52/23/20 53/24/22 21/15/22
f 7/9/21 39/32/21 40/33/23 8/10/23
f 21/15/22 53/24/22 54/25/24 22/16/24
f 8/10/23 40/33/23 41/34/25 9/11/25
f 22/16/24 54/25/24 55/26/26 23/17/26
f 9/11/25 41/34/25 42/33/27 10/10/27
f 23/17/26 55/26/26 56/27/28 24/18/28
f 10/10/27 42/33/27 43/32/29 11/9/29
f 24/18/28 56/27/28 57/28/30 25/19/30
f 11/9/29 43/32/29 44/31/31 12/8/31
f 25/19/30 57/28/30 58/27/32 26/18/32
f 12/8/31 44/31/31 45/30/33 13/7/33
f 26/18/32 58/27/32 59/26/34 27/17/34
f 13/7/33 45/30/33 46/2/1 14/1/1
f 27/17/34 59/26/34 60/25/7 28/16/7
