# Blender 4.5.3 LTS
# www.blender.org
mtllib left_lower_leg.mtl
o Cube.002
v -0.212412 0.009645 0.031093
v -0.212412 -0.337445 0.510584
v -0.212412 0.124280 0.031093
v -0.212412 -0.222810 0.510584
v -0.225593 0.009645 0.031093
v -0.225593 -0.337445 0.510584
v -0.225593 0.124280 0.031093
v -0.225593 -0.222810 0.510584
v -0.135330 0.009645 0.031093
v -0.135330 -0.337445 0.510584
v -0.135330 0.124280 0.031093
v -0.135330 -0.222810 0.510584
v -0.148510 0.009645 0.031093
v -0.148510 -0.337445 0.510584
v -0.148510 0.124280 0.031093
v -0.148510 -0.222810 0.510584
vn 1.0000 -0.0000 -0.0000
vn -0.0000 0.8100 0.5864
vn -1.0000 -0.0000 -0.0000
vn -0.0000 -0.8100 -0.5864
vn -0.0000 -0.0000 -1.0000
vn -0.0000 -0.0000 1.0000
vt 0.612810 0.597631
vt 0.667818 0.558466
vt 0.665085 0.907133
vt 0.610077 0.946298
s 0
usemtl atlas
f 1/1/1 3/2/1 4/3/1 2/4/1
f 3/2/2 7/2/2 8/3/2 4/3/2
f 7/2/3 5/1/3 6/4/3 8/3/3
f 5/1/4 1/1/4 2/4/4 6/4/4
f 3/2/5 1/1/5 5/1/5 7/2/5
f 8/3/6 6/4/6 2/4/6 4/3/6
f 9/1/1 11/2/1 12/3/1 10/4/1
f 11/2/2 15/2/2 16/3/2 12/3/2
f 15/2/3 13/1/3 14/4/3 16/3/3
f 13/1/4 9/1/4 10/4/4 14/4/4
f 11/2/5 9/1/5 13/1/5 15/2/5
f 16/3/6 14/4/6 10/4/6 12/3/6
o Cylinder.111
v -0.180461 0.026931 0.100489
v -0.180461 -0.271716 0.511708
v -0.184548 0.026523 0.100193
v -0.184548 -0.272123 0.511413
v -0.188478 0.025318 0.099317
v -0.188478 -0.273329 0.510537
v -0.192100 0.023360 0.097895
v -0.192100 -0.275286 0.509115
v -0.195274 0.020725 0.095982
v -0.195274 -0.277921 0.507201
v -0.197879 0.017514 0.093650
v -0.197879 -0.281132 0.504870
v -0.199815 0.013851 0.090990
v -0.199815 -0.284795 0.502209
v -0.201007 0.009876 0.088103
v -0.201007 -0.288770 0.499323
v -0.201410 0.005743 0.085101
v -0.201410 -0.292903 0.496321
v -0.201007 0.001609 0.082099
v -0.201007 -0.297037 0.493319
v -0.199815 -0.002365 0.079212
v -0.199815 -0.301012 0.490432
v -0.197879 -0.006028 0.076552
v -0.197879 -0.304675 0.487772
v -0.195274 -0.009239 0.074220
v -0.195274 -0.307885 0.485440
v -0.192100 -0.011874 0.072307
v -0.192100 -0.310520 0.483527
v -0.188478 -0.013832 0.070885
v -0.188478 -0.312478 0.482105
v -0.184548 -0.015038 0.070009
v -0.184548 -0.313684 0.481229
v -0.180461 -0.015445 0.069713
v -0.180461 -0.314091 0.480933
v -0.176374 -0.015038 0.070009
v -0.176374 -0.313684 0.481229
v -0.172444 -0.013832 0.070885
v -0.172445 -0.312478 0.482105
v -0.168823 -0.011874 0.072307
v -0.168823 -0.310520 0.483527
v -0.165648 -0.009239 0.074220
v -0.165648 -0.307885 0.485440
v -0.163043 -0.006028 0.076552
v -0.163043 -0.304675 0.487772
v -0.161107 -0.002365 0.079212
v -0.161107 -0.301012 0.490432
v -0.159915 0.001609 0.082099
v -0.159915 -0.297037 0.493319
v -0.159513 0.005743 0.085101
v -0.159513 -0.292903 0.496321
v -0.159915 0.009876 0.088103
v -0.159915 -0.288770 0.499323
v -0.161107 0.013851 0.090990
v -0.161107 -0.284795 0.502209
v -0.163043 0.017514 0.093650
v -0.163043 -0.281132 0.504870
v -0.165648 0.020725 0.095981
v -0.165648 -0.277921 0.507201
v -0.168823 0.023360 0.097895
v -0.168823 -0.275286 0.509115
v -0.172444 0.025318 0.099317
v -0.172445 -0.273329 0.510537
v -0.176374 0.026523 0.100193
v -0.176374 -0.272123 0.511413
vn -0.0000 0.8091 0.5876
vn -0.2401 0.7855 0.5704
vn -0.4580 0.7193 0.5224
vn -0.6393 0.6222 0.4519
vn -0.7796 0.5068 0.3680
vn -0.8811 0.3826 0.2779
vn -0.9489 0.2554 0.1854
vn -0.9875 0.1276 0.0927
vn -1.0000 -0.0000 -0.0000
vn -0.9875 -0.1276 -0.0927
vn -0.9489 -0.2554 -0.1854
vn -0.8811 -0.3826 -0.2779
vn -0.7796 -0.5068 -0.3680
vn -0.6393 -0.6222 -0.4519
vn -0.4580 -0.7193 -0.5224
vn -0.2401 -0.7855 -0.5704
vn -0.0000 -0.8091 -0.5876
vn 0.2401 -0.7855 -0.5704
vn 0.4580 -0.7193 -0.5224
vn 0.6393 -0.6222 -0.4519
vn 0.7796 -0.5068 -0.3680
vn 0.8811 -0.3826 -0.2779
vn 0.9489 -0.2554 -0.1854
vn 0.9875 -0.1276 -0.0927
vn 1.0000 -0.0000 -0.0000
vn 0.9875 0.1276 0.0927
vn 0.9489 0.2554 0.1854
vn 0.8811 0.3826 0.2779
vn 0.7796 0.5068 0.3680
vn 0.6393 0.6222 0.4519
vn 0.4580 0.7193 0.5224
vn -0.0000 -0.5876 0.8091
vn 0.2401 0.7855 0.5704
vn -0.0000 0.5876 -0.8091
vt 0.394477 0.205370
vt 0.394314 0.205370
vt 0.393836 0.369312
vt 0.393998 0.369313
vt 0.393833 0.205368
vt 0.393355 0.369311
vt 0.393053 0.205366
vt 0.392575 0.369309
vt 0.392002 0.205363
vt 0.391524 0.369305
vt 0.390722 0.205359
vt 0.390244 0.369302
vt 0.389262 0.205355
vt 0.388784 0.369298
vt 0.387677 0.205350
vt 0.387199 0.369293
vt 0.386029 0.205345
vt 0.385551 0.369288
vt 0.384382 0.205341
vt 0.383903 0.369283
vt 0.382797 0.205336
vt 0.382319 0.369279
vt 0.381337 0.205332
vt 0.380858 0.369274
vt 0.380057 0.205328
vt 0.379578 0.369271
vt 0.379006 0.205325
vt 0.378528 0.369268
vt 0.378225 0.205323
vt 0.377747 0.369265
vt 0.377745 0.205321
vt 0.377267 0.369264
vt 0.377582 0.205321
vt 0.377104 0.369263
vt 0.380057 0.205328
vt 0.392002 0.205363
vt 0.393833 0.205368
s 1
usemtl atlas
f 17/5/7 19/6/8 20/7/8 18/8/7
f 19/6/8 21/9/9 22/10/9 20/7/8
f 21/9/9 23/11/10 24/12/10 22/10/9
f 23/11/10 25/13/11 26/14/11 24/12/10
f 25/13/11 27/15/12 28/16/12 26/14/11
f 27/15/12 29/17/13 30/18/13 28/16/12
f 29/17/13 31/19/14 32/20/14 30/18/13
f 31/19/14 33/21/15 34/22/15 32/20/14
f 33/21/15 35/23/16 36/24/16 34/22/15
f 35/23/16 37/25/17 38/26/17 36/24/16
f 37/25/17 39/27/18 40/28/18 38/26/17
f 39/27/18 41/29/19 42/30/19 40/28/18
f 41/29/19 43/31/20 44/32/20 42/30/19
f 43/31/20 45/33/21 46/34/21 44/32/20
f 45/33/21 47/35/22 48/36/22 46/34/21
f 47/35/22 49/37/23 50/38/23 48/36/22
f 49/37/23 51/35/24 52/36/24 50/38/23
f 51/35/24 53/33/25 54/34/25 52/36/24
f 53/33/25 55/31/26 56/32/26 54/34/25
f 55/31/26 57/39/27 58/30/27 56/32/26
f 57/39/27 59/27/28 60/28/28 58/30/27
f 59/27/28 61/25/29 62/26/29 60/28/28
f 61/25/29 63/23/30 64/24/30 62/26/29
f 63/23/30 65/21/31 66/22/31 64/24/30
f 65/21/31 67/19/32 68/20/32 66/22/31
f 67/19/32 69/17/33 70/18/33 68/20/32
f 69/17/33 71/15/34 72/16/34 70/18/33
f 71/15/34 73/40/35 74/14/35 72/16/34
f 73/40/35 75/11/36 76/12/36 74/14/35
f 75/11/36 77/41/37 78/10/37 76/12/36
f 20/7/38 22/10/38 24/12/38 26/14/38 28/16/38 30/18/38 32/20/38 34/22/38 36/24/38 38/26/38 40/28/38 42/30/38 44/32/38 46/34/38 48/36/38 50/38/38 52/36/38 54/34/38 56/32/38 58/30/38 60/28/38 62/26/38 64/24/38 66/22/38 68/20/38 70/18/38 72/16/38 74/14/38 76/12/38 78/10/38 80/7/38 18/8/38
f 77/41/37 79/6/39 80/7/39 78/10/37
f 79/6/39 17/5/7 18/8/7 80/7/39
f 17/5/40 79/6/40 77/41/40 75/11/40 73/40/40 71/15/40 69/17/40 67/19/40 65/21/40 63/23/40 61/25/40 59/27/40 57/39/40 55/31/40 53/33/40 51/35/40 49/37/40 47/35/40 45/33/40 43/31/40 41/29/40 39/27/40 37/25/40 35/23/40 33/21/40 31/19/40 29/17/40 27/15/40 25/13/40 23/11/40 21/9/40 19/6/40
o Cylinder.112
v -0.159118 -0.204287 0.530615
v -0.202589 -0.204287 0.530615
v -0.159118 -0.205630 0.516982
v -0.202589 -0.205630 0.516982
v -0.159118 -0.209606 0.503873
v -0.202589 -0.209606 0.503873
v -0.159118 -0.216064 0.491791
v -0.202589 -0.216064 0.491791
v -0.159118 -0.224755 0.481202
v -0.202589 -0.224755 0.481202
v -0.159118 -0.235344 0.472511
v -0.202589 -0.235344 0.472511
v -0.159118 -0.247426 0.466053
v -0.202589 -0.247426 0.466053
v -0.159118 -0.260535 0.462077
v -0.202589 -0.260535 0.462077
v -0.159118 -0.274169 0.460734
v -0.202589 -0.274169 0.460734
v -0.159118 -0.287802 0.462077
v -0.202589 -0.287802 0.462077
v -0.159118 -0.300911 0.466053
v -0.202589 -0.300911 0.466053
v -0.159118 -0.312993 0.472511
v -0.202589 -0.312993 0.472511
v -0.159118 -0.323582 0.481202
v -0.202589 -0.323582 0.481202
v -0.159118 -0.332273 0.491791
v -0.202589 -0.332273 0.491791
v -0.159118 -0.338731 0.503873
v -0.202589 -0.338731 0.503873
v -0.159118 -0.342707 0.516982
v -0.202589 -0.342707 0.516982
v -0.159118 -0.344050 0.530615
v -0.202589 -0.344050 0.530615
v -0.159118 -0.342707 0.544249
v -0.202589 -0.342707 0.544249
v -0.159118 -0.338731 0.557358
v -0.202589 -0.338731 0.557358
v -0.159118 -0.332273 0.569440
v -0.202589 -0.332273 0.569440
v -0.159118 -0.323582 0.580029
v -0.202589 -0.323582 0.580029
v -0.159118 -0.312993 0.588720
v -0.202589 -0.312993 0.588720
v -0.159118 -0.300911 0.595178
v -0.202589 -0.300911 0.595178
v -0.159118 -0.287802 0.599154
v -0.202589 -0.287802 0.599154
v -0.159118 -0.274169 0.600497
v -0.202589 -0.274169 0.600497
v -0.159118 -0.260535 0.599154
v -0.202589 -0.260535 0.599154
v -0.159118 -0.247426 0.595178
v -0.202589 -0.247426 0.595178
v -0.159118 -0.235344 0.588720
v -0.202589 -0.235344 0.588720
v -0.159118 -0.224755 0.580029
v -0.202589 -0.224755 0.580029
v -0.159118 -0.216064 0.569440
v -0.202589 -0.216064 0.569440
v -0.159118 -0.209606 0.557358
v -0.202589 -0.209606 0.557358
v -0.159118 -0.205630 0.544249
v -0.202589 -0.205630 0.544249
vn -0.0000 1.0000 -0.0000
vn -0.0000 0.9808 -0.1951
vn -0.0000 0.9239 -0.3827
vn -0.0000 0.8315 -0.5556
vn -0.0000 0.7071 -0.7071
vn -0.0000 0.5556 -0.8315
vn -0.0000 0.3827 -0.9239
vn -0.0000 0.1951 -0.9808
vn -0.0000 -0.0000 -1.0000
vn -0.0000 -0.1951 -0.9808
vn -0.0000 -0.3827 -0.9239
vn -0.0000 -0.5556 -0.8315
vn -0.0000 -0.7071 -0.7071
vn -0.0000 -0.8315 -0.5556
vn -0.0000 -0.9239 -0.3827
vn -0.0000 -0.9808 -0.1951
vn -0.0000 -1.0000 -0.0000
vn -0.0000 -0.9808 0.1951
vn -0.0000 -0.9239 0.3827
vn -0.0000 -0.8315 0.5556
vn -0.0000 -0.7071 0.7071
vn -0.0000 -0.5556 0.8315
vn -0.0000 -0.3827 0.9239
vn -0.0000 -0.1951 0.9808
vn -0.0000 -0.0000 1.0000
vn -0.0000 0.1951 0.9808
vn -0.0000 0.3827 0.9239
vn -0.0000 0.5556 0.8315
vn -0.0000 0.7071 0.7071
vn -0.0000 0.8315 0.5556
vn -0.0000 0.9239 0.3827
vn -1.0000 -0.0000 -0.0000
vn -0.0000 0.9808 0.1951
vn 1.0000 -0.0000 -0.0000
vt 0.426029 0.174705
vt 0.424159 0.167869
vt 0.404154 0.166350
vt 0.405758 0.173532
vt 0.421535 0.162048
vt 0.401863 0.160258
vt 0.418341 0.157478
vt 0.399051 0.155504
vt 0.414778 0.154286
vt 0.395899 0.152214
vt 0.411035 0.152503
vt 0.392579 0.150412
vt 0.407286 0.152080
vt 0.389247 0.150036
vt 0.403673 0.152912
vt 0.386029 0.150969
vt 0.400311 0.154864
vt 0.383029 0.153062
vt 0.397288 0.157785
vt 0.380321 0.156154
vt 0.394666 0.161519
vt 0.377964 0.160079
vt 0.392494 0.165915
vt 0.375997 0.164680
vt 0.390804 0.170829
vt 0.374449 0.169809
vt 0.389618 0.176125
vt 0.373340 0.175325
vt 0.388954 0.181671
vt 0.372687 0.181094
vt 0.388823 0.187338
vt 0.372499 0.186987
vt 0.389233 0.192996
vt 0.372786 0.192871
vt 0.390188 0.198509
vt 0.373554 0.198609
vt 0.391686 0.203734
vt 0.374803 0.204054
vt 0.393715 0.208513
vt 0.376528 0.209044
vt 0.396252 0.212676
vt 0.378712 0.213405
vt 0.399256 0.216042
vt 0.381325 0.216945
vt 0.402662 0.218422
vt 0.384312 0.219465
vt 0.406376 0.219631
vt 0.387597 0.220767
vt 0.410270 0.219505
vt 0.391068 0.220672
vt 0.414181 0.217922
vt 0.394584 0.219044
vt 0.417916 0.214830
vt 0.397970 0.215820
vt 0.421261 0.210274
vt 0.401032 0.211040
vt 0.424004 0.204410
vt 0.403574 0.204867
vt 0.425955 0.197515
vt 0.405418 0.197595
vt 0.426976 0.189968
vt 0.406430 0.189627
vt 0.406542 0.181441
vt 0.426997 0.182211
s 1
usemtl atlas
f 81/42/41 83/43/42 84/44/42 82/45/41
f 83/43/42 85/46/43 86/47/43 84/44/42
f 85/46/43 87/48/44 88/49/44 86/47/43
f 87/48/44 89/50/45 90/51/45 88/49/44
f 89/50/45 91/52/46 92/53/46 90/51/45
f 91/52/46 93/54/47 94/55/47 92/53/46
f 93/54/47 95/56/48 96/57/48 94/55/47
f 95/56/48 97/58/49 98/59/49 96/57/48
f 97/58/49 99/60/50 100/61/50 98/59/49
f 99/60/50 101/62/51 102/63/51 100/61/50
f 101/62/51 103/64/52 104/65/52 102/63/51
f 103/64/52 105/66/53 106/67/53 104/65/52
f 105/66/53 107/68/54 108/69/54 106/67/53
f 107/68/54 109/70/55 110/71/55 108/69/54
f 109/70/55 111/72/56 112/73/56 110/71/55
f 111/72/56 113/74/57 114/75/57 112/73/56
f 113/74/57 115/76/58 116/77/58 114/75/57
f 115/76/58 117/78/59 118/79/59 116/77/58
f 117/78/59 119/80/60 120/81/60 118/79/59
f 119/80/60 121/82/61 122/83/61 120/81/60
f 121/82/61 123/84/62 124/85/62 122/83/61
f 123/84/62 125/86/63 126/87/63 124/85/62
f 125/86/63 127/88/64 128/89/64 126/87/63
f 127/88/64 129/90/65 130/91/65 128/89/64
f 129/90/65 131/92/66 132/93/66 130/91/65
f 131/92/66 133/94/67 134/95/67 132/93/66
f 133/94/67 135/96/68 136/97/68 134/95/67
f 135/96/68 137/98/69 138/99/69 136/97/68
f 137/98/69 139/100/70 140/101/70 138/99/69
f 139/100/70 141/102/71 142/103/71 140/101/70
f 84/44/72 86/47/72 88/49/72 90/51/72 92/53/72 94/55/72 96/57/72 98/59/72 100/61/72 102/63/72 104/65/72 106/67/72 108/69/72 110/71/72 112/73/72 114/75/72 116/77/72 118/79/72 120/81/72 122/83/72 124/85/72 126/87/72 128/89/72 130/91/72 132/93/72 134/95/72 136/97/72 138/99/72 140/101/72 142/103/72 144/104/72 82/45/72
f 141/102/71 143/105/73 144/104/73 142/103/71
f 143/105/73 81/42/41 82/45/41 144/104/73
f 81/42/74 143/105/74 141/102/74 139/100/74 137/98/74 135/96/74 133/94/74 131/92/74 129/90/74 127/88/74 125/86/74 123/84/74 121/82/74 119/80/74 117/78/74 115/76/74 113/74/74 111/72/74 109/70/74 107/68/74 105/66/74 103/64/74 101/62/74 99/60/74 97/58/74 95/56/74 93/54/74 91/52/74 89/50/74 87/48/74 85/46/74 83/43/74
o Cylinder.115
v -0.156126 -0.095246 0.324157
v -0.205581 -0.095246 0.324157
v -0.156126 -0.095918 0.317340
v -0.205581 -0.095918 0.317340
v -0.156126 -0.097906 0.310785
v -0.205581 -0.097906 0.310785
v -0.156126 -0.101135 0.304744
v -0.205581 -0.101135 0.304744
v -0.156126 -0.105480 0.299450
v -0.205581 -0.105480 0.299450
v -0.156126 -0.110775 0.295104
v -0.205581 -0.110775 0.295104
v -0.156126 -0.116816 0.291875
v -0.205581 -0.116816 0.291875
v -0.156126 -0.123371 0.289887
v -0.205581 -0.123371 0.289887
v -0.156126 -0.130187 0.289216
v -0.205581 -0.130187 0.289216
v -0.156126 -0.137004 0.289887
v -0.205581 -0.137004 0.289887
v -0.156126 -0.143558 0.291875
v -0.205581 -0.143558 0.291875
v -0.156126 -0.149599 0.295104
v -0.205581 -0.149599 0.295104
v -0.156126 -0.154894 0.299450
v -0.205581 -0.154894 0.299450
v -0.156126 -0.159239 0.304744
v -0.205581 -0.159239 0.304744
v -0.156126 -0.162468 0.310785
v -0.205581 -0.162468 0.310785
v -0.156126 -0.164457 0.317340
v -0.205581 -0.164457 0.317340
v -0.156126 -0.165128 0.324157
v -0.205581 -0.165128 0.324157
v -0.156126 -0.164457 0.330973
v -0.205581 -0.164457 0.330973
v -0.156126 -0.162468 0.337528
v -0.205581 -0.162468 0.337528
v -0.156126 -0.159239 0.343568
v -0.205581 -0.159239 0.343568
v -0.156126 -0.154894 0.348863
v -0.205581 -0.154894 0.348863
v -0.156126 -0.149599 0.353209
v -0.205581 -0.149599 0.353209
v -0.156126 -0.143558 0.356438
v -0.205581 -0.143558 0.356438
v -0.156126 -0.137004 0.358426
v -0.205581 -0.137004 0.358426
v -0.156126 -0.130187 0.359097
v -0.205581 -0.130187 0.359097
v -0.156126 -0.123371 0.358426
v -0.205581 -0.123371 0.358426
v -0.156126 -0.116816 0.356438
v -0.205581 -0.116816 0.356438
v -0.156126 -0.110775 0.353209
v -0.205581 -0.110775 0.353209
v -0.156126 -0.105480 0.348863
v -0.205581 -0.105480 0.348863
v -0.156126 -0.101135 0.343568
v -0.205581 -0.101135 0.343568
v -0.156126 -0.097906 0.337528
v -0.205581 -0.097906 0.337528
v -0.156126 -0.095918 0.330973
v -0.205581 -0.095918 0.330973
vn -0.0000 1.0000 -0.0000
vn -0.0000 0.9808 -0.1951
vn -0.0000 0.9239 -0.3827
vn -0.0000 0.8315 -0.5556
vn -0.0000 0.7071 -0.7071
vn -0.0000 0.5556 -0.8315
vn -0.0000 0.3827 -0.9239
vn -0.0000 0.1951 -0.9808
vn -0.0000 -0.0000 -1.0000
vn -0.0000 -0.1951 -0.9808
vn -0.0000 -0.3827 -0.9239
vn -0.0000 -0.5556 -0.8315
vn -0.0000 -0.7071 -0.7071
vn -0.0000 -0.8315 -0.5556
vn -0.0000 -0.9239 -0.3827
vn -0.0000 -0.9808 -0.1951
vn -0.0000 -1.0000 -0.0000
vn -0.0000 -0.9808 0.1951
vn -0.0000 -0.9239 0.3827
vn -0.0000 -0.8315 0.5556
vn -0.0000 -0.7071 0.7071
vn -0.0000 -0.5556 0.8315
vn -0.0000 -0.3827 0.9239
vn -0.0000 -0.1951 0.9808
vn -0.0000 -0.0000 1.0000
vn -0.0000 0.1951 0.9808
vn -0.0000 0.3827 0.9239
vn -0.0000 0.5556 0.8315
vn -0.0000 0.7071 0.7071
vn -0.0000 0.8315 0.5556
vn -0.0000 0.9239 0.3827
vn -1.0000 -0.0000 -0.0000
vn -0.0000 0.9808 0.1951
vn 1.0000 -0.0000 -0.0000
vt 0.416204 0.136236
vt 0.416204 0.131468
vt 0.381615 0.131468
vt 0.381615 0.136236
vt 0.416204 0.126884
vt 0.381615 0.126884
vt 0.416204 0.122659
vt 0.381615 0.122659
vt 0.416204 0.118955
vt 0.381615 0.118955
vt 0.416204 0.115916
vt 0.381615 0.115916
vt 0.416204 0.113658
vt 0.381615 0.113658
vt 0.416204 0.112267
vt 0.381615 0.112267
vt 0.416204 0.111798
vt 0.381615 0.111798
vt 0.416204 0.141003
vt 0.381615 0.141003
vt 0.416204 0.145588
vt 0.381615 0.145588
vt 0.416204 0.149813
vt 0.381615 0.149813
vt 0.416204 0.153516
vt 0.381615 0.153516
vt 0.416204 0.156555
vt 0.381615 0.156555
vt 0.416204 0.158814
vt 0.381615 0.158814
vt 0.416204 0.160204
vt 0.381615 0.160204
vt 0.416204 0.160674
vt 0.381615 0.160674
s 1
usemtl atlas
f 145/106/75 147/107/76 148/108/76 146/109/75
f 147/107/76 149/110/77 150/111/77 148/108/76
f 149/110/77 151/112/78 152/113/78 150/111/77
f 151/112/78 153/114/79 154/115/79 152/113/78
f 153/114/79 155/116/80 156/117/80 154/115/79
f 155/116/80 157/118/81 158/119/81 156/117/80
f 157/118/81 159/120/82 160/121/82 158/119/81
f 159/120/82 161/122/83 162/123/83 160/121/82
f 161/122/83 163/120/84 164/121/84 162/123/83
f 163/120/84 165/118/85 166/119/85 164/121/84
f 165/118/85 167/116/86 168/117/86 166/119/85
f 167/116/86 169/114/87 170/115/87 168/117/86
f 169/114/87 171/112/88 172/113/88 170/115/87
f 171/112/88 173/110/89 174/111/89 172/113/88
f 173/110/89 175/107/90 176/108/90 174/111/89
f 175/107/90 177/106/91 178/109/91 176/108/90
f 177/106/91 179/124/92 180/125/92 178/109/91
f 179/124/92 181/126/93 182/127/93 180/125/92
f 181/126/93 183/128/94 184/129/94 182/127/93
f 183/128/94 185/130/95 186/131/95 184/129/94
f 185/130/95 187/132/96 188/133/96 186/131/95
f 187/132/96 189/134/97 190/135/97 188/133/96
f 189/134/97 191/136/98 192/137/98 190/135/97
f 191/136/98 193/138/99 194/139/99 192/137/98
f 193/138/99 195/136/100 196/137/100 194/139/99
f 195/136/100 197/134/101 198/135/101 196/137/100
f 197/134/101 199/132/102 200/133/102 198/135/101
f 199/132/102 201/130/103 202/131/103 200/133/102
f 201/130/103 203/128/104 204/129/104 202/131/103
f 203/128/104 205/126/105 206/127/105 204/129/104
f 148/108/106 150/111/106 152/113/106 154/115/106 156/117/106 158/119/106 160/121/106 162/123/106 164/121/106 166/119/106 168/117/106 170/115/106 172/113/106 174/111/106 176/108/106 178/109/106 180/125/106 182/127/106 184/129/106 186/131/106 188/133/106 190/135/106 192/137/106 194/139/106 196/137/106 198/135/106 200/133/106 202/131/106 204/129/106 206/127/106 208/125/106 146/109/106
f 205/126/105 207/124/107 208/125/107 206/127/105
f 207/124/107 145/106/75 146/109/75 208/125/107
f 145/106/108 207/124/108 205/126/108 203/128/108 201/130/108 199/132/108 197/134/108 195/136/108 193/138/108 191/136/108 189/134/108 187/132/108 185/130/108 183/128/108 181/126/108 179/124/108 177/106/108 175/107/108 173/110/108 171/112/108 169/114/108 167/116/108 165/118/108 163/120/108 161/122/108 159/120/108 157/118/108 155/116/108 153/114/108 151/112/108 149/110/108 147/107/108
