# Blender 4.5.3 LTS
# www.blender.org
mtllib right_lower_leg.mtl
o Cube.008
v 0.212412 0.009645 0.031093
v 0.212412 -0.337445 0.510584
v 0.212412 0.124280 0.031093
v 0.212412 -0.222810 0.510584
v 0.225593 0.009645 0.031093
v 0.225593 -0.337445 0.510584
v 0.225593 0.124280 0.031093
v 0.225593 -0.222810 0.510584
v 0.135330 0.009645 0.031093
v 0.135330 -0.337445 0.510584
v 0.135330 0.124280 0.031093
v 0.135330 -0.222810 0.510584
v 0.148510 0.009645 0.031093
v 0.148510 -0.337445 0.510584
v 0.148510 0.124280 0.031093
v 0.148510 -0.222810 0.510584
vn -1.0000 -0.0000 -0.0000
vn -0.0000 0.8100 0.5864
vn 1.0000 -0.0000 -0.0000
vn -0.0000 -0.8100 -0.5864
vn -0.0000 -0.0000 -1.0000
vn -0.0000 -0.0000 1.0000
vt 0.612810 0.597631
vt 0.610077 0.946298
vt 0.665085 0.907133
vt 0.667818 0.558466
s 0
usemtl atlas
f 1/1/1 2/2/1 4/3/1 3/4/1
f 3/4/2 4/3/2 8/3/2 7/4/2
f 7/4/3 8/3/3 6/2/3 5/1/3
f 5/1/4 6/2/4 2/2/4 1/1/4
f 3/4/5 7/4/5 5/1/5 1/1/5
f 8/3/6 4/3/6 2/2/6 6/2/6
f 9/1/1 10/2/1 12/3/1 11/4/1
f 11/4/2 12/3/2 16/3/2 15/4/2
f 15/4/3 16/3/3 14/2/3 13/1/3
f 13/1/4 14/2/4 10/2/4 9/1/4
f 11/4/5 15/4/5 13/1/5 9/1/5
f 16/3/6 12/3/6 10/2/6 14/2/6
o Cylinder.016
v 0.180461 0.026931 0.100489
v 0.180461 -0.271716 0.511708
v 0.184548 0.026523 0.100193
v 0.184548 -0.272123 0.511413
v 0.188478 0.025318 0.099317
v 0.188478 -0.273329 0.510537
v 0.192100 0.023360 0.097895
v 0.192100 -0.275286 0.509115
v 0.195274 0.020725 0.095982
v 0.195274 -0.277921 0.507201
v 0.197879 0.017514 0.093650
v 0.197879 -0.281132 0.504870
v 0.199815 0.013851 0.090990
v 0.199815 -0.284795 0.502209
v 0.201007 0.009876 0.088103
v 0.201007 -0.288770 0.499323
v 0.201410 0.005743 0.085101
v 0.201410 -0.292903 0.496321
v 0.201007 0.001609 0.082099
v 0.201007 -0.297037 0.493319
v 0.199815 -0.002365 0.079212
v 0.199815 -0.301012 0.490432
v 0.197879 -0.006028 0.076552
v 0.197879 -0.304675 0.487772
v 0.195274 -0.009239 0.074220
v 0.195274 -0.307885 0.485440
v 0.192100 -0.011874 0.072307
v 0.192100 -0.310520 0.483527
v 0.188478 -0.013832 0.070885
v 0.188478 -0.312478 0.482105
v 0.184548 -0.015038 0.070009
v 0.184548 -0.313684 0.481229
v 0.180461 -0.015445 0.069713
v 0.180461 -0.314091 0.480933
v 0.176374 -0.015038 0.070009
v 0.176374 -0.313684 0.481229
v 0.172444 -0.013832 0.070885
v 0.172445 -0.312478 0.482105
v 0.168823 -0.011874 0.072307
v 0.168823 -0.310520 0.483527
v 0.165648 -0.009239 0.074220
v 0.165648 -0.307885 0.485440
v 0.163043 -0.006028 0.076552
v 0.163043 -0.304675 0.487772
v 0.161107 -0.002365 0.079212
v 0.161107 -0.301012 0.490432
v 0.159915 0.001609 0.082099
v 0.159915 -0.297037 0.493319
v 0.159513 0.005743 0.085101
v 0.159513 -0.292903 0.496321
v 0.159915 0.009876 0.088103
v 0.159915 -0.288770 0.499323
v 0.161107 0.013851 0.090990
v 0.161107 -0.284795 0.502209
v 0.163043 0.017514 0.093650
v 0.163043 -0.281132 0.504870
v 0.165648 0.020725 0.095981
v 0.165648 -0.277921 0.507201
v 0.168823 0.023360 0.097895
v 0.168823 -0.275286 0.509115
v 0.172444 0.025318 0.099317
v 0.172445 -0.273329 0.510537
v 0.176374 0.026523 0.100193
v 0.176374 -0.272123 0.511413
vn -0.0000 0.8091 0.5876
vn 0.2401 0.7855 0.5704
vn 0.4580 0.7193 0.5224
vn 0.6393 0.6222 0.4519
vn 0.7796 0.5068 0.3680
vn 0.8811 0.3826 0.2779
vn 0.9489 0.2554 0.1854
vn 0.9875 0.1276 0.0927
vn 1.0000 -0.0000 -0.0000
vn 0.9875 -0.1276 -0.0927
vn 0.9489 -0.2554 -0.1854
vn 0.8811 -0.3826 -0.2779
vn 0.7796 -0.5068 -0.3680
vn 0.6393 -0.6222 -0.4519
vn 0.4580 -0.7193 -0.5224
vn 0.2401 -0.7855 -0.5704
vn -0.0000 -0.8091 -0.5876
vn -0.2401 -0.7855 -0.5704
vn -0.4580 -0.7193 -0.5224
vn -0.6393 -0.6222 -0.4519
vn -0.7796 -0.5068 -0.3680
vn -0.8811 -0.3826 -0.2779
vn -0.9489 -0.2554 -0.1854
vn -0.9875 -0.1276 -0.0927
vn -1.0000 -0.0000 -0.0000
vn -0.9875 0.1276 0.0927
vn -0.9489 0.2554 0.1854
vn -0.8811 0.3826 0.2779
vn -0.7796 0.5068 0.3680
vn -0.6393 0.6222 0.4519
vn -0.4580 0.7193 0.5224
vn -0.0000 -0.5876 0.8091
vn -0.2401 0.7855 0.5704
vn -0.0000 0.5876 -0.8091
vt 0.394477 0.205370
vt 0.393998 0.369313
vt 0.393836 0.369312
vt 0.394314 0.205370
vt 0.393355 0.369311
vt 0.393833 0.205368
vt 0.392575 0.369309
vt 0.393053 0.205366
vt 0.391524 0.369305
vt 0.392002 0.205363
vt 0.390244 0.369302
vt 0.390722 0.205359
vt 0.388784 0.369298
vt 0.389262 0.205355
vt 0.387199 0.369293
vt 0.387677 0.205350
vt 0.385551 0.369288
vt 0.386029 0.205345
vt 0.383903 0.369283
vt 0.384382 0.205341
vt 0.382319 0.369279
vt 0.382797 0.205336
vt 0.380858 0.369274
vt 0.381337 0.205332
vt 0.379578 0.369271
vt 0.380057 0.205328
vt 0.378528 0.369268
vt 0.379006 0.205325
vt 0.377747 0.369265
vt 0.378225 0.205323
vt 0.377267 0.369264
vt 0.377745 0.205321
vt 0.377104 0.369263
vt 0.377582 0.205321
vt 0.380057 0.205328
vt 0.392002 0.205363
vt 0.393833 0.205368
s 1
usemtl atlas
f 17/5/7 18/6/7 20/7/8 19/8/8
f 19/8/8 20/7/8 22/9/9 21/10/9
f 21/10/9 22/9/9 24/11/10 23/12/10
f 23/12/10 24/11/10 26/13/11 25/14/11
f 25/14/11 26/13/11 28/15/12 27/16/12
f 27/16/12 28/15/12 30/17/13 29/18/13
f 29/18/13 30/17/13 32/19/14 31/20/14
f 31/20/14 32/19/14 34/21/15 33/22/15
f 33/22/15 34/21/15 36/23/16 35/24/16
f 35/24/16 36/23/16 38/25/17 37/26/17
f 37/26/17 38/25/17 40/27/18 39/28/18
f 39/28/18 40/27/18 42/29/19 41/30/19
f 41/30/19 42/29/19 44/31/20 43/32/20
f 43/32/20 44/31/20 46/33/21 45/34/21
f 45/34/21 46/33/21 48/35/22 47/36/22
f 47/36/22 48/35/22 50/37/23 49/38/23
f 49/38/23 50/37/23 52/35/24 51/36/24
f 51/36/24 52/35/24 54/33/25 53/34/25
f 53/34/25 54/33/25 56/31/26 55/32/26
f 55/32/26 56/31/26 58/29/27 57/39/27
f 57/39/27 58/29/27 60/27/28 59/28/28
f 59/28/28 60/27/28 62/25/29 61/26/29
f 61/26/29 62/25/29 64/23/30 63/24/30
f 63/24/30 64/23/30 66/21/31 65/22/31
f 65/22/31 66/21/31 68/19/32 67/20/32
f 67/20/32 68/19/32 70/17/33 69/18/33
f 69/18/33 70/17/33 72/15/34 71/16/34
f 71/16/34 72/15/34 74/13/35 73/40/35
f 73/40/35 74/13/35 76/11/36 75/12/36
f 75/12/36 76/11/36 78/9/37 77/41/37
f 20/7/38 18/6/38 80/7/38 78/9/38 76/11/38 74/13/38 72/15/38 70/17/38 68/19/38 66/21/38 64/23/38 62/25/38 60/27/38 58/29/38 56/31/38 54/33/38 52/35/38 50/37/38 48/35/38 46/33/38 44/31/38 42/29/38 40/27/38 38/25/38 36/23/38 34/21/38 32/19/38 30/17/38 28/15/38 26/13/38 24/11/38 22/9/38
f 77/41/37 78/9/37 80/7/39 79/8/39
f 79/8/39 80/7/39 18/6/7 17/5/7
f 17/5/40 19/8/40 21/10/40 23/12/40 25/14/40 27/16/40 29/18/40 31/20/40 33/22/40 35/24/40 37/26/40 39/28/40 41/30/40 43/32/40 45/34/40 47/36/40 49/38/40 51/36/40 53/34/40 55/32/40 57/39/40 59/28/40 61/26/40 63/24/40 65/22/40 67/20/40 69/18/40 71/16/40 73/40/40 75/12/40 77/41/40 79/8/40
o Cylinder.017
v 0.159118 -0.204287 0.530615
v 0.202589 -0.204287 0.530615
v 0.159118 -0.205630 0.516982
v 0.202589 -0.205630 0.516982
v 0.159118 -0.209606 0.503873
v 0.202589 -0.209606 0.503873
v 0.159118 -0.216064 0.491791
v 0.202589 -0.216064 0.491791
v 0.159118 -0.224755 0.481202
v 0.202589 -0.224755 0.481202
v 0.159118 -0.235344 0.472511
v 0.202589 -0.235344 0.472511
v 0.159118 -0.247426 0.466053
v 0.202589 -0.247426 0.466053
v 0.159118 -0.260535 0.462077
v 0.202589 -0.260535 0.462077
v 0.159118 -0.274169 0.460734
v 0.202589 -0.274169 0.460734
v 0.159118 -0.287802 0.462077
v 0.202589 -0.287802 0.462077
v 0.159118 -0.300911 0.466053
v 0.202589 -0.300911 0.466053
v 0.159118 -0.312993 0.472511
v 0.202589 -0.312993 0.472511
v 0.159118 -0.323582 0.481202
v 0.202589 -0.323582 0.481202
v 0.159118 -0.332273 0.491791
v 0.202589 -0.332273 0.491791
v 0.159118 -0.338731 0.503873
v 0.202589 -0.338731 0.503873
v 0.159118 -0.342707 0.516982
v 0.202589 -0.342707 0.516982
v 0.159118 -0.344050 0.530615
v 0.202589 -0.344050 0.530615
v 0.159118 -0.342707 0.544249
v 0.202589 -0.342707 0.544249
v 0.159118 -0.338731 0.557358
v 0.202589 -0.338731 0.557358
v 0.159118 -0.332273 0.569440
v 0.202589 -0.332273 0.569440
v 0.159118 -0.323582 0.580029
v 0.202589 -0.323582 0.580029
v 0.159118 -0.312993 0.588720
v 0.202589 -0.312993 0.588720
v 0.159118 -0.300911 0.595178
v 0.202589 -0.300911 0.595178
v 0.159118 -0.287802 0.599154
v 0.202589 -0.287802 0.599154
v 0.159118 -0.274169 0.600497
v 0.202589 -0.274169 0.600497
v 0.159118 -0.260535 0.599154
v 0.202589 -0.260535 0.599154
v 0.159118 -0.247426 0.595178
v 0.202589 -0.247426 0.595178
v 0.159118 -0.235344 0.588720
v 0.202589 -0.235344 0.588720
v 0.159118 -0.224755 0.580029
v 0.202589 -0.224755 0.580029
v 0.159118 -0.216064 0.569440
v 0.202589 -0.216064 0.569440
v 0.159118 -0.209606 0.557358
v 0.202589 -0.209606 0.557358
v 0.159118 -0.205630 0.544249
v 0.202589 -0.205630 0.544249
vn -0.0000 1.0000 -0.0000
vn -0.0000 0.9808 -0.1951
vn -0.0000 0.9239 -0.3827
vn -0.0000 0.8315 -0.5556
vn -0.0000 0.7071 -0.7071
vn -0.0000 0.5556 -0.8315
vn -0.0000 0.3827 -0.9239
vn -0.0000 0.1951 -0.9808
vn -0.0000 -0.0000 -1.0000
vn -0.0000 -0.1951 -0.9808
vn -0.0000 -0.3827 -0.9239
vn -0.0000 -0.5556 -0.8315
vn -0.0000 -0.7071 -0.7071
vn -0.0000 -0.8315 -0.5556
vn -0.0000 -0.9239 -0.3827
vn -0.0000 -0.9808 -0.1951
vn -0.0000 -1.0000 -0.0000
vn -0.0000 -0.9808 0.1951
vn -0.0000 -0.9239 0.3827
vn -0.0000 -0.8315 0.5556
vn -0.0000 -0.7071 0.7071
vn -0.0000 -0.5556 0.8315
vn -0.0000 -0.3827 0.9239
vn -0.0000 -0.1951 0.9808
vn -0.0000 -0.0000 1.0000
vn -0.0000 0.1951 0.9808
vn -0.0000 0.3827 0.9239
vn -0.0000 0.5556 0.8315
vn -0.0000 0.7071 0.7071
vn -0.0000 0.8315 0.5556
vn -0.0000 0.9239 0.3827
vn 1.0000 -0.0000 -0.0000
vn -0.0000 0.9808 0.1951
vn -1.0000 -0.0000 -0.0000
vt 0.426029 0.174705
vt 0.405758 0.173532
vt 0.404154 0.166350
vt 0.424159 0.167869
vt 0.401863 0.160258
vt 0.421535 0.162048
vt 0.399051 0.155504
vt 0.418341 0.157478
vt 0.395899 0.152214
vt 0.414778 0.154286
vt 0.392579 0.150412
vt 0.411035 0.152503
vt 0.389247 0.150036
vt 0.407286 0.152080
vt 0.386029 0.150969
vt 0.403673 0.152912
vt 0.383029 0.153062
vt 0.400311 0.154864
vt 0.380321 0.156154
vt 0.397288 0.157785
vt 0.377964 0.160079
vt 0.394666 0.161519
vt 0.375997 0.164680
vt 0.392494 0.165915
vt 0.374449 0.169809
vt 0.390804 0.170829
vt 0.373340 0.175325
vt 0.389618 0.176125
vt 0.372687 0.181094
vt 0.388954 0.181671
vt 0.372499 0.186987
vt 0.388823 0.187338
vt 0.372786 0.192871
vt 0.389233 0.192996
vt 0.373554 0.198609
vt 0.390188 0.198509
vt 0.374803 0.204054
vt 0.391686 0.203734
vt 0.376528 0.209044
vt 0.393715 0.208513
vt 0.378712 0.213405
vt 0.396252 0.212676
vt 0.381325 0.216945
vt 0.399256 0.216042
vt 0.384312 0.219465
vt 0.402662 0.218422
vt 0.387597 0.220767
vt 0.406376 0.219631
vt 0.391068 0.220672
vt 0.410270 0.219505
vt 0.394584 0.219044
vt 0.414181 0.217922
vt 0.397970 0.215820
vt 0.417916 0.214830
vt 0.401032 0.211040
vt 0.421261 0.210274
vt 0.403574 0.204867
vt 0.424004 0.204410
vt 0.405418 0.197595
vt 0.425955 0.197515
vt 0.406430 0.189627
vt 0.426976 0.189968
vt 0.406542 0.181441
vt 0.426997 0.182211
s 1
usemtl atlas
f 81/42/41 82/43/41 84/44/42 83/45/42
f 83/45/42 84/44/42 86/46/43 85/47/43
f 85/47/43 86/46/43 88/48/44 87/49/44
f 87/49/44 88/48/44 90/50/45 89/51/45
f 89/51/45 90/50/45 92/52/46 91/53/46
f 91/53/46 92/52/46 94/54/47 93/55/47
f 93/55/47 94/54/47 96/56/48 95/57/48
f 95/57/48 96/56/48 98/58/49 97/59/49
f 97/59/49 98/58/49 100/60/50 99/61/50
f 99/61/50 100/60/50 102/62/51 101/63/51
f 101/63/51 102/62/51 104/64/52 103/65/52
f 103/65/52 104/64/52 106/66/53 105/67/53
f 105/67/53 106/66/53 108/68/54 107/69/54
f 107/69/54 108/68/54 110/70/55 109/71/55
f 109/71/55 110/70/55 112/72/56 111/73/56
f 111/73/56 112/72/56 114/74/57 113/75/57
f 113/75/57 114/74/57 116/76/58 115/77/58
f 115/77/58 116/76/58 118/78/59 117/79/59
f 117/79/59 118/78/59 120/80/60 119/81/60
f 119/81/60 120/80/60 122/82/61 121/83/61
f 121/83/61 122/82/61 124/84/62 123/85/62
f 123/85/62 124/84/62 126/86/63 125/87/63
f 125/87/63 126/86/63 128/88/64 127/89/64
f 127/89/64 128/88/64 130/90/65 129/91/65
f 129/91/65 130/90/65 132/92/66 131/93/66
f 131/93/66 132/92/66 134/94/67 133/95/67
f 133/95/67 134/94/67 136/96/68 135/97/68
f 135/97/68 136/96/68 138/98/69 137/99/69
f 137/99/69 138/98/69 140/100/70 139/101/70
f 139/101/70 140/100/70 142/102/71 141/103/71
f 84/44/72 82/43/72 144/104/72 142/102/72 140/100/72 138/98/72 136/96/72 134/94/72 132/92/72 130/90/72 128/88/72 126/86/72 124/84/72 122/82/72 120/80/72 118/78/72 116/76/72 114/74/72 112/72/72 110/70/72 108/68/72 106/66/72 104/64/72 102/62/72 100/60/72 98/58/72 96/56/72 94/54/72 92/52/72 90/50/72 88/48/72 86/46/72
f 141/103/71 142/102/71 144/104/73 143/105/73
f 143/105/73 144/104/73 82/43/41 81/42/41
f 81/42/74 83/45/74 85/47/74 87/49/74 89/51/74 91/53/74 93/55/74 95/57/74 97/59/74 99/61/74 101/63/74 103/65/74 105/67/74 107/69/74 109/71/74 111/73/74 113/75/74 115/77/74 117/79/74 119/81/74 121/83/74 123/85/74 125/87/74 127/89/74 129/91/74 131/93/74 133/95/74 135/97/74 137/99/74 139/101/74 141/103/74 143/105/74
o Cylinder.070
v 0.156126 -0.095246 0.324157
v 0.205581 -0.095246 0.324157
v 0.156126 -0.095918 0.317340
v 0.205581 -0.095918 0.317340
v 0.156126 -0.097906 0.310785
v 0.205581 -0.097906 0.310785
v 0.156126 -0.101135 0.304744
v 0.205581 -0.101135 0.304744
v 0.156126 -0.105480 0.299450
v 0.205581 -0.105480 0.299450
v 0.156126 -0.110775 0.295104
v 0.205581 -0.110775 0.295104
v 0.156126 -0.116816 0.291875
v 0.205581 -0.116816 0.291875
v 0.156126 -0.123371 0.289887
v 0.205581 -0.123371 0.289887
v 0.156126 -0.130187 0.289216
v 0.205581 -0.130187 0.289216
v 0.156126 -0.137004 0.289887
v 0.205581 -0.137004 0.289887
v 0.156126 -0.143558 0.291875
v 0.205581 -0.143558 0.291875
v 0.156126 -0.149599 0.295104
v 0.205581 -0.149599 0.295104
v 0.156126 -0.154894 0.299450
v 0.205581 -0.154894 0.299450
v 0.156126 -0.159239 0.304744
v 0.205581 -0.159239 0.304744
v 0.156126 -0.162468 0.310785
v 0.205581 -0.162468 0.310785
v 0.156126 -0.164457 0.317340
v 0.205581 -0.164457 0.317340
v 0.156126 -0.165128 0.324157
v 0.205581 -0.165128 0.324157
v 0.156126 -0.164457 0.330973
v 0.205581 -0.164457 0.330973
v 0.156126 -0.162468 0.337528
v 0.205581 -0.162468 0.337528
v 0.156126 -0.159239 0.343568
v 0.205581 -0.159239 0.343568
v 0.156126 -0.154894 0.348863
v 0.205581 -0.154894 0.348863
v 0.156126 -0.149599 0.353209
v 0.205581 -0.149599 0.353209
v 0.156126 -0.143558 0.356438
v 0.205581 -0.143558 0.356438
v 0.156126 -0.137004 0.358426
v 0.205581 -0.137004 0.358426
v 0.156126 -0.130187 0.359097
v 0.205581 -0.130187 0.359097
v 0.156126 -0.123371 0.358426
v 0.205581 -0.123371 0.358426
v 0.156126 -0.116816 0.356438
v 0.205581 -0.116816 0.356438
v 0.156126 -0.110775 0.353209
v 0.205581 -0.110775 0.353209
v 0.156126 -0.105480 0.348863
v 0.205581 -0.105480 0.348863
v 0.156126 -0.101135 0.343568
v 0.205581 -0.101135 0.343568
v 0.156126 -0.097906 0.337528
v 0.205581 -0.097906 0.337528
v 0.156126 -0.095918 0.330973
v 0.205581 -0.095918 0.330973
vn -0.0000 1.0000 -0.0000
vn -0.0000 0.9808 -0.1951
vn -0.0000 0.9239 -0.3827
vn -0.0000 0.8315 -0.5556
vn -0.0000 0.7071 -0.7071
vn -0.0000 0.5556 -0.8315
vn -0.0000 0.3827 -0.9239
vn -0.0000 0.1951 -0.9808
vn -0.0000 -0.0000 -1.0000
vn -0.0000 -0.1951 -0.9808
vn -0.0000 -0.3827 -0.9239
vn -0.0000 -0.5556 -0.8315
vn -0.0000 -0.7071 -0.7071
vn -0.0000 -0.8315 -0.5556
vn -0.0000 -0.9239 -0.3827
vn -0.0000 -0.9808 -0.1951
vn -0.0000 -1.0000 -0.0000
vn -0.0000 -0.9808 0.1951
vn -0.0000 -0.9239 0.3827
vn -0.0000 -0.8315 0.5556
vn -0.0000 -0.7071 0.7071
vn -0.0000 -0.5556 0.8315
vn -0.0000 -0.3827 0.9239
vn -0.0000 -0.1951 0.9808
vn -0.0000 -0.0000 1.0000
vn -0.0000 0.1951 0.9808
vn -0.0000 0.3827 0.9239
vn -0.0000 0.5556 0.8315
vn -0.0000 0.7071 0.7071
vn -0.0000 0.8315 0.5556
vn -0.0000 0.9239 0.3827
vn 1.0000 -0.0000 -0.0000
vn -0.0000 0.9808 0.1951
vn -1.0000 -0.0000 -0.0000
vt 0.416204 0.136236
vt 0.381615 0.136236
vt 0.381615 0.131468
vt 0.416204 0.131468
vt 0.381615 0.126884
vt 0.416204 0.126884
vt 0.381615 0.122659
vt 0.416204 0.122659
vt 0.381615 0.118955
vt 0.416204 0.118955
vt 0.381615 0.115916
vt 0.416204 0.115916
vt 0.381615 0.113658
vt 0.416204 0.113658
vt 0.381615 0.112267
vt 0.416204 0.112267
vt 0.381615 0.111798
vt 0.416204 0.111798
vt 0.381615 0.141003
vt 0.416204 0.141003
vt 0.381615 0.145588
vt 0.416204 0.145588
vt 0.381615 0.149813
vt 0.416204 0.149813
vt 0.381615 0.153516
vt 0.416204 0.153516
vt 0.381615 0.156555
vt 0.416204 0.156555
vt 0.381615 0.158814
vt 0.416204 0.158814
vt 0.381615 0.160204
vt 0.416204 0.160204
vt 0.381615 0.160674
vt 0.416204 0.160674
s 1
usemtl atlas
f 145/106/75 146/107/75 148/108/76 147/109/76
f 147/109/76 148/108/76 150/110/77 149/111/77
f 149/111/77 150/110/77 152/112/78 151/113/78
f 151/113/78 152/112/78 154/114/79 153/115/79
f 153/115/79 154/114/79 156/116/80 155/117/80
f 155/117/80 156/116/80 158/118/81 157/119/81
f 157/119/81 158/118/81 160/120/82 159/121/82
f 159/121/82 160/120/82 162/122/83 161/123/83
f 161/123/83 162/122/83 164/120/84 163/121/84
f 163/121/84 164/120/84 166/118/85 165/119/85
f 165/119/85 166/118/85 168/116/86 167/117/86
f 167/117/86 168/116/86 170/114/87 169/115/87
f 169/115/87 170/114/87 172/112/88 171/113/88
f 171/113/88 172/112/88 174/110/89 173/111/89
f 173/111/89 174/110/89 176/108/90 175/109/90
f 175/109/90 176/108/90 178/107/91 177/106/91
f 177/106/91 178/107/91 180/124/92 179/125/92
f 179/125/92 180/124/92 182/126/93 181/127/93
f 181/127/93 182/126/93 184/128/94 183/129/94
f 183/129/94 184/128/94 186/130/95 185/131/95
f 185/131/95 186/130/95 188/132/96 187/133/96
f 187/133/96 188/132/96 190/134/97 189/135/97
f 189/135/97 190/134/97 192/136/98 191/137/98
f 191/137/98 192/136/98 194/138/99 193/139/99
f 193/139/99 194/138/99 196/136/100 195/137/100
f 195/137/100 196/136/100 198/134/101 197/135/101
f 197/135/101 198/134/101 200/132/102 199/133/102
f 199/133/102 200/132/102 202/130/103 201/131/103
f 201/131/103 202/130/103 204/128/104 203/129/104
f 203/129/104 204/128/104 206/126/105 205/127/105
f 148/108/106 146/107/106 208/124/106 206/126/106 204/128/106 202/130/106 200/132/106 198/134/106 196/136/106 194/138/106 192/136/106 190/134/106 188/132/106 186/130/106 184/128/106 182/126/106 180/124/106 178/107/106 176/108/106 174/110/106 172/112/106 170/114/106 168/116/106 166/118/106 164/120/106 162/122/106 160/120/106 158/118/106 156/116/106 154/114/106 152/112/106 150/110/106
f 205/127/105 206/126/105 208/124/107 207/125/107
f 207/125/107 208/124/107 146/107/75 145/106/75
f 145/106/108 147/109/108 149/111/108 151/113/108 153/115/108 155/117/108 157/119/108 159/121/108 161/123/108 163/121/108 165/119/108 167/117/108 169/115/108 171/113/108 173/111/108 175/109/108 177/106/108 179/125/108 181/127/108 183/129/108 185/131/108 187/133/108 189/135/108 191/137/108 193/139/108 195/137/108 197/135/108 199/133/108 201/131/108 203/129/108 205/127/108 207/125/108
