# Blender 4.5.3 LTS
# www.blender.org
mtllib right_piston_rod.mtl
o Cylinder.001
v 0.185932 -0.117926 0.653677
v 0.185932 -0.117926 0.300742
v 0.183442 -0.117171 0.653677
v 0.183442 -0.117171 0.300742
v 0.180853 -0.116916 0.653677
v 0.180853 -0.116916 0.300742
v 0.188226 -0.119153 0.300742
v 0.188226 -0.119153 0.653677
v 0.190237 -0.120803 0.300742
v 0.190237 -0.120803 0.653677
v 0.191888 -0.122814 0.300742
v 0.191888 -0.122814 0.653677
v 0.193114 -0.125109 0.300742
v 0.193114 -0.125109 0.653677
v 0.193869 -0.127598 0.300742
v 0.193869 -0.127598 0.653677
v 0.194124 -0.130187 0.300742
v 0.194124 -0.130187 0.653677
v 0.193869 -0.132776 0.300742
v 0.193869 -0.132776 0.653677
v 0.193114 -0.135266 0.300742
v 0.193114 -0.135266 0.653677
v 0.191888 -0.137560 0.300742
v 0.191888 -0.137560 0.653677
v 0.190237 -0.139571 0.300742
v 0.190237 -0.139571 0.653677
v 0.188226 -0.141222 0.300742
v 0.188226 -0.141222 0.653677
v 0.185932 -0.142448 0.300742
v 0.185932 -0.142448 0.653677
v 0.183442 -0.143203 0.300742
v 0.183442 -0.143203 0.653677
v 0.180853 -0.143458 0.300742
v 0.180853 -0.143458 0.653677
v 0.178264 -0.143203 0.300742
v 0.178264 -0.143203 0.653677
v 0.175775 -0.142448 0.300742
v 0.175775 -0.142448 0.653677
v 0.173480 -0.141222 0.300742
v 0.173480 -0.141222 0.653677
v 0.171469 -0.139571 0.300742
v 0.171469 -0.139571 0.653677
v 0.169819 -0.137560 0.300742
v 0.169819 -0.137560 0.653677
v 0.168593 -0.135266 0.300742
v 0.168593 -0.135266 0.653677
v 0.167837 -0.132776 0.300742
v 0.167837 -0.132776 0.653677
v 0.167582 -0.130187 0.300742
v 0.167582 -0.130187 0.653677
v 0.167837 -0.127598 0.300742
v 0.167837 -0.127598 0.653677
v 0.168593 -0.125109 0.300742
v 0.168593 -0.125109 0.653677
v 0.169819 -0.122814 0.300742
v 0.169819 -0.122814 0.653677
v 0.171469 -0.120803 0.300742
v 0.171469 -0.120803 0.653677
v 0.173480 -0.119153 0.300742
v 0.173480 -0.119153 0.653677
v 0.175775 -0.117926 0.300742
v 0.175775 -0.117926 0.653677
v 0.178264 -0.117171 0.300742
v 0.178264 -0.117171 0.653677
vn 0.1951 0.9808 -0.0000
vn 0.3827 0.9239 -0.0000
vn -0.0000 1.0000 -0.0000
vn 0.5556 0.8315 -0.0000
vn 0.7071 0.7071 -0.0000
vn 0.8315 0.5556 -0.0000
vn 0.9239 0.3827 -0.0000
vn 0.9808 0.1951 -0.0000
vn 1.0000 -0.0000 -0.0000
vn 0.9808 -0.1951 -0.0000
vn 0.9239 -0.3827 -0.0000
vn 0.8315 -0.5556 -0.0000
vn 0.7071 -0.7071 -0.0000
vn 0.5556 -0.8315 -0.0000
vn 0.3827 -0.9239 -0.0000
vn 0.1951 -0.9808 -0.0000
vn -0.0000 -1.0000 -0.0000
vn -0.1951 -0.9808 -0.0000
vn -0.3827 -0.9239 -0.0000
vn -0.5556 -0.8315 -0.0000
vn -0.7071 -0.7071 -0.0000
vn -0.8315 -0.5556 -0.0000
vn -0.9239 -0.3827 -0.0000
vn -0.9808 -0.1951 -0.0000
vn -1.0000 -0.0000 -0.0000
vn -0.9808 0.1951 -0.0000
vn -0.9239 0.3827 -0.0000
vn -0.8315 0.5556 -0.0000
vn -0.7071 0.7071 -0.0000
vn -0.5556 0.8315 -0.0000
vn -0.3827 0.9239 -0.0000
vn -0.1951 0.9808 -0.0000
vn -0.0000 -0.0000 1.0000
vn -0.0000 -0.0000 -1.0000
vt 0.402728 0.136676
vt 0.485030 0.136676
vt 0.485030 0.137835
vt 0.402728 0.137835
vt 0.402728 0.135470
vt 0.485030 0.135470
vt 0.485030 0.138904
vt 0.402728 0.138904
vt 0.485030 0.139840
vt 0.402728 0.139840
vt 0.485030 0.140609
vt 0.402728 0.140609
vt 0.485030 0.141180
vt 0.402728 0.141180
vt 0.485030 0.141532
vt 0.402728 0.141532
vt 0.485030 0.141650
vt 0.402728 0.141650
vt 0.485030 0.134265
vt 0.402728 0.134265
vt 0.485030 0.133105
vt 0.402728 0.133105
vt 0.485030 0.132037
vt 0.402728 0.132037
vt 0.485030 0.131100
vt 0.402728 0.131100
vt 0.485030 0.130332
vt 0.402728 0.130332
vt 0.485030 0.129760
vt 0.402728 0.129760
vt 0.485030 0.129409
vt 0.402728 0.129409
vt 0.485030 0.129290
vt 0.402728 0.129290
s 1
usemtl atlas
f 4/1/1 3/2/1 1/3/2 2/4/2
f 6/5/3 5/6/3 3/2/1 4/1/1
f 2/4/2 1/3/2 8/7/4 7/8/4
f 7/8/4 8/7/4 10/9/5 9/10/5
f 9/10/5 10/9/5 12/11/6 11/12/6
f 11/12/6 12/11/6 14/13/7 13/14/7
f 13/14/7 14/13/7 16/15/8 15/16/8
f 15/16/8 16/15/8 18/17/9 17/18/9
f 17/18/9 18/17/9 20/15/10 19/16/10
f 19/16/10 20/15/10 22/13/11 21/14/11
f 21/14/11 22/13/11 24/11/12 23/12/12
f 23/12/12 24/11/12 26/9/13 25/10/13
f 25/10/13 26/9/13 28/7/14 27/8/14
f 27/8/14 28/7/14 30/3/15 29/4/15
f 29/4/15 30/3/15 32/2/16 31/1/16
f 31/1/16 32/2/16 34/6/17 33/5/17
f 33/5/17 34/6/17 36/19/18 35/20/18
f 35/20/18 36/19/18 38/21/19 37/22/19
f 37/22/19 38/21/19 40/23/20 39/24/20
f 39/24/20 40/23/20 42/25/21 41/26/21
f 41/26/21 42/25/21 44/27/22 43/28/22
f 43/28/22 44/27/22 46/29/23 45/30/23
f 45/30/23 46/29/23 48/31/24 47/32/24
f 47/32/24 48/31/24 50/33/25 49/34/25
f 49/34/25 50/33/25 52/31/26 51/32/26
f 51/32/26 52/31/26 54/29/27 53/30/27
f 53/30/27 54/29/27 56/27/28 55/28/28
f 55/28/28 56/27/28 58/25/29 57/26/29
f 57/26/29 58/25/29 60/23/30 59/24/30
f 59/24/30 60/23/30 62/21/31 61/22/31
f 61/22/31 62/21/31 64/19/32 63/20/32
f 63/20/32 64/19/32 5/6/3 6/5/3
f 1/3/33 3/2/33 5/6/33 64/19/33 62/21/33 60/23/33 58/25/33 56/27/33 54/29/33 52/31/33 50/33/33 48/31/33 46/29/33 44/27/33 42/25/33 40/23/33 38/21/33 36/19/33 34/6/33 32/2/33 30/3/33 28/7/33 26/9/33 24/11/33 22/13/33 20/15/33 18/17/33 16/15/33 14/13/33 12/11/33 10/9/33 8/7/33
f 6/5/34 4/1/34 2/4/34 7/8/34 9/10/34 11/12/34 13/14/34 15/16/34 17/18/34 19/16/34 21/14/34 23/12/34 25/10/34 27/8/34 29/4/34 31/1/34 33/5/34 35/20/34 37/22/34 39/24/34 41/26/34 43/28/34 45/30/34 47/32/34 49/34/34 51/32/34 53/30/34 55/28/34 57/26/34 59/24/34 61/22/34 63/20/34
