# Blender 4.5.3 LTS
# www.blender.org
mtllib right_foot.mtl
o Sphere.002
v 0.179225 0.114001 0.096114
v 0.179225 0.145125 0.064990
v 0.179225 0.161969 0.024325
v 0.179225 0.164136 0.002317
v 0.182660 0.072912 0.112958
v 0.185962 0.093668 0.106539
v 0.189006 0.112796 0.096114
v 0.191674 0.129563 0.082085
v 0.193864 0.143322 0.064990
v 0.195491 0.153547 0.045487
v 0.196493 0.159843 0.024325
v 0.196831 0.161969 0.002317
v 0.185962 0.071660 0.112958
v 0.192441 0.091211 0.106539
v 0.198412 0.109230 0.096114
v 0.203646 0.125023 0.082085
v 0.207941 0.137985 0.064990
v 0.211132 0.147616 0.045487
v 0.213097 0.153547 0.024325
v 0.213761 0.155549 0.002317
v 0.189006 0.069626 0.112958
v 0.198412 0.087222 0.106539
v 0.207080 0.103438 0.096114
v 0.214678 0.117652 0.082085
v 0.220914 0.129317 0.064990
v 0.225547 0.137985 0.045487
v 0.228400 0.143322 0.024325
v 0.229364 0.145125 0.002317
v 0.191674 0.066889 0.112958
v 0.203646 0.081853 0.106539
v 0.214678 0.095644 0.096114
v 0.224349 0.107732 0.082085
v 0.232285 0.117652 0.064990
v 0.238182 0.125023 0.045487
v 0.241813 0.129563 0.024325
v 0.243039 0.131095 0.002317
v 0.193864 0.063554 0.112958
v 0.207941 0.075311 0.106539
v 0.220914 0.086147 0.096114
v 0.232285 0.095644 0.082085
v 0.241617 0.103438 0.064990
v 0.248551 0.109230 0.045487
v 0.252821 0.112796 0.024325
v 0.254263 0.114001 0.002317
v 0.179225 0.051327 0.115126
v 0.195491 0.059749 0.112958
v 0.211132 0.067848 0.106539
v 0.225547 0.075311 0.096114
v 0.238182 0.081853 0.082085
v 0.248551 0.087222 0.064990
v 0.256256 0.091211 0.045487
v 0.261000 0.093668 0.024325
v 0.262603 0.094497 0.002317
v 0.196493 0.055621 0.112958
v 0.213097 0.059749 0.106539
v 0.228400 0.063554 0.096114
v 0.241813 0.066889 0.082085
v 0.252821 0.069626 0.064990
v 0.261000 0.071660 0.045487
v 0.266037 0.072912 0.024325
v 0.267738 0.073335 0.002317
v 0.196831 0.051327 0.112958
v 0.213761 0.051327 0.106539
v 0.229364 0.051327 0.096114
v 0.243039 0.051327 0.082085
v 0.254263 0.051327 0.064990
v 0.262603 0.051327 0.045487
v 0.267738 0.051327 0.024325
v 0.269472 0.051327 0.002317
v 0.196493 0.047034 0.112958
v 0.213097 0.042905 0.106539
v 0.228400 0.039100 0.096114
v 0.241813 0.035765 0.082085
v 0.252821 0.033028 0.064990
v 0.261000 0.030994 0.045487
v 0.266037 0.029742 0.024325
v 0.267738 0.029319 0.002317
v 0.195491 0.042905 0.112958
v 0.211132 0.034807 0.106539
v 0.225547 0.027343 0.096114
v 0.238182 0.020801 0.082085
v 0.248551 0.015432 0.064990
v 0.256256 0.011443 0.045487
v 0.261000 0.008986 0.024325
v 0.262602 0.008157 0.002317
v 0.193864 0.039100 0.112958
v 0.207941 0.027343 0.106539
v 0.220914 0.016508 0.096114
v 0.232285 0.007010 0.082085
v 0.241617 -0.000784 0.064990
v 0.248551 -0.006576 0.045487
v 0.252821 -0.010142 0.024325
v 0.254263 -0.011346 0.002317
v 0.191674 0.035765 0.112958
v 0.203646 0.020801 0.106539
v 0.214678 0.007010 0.096114
v 0.224348 -0.005077 0.082085
v 0.232285 -0.014998 0.064990
v 0.238182 -0.022369 0.045487
v 0.241813 -0.026908 0.024325
v 0.243039 -0.028441 0.002317
v 0.189006 0.033028 0.112958
v 0.198412 0.015432 0.106539
v 0.207080 -0.000784 0.096114
v 0.214678 -0.014998 0.082085
v 0.220914 -0.026663 0.064990
v 0.225547 -0.035330 0.045487
v 0.228400 -0.040668 0.024325
v 0.229364 -0.042470 0.002317
v 0.185962 0.030994 0.112958
v 0.192441 0.011443 0.106539
v 0.198412 -0.006576 0.096114
v 0.203646 -0.022369 0.082085
v 0.207941 -0.035330 0.064990
v 0.211132 -0.044962 0.045487
v 0.213097 -0.050892 0.024325
v 0.213761 -0.052895 0.002317
v 0.182660 0.029742 0.112958
v 0.185962 0.008986 0.106539
v 0.189006 -0.010142 0.096114
v 0.191674 -0.026908 0.082085
v 0.193864 -0.040668 0.064990
v 0.195491 -0.050892 0.045487
v 0.196493 -0.057188 0.024325
v 0.196831 -0.059314 0.002317
v 0.179225 0.029319 0.112958
v 0.179225 0.008157 0.106539
v 0.179225 -0.011346 0.096114
v 0.179225 -0.028441 0.082085
v 0.179225 -0.042470 0.064990
v 0.179225 -0.052895 0.045487
v 0.179225 -0.059314 0.024325
v 0.179225 -0.061482 0.002317
v 0.175790 0.029742 0.112958
v 0.172487 0.008986 0.106539
v 0.169443 -0.010142 0.096114
v 0.166775 -0.026908 0.082085
v 0.164586 -0.040668 0.064990
v 0.162959 -0.050892 0.045487
v 0.161957 -0.057188 0.024325
v 0.161618 -0.059314 0.002317
v 0.172487 0.030994 0.112958
v 0.166008 0.011443 0.106539
v 0.160038 -0.006576 0.096114
v 0.154804 -0.022369 0.082085
v 0.150509 -0.035330 0.064990
v 0.147318 -0.044962 0.045487
v 0.145352 -0.050892 0.024325
v 0.144689 -0.052895 0.002317
v 0.169443 0.033028 0.112958
v 0.160038 0.015432 0.106539
v 0.151369 -0.000784 0.096114
v 0.143771 -0.014998 0.082085
v 0.137536 -0.026663 0.064990
v 0.132903 -0.035330 0.045487
v 0.130049 -0.040668 0.024325
v 0.129086 -0.042470 0.002317
v 0.166775 0.035765 0.112958
v 0.154804 0.020801 0.106539
v 0.143771 0.007010 0.096114
v 0.134101 -0.005077 0.082085
v 0.126165 -0.014998 0.064990
v 0.120268 -0.022369 0.045487
v 0.116636 -0.026908 0.024325
v 0.115410 -0.028441 0.002317
v 0.164586 0.039100 0.112958
v 0.150509 0.027343 0.106539
v 0.137536 0.016508 0.096114
v 0.126165 0.007010 0.082085
v 0.116833 -0.000784 0.064990
v 0.109899 -0.006576 0.045487
v 0.105629 -0.010142 0.024325
v 0.104187 -0.011346 0.002317
v 0.162959 0.042905 0.112958
v 0.147318 0.034807 0.106539
v 0.132903 0.027343 0.096114
v 0.120268 0.020801 0.082085
v 0.109899 0.015432 0.064990
v 0.102194 0.011443 0.045487
v 0.097449 0.008986 0.024325
v 0.095847 0.008157 0.002317
v 0.161957 0.047034 0.112958
v 0.145352 0.042905 0.106539
v 0.130050 0.039100 0.096114
v 0.116636 0.035765 0.082085
v 0.105629 0.033028 0.064990
v 0.097449 0.030994 0.045487
v 0.092412 0.029742 0.024325
v 0.090712 0.029319 0.002317
v 0.161618 0.051327 0.112958
v 0.144689 0.051327 0.106539
v 0.129086 0.051327 0.096114
v 0.115410 0.051327 0.082085
v 0.104187 0.051327 0.064990
v 0.095847 0.051327 0.045487
v 0.090712 0.051327 0.024325
v 0.088978 0.051327 0.002317
v 0.161957 0.055621 0.112958
v 0.145352 0.059749 0.106539
v 0.130050 0.063554 0.096114
v 0.116636 0.066889 0.082085
v 0.105629 0.069626 0.064990
v 0.097449 0.071660 0.045487
v 0.092412 0.072912 0.024325
v 0.090712 0.073335 0.002317
v 0.162959 0.059749 0.112958
v 0.147318 0.067848 0.106539
v 0.132903 0.075311 0.096114
v 0.120268 0.081853 0.082085
v 0.109899 0.087222 0.064990
v 0.102194 0.091211 0.045487
v 0.097449 0.093668 0.024325
v 0.095847 0.094497 0.002317
v 0.164586 0.063554 0.112958
v 0.150509 0.075311 0.106539
v 0.137536 0.086147 0.096114
v 0.126165 0.095644 0.082085
v 0.116833 0.103438 0.064990
v 0.109899 0.109230 0.045487
v 0.105629 0.112796 0.024325
v 0.104187 0.114001 0.002317
v 0.166775 0.066889 0.112958
v 0.154804 0.081853 0.106539
v 0.143771 0.095644 0.096114
v 0.134101 0.107732 0.082085
v 0.126165 0.117652 0.064990
v 0.120268 0.125023 0.045487
v 0.116637 0.129563 0.024325
v 0.115410 0.131095 0.002317
v 0.169443 0.069626 0.112958
v 0.160038 0.087222 0.106539
v 0.151369 0.103438 0.096114
v 0.143771 0.117652 0.082085
v 0.137536 0.129317 0.064990
v 0.132903 0.137985 0.045487
v 0.130050 0.143322 0.024325
v 0.129086 0.145124 0.002317
v 0.172487 0.071660 0.112958
v 0.166008 0.091211 0.106539
v 0.160038 0.109230 0.096114
v 0.154804 0.125023 0.082085
v 0.150509 0.137985 0.064990
v 0.147318 0.147616 0.045487
v 0.145352 0.153547 0.024325
v 0.144689 0.155549 0.002317
v 0.175790 0.072912 0.112958
v 0.172487 0.093668 0.106539
v 0.169443 0.112796 0.096114
v 0.166775 0.129563 0.082085
v 0.164586 0.143322 0.064990
v 0.162959 0.153547 0.045487
v 0.161957 0.159843 0.024325
v 0.161618 0.161969 0.002317
v 0.179225 0.073335 0.112958
v 0.179225 0.094497 0.106539
v 0.179225 0.131095 0.082085
v 0.179225 0.155549 0.045487
v 0.195071 0.150905 -0.000081
v 0.179225 0.152855 -0.000081
v 0.210307 0.145127 -0.000081
v 0.224350 0.135745 -0.000081
v 0.236658 0.123118 -0.000081
v 0.246759 0.107733 -0.000081
v 0.254265 0.090180 -0.000081
v 0.258887 0.071134 -0.000081
v 0.260447 0.051327 -0.000081
v 0.258887 0.031520 -0.000081
v 0.254265 0.012474 -0.000081
v 0.246759 -0.005079 -0.000081
v 0.236658 -0.020464 -0.000081
v 0.224350 -0.033091 -0.000081
v 0.210307 -0.042473 -0.000081
v 0.195071 -0.048250 -0.000081
v 0.179225 -0.050201 -0.000081
v 0.163379 -0.048250 -0.000081
v 0.148142 -0.042473 -0.000081
v 0.134100 -0.033090 -0.000081
v 0.121792 -0.020464 -0.000081
v 0.111691 -0.005079 -0.000081
v 0.104185 0.012474 -0.000081
v 0.099563 0.031520 -0.000081
v 0.098002 0.051327 -0.000081
v 0.099563 0.071134 -0.000081
v 0.104185 0.090180 -0.000081
v 0.111691 0.107733 -0.000081
v 0.121792 0.123118 -0.000081
v 0.134100 0.135745 -0.000081
v 0.148142 0.145127 -0.000081
v 0.163379 0.150904 -0.000081
vn -0.0000 0.5608 0.8279
vn -0.0000 0.8338 0.5521
vn -0.0000 0.9811 0.1936
vn -0.0000 0.8238 -0.5669
vn 0.0499 0.1982 0.9789
vn 0.0951 0.3808 0.9198
vn 0.1363 0.5480 0.8253
vn 0.1719 0.6934 0.6997
vn 0.2008 0.8118 0.5482
vn 0.2221 0.8993 0.3768
vn 0.2351 0.9529 0.1918
vn 0.1966 0.7999 -0.5670
vn 0.0973 0.1857 0.9778
vn 0.1852 0.3564 0.9158
vn 0.2645 0.5108 0.8180
vn 0.3321 0.6433 0.6899
vn 0.3862 0.7495 0.5377
vn 0.4254 0.8268 0.3680
vn 0.4491 0.8737 0.1868
vn 0.3753 0.7331 -0.5671
vn 0.1402 0.1659 0.9761
vn 0.2664 0.3178 0.9100
vn 0.3782 0.4529 0.8074
vn 0.4717 0.5664 0.6758
vn 0.5449 0.6555 0.5230
vn 0.5969 0.7191 0.3558
vn 0.6280 0.7571 0.1799
vn 0.5247 0.6351 -0.5669
vn 0.1771 0.1400 0.9742
vn 0.3354 0.2674 0.9033
vn 0.4732 0.3787 0.7954
vn 0.5858 0.4700 0.6602
vn 0.6719 0.5400 0.5070
vn 0.7319 0.5889 0.3428
vn 0.7672 0.6177 0.1727
vn 0.6409 0.5182 -0.5664
vn 0.2066 0.1092 0.9723
vn 0.3905 0.2080 0.8968
vn 0.5475 0.2928 0.7839
vn 0.6730 0.3608 0.6457
vn 0.7669 0.4117 0.4923
vn 0.8312 0.4467 0.3311
vn 0.8685 0.4670 0.1662
vn 0.7257 0.3920 -0.5654
vn -0.0000 -0.0000 1.0000
vn 0.2282 0.0747 0.9707
vn 0.4303 0.1421 0.8914
vn 0.6004 0.1991 0.7746
vn 0.7339 0.2439 0.6340
vn 0.8320 0.2769 0.4808
vn 0.8982 0.2992 0.3220
vn 0.9363 0.3120 0.1612
vn 0.7828 0.2621 -0.5644
vn 0.2413 0.0380 0.9697
vn 0.4544 0.0721 0.8879
vn 0.6319 0.1006 0.7685
vn 0.7697 0.1228 0.6265
vn 0.8698 0.1390 0.4735
vn 0.9368 0.1498 0.3163
vn 0.9750 0.1560 0.1581
vn 0.8156 0.1311 -0.5636
vn 0.2457 -0.0000 0.9693
vn 0.4624 -0.0000 0.8867
vn 0.6424 -0.0000 0.7664
vn 0.7814 -0.0000 0.6240
vn 0.8821 -0.0000 0.4710
vn 0.9493 -0.0000 0.3144
vn 0.9876 -0.0000 0.1571
vn 0.8262 -0.0000 -0.5634
vn 0.2413 -0.0380 0.9697
vn 0.4544 -0.0721 0.8879
vn 0.6319 -0.1006 0.7685
vn 0.7697 -0.1228 0.6265
vn 0.8698 -0.1390 0.4735
vn 0.9368 -0.1498 0.3163
vn 0.9750 -0.1560 0.1581
vn 0.8156 -0.1311 -0.5636
vn 0.2282 -0.0747 0.9707
vn 0.4303 -0.1421 0.8914
vn 0.6004 -0.1991 0.7746
vn 0.7339 -0.2439 0.6340
vn 0.8320 -0.2769 0.4808
vn 0.8982 -0.2992 0.3220
vn 0.9363 -0.3120 0.1612
vn 0.7828 -0.2621 -0.5644
vn 0.2066 -0.1092 0.9723
vn 0.3905 -0.2080 0.8968
vn 0.5475 -0.2928 0.7839
vn 0.6730 -0.3608 0.6457
vn 0.7669 -0.4117 0.4923
vn 0.8312 -0.4467 0.3311
vn 0.8685 -0.4670 0.1662
vn 0.7257 -0.3920 -0.5654
vn 0.1771 -0.1400 0.9742
vn 0.3355 -0.2674 0.9033
vn 0.4733 -0.3787 0.7954
vn 0.5858 -0.4700 0.6602
vn 0.6719 -0.5400 0.5070
vn 0.7319 -0.5889 0.3428
vn 0.7672 -0.6177 0.1727
vn 0.6409 -0.5182 -0.5664
vn 0.1403 -0.1659 0.9761
vn 0.2664 -0.3178 0.9100
vn 0.3782 -0.4529 0.8074
vn 0.4717 -0.5664 0.6758
vn 0.5449 -0.6554 0.5230
vn 0.5969 -0.7191 0.3558
vn 0.6280 -0.7571 0.1799
vn 0.5247 -0.6351 -0.5669
vn 0.0973 -0.1857 0.9778
vn 0.1852 -0.3564 0.9158
vn 0.2645 -0.5108 0.8180
vn 0.3321 -0.6433 0.6899
vn 0.3862 -0.7495 0.5377
vn 0.4254 -0.8268 0.3680
vn 0.4491 -0.8737 0.1868
vn 0.3753 -0.7331 -0.5671
vn 0.0499 -0.1982 0.9789
vn 0.0951 -0.3808 0.9198
vn 0.1363 -0.5480 0.8253
vn 0.1719 -0.6934 0.6997
vn 0.2009 -0.8118 0.5482
vn 0.2221 -0.8993 0.3768
vn 0.2351 -0.9529 0.1918
vn 0.1966 -0.7999 -0.5670
vn -0.0000 -0.2024 0.9793
vn -0.0000 -0.3892 0.9212
vn -0.0000 -0.5608 0.8279
vn -0.0000 -0.7109 0.7033
vn -0.0000 -0.8338 0.5521
vn -0.0000 -0.9250 0.3800
vn -0.0000 -0.9811 0.1936
vn -0.0000 -0.8238 -0.5669
vn -0.0499 -0.1982 0.9789
vn -0.0951 -0.3808 0.9198
vn -0.1363 -0.5480 0.8253
vn -0.1719 -0.6934 0.6997
vn -0.2008 -0.8118 0.5482
vn -0.2221 -0.8993 0.3768
vn -0.2351 -0.9529 0.1918
vn -0.1966 -0.7999 -0.5670
vn -0.0973 -0.1857 0.9778
vn -0.1852 -0.3564 0.9158
vn -0.2645 -0.5108 0.8180
vn -0.3321 -0.6433 0.6899
vn -0.3862 -0.7495 0.5377
vn -0.4254 -0.8268 0.3680
vn -0.4491 -0.8737 0.1868
vn -0.3753 -0.7331 -0.5671
vn -0.1402 -0.1659 0.9761
vn -0.2664 -0.3178 0.9100
vn -0.3782 -0.4529 0.8074
vn -0.4717 -0.5664 0.6758
vn -0.5449 -0.6555 0.5230
vn -0.5969 -0.7191 0.3558
vn -0.6280 -0.7571 0.1799
vn -0.5246 -0.6351 -0.5669
vn -0.1771 -0.1400 0.9742
vn -0.3355 -0.2674 0.9033
vn -0.4732 -0.3787 0.7954
vn -0.5858 -0.4700 0.6602
vn -0.6719 -0.5400 0.5070
vn -0.7319 -0.5889 0.3428
vn -0.7672 -0.6177 0.1727
vn -0.6409 -0.5182 -0.5664
vn -0.2066 -0.1092 0.9723
vn -0.3905 -0.2080 0.8968
vn -0.5475 -0.2928 0.7839
vn -0.6730 -0.3608 0.6457
vn -0.7669 -0.4117 0.4923
vn -0.8312 -0.4467 0.3311
vn -0.8685 -0.4670 0.1662
vn -0.7257 -0.3920 -0.5654
vn -0.2282 -0.0747 0.9707
vn -0.4303 -0.1421 0.8914
vn -0.6004 -0.1991 0.7746
vn -0.7339 -0.2439 0.6340
vn -0.8320 -0.2769 0.4808
vn -0.8982 -0.2992 0.3220
vn -0.9363 -0.3120 0.1612
vn -0.7828 -0.2621 -0.5644
vn -0.2413 -0.0380 0.9697
vn -0.4544 -0.0721 0.8879
vn -0.6319 -0.1006 0.7685
vn -0.7697 -0.1228 0.6265
vn -0.8698 -0.1390 0.4735
vn -0.9368 -0.1498 0.3163
vn -0.9750 -0.1560 0.1581
vn -0.8156 -0.1311 -0.5636
vn -0.2457 -0.0000 0.9693
vn -0.4624 -0.0000 0.8867
vn -0.6424 -0.0000 0.7664
vn -0.7814 -0.0000 0.6240
vn -0.8821 -0.0000 0.4710
vn -0.9493 -0.0000 0.3144
vn -0.9876 -0.0000 0.1571
vn -0.8262 -0.0000 -0.5633
vn -0.2413 0.0380 0.9697
vn -0.4544 0.0721 0.8879
vn -0.6319 0.1006 0.7685
vn -0.7697 0.1228 0.6265
vn -0.8698 0.1390 0.4735
vn -0.9368 0.1498 0.3163
vn -0.9750 0.1560 0.1581
vn -0.8156 0.1311 -0.5636
vn -0.2282 0.0747 0.9707
vn -0.4303 0.1421 0.8914
vn -0.6004 0.1991 0.7746
vn -0.7339 0.2439 0.6340
vn -0.8320 0.2769 0.4808
vn -0.8982 0.2992 0.3220
vn -0.9363 0.3120 0.1612
vn -0.7828 0.2621 -0.5644
vn -0.2066 0.1092 0.9723
vn -0.3905 0.2080 0.8968
vn -0.5475 0.2928 0.7839
vn -0.6730 0.3608 0.6457
vn -0.7669 0.4117 0.4923
vn -0.8312 0.4467 0.3311
vn -0.8685 0.4670 0.1662
vn -0.7257 0.3920 -0.5654
vn -0.1771 0.1400 0.9742
vn -0.3355 0.2674 0.9033
vn -0.4732 0.3787 0.7954
vn -0.5858 0.4700 0.6602
vn -0.6719 0.5400 0.5070
vn -0.7319 0.5889 0.3428
vn -0.7672 0.6177 0.1727
vn -0.6409 0.5182 -0.5664
vn -0.1403 0.1659 0.9761
vn -0.2664 0.3178 0.9100
vn -0.3782 0.4529 0.8074
vn -0.4717 0.5664 0.6758
vn -0.5449 0.6555 0.5230
vn -0.5969 0.7191 0.3558
vn -0.6280 0.7571 0.1799
vn -0.5247 0.6351 -0.5669
vn -0.0973 0.1857 0.9778
vn -0.1852 0.3564 0.9158
vn -0.2645 0.5108 0.8180
vn -0.3321 0.6433 0.6899
vn -0.3862 0.7495 0.5377
vn -0.4254 0.8268 0.3680
vn -0.4491 0.8737 0.1868
vn -0.3753 0.7331 -0.5671
vn -0.0499 0.1982 0.9789
vn -0.0951 0.3808 0.9198
vn -0.1363 0.5480 0.8253
vn -0.1719 0.6934 0.6997
vn -0.2008 0.8118 0.5482
vn -0.2221 0.8993 0.3768
vn -0.2351 0.9529 0.1918
vn -0.1966 0.7999 -0.5670
vn -0.0000 0.2024 0.9793
vn -0.0000 0.3892 0.9212
vn -0.0000 0.7109 0.7033
vn -0.0000 0.9250 0.3800
vn 0.0281 0.1101 -0.9935
vn -0.0000 0.1126 -0.9936
vn 0.0546 0.1029 -0.9932
vn 0.0784 0.0916 -0.9927
vn 0.0987 0.0770 -0.9921
vn 0.1148 0.0598 -0.9916
vn 0.1264 0.0408 -0.9911
vn 0.1335 0.0207 -0.9908
vn 0.1358 -0.0000 -0.9907
vn 0.1335 -0.0207 -0.9908
vn 0.1264 -0.0408 -0.9911
vn 0.1148 -0.0598 -0.9916
vn 0.0987 -0.0770 -0.9921
vn 0.0785 -0.0916 -0.9927
vn 0.0546 -0.1029 -0.9932
vn 0.0281 -0.1101 -0.9935
vn -0.0000 -0.1126 -0.9936
vn -0.0281 -0.1101 -0.9935
vn -0.0546 -0.1029 -0.9932
vn -0.0784 -0.0916 -0.9927
vn -0.0987 -0.0770 -0.9921
vn -0.1148 -0.0598 -0.9916
vn -0.1264 -0.0408 -0.9911
vn -0.1335 -0.0207 -0.9908
vn -0.1358 -0.0000 -0.9907
vn -0.1335 0.0207 -0.9908
vn -0.1264 0.0408 -0.9911
vn -0.1148 0.0598 -0.9916
vn -0.0987 0.0770 -0.9921
vn -0.0785 0.0916 -0.9927
vn -0.0546 0.1029 -0.9932
vn -0.0281 0.1101 -0.9935
vt 0.066605 0.121448
vt 0.066605 0.119748
vt 0.070912 0.119218
vt 0.071177 0.120885
vt 0.066605 0.122022
vt 0.071267 0.121448
vt 0.066605 0.097982
vt 0.066605 0.092155
vt 0.067515 0.097870
vt 0.066605 0.103584
vt 0.068389 0.103365
vt 0.066605 0.108748
vt 0.069195 0.108429
vt 0.066605 0.113274
vt 0.069901 0.112868
vt 0.066605 0.116988
vt 0.070481 0.116511
vt 0.073071 0.111666
vt 0.074208 0.115098
vt 0.075053 0.117648
vt 0.075573 0.119218
vt 0.075749 0.119748
vt 0.068389 0.097538
vt 0.070104 0.102714
vt 0.071685 0.107485
vt 0.069195 0.097000
vt 0.071685 0.101658
vt 0.073980 0.105952
vt 0.075992 0.109715
vt 0.077643 0.112803
vt 0.078869 0.115098
vt 0.079625 0.116511
vt 0.079880 0.116988
vt 0.080653 0.109715
vt 0.082214 0.111666
vt 0.083176 0.112868
vt 0.083501 0.113274
vt 0.069901 0.096275
vt 0.073071 0.100237
vt 0.075992 0.103888
vt 0.078552 0.107088
vt 0.074208 0.098505
vt 0.077643 0.101374
vt 0.080653 0.103888
vt 0.083124 0.105952
vt 0.084960 0.107485
vt 0.086090 0.108429
vt 0.086472 0.108748
vt 0.070481 0.095392
vt 0.087000 0.102714
vt 0.088256 0.103365
vt 0.088680 0.103584
vt 0.070912 0.094385
vt 0.075053 0.096529
vt 0.078869 0.098505
vt 0.082214 0.100237
vt 0.084960 0.101658
vt 0.075573 0.094385
vt 0.079625 0.095392
vt 0.083176 0.096275
vt 0.086090 0.097000
vt 0.088256 0.097538
vt 0.089589 0.097870
vt 0.090040 0.097982
vt 0.071177 0.093292
vt 0.088680 0.092155
vt 0.090040 0.092155
vt 0.090499 0.092155
vt 0.071267 0.092155
vt 0.075749 0.092155
vt 0.079880 0.092155
vt 0.083501 0.092155
vt 0.086472 0.092155
vt 0.079625 0.088918
vt 0.083176 0.088035
vt 0.086090 0.087310
vt 0.088256 0.086772
vt 0.089589 0.086440
vt 0.090040 0.086328
vt 0.071177 0.091018
vt 0.075573 0.089925
vt 0.088256 0.080945
vt 0.088680 0.080725
vt 0.070912 0.089925
vt 0.075053 0.087781
vt 0.078869 0.085805
vt 0.082214 0.084073
vt 0.084960 0.082652
vt 0.087000 0.081595
vt 0.077643 0.082936
vt 0.080653 0.080422
vt 0.083124 0.078358
vt 0.084960 0.076825
vt 0.086090 0.075881
vt 0.086472 0.075562
vt 0.070481 0.088918
vt 0.074208 0.085805
vt 0.083176 0.071442
vt 0.083501 0.071036
vt 0.069901 0.088035
vt 0.073071 0.084073
vt 0.075992 0.080422
vt 0.078552 0.077222
vt 0.080653 0.074595
vt 0.082214 0.072644
vt 0.075992 0.074595
vt 0.077643 0.071507
vt 0.078869 0.069212
vt 0.079625 0.067799
vt 0.079880 0.067322
vt 0.069195 0.087310
vt 0.071685 0.082652
vt 0.073980 0.078358
vt 0.068389 0.086772
vt 0.070104 0.081595
vt 0.071685 0.076825
vt 0.073071 0.072644
vt 0.074208 0.069212
vt 0.075053 0.066662
vt 0.075573 0.065092
vt 0.075749 0.064562
vt 0.070481 0.067799
vt 0.070912 0.065092
vt 0.071177 0.063425
vt 0.071267 0.062862
vt 0.067515 0.086440
vt 0.068389 0.080945
vt 0.069195 0.075881
vt 0.069901 0.071442
vt 0.066605 0.086328
vt 0.066605 0.080725
vt 0.066605 0.075562
vt 0.066605 0.071036
vt 0.066605 0.067322
vt 0.066605 0.064562
vt 0.066605 0.062862
vt 0.066605 0.062288
vt 0.062730 0.067799
vt 0.062299 0.065092
vt 0.062034 0.063425
vt 0.061944 0.062862
vt 0.065696 0.086440
vt 0.064822 0.080945
vt 0.064016 0.075881
vt 0.063309 0.071442
vt 0.063106 0.081595
vt 0.061525 0.076825
vt 0.060140 0.072644
vt 0.059003 0.069212
vt 0.058158 0.066662
vt 0.057637 0.065092
vt 0.057462 0.064562
vt 0.064822 0.086772
vt 0.054341 0.069212
vt 0.053586 0.067799
vt 0.053331 0.067322
vt 0.064016 0.087310
vt 0.061525 0.082652
vt 0.059230 0.078358
vt 0.057219 0.074595
vt 0.055568 0.071507
vt 0.060140 0.084073
vt 0.057219 0.080422
vt 0.054659 0.077222
vt 0.052558 0.074595
vt 0.050996 0.072644
vt 0.050035 0.071442
vt 0.049710 0.071036
vt 0.063309 0.088035
vt 0.048251 0.076825
vt 0.047121 0.075881
vt 0.046739 0.075562
vt 0.062730 0.088918
vt 0.059003 0.085805
vt 0.055568 0.082936
vt 0.052558 0.080422
vt 0.050087 0.078358
vt 0.054341 0.085805
vt 0.050996 0.084073
vt 0.048251 0.082652
vt 0.046211 0.081595
vt 0.044955 0.080945
vt 0.044531 0.080725
vt 0.062299 0.089925
vt 0.058158 0.087781
vt 0.043621 0.086440
vt 0.043171 0.086328
vt 0.062034 0.091018
vt 0.057637 0.089925
vt 0.053586 0.088918
vt 0.050035 0.088035
vt 0.047121 0.087310
vt 0.044955 0.086772
vt 0.049710 0.092155
vt 0.046739 0.092155
vt 0.044531 0.092155
vt 0.043171 0.092155
vt 0.042712 0.092155
vt 0.061944 0.092155
vt 0.057462 0.092155
vt 0.053331 0.092155
vt 0.062034 0.093292
vt 0.057637 0.094385
vt 0.053586 0.095392
vt 0.050035 0.096275
vt 0.047121 0.097000
vt 0.044955 0.097538
vt 0.043621 0.097870
vt 0.043171 0.097982
vt 0.050996 0.100237
vt 0.048251 0.101658
vt 0.046211 0.102714
vt 0.044955 0.103365
vt 0.044531 0.103584
vt 0.062299 0.094385
vt 0.058158 0.096529
vt 0.054341 0.098505
vt 0.062730 0.095392
vt 0.059003 0.098505
vt 0.055568 0.101374
vt 0.052558 0.103888
vt 0.050087 0.105952
vt 0.048251 0.107485
vt 0.047121 0.108429
vt 0.046739 0.108748
vt 0.052558 0.109715
vt 0.050996 0.111666
vt 0.050035 0.112868
vt 0.049710 0.113274
vt 0.063309 0.096275
vt 0.060140 0.100237
vt 0.057219 0.103888
vt 0.054659 0.107088
vt 0.064016 0.097000
vt 0.061525 0.101658
vt 0.059230 0.105952
vt 0.057219 0.109715
vt 0.055568 0.112803
vt 0.054341 0.115098
vt 0.053586 0.116511
vt 0.053331 0.116988
vt 0.059003 0.115098
vt 0.058158 0.117648
vt 0.057638 0.119218
vt 0.057462 0.119748
vt 0.064822 0.097538
vt 0.063106 0.102714
vt 0.061526 0.107485
vt 0.060140 0.111666
vt 0.064822 0.103365
vt 0.064016 0.108429
vt 0.063309 0.112868
vt 0.062730 0.116511
vt 0.062299 0.119218
vt 0.062034 0.120885
vt 0.061944 0.121448
vt 0.065696 0.097870
vt 0.051400 0.111162
vt 0.048725 0.107089
vt 0.070801 0.118518
vt 0.074835 0.116989
vt 0.078552 0.114505
vt 0.081811 0.111162
vt 0.084485 0.107089
vt 0.086473 0.102441
vt 0.087696 0.097399
vt 0.088109 0.092155
vt 0.087696 0.086911
vt 0.086473 0.081868
vt 0.084485 0.077221
vt 0.081811 0.073148
vt 0.078552 0.069805
vt 0.074835 0.067321
vt 0.070801 0.065791
vt 0.066605 0.065275
vt 0.062410 0.065791
vt 0.058376 0.067321
vt 0.054658 0.069805
vt 0.051400 0.073148
vt 0.048725 0.077221
vt 0.046738 0.081868
vt 0.045515 0.086911
vt 0.045101 0.092155
vt 0.045515 0.097399
vt 0.046738 0.102441
vt 0.054658 0.114505
vt 0.058376 0.116989
vt 0.062410 0.118518
vt 0.066605 0.119035
s 1
usemtl atlas
f 3/1/3 257/2/257 10/3/10 11/4/11
f 4/5/4 3/1/3 11/4/11 12/6/12
f 254/7/254 45/8/45 5/9/5
f 255/10/255 254/7/254 5/9/5 6/11/6
f 1/12/1 255/10/255 6/11/6 7/13/7
f 256/14/256 1/12/1 7/13/7 8/15/8
f 2/16/2 256/14/256 8/15/8 9/17/9
f 257/2/257 2/16/2 9/17/9 10/3/10
f 9/17/9 8/15/8 16/18/16 17/19/17
f 10/3/10 9/17/9 17/19/17 18/20/18
f 11/4/11 10/3/10 18/20/18 19/21/19
f 12/6/12 11/4/11 19/21/19 20/22/20
f 5/9/5 45/8/45 13/23/13
f 6/11/6 5/9/5 13/23/13 14/24/14
f 7/13/7 6/11/6 14/24/14 15/25/15
f 8/15/8 7/13/7 15/25/15 16/18/16
f 14/24/14 13/23/13 21/26/21 22/27/22
f 15/25/15 14/24/14 22/27/22 23/28/23
f 16/18/16 15/25/15 23/28/23 24/29/24
f 17/19/17 16/18/16 24/29/24 25/30/25
f 18/20/18 17/19/17 25/30/25 26/31/26
f 19/21/19 18/20/18 26/31/26 27/32/27
f 20/22/20 19/21/19 27/32/27 28/33/28
f 13/23/13 45/8/45 21/26/21
f 26/31/26 25/30/25 33/34/33 34/35/34
f 27/32/27 26/31/26 34/35/34 35/36/35
f 28/33/28 27/32/27 35/36/35 36/37/36
f 21/26/21 45/8/45 29/38/29
f 22/27/22 21/26/21 29/38/29 30/39/30
f 23/28/23 22/27/22 30/39/30 31/40/31
f 24/29/24 23/28/23 31/40/31 32/41/32
f 25/30/25 24/29/24 32/41/32 33/34/33
f 31/40/31 30/39/30 38/42/38 39/43/39
f 32/41/32 31/40/31 39/43/39 40/44/40
f 33/34/33 32/41/32 40/44/40 41/45/41
f 34/35/34 33/34/33 41/45/41 42/46/42
f 35/36/35 34/35/34 42/46/42 43/47/43
f 36/37/36 35/36/35 43/47/43 44/48/44
f 29/38/29 45/8/45 37/49/37
f 30/39/30 29/38/29 37/49/37 38/42/38
f 43/47/43 42/46/42 51/50/51 52/51/52
f 44/48/44 43/47/43 52/51/52 53/52/53
f 37/49/37 45/8/45 46/53/46
f 38/42/38 37/49/37 46/53/46 47/54/47
f 39/43/39 38/42/38 47/54/47 48/55/48
f 40/44/40 39/43/39 48/55/48 49/56/49
f 41/45/41 40/44/40 49/56/49 50/57/50
f 42/46/42 41/45/41 50/57/50 51/50/51
f 48/55/48 47/54/47 55/58/55 56/59/56
f 49/56/49 48/55/48 56/59/56 57/60/57
f 50/57/50 49/56/49 57/60/57 58/61/58
f 51/50/51 50/57/50 58/61/58 59/62/59
f 52/51/52 51/50/51 59/62/59 60/63/60
f 53/52/53 52/51/52 60/63/60 61/64/61
f 46/53/46 45/8/45 54/65/54
f 47/54/47 46/53/46 54/65/54 55/58/55
f 60/63/60 59/62/59 67/66/67 68/67/68
f 61/64/61 60/63/60 68/67/68 69/68/69
f 54/65/54 45/8/45 62/69/62
f 55/58/55 54/65/54 62/69/62 63/70/63
f 56/59/56 55/58/55 63/70/63 64/71/64
f 57/60/57 56/59/56 64/71/64 65/72/65
f 58/61/58 57/60/57 65/72/65 66/73/66
f 59/62/59 58/61/58 66/73/66 67/66/67
f 65/72/65 64/71/64 72/74/72 73/75/73
f 66/73/66 65/72/65 73/75/73 74/76/74
f 67/66/67 66/73/66 74/76/74 75/77/75
f 68/67/68 67/66/67 75/77/75 76/78/76
f 69/68/69 68/67/68 76/78/76 77/79/77
f 62/69/62 45/8/45 70/80/70
f 63/70/63 62/69/62 70/80/70 71/81/71
f 64/71/64 63/70/63 71/81/71 72/74/72
f 77/79/77 76/78/76 84/82/84 85/83/85
f 70/80/70 45/8/45 78/84/78
f 71/81/71 70/80/70 78/84/78 79/85/79
f 72/74/72 71/81/71 79/85/79 80/86/80
f 73/75/73 72/74/72 80/86/80 81/87/81
f 74/76/74 73/75/73 81/87/81 82/88/82
f 75/77/75 74/76/74 82/88/82 83/89/83
f 76/78/76 75/77/75 83/89/83 84/82/84
f 81/87/81 80/86/80 88/90/88 89/91/89
f 82/88/82 81/87/81 89/91/89 90/92/90
f 83/89/83 82/88/82 90/92/90 91/93/91
f 84/82/84 83/89/83 91/93/91 92/94/92
f 85/83/85 84/82/84 92/94/92 93/95/93
f 78/84/78 45/8/45 86/96/86
f 79/85/79 78/84/78 86/96/86 87/97/87
f 80/86/80 79/85/79 87/97/87 88/90/88
f 93/95/93 92/94/92 100/98/100 101/99/101
f 86/96/86 45/8/45 94/100/94
f 87/97/87 86/96/86 94/100/94 95/101/95
f 88/90/88 87/97/87 95/101/95 96/102/96
f 89/91/89 88/90/88 96/102/96 97/103/97
f 90/92/90 89/91/89 97/103/97 98/104/98
f 91/93/91 90/92/90 98/104/98 99/105/99
f 92/94/92 91/93/91 99/105/99 100/98/100
f 98/104/98 97/103/97 105/106/105 106/107/106
f 99/105/99 98/104/98 106/107/106 107/108/107
f 100/98/100 99/105/99 107/108/107 108/109/108
f 101/99/101 100/98/100 108/109/108 109/110/109
f 94/100/94 45/8/45 102/111/102
f 95/101/95 94/100/94 102/111/102 103/112/103
f 96/102/96 95/101/95 103/112/103 104/113/104
f 97/103/97 96/102/96 104/113/104 105/106/105
f 103/112/103 102/111/102 110/114/110 111/115/111
f 104/113/104 103/112/103 111/115/111 112/116/112
f 105/106/105 104/113/104 112/116/112 113/117/113
f 106/107/106 105/106/105 113/117/113 114/118/114
f 107/108/107 106/107/106 114/118/114 115/119/115
f 108/109/108 107/108/107 115/119/115 116/120/116
f 109/110/109 108/109/108 116/120/116 117/121/117
f 102/111/102 45/8/45 110/114/110
f 115/119/115 114/118/114 122/122/122 123/123/123
f 116/120/116 115/119/115 123/123/123 124/124/124
f 117/121/117 116/120/116 124/124/124 125/125/125
f 110/114/110 45/8/45 118/126/118
f 111/115/111 110/114/110 118/126/118 119/127/119
f 112/116/112 111/115/111 119/127/119 120/128/120
f 113/117/113 112/116/112 120/128/120 121/129/121
f 114/118/114 113/117/113 121/129/121 122/122/122
f 119/127/119 118/126/118 126/130/126 127/131/127
f 120/128/120 119/127/119 127/131/127 128/132/128
f 121/129/121 120/128/120 128/132/128 129/133/129
f 122/122/122 121/129/121 129/133/129 130/134/130
f 123/123/123 122/122/122 130/134/130 131/135/131
f 124/124/124 123/123/123 131/135/131 132/136/132
f 125/125/125 124/124/124 132/136/132 133/137/133
f 118/126/118 45/8/45 126/130/126
f 131/135/131 130/134/130 138/138/138 139/139/139
f 132/136/132 131/135/131 139/139/139 140/140/140
f 133/137/133 132/136/132 140/140/140 141/141/141
f 126/130/126 45/8/45 134/142/134
f 127/131/127 126/130/126 134/142/134 135/143/135
f 128/132/128 127/131/127 135/143/135 136/144/136
f 129/133/129 128/132/128 136/144/136 137/145/137
f 130/134/130 129/133/129 137/145/137 138/138/138
f 136/144/136 135/143/135 143/146/143 144/147/144
f 137/145/137 136/144/136 144/147/144 145/148/145
f 138/138/138 137/145/137 145/148/145 146/149/146
f 139/139/139 138/138/138 146/149/146 147/150/147
f 140/140/140 139/139/139 147/150/147 148/151/148
f 141/141/141 140/140/140 148/151/148 149/152/149
f 134/142/134 45/8/45 142/153/142
f 135/143/135 134/142/134 142/153/142 143/146/143
f 148/151/148 147/150/147 155/154/155 156/155/156
f 149/152/149 148/151/148 156/155/156 157/156/157
f 142/153/142 45/8/45 150/157/150
f 143/146/143 142/153/142 150/157/150 151/158/151
f 144/147/144 143/146/143 151/158/151 152/159/152
f 145/148/145 144/147/144 152/159/152 153/160/153
f 146/149/146 145/148/145 153/160/153 154/161/154
f 147/150/147 146/149/146 154/161/154 155/154/155
f 152/159/152 151/158/151 159/162/159 160/163/160
f 153/160/153 152/159/152 160/163/160 161/164/161
f 154/161/154 153/160/153 161/164/161 162/165/162
f 155/154/155 154/161/154 162/165/162 163/166/163
f 156/155/156 155/154/155 163/166/163 164/167/164
f 157/156/157 156/155/156 164/167/164 165/168/165
f 150/157/150 45/8/45 158/169/158
f 151/158/151 150/157/150 158/169/158 159/162/159
f 164/167/164 163/166/163 171/170/171 172/171/172
f 165/168/165 164/167/164 172/171/172 173/172/173
f 158/169/158 45/8/45 166/173/166
f 159/162/159 158/169/158 166/173/166 167/174/167
f 160/163/160 159/162/159 167/174/167 168/175/168
f 161/164/161 160/163/160 168/175/168 169/176/169
f 162/165/162 161/164/161 169/176/169 170/177/170
f 163/166/163 162/165/162 170/177/170 171/170/171
f 169/176/169 168/175/168 176/178/176 177/179/177
f 170/177/170 169/176/169 177/179/177 178/180/178
f 171/170/171 170/177/170 178/180/178 179/181/179
f 172/171/172 171/170/171 179/181/179 180/182/180
f 173/172/173 172/171/172 180/182/180 181/183/181
f 166/173/166 45/8/45 174/184/174
f 167/174/167 166/173/166 174/184/174 175/185/175
f 168/175/168 167/174/167 175/185/175 176/178/176
f 181/183/181 180/182/180 188/186/188 189/187/189
f 174/184/174 45/8/45 182/188/182
f 175/185/175 174/184/174 182/188/182 183/189/183
f 176/178/176 175/185/175 183/189/183 184/190/184
f 177/179/177 176/178/176 184/190/184 185/191/185
f 178/180/178 177/179/177 185/191/185 186/192/186
f 179/181/179 178/180/178 186/192/186 187/193/187
f 180/182/180 179/181/179 187/193/187 188/186/188
f 186/192/186 185/191/185 193/194/193 194/195/194
f 187/193/187 186/192/186 194/195/194 195/196/195
f 188/186/188 187/193/187 195/196/195 196/197/196
f 189/187/189 188/186/188 196/197/196 197/198/197
f 182/188/182 45/8/45 190/199/190
f 183/189/183 182/188/182 190/199/190 191/200/191
f 184/190/184 183/189/183 191/200/191 192/201/192
f 185/191/185 184/190/184 192/201/192 193/194/193
f 190/199/190 45/8/45 198/202/198
f 191/200/191 190/199/190 198/202/198 199/203/199
f 192/201/192 191/200/191 199/203/199 200/204/200
f 193/194/193 192/201/192 200/204/200 201/205/201
f 194/195/194 193/194/193 201/205/201 202/206/202
f 195/196/195 194/195/194 202/206/202 203/207/203
f 196/197/196 195/196/195 203/207/203 204/208/204
f 197/198/197 196/197/196 204/208/204 205/209/205
f 202/206/202 201/205/201 209/210/209 210/211/210
f 203/207/203 202/206/202 210/211/210 211/212/211
f 204/208/204 203/207/203 211/212/211 212/213/212
f 205/209/205 204/208/204 212/213/212 213/214/213
f 198/202/198 45/8/45 206/215/206
f 199/203/199 198/202/198 206/215/206 207/216/207
f 200/204/200 199/203/199 207/216/207 208/217/208
f 201/205/201 200/204/200 208/217/208 209/210/209
f 207/216/207 206/215/206 214/218/214 215/219/215
f 208/217/208 207/216/207 215/219/215 216/220/216
f 209/210/209 208/217/208 216/220/216 217/221/217
f 210/211/210 209/210/209 217/221/217 218/222/218
f 211/212/211 210/211/210 218/222/218 219/223/219
f 212/213/212 211/212/211 219/223/219 220/224/220
f 213/214/213 212/213/212 220/224/220 221/225/221
f 206/215/206 45/8/45 214/218/214
f 219/223/219 218/222/218 226/226/226 227/227/227
f 220/224/220 219/223/219 227/227/227 228/228/228
f 221/225/221 220/224/220 228/228/228 229/229/229
f 214/218/214 45/8/45 222/230/222
f 215/219/215 214/218/214 222/230/222 223/231/223
f 216/220/216 215/219/215 223/231/223 224/232/224
f 217/221/217 216/220/216 224/232/224 225/233/225
f 218/222/218 217/221/217 225/233/225 226/226/226
f 223/231/223 222/230/222 230/234/230 231/235/231
f 224/232/224 223/231/223 231/235/231 232/236/232
f 225/233/225 224/232/224 232/236/232 233/237/233
f 226/226/226 225/233/225 233/237/233 234/238/234
f 227/227/227 226/226/226 234/238/234 235/239/235
f 228/228/228 227/227/227 235/239/235 236/240/236
f 229/229/229 228/228/228 236/240/236 237/241/237
f 222/230/222 45/8/45 230/234/230
f 235/239/235 234/238/234 242/242/242 243/243/243
f 236/240/236 235/239/235 243/243/243 244/244/244
f 237/241/237 236/240/236 244/244/244 245/245/245
f 230/234/230 45/8/45 238/246/238
f 231/235/231 230/234/230 238/246/238 239/247/239
f 232/236/232 231/235/231 239/247/239 240/248/240
f 233/237/233 232/236/232 240/248/240 241/249/241
f 234/238/234 233/237/233 241/249/241 242/242/242
f 240/248/240 239/247/239 247/250/247 248/251/248
f 241/249/241 240/248/240 248/251/248 249/252/249
f 242/242/242 241/249/241 249/252/249 250/253/250
f 243/243/243 242/242/242 250/253/250 251/254/251
f 244/244/244 243/243/243 251/254/251 252/255/252
f 245/245/245 244/244/244 252/255/252 253/256/253
f 238/246/238 45/8/45 246/257/246
f 239/247/239 238/246/238 246/257/246 247/250/247
f 252/255/252 251/254/251 257/2/257 3/1/3
f 253/256/253 252/255/252 3/1/3 4/5/4
f 246/257/246 45/8/45 254/7/254
f 247/250/247 246/257/246 254/7/254 255/10/255
f 248/251/248 247/250/247 255/10/255 1/12/1
f 249/252/249 248/251/248 1/12/1 256/14/256
f 250/253/250 249/252/249 256/14/256 2/16/2
f 221/225/221 229/229/229 286/258/286 285/259/285
f 251/254/251 250/253/250 2/16/2 257/2/257
f 258/260/258 260/261/260 261/262/261 262/263/262 263/264/263 264/265/264 265/266/265 266/267/266 267/268/267 268/269/268 269/270/269 270/271/270 271/272/271 272/273/272 273/274/273 274/275/274 275/276/275 276/277/276 277/278/277 278/279/278 279/280/279 280/281/280 281/282/281 282/283/282 283/284/283 284/285/284 285/259/285 286/258/286 287/286/287 288/287/288 289/288/289 259/289/259
f 141/141/141 149/152/149 276/277/276 275/276/275
f 28/33/28 36/37/36 262/263/262 261/262/261
f 165/168/165 173/172/173 279/280/279 278/279/278
f 109/110/109 117/121/117 272/273/272 271/272/271
f 85/83/85 93/95/93 269/270/269 268/269/268
f 253/256/253 4/5/4 259/289/259 289/288/289
f 181/183/181 189/187/189 281/282/281 280/281/280
f 237/241/237 245/245/245 288/287/288 287/286/287
f 157/156/157 165/168/165 278/279/278 277/278/277
f 101/99/101 109/110/109 271/272/271 270/271/270
f 44/48/44 53/52/53 264/265/264 263/264/263
f 36/37/36 44/48/44 263/264/263 262/263/262
f 229/229/229 237/241/237 287/286/287 286/258/286
f 173/172/173 181/183/181 280/281/280 279/280/279
f 117/121/117 125/125/125 273/274/273 272/273/272
f 197/198/197 205/209/205 283/284/283 282/283/282
f 61/64/61 69/68/69 266/267/266 265/266/265
f 245/245/245 253/256/253 289/288/289 288/287/288
f 189/187/189 197/198/197 282/283/282 281/282/281
f 77/79/77 85/83/85 268/269/268 267/268/267
f 213/214/213 221/225/221 285/259/285 284/285/284
f 133/137/133 141/141/141 275/276/275 274/275/274
f 53/52/53 61/64/61 265/266/265 264/265/264
f 20/22/20 28/33/28 261/262/261 260/261/260
f 205/209/205 213/214/213 284/285/284 283/284/283
f 149/152/149 157/156/157 277/278/277 276/277/276
f 4/5/4 12/6/12 258/260/258 259/289/259
f 125/125/125 133/137/133 274/275/274 273/274/273
f 93/95/93 101/99/101 270/271/270 269/270/269
f 69/68/69 77/79/77 267/268/267 266/267/266
f 12/6/12 20/22/20 260/261/260 258/260/258
o Cube.013
v 0.090411 0.018231 0.052770
v 0.090411 0.031589 0.079597
v 0.083518 0.142874 -0.009293
v 0.083518 0.156232 0.017534
v 0.268040 0.018231 0.052770
v 0.268040 0.031589 0.079597
v 0.274933 0.142874 -0.009293
v 0.274933 0.156232 0.017534
v 0.212687 0.157148 0.053088
v 0.145763 0.157148 0.053088
v 0.146661 0.170505 0.079915
v 0.211790 0.170505 0.079915
v 0.149620 0.003578 0.129554
v 0.208830 0.003578 0.129554
v 0.208830 0.016936 0.156381
v 0.149620 0.016936 0.156381
vn -0.9988 -0.0443 0.0220
vn -0.2364 0.8682 -0.4363
vn 0.9988 -0.0443 0.0220
vn -0.6245 -0.6992 0.3481
vn -0.7215 -0.2861 -0.6305
vn -0.7185 0.2895 0.6325
vn 0.7185 0.2895 0.6325
vn -0.0000 0.4457 0.8952
vn 0.7215 -0.2861 -0.6305
vn -0.0000 -0.4457 -0.8952
vn 0.6245 -0.6992 0.3481
vn -0.0000 -0.8952 0.4457
vn 0.2364 0.8682 -0.4363
vn -0.0000 0.8952 -0.4457
vt 0.951241 0.823948
vt 0.954252 0.825251
vt 0.958773 0.731483
vt 0.955637 0.732828
vt 0.872621 0.740383
vt 0.874035 0.739185
vt 0.829944 0.731484
vt 0.830444 0.732828
vt 0.834569 0.825251
vt 0.834939 0.823948
vt 0.916538 0.859700
vt 0.918670 0.862194
vt 0.875340 0.859700
vt 0.920687 0.739185
vt 0.876197 0.862194
vt 0.919121 0.740383
s 0
usemtl atlas
f 290/290/290 291/291/290 293/292/290 292/293/290
f 298/294/291 301/295/291 297/296/291 296/297/291
f 296/297/292 297/296/292 295/298/292 294/299/292
f 302/300/293 305/301/293 291/291/293 290/290/293
f 298/294/294 296/297/294 294/299/294 303/302/294
f 300/303/295 293/292/295 291/291/295 305/301/295
f 297/296/296 301/295/296 304/304/296 295/298/296
f 301/295/297 300/303/297 305/301/297 304/304/297
f 292/293/298 299/305/298 302/300/298 290/290/298
f 299/305/299 298/294/299 303/302/299 302/300/299
f 294/299/300 295/298/300 304/304/300 303/302/300
f 303/302/301 304/304/301 305/301/301 302/300/301
f 292/293/302 293/292/302 300/303/302 299/305/302
f 299/305/303 300/303/303 301/295/303 298/294/303
o Cube.014
v 0.114867 0.144301 0.018914
v 0.114867 0.147366 0.045990
v 0.129052 0.241992 0.007856
v 0.129052 0.245057 0.034932
v 0.243584 0.144301 0.018914
v 0.243584 0.147366 0.045990
v 0.229399 0.241992 0.007856
v 0.229399 0.245057 0.034932
v 0.184294 0.244602 0.030914
v 0.174157 0.244602 0.030914
v 0.174808 0.247666 0.057990
v 0.183643 0.247666 0.057990
v 0.157773 0.146911 0.041972
v 0.200678 0.146911 0.041972
v 0.200678 0.149976 0.069048
v 0.157773 0.149976 0.069048
vn -0.9898 0.1419 -0.0161
vn -0.0000 0.9937 -0.1125
vn 0.9898 0.1419 -0.0161
vn -0.0000 -0.9937 0.1125
vn -0.4652 -0.1711 -0.8685
vn -0.4625 0.1723 0.8697
vn 0.4625 0.1723 0.8697
vn -0.0000 0.1125 0.9937
vn 0.4652 -0.1711 -0.8685
vn -0.0000 -0.1125 -0.9937
vt 0.691400 0.835094
vt 0.690824 0.840248
vt 0.682036 0.773316
vt 0.682855 0.769762
vt 0.643225 0.771734
vt 0.641775 0.775439
vt 0.610994 0.771415
vt 0.613662 0.767907
vt 0.602136 0.837965
vt 0.604959 0.832862
vt 0.661489 0.838708
vt 0.660106 0.844078
vt 0.632040 0.837950
vt 0.648176 0.775610
vt 0.629874 0.843302
vt 0.650373 0.771926
s 0
usemtl atlas
f 306/306/304 307/307/304 309/308/304 308/309/304
f 314/310/305 317/311/305 313/312/305 312/313/305
f 312/313/306 313/312/306 311/314/306 310/315/306
f 318/316/307 321/317/307 307/307/307 306/306/307
f 314/310/308 312/313/308 310/315/308 319/318/308
f 316/319/309 309/308/309 307/307/309 321/317/309
f 313/312/310 317/311/310 320/320/310 311/314/310
f 317/311/311 316/319/311 321/317/311 320/320/311
f 308/309/312 315/321/312 318/316/312 306/306/312
f 315/321/313 314/310/313 319/318/313 318/316/313
f 310/315/307 311/314/307 320/320/307 319/318/307
f 319/318/307 320/320/307 321/317/307 318/316/307
f 308/309/305 309/308/305 316/319/305 315/321/305
f 315/321/305 316/319/305 317/311/305 314/310/305
o Cube.015
v 0.145527 -0.114756 0.000191
v 0.145527 -0.066344 0.121601
v 0.125303 -0.013618 0.048244
v 0.125303 -0.013618 0.104076
v 0.212924 -0.114756 0.000191
v 0.212924 -0.066344 0.121601
v 0.233147 -0.013618 0.048244
v 0.233147 -0.013618 0.104076
v 0.125303 -0.047331 0.048244
v 0.125303 -0.081043 0.000191
v 0.125303 -0.048769 0.121601
v 0.125303 -0.031194 0.104076
v 0.233147 -0.081043 0.000191
v 0.233147 -0.047331 0.048244
v 0.233147 -0.031194 0.104076
v 0.233147 -0.048769 0.121601
vn -1.0000 -0.0000 -0.0000
vn -0.0000 1.0000 -0.0000
vn 0.8338 -0.5239 0.1741
vn 0.9214 -0.3687 0.1225
vn 0.4554 -0.8349 0.3090
vn 0.3756 -0.8675 0.3262
vn -0.4554 -0.8349 0.3090
vn -0.3756 -0.8675 0.3262
vn -0.0000 0.5540 -0.8325
vn -0.0000 -0.0000 -1.0000
vn -0.0000 0.5188 0.8549
vn -0.0000 -0.0000 1.0000
vn -0.0000 0.3820 0.9242
vn -0.0000 0.4613 -0.8872
vn 1.0000 -0.0000 -0.0000
vn -0.9214 -0.3687 0.1225
vn -0.8338 -0.5239 0.1741
vt 0.612892 0.619309
vt 0.612892 0.652197
vt 0.676417 0.652197
vt 0.676417 0.619309
vt 0.676417 0.591004
vt 0.676417 0.662521
vt 0.664505 0.662521
vt 0.664505 0.591004
vt 0.624804 0.662521
vt 0.624804 0.591004
vt 0.612892 0.591004
vt 0.612892 0.662521
s 1
usemtl atlas
f 330/322/314 333/323/314 325/323/314 324/322/314
f 324/322/315 325/323/315 329/324/315 328/325/315
f 334/326/316 337/327/317 327/328/318 326/329/319
f 326/329/319 327/328/318 323/330/320 322/331/321
f 331/332/322 334/326/322 326/329/323 322/331/323
f 337/327/324 332/333/324 323/330/325 327/328/325
f 329/324/325 325/323/325 333/323/326 336/324/326
f 336/324/326 333/323/326 332/333/324 337/327/324
f 324/322/323 328/325/323 335/325/327 330/322/327
f 330/322/327 335/325/327 334/326/322 331/332/322
f 328/325/328 329/324/328 336/324/328 335/325/328
f 335/325/328 336/324/328 337/327/317 334/326/316
f 322/331/321 323/330/320 332/333/329 331/332/330
f 331/332/330 332/333/329 333/323/314 330/322/314
