# Blender 4.5.3 LTS
# www.blender.org
mtllib right_upper_leg.mtl
o Cube.007
v 0.133371 -0.337445 0.555670
v 0.133371 0.009645 1.035161
v 0.133371 -0.222810 0.555670
v 0.133371 0.124280 1.035161
v 0.225079 -0.337445 0.555670
v 0.225079 0.009645 1.035161
v 0.225079 -0.222810 0.555670
v 0.225079 0.124280 1.035161
vn -1.0000 -0.0000 -0.0000
vn -0.0000 0.8100 -0.5864
vn 1.0000 -0.0000 -0.0000
vn -0.0000 -0.8100 0.5864
vn -0.0000 -0.0000 -1.0000
vn -0.0000 -0.0000 1.0000
vt 0.417238 0.186074
vt 0.417238 0.398992
vt 0.376515 0.398992
vt 0.376515 0.186074
s 0
usemtl atlas
f 1/1/1 2/2/1 4/2/1 3/1/1
f 3/1/2 4/2/2 8/3/2 7/4/2
f 7/4/3 8/3/3 6/3/3 5/4/3
f 5/4/4 6/3/4 2/2/4 1/1/4
f 3/1/5 7/4/5 5/4/5 1/1/5
f 8/3/6 4/2/6 2/2/6 6/3/6
o Cylinder.014
v 0.128572 0.216422 1.029509
v 0.226743 0.216422 1.029509
v 0.128572 0.213437 0.999205
v 0.226743 0.213437 0.999205
v 0.128572 0.204598 0.970065
v 0.226743 0.204598 0.970065
v 0.128572 0.190243 0.943210
v 0.226743 0.190243 0.943210
v 0.128572 0.170926 0.919671
v 0.226743 0.170926 0.919671
v 0.128572 0.147387 0.900353
v 0.226743 0.147387 0.900353
v 0.128572 0.120531 0.885998
v 0.226743 0.120531 0.885998
v 0.128572 0.091392 0.877159
v 0.226743 0.091392 0.877159
v 0.128572 0.061087 0.874174
v 0.226743 0.061087 0.874174
v 0.128572 0.030783 0.877159
v 0.226743 0.030783 0.877159
v 0.128572 0.001644 0.885998
v 0.226743 0.001644 0.885998
v 0.128572 -0.025212 0.900353
v 0.226743 -0.025212 0.900353
v 0.128572 -0.048751 0.919671
v 0.226743 -0.048751 0.919671
v 0.128572 -0.068068 0.943210
v 0.226743 -0.068068 0.943210
v 0.128572 -0.082423 0.970065
v 0.226743 -0.082423 0.970065
v 0.128572 -0.091262 0.999205
v 0.226743 -0.091262 0.999205
v 0.128572 -0.094247 1.029509
v 0.226743 -0.094247 1.029509
v 0.128572 -0.091262 1.059813
v 0.226743 -0.091262 1.059813
v 0.128572 -0.082423 1.088953
v 0.226743 -0.082423 1.088953
v 0.128572 -0.068068 1.115808
v 0.226743 -0.068068 1.115808
v 0.128572 -0.048751 1.139347
v 0.226743 -0.048751 1.139347
v 0.128572 -0.025212 1.158665
v 0.226743 -0.025212 1.158665
v 0.128572 0.001644 1.173019
v 0.226743 0.001644 1.173019
v 0.128572 0.030783 1.181859
v 0.226743 0.030783 1.181859
v 0.128572 0.061087 1.184843
v 0.226743 0.061087 1.184843
v 0.128572 0.091392 1.181859
v 0.226743 0.091392 1.181859
v 0.128572 0.120531 1.173019
v 0.226743 0.120531 1.173019
v 0.128572 0.147387 1.158665
v 0.226743 0.147387 1.158665
v 0.128572 0.170926 1.139347
v 0.226743 0.170926 1.139347
v 0.128572 0.190243 1.115808
v 0.226743 0.190243 1.115808
v 0.128572 0.204598 1.088953
v 0.226743 0.204598 1.088953
v 0.128572 0.213437 1.059813
v 0.226743 0.213437 1.059813
vn -0.0000 1.0000 -0.0000
vn -0.0000 0.9808 -0.1951
vn -0.0000 0.9239 -0.3827
vn -0.0000 0.8315 -0.5556
vn -0.0000 0.7071 -0.7071
vn -0.0000 0.5556 -0.8315
vn -0.0000 0.3827 -0.9239
vn -0.0000 0.1951 -0.9808
vn -0.0000 -0.0000 -1.0000
vn -0.0000 -0.1951 -0.9808
vn -0.0000 -0.3827 -0.9239
vn -0.0000 -0.5556 -0.8315
vn -0.0000 -0.7071 -0.7071
vn -0.0000 -0.8315 -0.5556
vn -0.0000 -0.9239 -0.3827
vn -0.0000 -0.9808 -0.1951
vn -0.0000 -1.0000 -0.0000
vn -0.0000 -0.9808 0.1951
vn -0.0000 -0.9239 0.3827
vn -0.0000 -0.8315 0.5556
vn -0.0000 -0.7071 0.7071
vn -0.0000 -0.5556 0.8315
vn -0.0000 -0.3827 0.9239
vn -0.0000 -0.1951 0.9808
vn -0.0000 -0.0000 1.0000
vn -0.0000 0.1951 0.9808
vn -0.0000 0.3827 0.9239
vn -0.0000 0.5556 0.8315
vn -0.0000 0.7071 0.7071
vn -0.0000 0.8315 0.5556
vn -0.0000 0.9239 0.3827
vn 1.0000 -0.0000 -0.0000
vn -0.0000 0.9808 0.1951
vn -1.0000 -0.0000 -0.0000
vt 0.450425 0.182805
vt 0.490447 0.165681
vt 0.488428 0.150192
vt 0.448799 0.167809
vt 0.484355 0.134457
vt 0.445095 0.152617
vt 0.478383 0.118948
vt 0.439456 0.137687
vt 0.470704 0.104122
vt 0.432065 0.123467
vt 0.461539 0.090418
vt 0.423139 0.110381
vt 0.451149 0.078258
vt 0.412934 0.098837
vt 0.439828 0.068044
vt 0.401741 0.089221
vt 0.427906 0.060151
vt 0.389890 0.081890
vt 0.415755 0.054918
vt 0.377751 0.077160
vt 0.403780 0.052634
vt 0.365731 0.075298
vt 0.392422 0.053516
vt 0.354268 0.076496
vt 0.382138 0.057686
vt 0.343823 0.080852
vt 0.373394 0.065146
vt 0.334859 0.088348
vt 0.366630 0.075749
vt 0.327819 0.098821
vt 0.362235 0.089181
vt 0.323097 0.111953
vt 0.360509 0.104958
vt 0.320997 0.127261
vt 0.361631 0.122425
vt 0.321710 0.144112
vt 0.365627 0.140796
vt 0.325276 0.161748
vt 0.372357 0.159193
vt 0.331576 0.179334
vt 0.381514 0.176716
vt 0.340326 0.196018
vt 0.392648 0.192511
vt 0.351099 0.210994
vt 0.405197 0.205837
vt 0.363357 0.223566
vt 0.418535 0.216116
vt 0.376492 0.233195
vt 0.432024 0.222967
vt 0.389880 0.239524
vt 0.445058 0.226213
vt 0.402918 0.242392
vt 0.457099 0.225871
vt 0.415067 0.241819
vt 0.467700 0.222120
vt 0.425869 0.237980
vt 0.476516 0.215271
vt 0.434965 0.231176
vt 0.483306 0.205727
vt 0.442095 0.221795
vt 0.487922 0.193950
vt 0.447092 0.210286
vt 0.490300 0.180433
vt 0.449872 0.197126
s 1
usemtl atlas
f 9/5/7 10/6/7 12/7/8 11/8/8
f 11/8/8 12/7/8 14/9/9 13/10/9
f 13/10/9 14/9/9 16/11/10 15/12/10
f 15/12/10 16/11/10 18/13/11 17/14/11
f 17/14/11 18/13/11 20/15/12 19/16/12
f 19/16/12 20/15/12 22/17/13 21/18/13
f 21/18/13 22/17/13 24/19/14 23/20/14
f 23/20/14 24/19/14 26/21/15 25/22/15
f 25/22/15 26/21/15 28/23/16 27/24/16
f 27/24/16 28/23/16 30/25/17 29/26/17
f 29/26/17 30/25/17 32/27/18 31/28/18
f 31/28/18 32/27/18 34/29/19 33/30/19
f 33/30/19 34/29/19 36/31/20 35/32/20
f 35/32/20 36/31/20 38/33/21 37/34/21
f 37/34/21 38/33/21 40/35/22 39/36/22
f 39/36/22 40/35/22 42/37/23 41/38/23
f 41/38/23 42/37/23 44/39/24 43/40/24
f 43/40/24 44/39/24 46/41/25 45/42/25
f 45/42/25 46/41/25 48/43/26 47/44/26
f 47/44/26 48/43/26 50/45/27 49/46/27
f 49/46/27 50/45/27 52/47/28 51/48/28
f 51/48/28 52/47/28 54/49/29 53/50/29
f 53/50/29 54/49/29 56/51/30 55/52/30
f 55/52/30 56/51/30 58/53/31 57/54/31
f 57/54/31 58/53/31 60/55/32 59/56/32
f 59/56/32 60/55/32 62/57/33 61/58/33
f 61/58/33 62/57/33 64/59/34 63/60/34
f 63/60/34 64/59/34 66/61/35 65/62/35
f 65/62/35 66/61/35 68/63/36 67/64/36
f 67/64/36 68/63/36 70/65/37 69/66/37
f 12/7/38 10/6/38 72/67/38 70/65/38 68/63/38 66/61/38 64/59/38 62/57/38 60/55/38 58/53/38 56/51/38 54/49/38 52/47/38 50/45/38 48/43/38 46/41/38 44/39/38 42/37/38 40/35/38 38/33/38 36/31/38 34/29/38 32/27/38 30/25/38 28/23/38 26/21/38 24/19/38 22/17/38 20/15/38 18/13/38 16/11/38 14/9/38
f 69/66/37 70/65/37 72/67/39 71/68/39
f 71/68/39 72/67/39 10/6/7 9/5/7
f 9/5/40 11/8/40 13/10/40 15/12/40 17/14/40 19/16/40 21/18/40 23/20/40 25/22/40 27/24/40 29/26/40 31/28/40 33/30/40 35/32/40 37/34/40 39/36/40 41/38/40 43/40/40 45/42/40 47/44/40 49/46/40 51/48/40 53/50/40 55/52/40 57/54/40 59/56/40 61/58/40 63/60/40 65/62/40 67/64/40 69/66/40 71/68/40
o Cube.009
v 0.246099 -0.358563 0.554129
v 0.246099 -0.086018 0.914443
v 0.246099 -0.199355 0.554129
v 0.246099 0.191675 0.914443
v 0.266146 -0.358563 0.554129
v 0.266146 -0.086018 0.914443
v 0.266146 -0.199355 0.554129
v 0.266146 0.191675 0.914443
v 0.246099 -0.126038 1.044574
v 0.246099 0.231492 1.044574
v 0.266146 0.231492 1.044574
v 0.266146 -0.126038 1.044574
v 0.246099 -0.048100 1.176447
v 0.246099 0.153756 1.176447
v 0.266146 0.153756 1.176447
v 0.266146 -0.048100 1.176447
v 0.246099 -0.278959 0.554129
v 0.246099 0.051059 0.914443
v 0.266146 -0.278959 0.554129
v 0.266146 0.051059 0.914443
v 0.246099 0.052235 1.044574
v 0.266146 0.052235 1.044574
v 0.246099 0.052235 1.207655
v 0.266146 0.052235 1.207655
v 0.266146 -0.097194 1.126824
v 0.246099 -0.097194 1.126824
v 0.246099 0.202604 1.126824
v 0.266146 0.202604 1.126824
v 0.246099 0.052235 1.126824
v 0.266146 0.052235 1.126824
v 0.246099 -0.116335 0.968094
v 0.246099 0.221641 0.968094
v 0.266146 -0.116335 0.968094
v 0.266146 0.221641 0.968094
v 0.266146 0.051647 0.968094
v 0.246099 0.051647 0.968094
vn -1.0000 -0.0000 -0.0000
vn -0.0000 0.3637 -0.9315
vn -0.0000 0.7852 -0.6193
vn 1.0000 -0.0000 -0.0000
vn -0.0000 -0.7975 0.6033
vn -0.0000 -0.9978 0.0666
vn -0.0000 -0.0000 -1.0000
vn -0.0000 -0.8480 0.5301
vn -0.0000 -0.5194 0.8545
vn -0.0000 -0.9492 -0.3148
vn -0.0000 -0.9944 0.1053
vn -0.0000 0.9496 -0.3134
vn -0.0000 0.9945 0.1046
vn -0.0000 -0.0017 1.0000
vn -0.0000 0.8485 0.5292
vn -0.0000 0.5191 0.8547
vt 0.665648 0.787469
vt 0.677992 0.638047
vt 0.648680 0.606383
vt 0.649054 0.769543
vt 0.706565 0.668914
vt 0.682241 0.805394
vt 0.689950 0.626731
vt 0.724966 0.664557
vt 0.744210 0.650800
vt 0.707049 0.610656
vt 0.756719 0.627160
vt 0.757660 0.605761
vt 0.654515 0.588451
vt 0.669683 0.570291
vt 0.743772 0.576662
vt 0.694226 0.559651
vt 0.715583 0.560306
vt 0.725571 0.593511
s 1
usemtl atlas
f 89/69/41 90/70/41 76/71/41 75/72/41
f 75/72/42 76/71/43 80/71/43 79/72/42
f 91/69/44 92/70/44 78/73/44 77/74/44
f 77/74/45 78/73/46 74/73/46 73/74/45
f 89/69/47 91/69/47 77/74/47 73/74/47
f 108/75/41 103/76/41 81/77/41 93/78/41
f 98/79/48 97/79/48 88/80/49 85/80/49
f 103/76/50 105/76/50 84/77/51 81/77/51
f 106/81/52 104/81/52 82/82/53 83/82/53
f 107/75/44 106/81/44 83/82/44 94/78/44
f 96/83/54 95/83/54 85/80/49 88/80/49
f 100/84/55 99/84/55 86/85/56 87/85/56
f 102/86/44 100/84/44 87/85/44 96/83/44
f 101/86/41 98/79/41 85/80/41 95/83/41
f 99/84/41 101/86/41 95/83/41 86/85/41
f 97/79/44 102/86/44 96/83/44 88/80/44
f 87/85/56 86/85/56 95/83/54 96/83/54
f 105/76/44 107/75/44 94/78/44 84/77/44
f 104/81/41 108/75/41 93/78/41 82/82/41
f 75/72/42 79/72/42 91/69/47 89/69/47
f 79/72/44 80/71/44 92/70/44 91/69/44
f 73/74/41 74/73/41 90/70/41 89/69/41
f 84/77/44 94/78/44 102/86/44 97/79/44
f 82/82/41 93/78/41 101/86/41 99/84/41
f 93/78/41 81/77/41 98/79/41 101/86/41
f 94/78/44 83/82/44 100/84/44 102/86/44
f 83/82/53 82/82/53 99/84/55 100/84/55
f 81/77/51 84/77/51 97/79/48 98/79/48
f 76/71/41 90/70/41 108/75/41 104/81/41
f 78/73/44 92/70/44 107/75/44 105/76/44
f 92/70/44 80/71/44 106/81/44 107/75/44
f 80/71/43 76/71/43 104/81/52 106/81/52
f 74/73/46 78/73/46 105/76/50 103/76/50
f 90/70/41 74/73/41 103/76/41 108/75/41
o Cube.016
v 0.132508 -0.373876 0.566698
v 0.116438 -0.316501 0.645144
v 0.132508 -0.355023 0.552909
v 0.116438 -0.297648 0.631355
v 0.227222 -0.373876 0.566698
v 0.243293 -0.316501 0.645144
v 0.227222 -0.355023 0.552909
v 0.243293 -0.297648 0.631355
v 0.132508 -0.361049 0.540915
v 0.132508 -0.384271 0.543430
v 0.227222 -0.361049 0.540915
v 0.227222 -0.384271 0.543430
v 0.132508 -0.360272 0.527515
v 0.132508 -0.381640 0.518082
v 0.227222 -0.360272 0.527515
v 0.227222 -0.381640 0.518082
vn -0.9866 -0.0963 -0.1317
vn -0.0000 0.8072 -0.5903
vn 0.9866 -0.0963 -0.1317
vn -0.0000 -0.8072 0.5903
vn -0.0000 -0.9130 0.4079
vn -0.0000 0.5903 0.8072
vn -0.0000 -0.9947 -0.1032
vn -0.0000 0.8935 -0.4490
vn -1.0000 -0.0000 -0.0000
vn 1.0000 -0.0000 -0.0000
vn -0.0000 0.9983 0.0579
vn -0.0000 0.4038 -0.9148
vt 0.864206 0.822166
vt 0.854740 0.868374
vt 0.854740 0.860252
vt 0.864206 0.814043
vt 0.929464 0.860252
vt 0.919997 0.814043
vt 0.929464 0.868374
vt 0.919997 0.822166
vt 0.864206 0.808460
vt 0.919997 0.808460
vt 0.864206 0.793529
vt 0.919997 0.793529
vt 0.919997 0.806978
vt 0.864206 0.806978
vt 0.919997 0.799085
vt 0.864206 0.799085
s 0
usemtl atlas
f 109/87/57 110/88/57 112/89/57 111/90/57
f 111/90/58 112/89/58 116/91/58 115/92/58
f 115/92/59 116/91/59 114/93/59 113/94/59
f 113/94/60 114/93/60 110/88/60 109/87/60
f 113/94/61 109/87/61 118/95/61 120/96/61
f 116/91/62 112/89/62 110/88/62 114/93/62
f 120/96/63 118/95/63 122/97/63 124/98/63
f 111/90/64 115/92/64 119/99/64 117/100/64
f 109/87/65 111/90/65 117/100/65 118/95/65
f 115/92/66 113/94/66 120/96/66 119/99/66
f 117/100/67 119/99/67 123/101/67 121/102/67
f 119/99/66 120/96/66 124/98/66 123/101/66
f 118/95/65 117/100/65 121/102/65 122/97/65
f 121/102/68 123/101/68 124/98/68 122/97/68
o Cube.017
v 0.116438 -0.302348 0.664495
v 0.116438 -0.283495 0.650706
v 0.243293 -0.302348 0.664495
v 0.243293 -0.283495 0.650706
v 0.116438 -0.194126 0.812461
v 0.116438 -0.161963 0.816869
v 0.243293 -0.161963 0.816869
v 0.243293 -0.194126 0.812461
vn -0.0000 -0.5903 -0.8072
vn -0.0000 -0.1358 0.9907
vn 1.0000 -0.0000 -0.0000
vn -1.0000 -0.0000 -0.0000
vn -0.0000 -0.8072 0.5903
vn -0.0000 0.8072 -0.5903
vt 0.680440 0.832588
vt 0.680440 0.840711
vt 0.605716 0.840711
vt 0.605716 0.832588
vt 0.680440 0.930467
vt 0.605716 0.930467
vt 0.605716 0.927870
vt 0.680440 0.927870
s 0
usemtl atlas
f 128/103/69 127/104/69 125/105/69 126/106/69
f 131/107/70 130/108/70 129/109/70 132/110/70
f 127/104/71 128/103/71 131/107/71 132/110/71
f 126/106/72 125/105/72 129/109/72 130/108/72
f 125/105/73 127/104/73 132/110/73 129/109/73
f 128/103/74 126/106/74 130/108/74 131/107/74
o Cylinder.068
v 0.159118 -0.095246 0.678360
v 0.202589 -0.095246 0.678360
v 0.159118 -0.095918 0.671543
v 0.202589 -0.095918 0.671543
v 0.159118 -0.097906 0.664989
v 0.202589 -0.097906 0.664989
v 0.159118 -0.101135 0.658948
v 0.202589 -0.101135 0.658948
v 0.159118 -0.105480 0.653653
v 0.202589 -0.105480 0.653653
v 0.159118 -0.110775 0.649308
v 0.202589 -0.110775 0.649308
v 0.159118 -0.116816 0.646079
v 0.202589 -0.116816 0.646079
v 0.159118 -0.123371 0.644090
v 0.202589 -0.123371 0.644090
v 0.159118 -0.130187 0.643419
v 0.202589 -0.130187 0.643419
v 0.159118 -0.137004 0.644090
v 0.202589 -0.137004 0.644090
v 0.159118 -0.143558 0.646079
v 0.202589 -0.143558 0.646079
v 0.159118 -0.149599 0.649308
v 0.202589 -0.149599 0.649308
v 0.159118 -0.154894 0.653653
v 0.202589 -0.154894 0.653653
v 0.159118 -0.159239 0.658948
v 0.202589 -0.159239 0.658948
v 0.159118 -0.162468 0.664989
v 0.202589 -0.162468 0.664989
v 0.159118 -0.164457 0.671543
v 0.202589 -0.164457 0.671543
v 0.159118 -0.165128 0.678360
v 0.202589 -0.165128 0.678360
v 0.159118 -0.164457 0.685176
v 0.202589 -0.164457 0.685176
v 0.159118 -0.162468 0.691731
v 0.202589 -0.162468 0.691731
v 0.159118 -0.159239 0.697772
v 0.202589 -0.159239 0.697772
v 0.159118 -0.154894 0.703067
v 0.202589 -0.154894 0.703067
v 0.159118 -0.149599 0.707412
v 0.202589 -0.149599 0.707412
v 0.159118 -0.143558 0.710641
v 0.202589 -0.143558 0.710641
v 0.159118 -0.137004 0.712629
v 0.202589 -0.137004 0.712629
v 0.159118 -0.130187 0.713301
v 0.202589 -0.130187 0.713301
v 0.159118 -0.123371 0.712629
v 0.202589 -0.123371 0.712629
v 0.159118 -0.116816 0.710641
v 0.202589 -0.116816 0.710641
v 0.159118 -0.110775 0.707412
v 0.202589 -0.110775 0.707412
v 0.159118 -0.105480 0.703067
v 0.202589 -0.105480 0.703067
v 0.159118 -0.101135 0.697772
v 0.202589 -0.101135 0.697772
v 0.159118 -0.097906 0.691731
v 0.202589 -0.097906 0.691731
v 0.159118 -0.095918 0.685176
v 0.202589 -0.095918 0.685176
vn -0.0000 1.0000 -0.0000
vn -0.0000 0.9808 -0.1951
vn -0.0000 0.9239 -0.3827
vn -0.0000 0.8315 -0.5556
vn -0.0000 0.7071 -0.7071
vn -0.0000 0.5556 -0.8315
vn -0.0000 0.3827 -0.9239
vn -0.0000 0.1951 -0.9808
vn -0.0000 -0.0000 -1.0000
vn -0.0000 -0.1951 -0.9808
vn -0.0000 -0.3827 -0.9239
vn -0.0000 -0.5556 -0.8315
vn -0.0000 -0.7071 -0.7071
vn -0.0000 -0.8315 -0.5556
vn -0.0000 -0.9239 -0.3827
vn -0.0000 -0.9808 -0.1951
vn -0.0000 -1.0000 -0.0000
vn -0.0000 -0.9808 0.1951
vn -0.0000 -0.9239 0.3827
vn -0.0000 -0.8315 0.5556
vn -0.0000 -0.7071 0.7071
vn -0.0000 -0.5556 0.8315
vn -0.0000 -0.3827 0.9239
vn -0.0000 -0.1951 0.9808
vn -0.0000 -0.0000 1.0000
vn -0.0000 0.1951 0.9808
vn -0.0000 0.3827 0.9239
vn -0.0000 0.5556 0.8315
vn -0.0000 0.7071 0.7071
vn -0.0000 0.8315 0.5556
vn -0.0000 0.9239 0.3827
vn 1.0000 -0.0000 -0.0000
vn -0.0000 0.9808 0.1951
vn -1.0000 -0.0000 -0.0000
vt 0.423530 0.135303
vt 0.379282 0.135303
vt 0.379282 0.128364
vt 0.423530 0.128364
vt 0.379282 0.121692
vt 0.423530 0.121692
vt 0.379282 0.115544
vt 0.423530 0.115544
vt 0.379282 0.110154
vt 0.423530 0.110154
vt 0.379282 0.105731
vt 0.423530 0.105731
vt 0.379282 0.102445
vt 0.423530 0.102445
vt 0.379282 0.100421
vt 0.423530 0.100421
vt 0.379282 0.099737
vt 0.423530 0.099737
vt 0.379282 0.142241
vt 0.423530 0.142241
vt 0.379282 0.148913
vt 0.423530 0.148913
vt 0.379282 0.155062
vt 0.423530 0.155062
vt 0.379282 0.160451
vt 0.423530 0.160451
vt 0.379282 0.164874
vt 0.423530 0.164874
vt 0.379282 0.168161
vt 0.423530 0.168161
vt 0.379282 0.170185
vt 0.423530 0.170185
vt 0.379282 0.170868
vt 0.423530 0.170868
s 1
usemtl atlas
f 133/111/75 134/112/75 136/113/76 135/114/76
f 135/114/76 136/113/76 138/115/77 137/116/77
f 137/116/77 138/115/77 140/117/78 139/118/78
f 139/118/78 140/117/78 142/119/79 141/120/79
f 141/120/79 142/119/79 144/121/80 143/122/80
f 143/122/80 144/121/80 146/123/81 145/124/81
f 145/124/81 146/123/81 148/125/82 147/126/82
f 147/126/82 148/125/82 150/127/83 149/128/83
f 149/128/83 150/127/83 152/125/84 151/126/84
f 151/126/84 152/125/84 154/123/85 153/124/85
f 153/124/85 154/123/85 156/121/86 155/122/86
f 155/122/86 156/121/86 158/119/87 157/120/87
f 157/120/87 158/119/87 160/117/88 159/118/88
f 159/118/88 160/117/88 162/115/89 161/116/89
f 161/116/89 162/115/89 164/113/90 163/114/90
f 163/114/90 164/113/90 166/112/91 165/111/91
f 165/111/91 166/112/91 168/129/92 167/130/92
f 167/130/92 168/129/92 170/131/93 169/132/93
f 169/132/93 170/131/93 172/133/94 171/134/94
f 171/134/94 172/133/94 174/135/95 173/136/95
f 173/136/95 174/135/95 176/137/96 175/138/96
f 175/138/96 176/137/96 178/139/97 177/140/97
f 177/140/97 178/139/97 180/141/98 179/142/98
f 179/142/98 180/141/98 182/143/99 181/144/99
f 181/144/99 182/143/99 184/141/100 183/142/100
f 183/142/100 184/141/100 186/139/101 185/140/101
f 185/140/101 186/139/101 188/137/102 187/138/102
f 187/138/102 188/137/102 190/135/103 189/136/103
f 189/136/103 190/135/103 192/133/104 191/134/104
f 191/134/104 192/133/104 194/131/105 193/132/105
f 136/113/106 134/112/106 196/129/106 194/131/106 192/133/106 190/135/106 188/137/106 186/139/106 184/141/106 182/143/106 180/141/106 178/139/106 176/137/106 174/135/106 172/133/106 170/131/106 168/129/106 166/112/106 164/113/106 162/115/106 160/117/106 158/119/106 156/121/106 154/123/106 152/125/106 150/127/106 148/125/106 146/123/106 144/121/106 142/119/106 140/117/106 138/115/106
f 193/132/105 194/131/105 196/129/107 195/130/107
f 195/130/107 196/129/107 134/112/75 133/111/75
f 133/111/108 135/114/108 137/116/108 139/118/108 141/120/108 143/122/108 145/124/108 147/126/108 149/128/108 151/126/108 153/124/108 155/122/108 157/120/108 159/118/108 161/116/108 163/114/108 165/111/108 167/130/108 169/132/108 171/134/108 173/136/108 175/138/108 177/140/108 179/142/108 181/144/108 183/142/108 185/140/108 187/138/108 189/136/108 191/134/108 193/132/108 195/130/108
