# Blender 4.5.3 LTS
# www.blender.org
mtllib right_upper_arm.mtl
o Cylinder.020
v 0.404092 -0.074607 1.442446
v 0.404092 -0.074607 1.502382
v 0.404092 -0.046603 1.442446
v 0.404092 -0.046603 1.502382
v 0.706400 -0.074607 1.442446
v 0.706400 -0.074607 1.502382
v 0.706400 -0.046603 1.442446
v 0.706400 -0.046603 1.502382
vn -1.0000 -0.0000 -0.0000
vn -0.0000 1.0000 -0.0000
vn 1.0000 -0.0000 -0.0000
vn -0.0000 -1.0000 -0.0000
vn -0.0000 -0.0000 -1.0000
vn -0.0000 -0.0000 1.0000
vt 0.375122 0.149056
vt 0.416125 0.149056
vt 0.416125 0.355868
vt 0.375122 0.355868
s 0
usemtl atlas
f 1/1/1 2/2/1 4/2/1 3/1/1
f 3/1/2 4/2/2 8/3/2 7/4/2
f 7/4/3 8/3/3 6/3/3 5/4/3
f 5/4/4 6/3/4 2/2/4 1/1/4
f 3/1/5 7/4/5 5/4/5 1/1/5
f 8/3/6 4/2/6 2/2/6 6/3/6
o Cylinder.021
v 0.299011 -0.044638 1.532350
v 0.418883 -0.044638 1.532350
v 0.299011 -0.032945 1.531198
v 0.418883 -0.032945 1.531198
v 0.299011 -0.021702 1.527788
v 0.418883 -0.021702 1.527788
v 0.299011 -0.011339 1.522249
v 0.418883 -0.011339 1.522249
v 0.299011 -0.002257 1.514795
v 0.418883 -0.002257 1.514795
v 0.299011 0.005197 1.505713
v 0.418883 0.005197 1.505713
v 0.299011 0.010736 1.495350
v 0.418883 0.010736 1.495350
v 0.299011 0.014146 1.484107
v 0.418883 0.014146 1.484107
v 0.299011 0.015298 1.472414
v 0.418883 0.015298 1.472414
v 0.299011 0.014146 1.460721
v 0.418883 0.014146 1.460721
v 0.299011 0.010736 1.449477
v 0.418883 0.010736 1.449477
v 0.299011 0.005197 1.439115
v 0.418883 0.005197 1.439115
v 0.299011 -0.002257 1.430032
v 0.418883 -0.002257 1.430032
v 0.299011 -0.011339 1.422578
v 0.418883 -0.011339 1.422578
v 0.299011 -0.021702 1.417040
v 0.418883 -0.021702 1.417040
v 0.299011 -0.032945 1.413629
v 0.418883 -0.032945 1.413629
v 0.299011 -0.044638 1.412477
v 0.418883 -0.044638 1.412477
v 0.299011 -0.056331 1.413629
v 0.418883 -0.056331 1.413629
v 0.299011 -0.067575 1.417040
v 0.418883 -0.067575 1.417040
v 0.299011 -0.077937 1.422578
v 0.418883 -0.077937 1.422578
v 0.299011 -0.087020 1.430032
v 0.418883 -0.087020 1.430032
v 0.299011 -0.094473 1.439115
v 0.418883 -0.094473 1.439115
v 0.299011 -0.100012 1.449477
v 0.418883 -0.100012 1.449477
v 0.299011 -0.103423 1.460721
v 0.418883 -0.103423 1.460721
v 0.299011 -0.104575 1.472414
v 0.418883 -0.104575 1.472414
v 0.299011 -0.103423 1.484107
v 0.418883 -0.103423 1.484107
v 0.299011 -0.100012 1.495350
v 0.418883 -0.100012 1.495350
v 0.299011 -0.094473 1.505713
v 0.418883 -0.094473 1.505713
v 0.299011 -0.087020 1.514795
v 0.418883 -0.087020 1.514795
v 0.299011 -0.077937 1.522249
v 0.418883 -0.077937 1.522249
v 0.299011 -0.067575 1.527788
v 0.418883 -0.067575 1.527788
v 0.299011 -0.056331 1.531198
v 0.418883 -0.056331 1.531198
vn -0.0000 -0.0000 1.0000
vn -0.0000 0.1951 0.9808
vn -0.0000 0.3827 0.9239
vn -0.0000 0.5556 0.8315
vn -0.0000 0.7071 0.7071
vn -0.0000 0.8315 0.5556
vn -0.0000 0.9239 0.3827
vn -0.0000 0.9808 0.1951
vn -0.0000 1.0000 -0.0000
vn -0.0000 0.9808 -0.1951
vn -0.0000 0.9239 -0.3827
vn -0.0000 0.8315 -0.5556
vn -0.0000 0.7071 -0.7071
vn -0.0000 0.5556 -0.8315
vn -0.0000 0.3827 -0.9239
vn -0.0000 0.1951 -0.9808
vn -0.0000 -0.0000 -1.0000
vn -0.0000 -0.1951 -0.9808
vn -0.0000 -0.3827 -0.9239
vn -0.0000 -0.5556 -0.8315
vn -0.0000 -0.7071 -0.7071
vn -0.0000 -0.8315 -0.5556
vn -0.0000 -0.9239 -0.3827
vn -0.0000 -0.9808 -0.1951
vn -0.0000 -1.0000 -0.0000
vn -0.0000 -0.9808 0.1951
vn -0.0000 -0.9239 0.3827
vn -0.0000 -0.8315 0.5556
vn -0.0000 -0.7071 0.7071
vn -0.0000 -0.5556 0.8315
vn -0.0000 -0.3827 0.9239
vn 1.0000 -0.0000 -0.0000
vn -0.0000 -0.1951 0.9808
vn -1.0000 -0.0000 -0.0000
vt 0.463983 0.334380
vt 0.288281 0.334380
vt 0.288281 0.332692
vt 0.463983 0.332692
vt 0.288281 0.327693
vt 0.463983 0.327693
vt 0.288281 0.319575
vt 0.463983 0.319575
vt 0.288281 0.308649
vt 0.463983 0.308649
vt 0.288281 0.295337
vt 0.463983 0.295337
vt 0.288281 0.280148
vt 0.463983 0.280148
vt 0.288281 0.263668
vt 0.463983 0.263668
vt 0.288281 0.246529
vt 0.463983 0.246529
vt 0.288281 0.229390
vt 0.463983 0.229390
vt 0.288281 0.212910
vt 0.463983 0.212910
vt 0.288281 0.197722
vt 0.463983 0.197722
vt 0.288281 0.184409
vt 0.463983 0.184409
vt 0.288281 0.173483
vt 0.463983 0.173483
vt 0.288281 0.165365
vt 0.463983 0.165365
vt 0.288281 0.160366
vt 0.463983 0.160366
vt 0.288281 0.158678
vt 0.463983 0.158678
s 1
usemtl atlas
f 9/5/7 10/6/7 12/7/8 11/8/8
f 11/8/8 12/7/8 14/9/9 13/10/9
f 13/10/9 14/9/9 16/11/10 15/12/10
f 15/12/10 16/11/10 18/13/11 17/14/11
f 17/14/11 18/13/11 20/15/12 19/16/12
f 19/16/12 20/15/12 22/17/13 21/18/13
f 21/18/13 22/17/13 24/19/14 23/20/14
f 23/20/14 24/19/14 26/21/15 25/22/15
f 25/22/15 26/21/15 28/23/16 27/24/16
f 27/24/16 28/23/16 30/25/17 29/26/17
f 29/26/17 30/25/17 32/27/18 31/28/18
f 31/28/18 32/27/18 34/29/19 33/30/19
f 33/30/19 34/29/19 36/31/20 35/32/20
f 35/32/20 36/31/20 38/33/21 37/34/21
f 37/34/21 38/33/21 40/35/22 39/36/22
f 39/36/22 40/35/22 42/37/23 41/38/23
f 41/38/23 42/37/23 44/35/24 43/36/24
f 43/36/24 44/35/24 46/33/25 45/34/25
f 45/34/25 46/33/25 48/31/26 47/32/26
f 47/32/26 48/31/26 50/29/27 49/30/27
f 49/30/27 50/29/27 52/27/28 51/28/28
f 51/28/28 52/27/28 54/25/29 53/26/29
f 53/26/29 54/25/29 56/23/30 55/24/30
f 55/24/30 56/23/30 58/21/31 57/22/31
f 57/22/31 58/21/31 60/19/32 59/20/32
f 59/20/32 60/19/32 62/17/33 61/18/33
f 61/18/33 62/17/33 64/15/34 63/16/34
f 63/16/34 64/15/34 66/13/35 65/14/35
f 65/14/35 66/13/35 68/11/36 67/12/36
f 67/12/36 68/11/36 70/9/37 69/10/37
f 12/7/38 10/6/38 72/7/38 70/9/38 68/11/38 66/13/38 64/15/38 62/17/38 60/19/38 58/21/38 56/23/38 54/25/38 52/27/38 50/29/38 48/31/38 46/33/38 44/35/38 42/37/38 40/35/38 38/33/38 36/31/38 34/29/38 32/27/38 30/25/38 28/23/38 26/21/38 24/19/38 22/17/38 20/15/38 18/13/38 16/11/38 14/9/38
f 69/10/37 70/9/37 72/7/39 71/8/39
f 71/8/39 72/7/39 10/6/7 9/5/7
f 9/5/40 11/8/40 13/10/40 15/12/40 17/14/40 19/16/40 21/18/40 23/20/40 25/22/40 27/24/40 29/26/40 31/28/40 33/30/40 35/32/40 37/34/40 39/36/40 41/38/40 43/36/40 45/34/40 47/32/40 49/30/40 51/28/40 53/26/40 55/24/40 57/22/40 59/20/40 61/18/40 63/16/40 65/14/40 67/12/40 69/10/40 71/8/40
o Cylinder.026
v 0.407224 -0.011043 1.472414
v 0.650097 -0.011044 1.472414
v 0.407224 -0.011331 1.469491
v 0.650097 -0.011331 1.469491
v 0.407224 -0.012184 1.466680
v 0.650097 -0.012184 1.466680
v 0.407224 -0.013569 1.464089
v 0.650097 -0.013569 1.464089
v 0.407224 -0.015432 1.461818
v 0.650097 -0.015432 1.461818
v 0.407224 -0.017703 1.459955
v 0.650097 -0.017703 1.459955
v 0.407224 -0.020293 1.458570
v 0.650097 -0.020293 1.458570
v 0.407224 -0.023104 1.457718
v 0.650097 -0.023104 1.457718
v 0.407224 -0.026028 1.457430
v 0.650097 -0.026028 1.457430
v 0.407224 -0.028951 1.457718
v 0.650097 -0.028951 1.457718
v 0.407224 -0.031762 1.458570
v 0.650097 -0.031762 1.458570
v 0.407224 -0.034352 1.459955
v 0.650097 -0.034352 1.459955
v 0.407224 -0.036623 1.461818
v 0.650097 -0.036623 1.461818
v 0.407224 -0.038486 1.464089
v 0.650097 -0.038486 1.464089
v 0.407224 -0.039871 1.466680
v 0.650097 -0.039871 1.466680
v 0.407224 -0.040724 1.469491
v 0.650097 -0.040724 1.469491
v 0.407224 -0.041012 1.472414
v 0.650097 -0.041012 1.472414
v 0.407224 -0.040724 1.475337
v 0.650097 -0.040724 1.475337
v 0.407224 -0.039871 1.478148
v 0.650097 -0.039871 1.478148
v 0.407224 -0.038486 1.480739
v 0.650097 -0.038486 1.480739
v 0.407224 -0.036623 1.483009
v 0.650097 -0.036623 1.483009
v 0.407224 -0.034352 1.484873
v 0.650097 -0.034352 1.484873
v 0.407224 -0.031762 1.486257
v 0.650097 -0.031762 1.486257
v 0.407224 -0.028951 1.487110
v 0.650097 -0.028951 1.487110
v 0.407224 -0.026028 1.487398
v 0.650097 -0.026028 1.487398
v 0.407224 -0.023104 1.487110
v 0.650097 -0.023104 1.487110
v 0.407224 -0.020293 1.486257
v 0.650097 -0.020293 1.486257
v 0.407224 -0.017703 1.484873
v 0.650097 -0.017703 1.484873
v 0.407224 -0.015432 1.483009
v 0.650097 -0.015432 1.483009
v 0.407224 -0.013569 1.480739
v 0.650097 -0.013569 1.480739
v 0.407224 -0.012184 1.478148
v 0.650097 -0.012184 1.478148
v 0.407224 -0.011331 1.475337
v 0.650097 -0.011331 1.475337
vn -0.0000 1.0000 -0.0000
vn -0.0000 0.9808 -0.1951
vn -0.0000 0.9239 -0.3827
vn -0.0000 0.8315 -0.5556
vn -0.0000 0.7071 -0.7071
vn -0.0000 0.5556 -0.8315
vn -0.0000 0.3827 -0.9239
vn -0.0000 0.1951 -0.9808
vn -0.0000 -0.0000 -1.0000
vn -0.0000 -0.1951 -0.9808
vn -0.0000 -0.3827 -0.9239
vn -0.0000 -0.5556 -0.8315
vn -0.0000 -0.7071 -0.7071
vn -0.0000 -0.8315 -0.5556
vn -0.0000 -0.9239 -0.3827
vn -0.0000 -0.9808 -0.1951
vn -0.0000 -1.0000 -0.0000
vn -0.0000 -0.9808 0.1951
vn -0.0000 -0.9239 0.3827
vn -0.0000 -0.8315 0.5556
vn -0.0000 -0.7071 0.7071
vn -0.0000 -0.5556 0.8315
vn -0.0000 -0.3827 0.9239
vn -0.0000 -0.1951 0.9808
vn -0.0000 -0.0000 1.0000
vn -0.0000 0.1951 0.9808
vn -0.0000 0.3827 0.9239
vn -0.0000 0.5556 0.8315
vn -0.0000 0.7071 0.7071
vn -0.0000 0.8315 0.5556
vn -0.0000 0.9239 0.3827
vn 1.0000 -0.0000 -0.0000
vn -0.0000 0.9808 0.1951
vn -1.0000 -0.0000 -0.0000
vt 0.141603 0.121539
vt 0.141603 0.385338
vt 0.138428 0.385338
vt 0.138428 0.121539
vt 0.135375 0.385338
vt 0.135375 0.121539
vt 0.132561 0.385338
vt 0.132561 0.121539
vt 0.130095 0.385338
vt 0.130095 0.121539
vt 0.128071 0.385338
vt 0.128071 0.121539
vt 0.126567 0.385338
vt 0.126567 0.121539
vt 0.125641 0.385338
vt 0.125641 0.121539
vt 0.125328 0.385338
vt 0.125328 0.121539
vt 0.144778 0.385338
vt 0.144778 0.121539
vt 0.147832 0.385338
vt 0.147832 0.121539
vt 0.150645 0.385338
vt 0.150645 0.121539
vt 0.153112 0.385338
vt 0.153112 0.121539
vt 0.155136 0.385338
vt 0.155136 0.121539
vt 0.156640 0.385338
vt 0.156640 0.121539
vt 0.157566 0.385338
vt 0.157566 0.121539
vt 0.157878 0.385338
vt 0.157878 0.121539
s 1
usemtl atlas
f 73/39/41 74/40/41 76/41/42 75/42/42
f 75/42/42 76/41/42 78/43/43 77/44/43
f 77/44/43 78/43/43 80/45/44 79/46/44
f 79/46/44 80/45/44 82/47/45 81/48/45
f 81/48/45 82/47/45 84/49/46 83/50/46
f 83/50/46 84/49/46 86/51/47 85/52/47
f 85/52/47 86/51/47 88/53/48 87/54/48
f 87/54/48 88/53/48 90/55/49 89/56/49
f 89/56/49 90/55/49 92/53/50 91/54/50
f 91/54/50 92/53/50 94/51/51 93/52/51
f 93/52/51 94/51/51 96/49/52 95/50/52
f 95/50/52 96/49/52 98/47/53 97/48/53
f 97/48/53 98/47/53 100/45/54 99/46/54
f 99/46/54 100/45/54 102/43/55 101/44/55
f 101/44/55 102/43/55 104/41/56 103/42/56
f 103/42/56 104/41/56 106/40/57 105/39/57
f 105/39/57 106/40/57 108/57/58 107/58/58
f 107/58/58 108/57/58 110/59/59 109/60/59
f 109/60/59 110/59/59 112/61/60 111/62/60
f 111/62/60 112/61/60 114/63/61 113/64/61
f 113/64/61 114/63/61 116/65/62 115/66/62
f 115/66/62 116/65/62 118/67/63 117/68/63
f 117/68/63 118/67/63 120/69/64 119/70/64
f 119/70/64 120/69/64 122/71/65 121/72/65
f 121/72/65 122/71/65 124/69/66 123/70/66
f 123/70/66 124/69/66 126/67/67 125/68/67
f 125/68/67 126/67/67 128/65/68 127/66/68
f 127/66/68 128/65/68 130/63/69 129/64/69
f 129/64/69 130/63/69 132/61/70 131/62/70
f 131/62/70 132/61/70 134/59/71 133/60/71
f 76/41/72 74/40/72 136/57/72 134/59/72 132/61/72 130/63/72 128/65/72 126/67/72 124/69/72 122/71/72 120/69/72 118/67/72 116/65/72 114/63/72 112/61/72 110/59/72 108/57/72 106/40/72 104/41/72 102/43/72 100/45/72 98/47/72 96/49/72 94/51/72 92/53/72 90/55/72 88/53/72 86/51/72 84/49/72 82/47/72 80/45/72 78/43/72
f 133/60/71 134/59/71 136/57/73 135/58/73
f 135/58/73 136/57/73 74/40/41 73/39/41
f 73/39/74 75/42/74 77/44/74 79/46/74 81/48/74 83/50/74 85/52/74 87/54/74 89/56/74 91/54/74 93/52/74 95/50/74 97/48/74 99/46/74 101/44/74 103/42/74 105/39/74 107/58/74 109/60/74 111/62/74 113/64/74 115/66/74 117/68/74 119/70/74 121/72/74 123/70/74 125/68/74 127/66/74 129/64/74 131/62/74 133/60/74 135/58/74
o Cylinder.028
v 0.198104 -0.121217 1.471053
v 0.198104 -0.102569 1.471053
v 0.231919 -0.144335 1.471053
v 0.231919 -0.125686 1.471053
v 0.363317 -0.093089 1.418857
v 0.323153 -0.144335 1.471053
v 0.323153 -0.125686 1.471053
v 0.363317 -0.116008 1.471053
v 0.363317 -0.097360 1.471053
v 0.363317 -0.076064 1.405668
v 0.363317 -0.076064 1.424317
v 0.363317 -0.079902 1.432044
v 0.189982 -0.096773 1.525517
v 0.231919 -0.113119 1.541864
v 0.231919 -0.099933 1.528677
v 0.179833 -0.083586 1.512331
v 0.172511 -0.076064 1.521583
v 0.172511 -0.076064 1.540232
v 0.231919 -0.076064 1.544701
v 0.231919 -0.076064 1.563350
v 0.363317 -0.093089 1.521834
v 0.323153 -0.113119 1.541864
v 0.323153 -0.099933 1.528677
v 0.363317 -0.079902 1.508647
v 0.363317 -0.076064 1.516374
v 0.323153 -0.076064 1.544701
v 0.323153 -0.076064 1.563350
v 0.363317 -0.076064 1.535023
v 0.198104 0.019148 1.471053
v 0.198104 0.037796 1.471053
v 0.231919 0.042265 1.471053
v 0.231919 0.060914 1.471053
v 0.363317 -0.041711 1.405668
v 0.363317 -0.041711 1.424317
v 0.363317 -0.007357 1.405668
v 0.363317 -0.007357 1.424317
v 0.363317 -0.003519 1.432044
v 0.363317 0.009668 1.418857
v 0.323153 0.042265 1.471053
v 0.323153 0.060914 1.471053
v 0.363317 0.013938 1.471053
v 0.363317 0.032587 1.471053
v 0.172511 -0.041711 1.521583
v 0.172511 -0.007357 1.521583
v 0.179833 0.000165 1.512331
v 0.172511 -0.041711 1.540232
v 0.172511 -0.007357 1.540232
v 0.231919 -0.041711 1.544701
v 0.231919 -0.041711 1.563350
v 0.231919 -0.007357 1.544701
v 0.231919 -0.007357 1.563350
v 0.189982 0.013351 1.525517
v 0.231919 0.016511 1.528677
v 0.231919 0.029698 1.541864
v 0.363317 -0.041711 1.516374
v 0.363317 -0.003519 1.508647
v 0.363317 -0.007357 1.516374
v 0.323153 -0.041711 1.544701
v 0.323153 -0.041711 1.563350
v 0.323153 -0.007357 1.544701
v 0.323153 -0.007357 1.563350
v 0.363317 -0.041711 1.535023
v 0.363317 -0.007357 1.535023
v 0.363317 0.009668 1.521834
v 0.323153 0.016511 1.528677
v 0.323153 0.029698 1.541864
v 0.410980 -0.103917 1.446226
v 0.447632 -0.103003 1.446226
v 0.410980 -0.115690 1.473038
v 0.410980 -0.115712 1.480181
v 0.410980 -0.097042 1.473038
v 0.410980 -0.097064 1.480071
v 0.518249 -0.110239 1.446226
v 0.518249 -0.111306 1.469150
v 0.518249 -0.114975 1.477506
v 0.518249 -0.093531 1.471261
v 0.518249 -0.096326 1.477506
v 0.410980 -0.082274 1.412634
v 0.410980 -0.082118 1.412467
v 0.412203 -0.082274 1.412641
v 0.410980 -0.080889 1.430233
v 0.410980 -0.082274 1.433020
v 0.424655 -0.082274 1.431930
v 0.410980 -0.078991 1.429452
v 0.410980 -0.055913 1.412467
v 0.410980 -0.043313 1.408543
v 0.410980 -0.052785 1.429452
v 0.410980 -0.043313 1.426406
v 0.499447 -0.082274 1.425086
v 0.464452 -0.082274 1.435213
v 0.518249 -0.082274 1.426023
v 0.518249 -0.082274 1.441009
v 0.518249 -0.077709 1.441009
v 0.518249 -0.046921 1.415012
v 0.518249 -0.046921 1.431106
v 0.410980 -0.085043 1.446226
v 0.419348 -0.084831 1.446226
v 0.518249 -0.092622 1.446226
v 0.564268 -0.101589 1.434333
v 0.561520 -0.114778 1.448461
v 0.561520 -0.096129 1.448918
v 0.547778 -0.114778 1.478735
v 0.547778 -0.096129 1.478735
v 0.591751 -0.049393 1.419445
v 0.591751 -0.049393 1.434327
v 0.636341 -0.049393 1.426186
v 0.636341 -0.049393 1.439376
v 0.564268 -0.088402 1.445967
v 0.410980 -0.107399 1.498601
v 0.507169 -0.115115 1.498601
v 0.518249 -0.115040 1.498601
v 0.508921 -0.096455 1.498601
v 0.518249 -0.096392 1.498601
v 0.410980 -0.088459 1.498601
v 0.410980 -0.082274 1.509193
v 0.410980 -0.081918 1.509325
v 0.419377 -0.082274 1.509444
v 0.410980 -0.078991 1.515219
v 0.410980 -0.070499 1.517787
v 0.410980 -0.043313 1.517787
v 0.464452 -0.082274 1.513923
v 0.518249 -0.082274 1.513618
v 0.518249 -0.057975 1.520965
v 0.518249 -0.046921 1.520965
v 0.410980 -0.082274 1.532084
v 0.410980 -0.082118 1.532204
v 0.412203 -0.082274 1.532132
v 0.410980 -0.070499 1.535649
v 0.410980 -0.043313 1.535649
v 0.518249 -0.082274 1.529854
v 0.518249 -0.057975 1.537059
v 0.518249 -0.046921 1.537059
v 0.561520 -0.114778 1.509009
v 0.561520 -0.096129 1.508553
v 0.564268 -0.101589 1.523138
v 0.564268 -0.088402 1.511504
v 0.591751 -0.049393 1.523143
v 0.636341 -0.049393 1.518095
v 0.591751 -0.049393 1.538025
v 0.636341 -0.049393 1.531284
v 0.410980 -0.016128 1.408543
v 0.410980 -0.016128 1.426406
v 0.410980 -0.005532 1.412359
v 0.410980 0.007940 1.422796
v 0.410980 -0.008284 1.429312
v 0.410980 -0.005246 1.435427
v 0.410980 -0.003634 1.436066
v 0.518249 -0.035867 1.415012
v 0.518249 -0.035867 1.431106
v 0.518249 -0.010369 1.440555
v 0.518249 -0.009134 1.443041
v 0.518249 -0.001426 1.427417
v 0.518249 0.004052 1.431661
v 0.410980 0.000913 1.446226
v 0.518249 -0.003894 1.445118
v 0.518249 -0.003398 1.446226
v 0.518249 0.001723 1.457670
v 0.518249 0.001723 1.476264
v 0.410980 0.010692 1.425631
v 0.518249 0.012998 1.440875
v 0.410980 0.019736 1.446226
v 0.410980 0.010181 1.466936
v 0.410980 0.010181 1.472656
v 0.410980 0.028829 1.466936
v 0.410980 0.028829 1.472656
v 0.518249 0.015347 1.446226
v 0.518249 0.020372 1.457670
v 0.518249 0.020372 1.476264
v 0.591751 0.001388 1.437735
v 0.636341 0.001388 1.442396
v 0.591751 -0.011798 1.448258
v 0.591751 -0.004072 1.451321
v 0.636341 -0.011798 1.451723
v 0.636341 -0.004072 1.454438
v 0.591751 -0.004072 1.478735
v 0.636341 -0.004072 1.478735
v 0.591751 0.014577 1.451321
v 0.636341 0.014577 1.454438
v 0.591751 0.014577 1.478735
v 0.636341 0.014577 1.478735
v 0.410980 -0.035469 1.514880
v 0.410980 -0.003634 1.502406
v 0.410980 -0.001867 1.498601
v 0.410980 -0.003634 1.508126
v 0.410980 -0.008284 1.514880
v 0.410980 -0.006671 1.514241
v 0.518249 -0.021423 1.511517
v 0.518249 -0.003894 1.488360
v 0.518249 -0.003894 1.498601
v 0.518249 -0.010369 1.511517
v 0.518249 -0.003894 1.506953
v 0.518249 -0.005129 1.509439
v 0.518249 0.007520 1.515440
v 0.410980 -0.032718 1.531833
v 0.410980 -0.005532 1.531833
v 0.410980 -0.002780 1.528999
v 0.518249 -0.012479 1.524655
v 0.518249 -0.001426 1.524655
v 0.410980 0.017120 1.498601
v 0.410980 0.010692 1.512842
v 0.410980 0.010692 1.518561
v 0.518249 0.012998 1.492603
v 0.518249 0.012998 1.498601
v 0.518249 0.012998 1.511196
v 0.636341 -0.004072 1.503033
v 0.591751 -0.011798 1.509212
v 0.591751 -0.004072 1.506150
v 0.591751 0.001388 1.519736
v 0.636341 -0.011798 1.505748
v 0.636341 0.001388 1.515074
v 0.636341 0.014577 1.503033
v 0.591751 0.014577 1.506150
vn 0.1845 -0.0000 -0.9828
vn 0.1824 -0.3084 -0.9336
vn -0.2873 -0.2879 -0.9136
vn -0.3023 -0.0000 -0.9532
vn -0.1903 0.2755 0.9423
vn -0.1845 -0.0000 0.9828
vn 0.3023 -0.0000 0.9532
vn 0.2883 0.2473 0.9251
vn -0.8676 0.4925 -0.0678
vn -0.8604 0.5054 -0.0645
vn -0.9126 0.4085 -0.0160
vn -0.9601 0.2794 -0.0109
vn -1.0000 -0.0000 -0.0000
vn -0.3864 0.2602 0.8849
vn -0.3626 -0.0000 0.9319
vn 0.1989 -0.7791 -0.5946
vn -0.2723 -0.7484 -0.6047
vn -0.0210 -0.9998 -0.0013
vn -0.0650 -0.8259 0.5601
vn -0.0407 -0.8328 0.5521
vn -0.0000 -1.0000 -0.0000
vn 1.0000 -0.0000 -0.0000
vn -0.3469 -0.4303 -0.8333
vn -0.3029 -0.0018 -0.9530
vn -0.2200 0.7474 0.6269
vn -0.4380 0.6921 0.5737
vn -0.0000 1.0000 -0.0000
vn 0.0326 0.9267 -0.3743
vn 0.0580 0.9109 -0.4086
vn 0.0169 0.9999 0.0015
vn 0.3146 0.0020 0.9492
vn 0.3427 0.3097 0.8869
vn 0.3626 -0.0000 -0.9319
vn 0.3738 -0.3091 -0.8745
vn 0.7915 -0.6112 -0.0000
vn 0.5913 -0.8064 -0.0000
vn 0.2616 0.8826 0.3907
vn -0.2339 0.8947 0.3806
vn 0.2777 0.7193 0.6368
vn -0.4912 0.8074 0.3269
vn -0.2613 -0.8803 -0.3960
vn -0.2571 -0.9561 -0.1409
vn -0.2997 -0.8202 -0.4874
vn 0.3272 0.7355 0.5934
vn 0.3911 -0.7387 -0.5490
vn 0.0927 0.5264 -0.8452
vn 0.0974 0.5201 -0.8485
vn -0.4208 0.1534 -0.8941
vn -0.8058 0.2937 -0.5142
vn 0.2103 -0.9057 -0.3681
vn 0.2565 0.9567 0.1373
vn 0.4448 -0.8440 -0.2996
vn 0.1202 0.3193 -0.9400
vn 0.1065 0.1671 -0.9802
vn 0.9551 -0.0529 0.2916
vn 0.9376 -0.0323 0.3461
vn 0.9462 -0.2348 0.2227
vn 0.9176 -0.3273 0.2254
vn -0.0840 -0.3636 0.9278
vn -0.0792 -0.3392 0.9374
vn -0.0827 -0.1732 0.9814
vn -0.0898 -0.3286 0.9402
vn 0.8620 -0.4539 0.2257
vn -0.9014 -0.0000 -0.4329
vn -0.4680 -0.0000 -0.8838
vn -0.0000 -0.0000 -1.0000
vn 1.0000 -0.0056 -0.0000
vn -0.2873 0.2879 -0.9136
vn 0.1824 0.3084 -0.9336
vn -0.1903 -0.2755 0.9423
vn 0.2883 -0.2473 0.9251
vn -0.9126 -0.4084 -0.0160
vn -0.8604 -0.5054 -0.0645
vn -0.8676 -0.4925 -0.0678
vn -0.9601 -0.2794 -0.0109
vn -0.3864 -0.2602 0.8849
vn 0.1989 0.7791 -0.5946
vn -0.2723 0.7484 -0.6047
vn -0.0407 -0.8328 -0.5521
vn -0.0348 -0.8220 -0.5685
vn -0.3104 0.3552 -0.8818
vn -0.4380 -0.6921 0.5737
vn -0.2200 -0.7474 0.6269
vn 0.0235 0.9091 0.4158
vn 0.0326 0.9267 0.3743
vn 0.3123 -0.3171 0.8955
vn 0.3738 0.3091 -0.8745
vn -0.2339 -0.8947 0.3806
vn 0.2616 -0.8826 0.3907
vn 0.2777 -0.7193 0.6368
vn -0.4912 -0.8074 0.3269
vn -0.2664 0.7884 -0.5546
vn -0.1902 0.9680 -0.1637
vn -0.2613 0.8803 -0.3960
vn 0.2832 -0.7630 0.5811
vn 0.3911 0.7387 -0.5490
vn 0.0548 0.5192 0.8529
vn 0.0927 0.5264 0.8452
vn -0.8058 -0.2937 -0.5142
vn -0.4208 -0.1534 -0.8941
vn 0.2103 0.9057 -0.3681
vn 0.1859 -0.9688 0.1640
vn 0.4448 0.8440 -0.2996
vn 0.1202 0.3193 0.9400
vn 0.0524 0.1637 0.9851
vn 0.9462 -0.2348 -0.2227
vn 0.9376 -0.0323 -0.3461
vn 0.9551 -0.0529 -0.2916
vn 0.9176 -0.3273 -0.2254
vn -0.0456 -0.3638 -0.9304
vn -0.0792 -0.3392 -0.9374
vn -0.0312 -0.1824 -0.9827
vn -0.0898 -0.3286 -0.9402
vn 0.8620 -0.4539 -0.2257
vn 0.0426 0.9978 -0.0508
vn 0.0420 0.9984 -0.0380
vn 0.0538 0.9474 -0.3154
vn 0.0426 0.9977 -0.0518
vn 0.0457 0.7848 -0.6181
vn 0.0336 0.3663 -0.9299
vn 0.0378 0.6354 -0.7712
vn 0.0371 0.6285 -0.7769
vn 0.0150 0.4045 -0.9144
vn 0.0004 -0.0017 -1.0000
vn 0.0253 0.0366 -0.9990
vn 0.0002 0.2445 -0.9697
vn 0.0051 -0.0360 -0.9993
vn -0.0206 -0.5113 -0.8591
vn -0.0258 -0.0418 -0.9988
vn 0.0095 -0.3007 -0.9537
vn -0.0118 -0.3893 -0.9210
vn -0.0322 -0.8925 -0.4499
vn -0.0102 -0.8627 -0.5057
vn -0.0326 -0.4728 -0.8805
vn -0.0271 -0.8304 -0.5565
vn -0.0509 -0.9985 -0.0188
vn -0.0537 -0.9180 -0.3929
vn -0.0150 -0.9952 -0.0962
vn -0.0436 -0.9990 0.0025
vn -0.0542 -0.8928 0.4473
vn -0.0531 -0.8953 0.4423
vn -0.0398 -0.9233 0.3819
vn -0.0701 -0.9930 0.0952
vn -0.0849 -0.8197 0.5665
vn -0.0672 -0.5037 0.8612
vn -0.0677 -0.5287 0.8461
vn -0.0670 -0.8608 0.5046
vn -0.0887 -0.3843 0.9190
vn -0.0794 -0.4716 0.8782
vn -0.0738 -0.0002 0.9973
vn -0.0749 0.0018 0.9972
vn -0.0514 -0.0418 0.9978
vn -0.0967 -0.2993 0.9492
vn -0.0719 -0.0203 0.9972
vn -0.0648 0.3721 0.9259
vn -0.0603 0.4101 0.9100
vn -0.0971 0.0433 0.9943
vn -0.0396 0.2749 0.9607
vn -0.0200 0.6852 0.7281
vn -0.0326 0.4517 0.8916
vn -0.0196 0.6918 0.7218
vn 0.0025 0.8578 0.5140
vn -0.0004 0.8398 0.5429
vn 0.0276 0.9730 0.2290
vn -0.0494 -0.9973 0.0551
vn -0.0452 -0.8108 0.5835
vn -0.0495 -0.9972 0.0562
vn -0.0580 -0.9409 0.3336
vn -0.0489 -0.9979 0.0415
vn -0.0228 -0.4085 0.9125
vn -0.0056 -0.4545 0.8907
vn -0.0311 -0.6542 0.7557
vn -0.0331 -0.6686 0.7429
vn -0.0076 -0.0470 0.9989
vn 0.0239 0.0017 0.9997
vn 0.0172 -0.2559 0.9666
vn 0.0122 0.0314 0.9994
vn 0.0568 0.0527 0.9970
vn 0.0500 0.3649 0.9297
vn 0.0149 0.5082 0.8611
vn 0.0065 0.3037 0.9527
vn 0.0391 0.6222 0.7819
vn 0.0483 0.8012 0.5964
vn 0.0132 0.8910 0.4538
vn 0.0231 0.6995 0.7142
vn 0.0539 0.9191 0.3903
vn 0.0510 0.9986 0.0172
vn 0.0358 0.9994 -0.0031
vn 0.0008 0.9931 0.1175
vn 0.0673 0.7850 -0.6158
vn 0.0398 0.9233 -0.3820
vn 0.0635 0.8097 -0.5834
vn 0.0681 0.9909 -0.1164
vn 0.0813 0.8818 -0.4645
vn 0.0818 0.3383 -0.9375
vn 0.0869 0.6203 -0.7795
vn 0.0828 0.3717 -0.9246
vn 0.1020 0.5003 -0.8598
vn 0.0841 0.6972 -0.7119
vn 0.0972 0.0009 -0.9953
vn 0.0698 0.0527 -0.9962
vn 0.0985 -0.0016 -0.9951
vn 0.0946 0.0422 -0.9946
vn 0.1126 0.3018 -0.9467
vn 0.0870 -0.3517 -0.9321
vn 0.1255 -0.0531 -0.9907
vn 0.0767 -0.4169 -0.9057
vn 0.0683 -0.2349 -0.9696
vn 0.0515 -0.4511 -0.8910
vn 0.0303 -0.6572 -0.7531
vn -0.0001 -0.8405 -0.5418
vn 0.0286 -0.6718 -0.7402
vn -0.0011 -0.8454 -0.5342
vn -0.0362 -0.9701 -0.2400
vn -0.0000 -0.0000 1.0000
vt 0.913197 0.571074
vt 0.913197 0.666946
vt 0.932794 0.571074
vt 0.945103 0.570750
vt 0.945427 0.666622
vt 0.932794 0.666946
vt 0.893038 0.527006
vt 0.879182 0.516341
vt 0.888904 0.508646
vt 0.908501 0.508646
vt 0.896359 0.571074
vt 0.896359 0.666946
vt 0.843878 0.949199
vt 0.815070 0.949199
vt 0.818345 0.996056
vt 0.843878 0.996056
vt 0.815493 0.996056
vt 0.805692 0.996056
vt 0.883430 0.709153
vt 0.910216 0.571074
vt 0.921281 0.707610
vt 0.901485 0.709410
vt 0.802518 0.996056
vt 0.788658 0.996056
vt 0.835806 0.666946
vt 0.835806 0.571074
vt 0.910216 0.666946
vt 0.835806 0.535541
vt 0.835806 0.709153
vt 0.875311 0.709153
vt 0.889168 0.709153
vt 0.800794 0.949199
vt 0.781574 0.949199
vt 0.812545 0.917431
vt 0.812065 0.917431
vt 0.797218 0.920319
vt 0.809444 0.920319
vt 0.811852 0.949199
vt 0.765554 0.708381
vt 0.744986 0.706582
vt 0.786693 0.709153
vt 0.797213 0.949199
vt 0.780956 0.709153
vt 0.794813 0.709153
vt 0.843878 0.902991
vt 0.955933 0.571074
vt 0.955933 0.666689
vt 0.932154 0.508389
vt 0.869411 0.996056
vt 0.872686 0.949199
vt 0.872264 0.996056
vt 0.882064 0.996056
vt 0.872686 0.949199
vt 0.953676 0.703497
vt 0.899099 0.996056
vt 0.885238 0.996056
vt 0.886963 0.949199
vt 0.906182 0.949199
vt 0.930902 0.919291
vt 0.875691 0.917431
vt 0.875211 0.917431
vt 0.878313 0.920319
vt 0.875905 0.949199
vt 0.751671 0.681643
vt 0.890544 0.949199
vt 0.842586 0.871960
vt 0.864055 0.872077
vt 0.863899 0.862300
vt 0.864510 0.759279
vt 0.844614 0.759349
vt 0.837892 0.759238
vt 0.882217 0.759238
vt 0.876899 0.759192
vt 0.876595 0.759201
vt 0.877123 0.768011
vt 0.880855 0.815429
vt 0.884915 0.759238
vt 0.882919 0.759261
vt 0.882216 0.759238
vt 0.885874 0.871988
vt 0.888255 0.871960
vt 0.880855 0.815429
vt 0.880243 0.871964
vt 0.881860 0.759238
vt 0.884159 0.759252
vt 0.881163 0.871977
vt 0.878326 0.871960
vt 0.874763 0.759238
vt 0.880430 0.759214
vt 0.878326 0.871961
vt 0.875119 0.871928
vt 0.873531 0.871961
vt 0.837490 0.759238
vt 0.865241 0.759306
vt 0.869314 0.759317
vt 0.865166 0.872018
vt 0.854902 0.872088
vt 0.841281 0.871961
vt 0.799040 0.759238
vt 0.809897 0.759200
vt 0.832011 0.759125
vt 0.809793 0.871944
vt 0.808552 0.871960
vt 0.841281 0.871960
vt 0.822616 0.871774
vt 0.791943 0.759238
vt 0.797614 0.759317
vt 0.803756 0.871961
vt 0.808552 0.871961
vt 0.805353 0.872067
vt 0.788888 0.759238
vt 0.791187 0.759056
vt 0.803757 0.871961
vt 0.796664 0.871735
vt 0.793828 0.871961
vt 0.792089 0.759238
vt 0.789782 0.759389
vt 0.788888 0.759238
vt 0.803387 0.872016
vt 0.798143 0.815428
vt 0.802208 0.872093
vt 0.795690 0.773579
vt 0.796289 0.759225
vt 0.793761 0.759213
vt 0.837891 0.759238
vt 0.809122 0.759186
vt 0.808997 0.767969
vt 0.809692 0.871958
vt 0.835477 0.871913
vt 0.842586 0.871961
vt 0.844658 0.759364
vt 0.864365 0.759305
vt 0.863653 0.860504
vt 0.863868 0.872111
vt 0.842586 0.871960
vt 0.948274 0.754680
vt 0.948135 0.755993
vt 0.947693 0.754723
vt 0.939066 0.755670
vt 0.918131 0.758018
vt 0.929190 0.870297
vt 0.948135 0.755993
vt 0.911040 0.871464
vt 0.916646 0.871071
vt 0.912325 0.758509
vt 0.898455 0.759442
vt 0.891635 0.872043
vt 0.896095 0.871987
vt 0.898455 0.759442
vt 0.896062 0.759418
vt 0.885729 0.759238
vt 0.877989 0.871961
vt 0.882778 0.872010
vt 0.880333 0.759309
vt 0.865153 0.759284
vt 0.837490 0.759238
vt 0.859590 0.872092
vt 0.865530 0.872050
vt 0.877989 0.871960
vt 0.837490 0.759238
vt 0.832064 0.759129
vt 0.810007 0.759184
vt 0.788074 0.759238
vt 0.822830 0.871756
vt 0.841281 0.871960
vt 0.804093 0.871960
vt 0.810056 0.871897
vt 0.785217 0.759085
vt 0.772907 0.758628
vt 0.804093 0.871960
vt 0.789455 0.871712
vt 0.794582 0.871745
vt 0.772907 0.758628
vt 0.766899 0.757936
vt 0.752620 0.757204
vt 0.769801 0.871133
vt 0.774291 0.870975
vt 0.789455 0.871712
vt 0.752620 0.757204
vt 0.755970 0.750977
vt 0.762474 0.738254
vt 0.782217 0.867188
vt 0.769801 0.871133
vt 0.762751 0.739706
vt 0.779001 0.845237
vt 0.762755 0.738484
vt 0.762751 0.739706
vt 0.809581 0.871948
vt 0.808655 0.797656
vt 0.809197 0.759190
vt 0.837892 0.759238
vt 0.842586 0.871961
vt 0.833080 0.871894
vt 0.551783 0.000502
vt 0.557343 0.004639
vt 0.559765 0.016637
vt 0.559765 0.055049
vt 0.557023 0.066132
vt 0.557023 0.104544
vt 0.556421 0.106822
vt 0.550652 0.111113
vt 0.545256 0.111113
vt 0.541667 0.113610
vt 0.541667 0.140437
vt 0.555100 0.131356
vt 0.560497 0.131356
vt 0.570342 0.112320
vt 0.573017 0.108431
vt 0.573017 0.070019
vt 0.576617 0.055049
vt 0.576617 0.016637
vt 0.573366 0.000220
vt 0.573253 0.000000
vt 0.551659 0.000000
vt 0.549546 0.639254
vt 0.551891 0.640999
vt 0.553851 0.648403
vt 0.553851 0.664022
vt 0.562764 0.700048
vt 0.562764 0.715667
vt 0.555833 0.750000
vt 0.571149 0.750000
vt 0.577947 0.715667
vt 0.577947 0.700048
vt 0.566244 0.651385
vt 0.566244 0.635766
vt 0.557552 0.623127
vt 0.553548 0.615387
vt 0.541667 0.615387
vt 0.541667 0.639254
vt 0.556121 0.875379
vt 0.551896 0.980430
vt 0.551659 1.000000
vt 0.573253 1.000000
vt 0.573298 0.997149
vt 0.571149 0.750000
vt 0.438390 0.793821
vt 0.426650 0.997150
vt 0.426643 1.000000
vt 0.445875 1.000000
vt 0.444847 0.968129
vt 0.447943 0.875379
vt 0.453411 0.750000
vt 0.439274 0.750000
vt 0.458333 1.000000
vt 0.458333 0.914580
vt 0.458333 0.750000
vt 0.458333 0.980497
vt 0.444593 0.628026
vt 0.440589 0.635766
vt 0.428887 0.684430
vt 0.428887 0.700048
vt 0.439274 0.750000
vt 0.453411 0.750000
vt 0.453411 0.743551
vt 0.444069 0.700048
vt 0.444070 0.684430
vt 0.452983 0.648403
vt 0.455328 0.646658
vt 0.457288 0.639254
vt 0.458333 0.638553
vt 0.458333 0.612067
vt 0.453285 0.615387
vt 0.476541 0.631317
vt 0.506125 0.631317
vt 0.525372 0.639254
vt 0.541667 0.639253
vt 0.532123 0.615387
vt 0.506125 0.604967
vt 0.476541 0.604967
vt 0.458333 0.612067
vt 0.458333 0.638553
vt 0.448748 0.111113
vt 0.448145 0.108835
vt 0.442377 0.104544
vt 0.439635 0.093461
vt 0.439635 0.055049
vt 0.442509 0.041666
vt 0.442509 0.004639
vt 0.443246 0.001956
vt 0.445875 0.000000
vt 0.426643 0.000000
vt 0.426486 0.000220
vt 0.426486 0.037246
vt 0.422784 0.055049
vt 0.422784 0.093461
vt 0.426384 0.108431
vt 0.436230 0.127468
vt 0.438904 0.131356
vt 0.458333 0.144134
vt 0.458333 0.117538
vt 0.500386 0.130633
vt 0.491284 0.130633
vt 0.458333 0.117538
vt 0.491284 0.156983
vt 0.500386 0.156983
vt 0.541667 0.140437
vt 0.541667 0.113610
vt 0.541667 0.775823
vt 0.541667 1.000000
vt 0.541667 0.771740
vt 0.541667 0.750000
vt 0.494806 0.750000
vt 0.508101 0.750000
vt 0.508101 0.750000
vt 0.498165 0.750000
vt 0.512358 0.000000
vt 0.500993 0.000000
vt 0.458333 0.000000
vt 0.458333 0.000000
vt 0.512183 0.000000
vt 0.541667 0.000000
s 1
usemtl atlas
f 184/73/75 186/73/76 196/74/77 194/74/78
f 187/75/79 185/76/80 195/77/81 197/78/82
f 188/79/83 181/80/84 180/81/85 183/82/86
f 180/81/85 179/81/87 182/82/87 183/82/86
f 183/82/88 182/82/89 185/76/80 187/75/79
f 196/74/77 186/73/76 189/83/90 201/84/91
f 311/85/92 308/86/93 310/87/94 312/88/95
f 309/89/96 306/90/96 314/87/96 310/87/96
f 194/74/78 196/74/77 193/91/97 191/91/98
f 312/88/96 310/87/96 314/87/96 316/88/96
f 183/82/88 187/75/79 190/92/99 188/79/100
f 316/88/101 314/87/102 313/86/103 315/85/104
f 197/78/82 195/77/81 198/93/105 199/94/106
f 179/81/107 180/81/108 186/73/76 184/73/75
f 243/95/109 242/96/110 306/90/96 309/89/96
f 176/97/111 168/98/112 190/92/99 202/99/113
f 188/79/100 190/92/99 168/98/112 166/100/114
f 175/97/115 177/101/116 192/102/117 201/84/91
f 197/78/82 199/94/106 200/103/118 202/99/113
f 186/73/76 180/81/108 181/80/119 189/83/90
f 306/90/120 305/104/121 313/86/103 314/87/102
f 202/99/113 190/92/99 187/75/79 197/78/82
f 201/84/91 192/102/117 193/91/97 196/74/77
f 166/100/122 165/100/123 181/80/84 188/79/83
f 201/84/91 189/83/90 167/98/124 175/97/115
f 178/101/125 176/97/111 202/99/113 200/103/118
f 189/83/90 181/80/119 165/100/126 167/98/124
f 242/96/127 240/105/128 305/104/121 306/90/120
f 237/106/129 236/107/130 235/108/131 244/109/132
f 310/87/94 308/86/93 307/110/133 309/89/134
f 171/111/87 169/112/87 170/113/87 172/113/87
f 309/89/134 307/110/133 241/114/135 243/95/136
f 174/115/87 171/111/87 172/113/87 173/116/87
f 244/109/132 235/108/131 240/105/137 241/114/137
f 174/115/87 173/116/87 177/101/138 178/101/139
f 177/101/138 175/97/140 176/97/140 178/101/139
f 167/98/140 168/98/140 176/97/140 175/97/140
f 167/98/140 165/100/123 166/100/122 168/98/140
f 241/114/95 240/105/95 242/96/110 243/95/109
f 238/117/141 236/107/130 237/106/129 239/117/141
f 162/74/142 155/73/143 184/73/75 194/74/78
f 195/77/81 185/76/80 156/118/144 163/119/145
f 153/81/146 152/80/147 149/79/148 154/120/149
f 153/81/146 154/120/149 182/82/87 179/81/87
f 185/76/80 182/82/89 154/120/150 156/118/144
f 151/83/151 155/73/143 162/74/142 159/84/152
f 341/121/153 343/122/154 311/85/92 312/88/95
f 345/123/96 341/121/96 347/121/96 346/124/96
f 161/91/155 162/74/142 194/74/78 191/91/98
f 312/88/96 316/88/96 347/121/96 341/121/96
f 154/120/150 149/79/156 150/92/157 156/118/144
f 316/88/101 315/85/104 348/125/158 347/121/159
f 198/93/105 195/77/81 163/119/145 164/126/160
f 155/73/143 153/81/161 179/81/107 184/73/75
f 346/124/96 276/127/110 274/128/109 345/123/96
f 150/92/157 139/98/162 142/97/163 158/99/164
f 149/79/156 137/100/165 139/98/162 150/92/157
f 160/102/166 145/101/167 143/97/168 159/84/152
f 163/119/145 158/99/164 157/103/169 164/126/160
f 152/80/170 153/81/161 155/73/143 151/83/151
f 348/125/158 344/129/171 346/124/172 347/121/159
f 156/118/144 150/92/157 158/99/164 163/119/145
f 161/91/155 160/102/166 159/84/152 162/74/142
f 152/80/147 138/100/173 137/100/174 149/79/148
f 140/98/175 151/83/151 159/84/152 143/97/168
f 158/99/164 142/97/163 144/101/176 157/103/169
f 151/83/151 140/98/175 138/100/177 152/80/170
f 276/127/178 346/124/172 344/129/171 275/130/179
f 271/131/180 269/132/181 270/133/182 272/134/183
f 342/135/184 343/122/154 341/121/153 345/123/185
f 146/136/87 147/113/87 170/113/87 169/112/87
f 273/137/186 342/135/184 345/123/185 274/128/187
f 147/113/87 146/136/87 141/115/87 148/116/87
f 275/130/188 271/131/180 272/134/183 273/137/188
f 141/115/87 144/101/139 145/101/138 148/116/87
f 142/97/140 143/97/140 145/101/138 144/101/139
f 142/97/140 139/98/140 140/98/140 143/97/140
f 140/98/140 139/98/140 137/100/174 138/100/173
f 276/127/110 275/130/95 273/137/95 274/128/109
f 270/133/182 269/132/181 238/117/141 239/117/141
f 239/117/189 213/138/190 249/139/191 248/140/191 250/141/191 208/142/191 207/143/192 145/101/167 160/102/166 270/133/193
f 160/102/166 161/91/155 254/144/194 252/145/195 251/146/195 253/147/195 257/148/196 272/134/197 270/133/193
f 161/91/155 191/91/98 256/149/198 255/150/199 254/151/194
f 259/152/200 260/153/201 273/137/186 272/134/197 257/154/196 258/155/200
f 191/91/98 193/91/97 321/156/202 317/157/203 256/149/198
f 273/137/186 260/153/201 323/158/204 326/159/205 342/135/184
f 193/91/97 192/102/117 320/160/206 322/161/207 321/156/202
f 342/135/184 326/162/205 328/163/208 327/164/209 343/122/154
f 192/102/117 177/101/116 299/165/210 319/166/211 318/167/211 320/160/206
f 311/85/92 343/122/154 327/164/209 325/168/212 324/169/212 294/170/213
f 177/101/116 173/116/214 283/171/215 290/172/216 298/173/216 299/165/210
f 292/174/217 291/175/218 308/86/93 311/85/92 294/176/213 293/177/217
f 173/116/214 172/113/219 281/178/220 282/179/221 283/171/215
f 286/180/222 307/110/133 308/86/93 291/181/218 287/182/223
f 172/113/219 170/113/224 224/183/225 278/184/226 281/178/220
f 241/114/135 307/110/133 286/185/222 285/186/227 231/187/228
f 170/113/224 147/113/229 220/188/230 223/189/231 224/190/225
f 228/191/232 226/192/233 244/109/234 241/114/135 231/187/228 229/193/232
f 219/194/235 218/195/235 217/196/235 220/188/230 147/113/229 148/116/236 237/106/237 244/109/234 226/192/233
f 148/116/236 145/101/167 207/197/192 232/198/238 233/199/238 234/200/238 212/201/238 213/202/190 239/117/189 237/106/237
f 238/117/239 269/132/240 157/103/169 144/101/176 205/143/241 206/203/242 245/204/242 246/205/242 247/206/242 211/207/243
f 262/208/244 164/126/160 157/103/169 269/132/240 271/131/245 263/209/246 261/210/247
f 198/93/105 164/126/160 262/208/244 264/211/248 265/212/249
f 266/213/250 263/214/246 271/131/245 275/130/179 268/215/251 267/216/250
f 199/94/106 198/93/105 265/212/249 330/217/252 331/218/253
f 275/130/179 344/129/171 334/219/254 333/220/255 268/215/251
f 200/103/118 199/94/106 331/221/253 332/222/256 337/223/257
f 334/219/254 344/129/171 348/125/158 340/224/258 329/225/259
f 178/101/125 200/103/118 337/223/257 336/226/260 335/227/260 301/228/261
f 315/85/104 304/176/262 338/229/263 339/230/263 340/231/258 348/125/158
f 174/115/264 178/101/125 301/232/261 300/233/265 297/234/265 295/235/266
f 303/236/267 304/237/262 315/85/104 313/86/103 296/238/268 302/239/267
f 171/111/269 174/115/264 295/235/266 280/240/270 279/241/271
f 296/242/268 313/86/103 305/104/121 288/243/272 289/244/273
f 169/112/274 171/111/269 279/245/271 277/246/275 222/247/276
f 240/105/128 230/248/277 284/249/278 288/250/272 305/104/121
f 146/136/279 169/112/274 222/251/276 221/252/280 215/253/281
f 227/254/282 230/255/277 240/105/128 235/108/283 216/256/284 225/257/282
f 141/115/285 146/136/279 215/253/281 214/258/286 216/259/284 235/108/283 236/107/287
f 209/260/288 204/261/288 203/262/288 205/263/241 144/101/176 141/115/285 236/107/287 238/117/239 211/264/243 210/265/288
s 0
f 252/266/96 254/267/96 255/268/96 256/269/96 317/270/96 321/271/96 322/272/96 320/273/96 318/274/96 319/275/96 335/276/96 336/277/96 337/278/96 332/279/96 331/280/96 330/281/96 265/282/96 264/283/96 262/284/96 261/285/96 251/286/96
f 327/287/87 328/288/87 326/289/87 323/290/87 260/291/87 259/292/87 258/293/87 266/294/87 267/295/87 268/296/87 333/297/87 334/298/87 329/299/87 340/300/87 339/301/87 325/302/87
f 258/293/101 257/303/101 253/304/101 251/305/101 261/306/101 263/307/101 266/308/101
f 225/309/101 216/310/101 214/311/101 218/312/101 219/313/101 226/314/101 228/315/101 227/316/101
f 203/317/289 204/318/289 209/319/289 234/319/289 233/320/289 232/317/289
f 289/321/87 288/322/87 284/323/87 230/324/87 227/325/87 228/326/87 229/327/87 231/328/87 285/329/87 286/330/87 287/331/87 291/332/87 292/333/87 302/334/87 296/335/87
f 293/336/87 294/337/87 324/338/87 325/339/87 339/301/87 338/340/87 304/341/87 303/342/87 302/343/87 292/344/87
f 283/345/96 282/346/96 281/347/96 278/348/96 224/349/96 223/350/96 220/351/96 217/352/96 218/353/96 214/354/96 215/355/96 221/356/96 222/357/96 277/358/96 279/359/96 280/360/96 295/361/96 297/362/96 290/363/96
f 299/364/96 298/365/96 290/366/96 297/362/96 300/367/96 301/368/96 335/369/96 319/370/96
f 246/371/140 245/372/140 250/372/140 248/373/140 249/374/140 247/374/140
f 209/319/87 210/375/87 211/376/87 247/374/87 249/374/87 213/377/87 212/378/87 234/319/87
f 206/379/96 205/380/96 203/381/96 232/382/96 207/380/96 208/383/96 250/384/96 245/384/96
o Cylinder.029
v 0.687425 -0.073234 1.522671
v 0.687425 -0.073234 1.487794
v 0.693003 -0.072685 1.522671
v 0.693003 -0.072685 1.487794
v 0.698368 -0.071057 1.522671
v 0.698368 -0.071057 1.487794
v 0.703312 -0.068415 1.522671
v 0.703312 -0.068415 1.487794
v 0.707645 -0.064859 1.522671
v 0.707645 -0.064858 1.487794
v 0.711201 -0.060525 1.522671
v 0.711201 -0.060525 1.487794
v 0.713844 -0.055581 1.522671
v 0.713844 -0.055581 1.487794
v 0.715471 -0.050217 1.522671
v 0.715471 -0.050217 1.487794
v 0.716020 -0.044638 1.522671
v 0.716020 -0.044638 1.487794
v 0.715471 -0.039059 1.522671
v 0.715471 -0.039059 1.487794
v 0.713844 -0.033695 1.522671
v 0.713844 -0.033695 1.487794
v 0.711201 -0.028751 1.522671
v 0.711201 -0.028751 1.487794
v 0.707645 -0.024418 1.522671
v 0.707645 -0.024418 1.487794
v 0.703312 -0.020862 1.522671
v 0.703312 -0.020862 1.487794
v 0.698368 -0.018219 1.522671
v 0.698368 -0.018219 1.487794
v 0.693003 -0.016592 1.522671
v 0.693003 -0.016592 1.487794
v 0.687425 -0.016042 1.522671
v 0.687425 -0.016042 1.487794
v 0.681846 -0.016592 1.522671
v 0.681846 -0.016592 1.487794
v 0.676481 -0.018219 1.522671
v 0.676481 -0.018219 1.487794
v 0.671538 -0.020862 1.522671
v 0.671538 -0.020862 1.487794
v 0.667204 -0.024418 1.522671
v 0.667204 -0.024418 1.487794
v 0.663648 -0.028751 1.522671
v 0.663648 -0.028751 1.487794
v 0.661005 -0.033695 1.522671
v 0.661005 -0.033695 1.487794
v 0.659378 -0.039059 1.522671
v 0.659378 -0.039059 1.487794
v 0.658829 -0.044638 1.522671
v 0.658829 -0.044638 1.487794
v 0.659378 -0.050217 1.522671
v 0.659378 -0.050217 1.487794
v 0.661005 -0.055581 1.522671
v 0.661005 -0.055581 1.487794
v 0.663648 -0.060525 1.522671
v 0.663648 -0.060525 1.487794
v 0.667204 -0.064858 1.522671
v 0.667204 -0.064858 1.487794
v 0.671538 -0.068415 1.522671
v 0.671538 -0.068415 1.487794
v 0.676481 -0.071057 1.522671
v 0.676481 -0.071057 1.487794
v 0.681846 -0.072685 1.522671
v 0.681846 -0.072685 1.487794
v 0.687425 -0.073234 1.422156
v 0.687425 -0.073234 1.457034
v 0.693003 -0.072685 1.422156
v 0.693003 -0.072685 1.457034
v 0.698368 -0.071057 1.422156
v 0.698368 -0.071057 1.457034
v 0.703312 -0.068415 1.422156
v 0.703312 -0.068415 1.457034
v 0.707645 -0.064859 1.422156
v 0.707645 -0.064858 1.457034
v 0.711201 -0.060525 1.422156
v 0.711201 -0.060525 1.457034
v 0.713844 -0.055581 1.422156
v 0.713844 -0.055581 1.457034
v 0.715471 -0.050217 1.422156
v 0.715471 -0.050217 1.457034
v 0.716020 -0.044638 1.422156
v 0.716020 -0.044638 1.457034
v 0.715471 -0.039059 1.422156
v 0.715471 -0.039059 1.457034
v 0.713844 -0.033695 1.422156
v 0.713844 -0.033695 1.457034
v 0.711201 -0.028751 1.422156
v 0.711201 -0.028751 1.457034
v 0.707645 -0.024418 1.422156
v 0.707645 -0.024418 1.457034
v 0.703312 -0.020862 1.422156
v 0.703312 -0.020862 1.457034
v 0.698368 -0.018219 1.422156
v 0.698368 -0.018219 1.457034
v 0.693003 -0.016592 1.422156
v 0.693003 -0.016592 1.457034
v 0.687425 -0.016042 1.422156
v 0.687425 -0.016042 1.457034
v 0.681846 -0.016592 1.422156
v 0.681846 -0.016592 1.457034
v 0.676481 -0.018219 1.422156
v 0.676481 -0.018219 1.457034
v 0.671538 -0.020862 1.422156
v 0.671538 -0.020862 1.457034
v 0.667204 -0.024418 1.422156
v 0.667204 -0.024418 1.457034
v 0.663648 -0.028751 1.422156
v 0.663648 -0.028751 1.457034
v 0.661005 -0.033695 1.422156
v 0.661005 -0.033695 1.457034
v 0.659378 -0.039059 1.422156
v 0.659378 -0.039059 1.457034
v 0.658829 -0.044638 1.422156
v 0.658829 -0.044638 1.457034
v 0.659378 -0.050217 1.422156
v 0.659378 -0.050217 1.457034
v 0.661005 -0.055581 1.422156
v 0.661005 -0.055581 1.457034
v 0.663648 -0.060525 1.422156
v 0.663648 -0.060525 1.457034
v 0.667204 -0.064858 1.422156
v 0.667204 -0.064858 1.457034
v 0.671538 -0.068415 1.422156
v 0.671538 -0.068415 1.457034
v 0.676481 -0.071057 1.422156
v 0.676481 -0.071057 1.457034
v 0.681846 -0.072685 1.422156
v 0.681846 -0.072685 1.457034
vn -0.0000 -1.0000 -0.0000
vn 0.1951 -0.9808 -0.0000
vn 0.3827 -0.9239 -0.0000
vn 0.5556 -0.8315 -0.0000
vn 0.7071 -0.7071 -0.0000
vn 0.8315 -0.5556 -0.0000
vn 0.9239 -0.3827 -0.0000
vn 0.9808 -0.1951 -0.0000
vn 1.0000 -0.0000 -0.0000
vn 0.9808 0.1951 -0.0000
vn 0.9239 0.3827 -0.0000
vn 0.8315 0.5556 -0.0000
vn 0.7071 0.7071 -0.0000
vn 0.5556 0.8315 -0.0000
vn 0.3827 0.9239 -0.0000
vn 0.1951 0.9808 -0.0000
vn -0.0000 1.0000 -0.0000
vn -0.1951 0.9808 -0.0000
vn -0.3827 0.9239 -0.0000
vn -0.5556 0.8315 -0.0000
vn -0.7071 0.7071 -0.0000
vn -0.8315 0.5556 -0.0000
vn -0.9239 0.3827 -0.0000
vn -0.9808 0.1951 -0.0000
vn -1.0000 -0.0000 -0.0000
vn -0.9808 -0.1951 -0.0000
vn -0.9239 -0.3827 -0.0000
vn -0.8315 -0.5556 -0.0000
vn -0.7071 -0.7071 -0.0000
vn -0.5556 -0.8315 -0.0000
vn -0.3827 -0.9239 -0.0000
vn -0.0000 -0.0000 -1.0000
vn -0.1951 -0.9808 -0.0000
vn -0.0000 -0.0000 1.0000
vt 0.388237 0.297360
vt 0.397606 0.298283
vt 0.397606 0.298283
vt 0.406615 0.301016
vt 0.406615 0.301016
vt 0.414918 0.305454
vt 0.414918 0.305454
vt 0.422196 0.311426
vt 0.428169 0.318704
vt 0.432607 0.327007
vt 0.435340 0.336016
vt 0.436262 0.345386
vt 0.435340 0.354755
vt 0.435340 0.354755
vt 0.432607 0.363765
vt 0.428169 0.372068
vt 0.428169 0.372067
vt 0.422196 0.379345
vt 0.414918 0.385318
vt 0.406615 0.389756
vt 0.397606 0.392489
vt 0.388237 0.393412
vt 0.378867 0.392489
vt 0.369858 0.389756
vt 0.361555 0.385318
vt 0.361555 0.385318
vt 0.354277 0.379345
vt 0.348304 0.372068
vt 0.348304 0.372068
vt 0.343867 0.363765
vt 0.343867 0.363765
vt 0.341133 0.354755
vt 0.340211 0.345386
vt 0.341133 0.336016
vt 0.341133 0.336016
vt 0.343867 0.327007
vt 0.348304 0.318704
vt 0.354277 0.311426
vt 0.354277 0.311426
vt 0.361555 0.305454
vt 0.361555 0.305454
vt 0.369858 0.301016
vt 0.369858 0.301016
vt 0.378867 0.298283
vt 0.378867 0.298283
s 1
usemtl atlas
f 349/385/290 350/385/290 352/386/291 351/387/291
f 351/387/291 352/386/291 354/388/292 353/389/292
f 353/389/292 354/388/292 356/390/293 355/391/293
f 355/391/293 356/390/293 358/392/294 357/392/294
f 357/392/294 358/392/294 360/393/295 359/393/295
f 359/393/295 360/393/295 362/394/296 361/394/296
f 361/394/296 362/394/296 364/395/297 363/395/297
f 363/395/297 364/395/297 366/396/298 365/396/298
f 365/396/298 366/396/298 368/397/299 367/398/299
f 367/398/299 368/397/299 370/399/300 369/399/300
f 369/399/300 370/399/300 372/400/301 371/401/301
f 371/401/301 372/400/301 374/402/302 373/402/302
f 373/402/302 374/402/302 376/403/303 375/403/303
f 375/403/303 376/403/303 378/404/304 377/404/304
f 377/404/304 378/404/304 380/405/305 379/405/305
f 379/405/305 380/405/305 382/406/306 381/406/306
f 381/406/306 382/406/306 384/407/307 383/407/307
f 383/407/307 384/407/307 386/408/308 385/408/308
f 385/408/308 386/408/308 388/409/309 387/410/309
f 387/410/309 388/409/309 390/411/310 389/411/310
f 389/411/310 390/411/310 392/412/311 391/413/311
f 391/413/311 392/412/311 394/414/312 393/415/312
f 393/415/312 394/414/312 396/416/313 395/416/313
f 395/416/313 396/416/313 398/417/314 397/417/314
f 397/417/314 398/417/314 400/418/315 399/419/315
f 399/419/315 400/418/315 402/420/316 401/420/316
f 401/420/316 402/420/316 404/421/317 403/421/317
f 403/421/317 404/421/317 406/422/318 405/423/318
f 405/423/318 406/422/318 408/424/319 407/425/319
f 407/425/319 408/424/319 410/426/320 409/427/320
f 352/386/321 350/385/321 412/428/321 410/426/321 408/424/321 406/422/321 404/421/321 402/420/321 400/418/321 398/417/321 396/416/321 394/414/321 392/412/321 390/411/321 388/409/321 386/408/321 384/407/321 382/406/321 380/405/321 378/404/321 376/403/321 374/402/321 372/400/321 370/399/321 368/397/321 366/396/321 364/395/321 362/394/321 360/393/321 358/392/321 356/390/321 354/388/321
f 409/427/320 410/426/320 412/428/322 411/429/322
f 411/429/322 412/428/322 350/385/290 349/385/290
f 349/385/323 351/387/323 353/389/323 355/391/323 357/392/323 359/393/323 361/394/323 363/395/323 365/396/323 367/398/323 369/399/323 371/401/323 373/402/323 375/403/323 377/404/323 379/405/323 381/406/323 383/407/323 385/408/323 387/410/323 389/411/323 391/413/323 393/415/323 395/416/323 397/417/323 399/419/323 401/420/323 403/421/323 405/423/323 407/425/323 409/427/323 411/429/323
f 413/385/290 415/387/291 416/386/291 414/385/290
f 415/387/291 417/389/292 418/388/292 416/386/291
f 417/389/292 419/391/293 420/390/293 418/388/292
f 419/391/293 421/392/294 422/392/294 420/390/293
f 421/392/294 423/393/295 424/393/295 422/392/294
f 423/393/295 425/394/296 426/394/296 424/393/295
f 425/394/296 427/395/297 428/395/297 426/394/296
f 427/395/297 429/396/298 430/396/298 428/395/297
f 429/396/298 431/398/299 432/397/299 430/396/298
f 431/398/299 433/399/300 434/399/300 432/397/299
f 433/399/300 435/401/301 436/400/301 434/399/300
f 435/401/301 437/402/302 438/402/302 436/400/301
f 437/402/302 439/403/303 440/403/303 438/402/302
f 439/403/303 441/404/304 442/404/304 440/403/303
f 441/404/304 443/405/305 444/405/305 442/404/304
f 443/405/305 445/406/306 446/406/306 444/405/305
f 445/406/306 447/407/307 448/407/307 446/406/306
f 447/407/307 449/408/308 450/408/308 448/407/307
f 449/408/308 451/410/309 452/409/309 450/408/308
f 451/410/309 453/411/310 454/411/310 452/409/309
f 453/411/310 455/413/311 456/412/311 454/411/310
f 455/413/311 457/415/312 458/414/312 456/412/311
f 457/415/312 459/416/313 460/416/313 458/414/312
f 459/416/313 461/417/314 462/417/314 460/416/313
f 461/417/314 463/419/315 464/418/315 462/417/314
f 463/419/315 465/420/316 466/420/316 464/418/315
f 465/420/316 467/421/317 468/421/317 466/420/316
f 467/421/317 469/423/318 470/422/318 468/421/317
f 469/423/318 471/425/319 472/424/319 470/422/318
f 471/425/319 473/427/320 474/426/320 472/424/319
f 416/386/323 418/388/323 420/390/323 422/392/323 424/393/323 426/394/323 428/395/323 430/396/323 432/397/323 434/399/323 436/400/323 438/402/323 440/403/323 442/404/323 444/405/323 446/406/323 448/407/323 450/408/323 452/409/323 454/411/323 456/412/323 458/414/323 460/416/323 462/417/323 464/418/323 466/420/323 468/421/323 470/422/323 472/424/323 474/426/323 476/428/323 414/385/323
f 473/427/320 475/429/322 476/428/322 474/426/320
f 475/429/322 413/385/290 414/385/290 476/428/322
f 413/385/321 475/429/321 473/427/321 471/425/321 469/423/321 467/421/321 465/420/321 463/419/321 461/417/321 459/416/321 457/415/321 455/413/321 453/411/321 451/410/321 449/408/321 447/407/321 445/406/321 443/405/321 441/404/321 439/403/321 437/402/321 435/401/321 433/399/321 431/398/321 429/396/321 427/395/321 425/394/321 423/393/321 421/392/321 419/391/321 417/389/321 415/387/321
o Plane.001
v 0.416302 -0.036578 1.489580
v 0.445408 -0.036465 1.489473
v 0.416593 -0.026582 1.489580
v 0.445099 -0.026470 1.489475
v 0.416268 -0.031575 1.484584
v 0.445431 -0.031460 1.484477
v 0.416627 -0.031585 1.494577
v 0.445076 -0.031474 1.494471
v 0.416627 -0.031585 1.494577
v 0.445076 -0.031474 1.494471
v 0.416268 -0.031575 1.484584
v 0.445431 -0.031460 1.484477
v 0.416593 -0.026582 1.489580
v 0.445099 -0.026470 1.489475
v 0.416302 -0.036578 1.489580
v 0.445408 -0.036465 1.489473
v 0.445408 -0.036465 1.489473
v 0.473928 -0.035459 1.492021
v 0.445099 -0.026470 1.489475
v 0.473912 -0.025459 1.492065
v 0.445431 -0.031460 1.484477
v 0.474628 -0.030436 1.487093
v 0.445076 -0.031474 1.494471
v 0.473213 -0.030482 1.496992
v 0.445076 -0.031474 1.494471
v 0.473213 -0.030482 1.496992
v 0.445431 -0.031460 1.484477
v 0.474628 -0.030436 1.487093
v 0.445099 -0.026470 1.489475
v 0.473912 -0.025459 1.492065
v 0.445408 -0.036465 1.489473
v 0.473928 -0.035459 1.492021
v 0.473928 -0.035459 1.492021
v 0.501014 -0.038117 1.496893
v 0.473912 -0.025459 1.492065
v 0.503128 -0.028353 1.497322
v 0.474628 -0.030436 1.487093
v 0.503022 -0.033225 1.492199
v 0.473213 -0.030482 1.496992
v 0.501120 -0.033245 1.502016
v 0.473213 -0.030482 1.496992
v 0.501120 -0.033245 1.502016
v 0.474628 -0.030436 1.487093
v 0.503022 -0.033225 1.492199
v 0.473912 -0.025459 1.492065
v 0.503128 -0.028353 1.497322
v 0.473928 -0.035459 1.492021
v 0.501014 -0.038117 1.496893
v 0.501014 -0.038117 1.496893
v 0.526980 -0.046917 1.501608
v 0.503128 -0.028353 1.497322
v 0.530862 -0.037732 1.502358
v 0.503022 -0.033225 1.492199
v 0.529736 -0.042266 1.497050
v 0.501120 -0.033245 1.502016
v 0.528106 -0.042383 1.506916
v 0.501120 -0.033245 1.502016
v 0.528106 -0.042383 1.506916
v 0.503022 -0.033225 1.492199
v 0.529736 -0.042266 1.497050
v 0.503128 -0.028353 1.497322
v 0.530862 -0.037732 1.502358
v 0.501014 -0.038117 1.496893
v 0.526980 -0.046917 1.501608
v 0.526980 -0.046917 1.501608
v 0.552210 -0.059556 1.505083
v 0.530862 -0.037732 1.502358
v 0.556759 -0.050691 1.505929
v 0.529736 -0.042266 1.497050
v 0.555149 -0.054991 1.500552
v 0.528106 -0.042383 1.506916
v 0.553821 -0.055255 1.510460
v 0.528106 -0.042383 1.506916
v 0.553821 -0.055255 1.510460
v 0.529736 -0.042266 1.497050
v 0.555149 -0.054991 1.500552
v 0.530862 -0.037732 1.502358
v 0.556759 -0.050691 1.505929
v 0.526980 -0.046917 1.501608
v 0.552210 -0.059556 1.505083
v 0.552210 -0.059556 1.505083
v 0.577893 -0.072811 1.507787
v 0.556759 -0.050691 1.505929
v 0.582048 -0.063751 1.508594
v 0.555149 -0.054991 1.500552
v 0.580512 -0.068087 1.503223
v 0.553821 -0.055255 1.510460
v 0.579430 -0.068475 1.513157
v 0.553821 -0.055255 1.510460
v 0.579430 -0.068475 1.513157
v 0.555149 -0.054991 1.500552
v 0.580512 -0.068087 1.503223
v 0.556759 -0.050691 1.505929
v 0.582048 -0.063751 1.508594
v 0.552210 -0.059556 1.505083
v 0.577893 -0.072811 1.507787
v 0.577893 -0.072811 1.507787
v 0.605599 -0.083346 1.509690
v 0.582048 -0.063751 1.508594
v 0.607965 -0.073655 1.510387
v 0.580512 -0.068087 1.503223
v 0.607025 -0.078202 1.505054
v 0.579430 -0.068475 1.513157
v 0.606538 -0.078800 1.515024
v 0.579430 -0.068475 1.513157
v 0.606538 -0.078800 1.515024
v 0.580512 -0.068087 1.503223
v 0.607025 -0.078202 1.505054
v 0.582048 -0.063751 1.508594
v 0.607965 -0.073655 1.510387
v 0.577893 -0.072811 1.507787
v 0.605599 -0.083346 1.509690
v 0.605599 -0.083346 1.509690
v 0.636318 -0.083916 1.508876
v 0.607965 -0.073655 1.510387
v 0.634067 -0.074208 1.509714
v 0.607025 -0.078202 1.505054
v 0.634638 -0.078763 1.504335
v 0.606538 -0.078800 1.515024
v 0.635747 -0.079362 1.514255
v 0.606538 -0.078800 1.515024
v 0.635747 -0.079362 1.514255
v 0.607025 -0.078202 1.505054
v 0.634638 -0.078763 1.504335
v 0.607965 -0.073655 1.510387
v 0.634067 -0.074208 1.509714
v 0.605599 -0.083346 1.509690
v 0.636318 -0.083916 1.508876
v 0.636318 -0.083916 1.508876
v 0.663685 -0.075039 1.505470
v 0.634067 -0.074208 1.509714
v 0.661099 -0.065418 1.506340
v 0.634638 -0.078763 1.504335
v 0.661737 -0.069957 1.500955
v 0.635747 -0.079362 1.514255
v 0.663047 -0.070500 1.510854
v 0.635747 -0.079362 1.514255
v 0.663047 -0.070500 1.510854
v 0.634638 -0.078763 1.504335
v 0.661737 -0.069957 1.500955
v 0.634067 -0.074208 1.509714
v 0.661099 -0.065418 1.506340
v 0.636318 -0.083916 1.508876
v 0.663685 -0.075039 1.505470
v 0.663685 -0.075039 1.505470
v 0.691119 -0.069601 1.502795
v 0.661099 -0.065418 1.506340
v 0.689896 -0.059703 1.503530
v 0.661737 -0.069957 1.500955
v 0.690067 -0.064338 1.498192
v 0.663047 -0.070500 1.510854
v 0.690948 -0.064967 1.508133
v 0.663047 -0.070500 1.510854
v 0.690948 -0.064967 1.508133
v 0.661737 -0.069957 1.500955
v 0.690067 -0.064338 1.498192
v 0.661099 -0.065418 1.506340
v 0.689896 -0.059703 1.503530
v 0.663685 -0.075039 1.505470
v 0.691119 -0.069601 1.502795
vn 0.0037 -0.0001 1.0000
vn 0.0039 -1.0000 -0.0012
vn -0.0039 1.0000 0.0012
vn -0.0037 0.0001 -1.0000
vn -0.0891 -0.0038 0.9960
vn 0.0351 -0.9994 0.0001
vn -0.0351 0.9994 -0.0001
vn 0.0891 0.0038 -0.9960
vn -0.1775 -0.0047 0.9841
vn -0.0947 -0.9953 -0.0192
vn 0.0947 0.9953 0.0192
vn 0.1775 0.0047 -0.9841
vn -0.1801 -0.0042 0.9836
vn -0.3099 -0.9487 -0.0622
vn 0.3099 0.9487 0.0622
vn 0.1801 0.0042 -0.9836
vn -0.1460 -0.0193 0.9891
vn -0.4370 -0.8956 -0.0826
vn 0.4370 0.8956 0.0826
vn 0.1460 0.0193 -0.9891
vn -0.1213 -0.0326 0.9921
vn -0.4501 -0.8890 -0.0839
vn 0.4501 0.8890 0.0839
vn 0.1213 0.0326 -0.9921
vn -0.0874 -0.0494 0.9949
vn -0.3507 -0.9336 -0.0739
vn 0.3507 0.9336 0.0739
vn 0.0874 0.0494 -0.9949
vn 0.0245 -0.0790 0.9966
vn -0.0213 -0.9980 -0.0594
vn 0.0213 0.9980 0.0594
vn -0.0245 0.0790 -0.9966
vn 0.1402 -0.0522 0.9887
vn 0.2973 -0.9504 -0.0910
vn -0.2973 0.9504 0.0910
vn -0.1402 0.0522 -0.9887
vn 0.1087 -0.0603 0.9922
vn 0.1866 -0.9793 -0.0784
vn -0.1866 0.9793 0.0784
vn -0.1087 0.0603 -0.9922
vt 0.529298 0.500826
vt 0.529298 0.561899
vt 0.502994 0.561899
vt 0.502994 0.500826
s 0
usemtl atlas
f 477/430/324 478/431/324 480/432/324 479/433/324
f 481/430/325 482/431/325 484/432/325 483/433/325
f 485/430/326 486/431/326 488/432/326 487/433/326
f 489/430/327 490/431/327 492/432/327 491/433/327
f 493/430/328 494/431/328 496/432/328 495/433/328
f 497/430/329 498/431/329 500/432/329 499/433/329
f 501/430/330 502/431/330 504/432/330 503/433/330
f 505/430/331 506/431/331 508/432/331 507/433/331
f 509/430/332 510/431/332 512/432/332 511/433/332
f 513/430/333 514/431/333 516/432/333 515/433/333
f 517/430/334 518/431/334 520/432/334 519/433/334
f 521/430/335 522/431/335 524/432/335 523/433/335
f 525/430/336 526/431/336 528/432/336 527/433/336
f 529/430/337 530/431/337 532/432/337 531/433/337
f 533/430/338 534/431/338 536/432/338 535/433/338
f 537/430/339 538/431/339 540/432/339 539/433/339
f 541/430/340 542/431/340 544/432/340 543/433/340
f 545/430/341 546/431/341 548/432/341 547/433/341
f 549/430/342 550/431/342 552/432/342 551/433/342
f 553/430/343 554/431/343 556/432/343 555/433/343
f 557/430/344 558/431/344 560/432/344 559/433/344
f 561/430/345 562/431/345 564/432/345 563/433/345
f 565/430/346 566/431/346 568/432/346 567/433/346
f 569/430/347 570/431/347 572/432/347 571/433/347
f 573/430/348 574/431/348 576/432/348 575/433/348
f 577/430/349 578/431/349 580/432/349 579/433/349
f 581/430/350 582/431/350 584/432/350 583/433/350
f 585/430/351 586/431/351 588/432/351 587/433/351
f 589/430/352 590/431/352 592/432/352 591/433/352
f 593/430/353 594/431/353 596/432/353 595/433/353
f 597/430/354 598/431/354 600/432/354 599/433/354
f 601/430/355 602/431/355 604/432/355 603/433/355
f 605/430/356 606/431/356 608/432/356 607/433/356
f 609/430/357 610/431/357 612/432/357 611/433/357
f 613/430/358 614/431/358 616/432/358 615/433/358
f 617/430/359 618/431/359 620/432/359 619/433/359
f 621/430/360 622/431/360 624/432/360 623/433/360
f 625/430/361 626/431/361 628/432/361 627/433/361
f 629/430/362 630/431/362 632/432/362 631/433/362
f 633/430/363 634/431/363 636/432/363 635/433/363
