# Blender 4.4.1
# www.blender.org
mtllib 00_cube.mtl
o Cube
v 0.980000 0.980000 -1.000000
v 0.980000 1.000000 -0.980000
v 1.000000 0.980000 -0.980000
v 0.980000 -1.000000 -0.980000
v 0.980000 -0.980000 -1.000000
v 1.000000 -0.980000 -0.980000
v 1.000000 0.980000 0.980000
v 0.980000 1.000000 0.980000
v 0.980000 0.980000 1.000000
v 1.000000 -0.980000 0.980000
v 0.980000 -0.980000 1.000000
v 0.980000 -1.000000 0.980000
v -0.980000 0.980000 -1.000000
v -1.000000 0.980000 -0.980000
v -0.980000 1.000000 -0.980000
v -1.000000 -0.980000 -0.980000
v -0.980000 -0.980000 -1.000000
v -0.980000 -1.000000 -0.980000
v -1.000000 0.980000 0.980000
v -0.980000 0.980000 1.000000
v -0.980000 1.000000 0.980000
v -0.980000 -1.000000 0.980000
v -0.980000 -0.980000 1.000000
v -1.000000 -0.980000 0.980000
vn -0.0000 -1.0000 -0.0000
vn -1.0000 -0.0000 -0.0000
vn -0.0000 -0.0000 1.0000
vn -0.0000 1.0000 -0.0000
vn 1.0000 -0.0000 -0.0000
vn 0.5774 0.5774 -0.5774
vn 0.5774 -0.5774 -0.5774
vn 0.5774 0.5774 0.5774
vn 0.5774 -0.5774 0.5774
vn -0.5774 0.5774 -0.5774
vn -0.5774 -0.5774 -0.5774
vn -0.5774 0.5774 0.5774
vn -0.5774 -0.5774 0.5774
vn -0.7071 -0.7071 -0.0000
vn -0.0000 -0.7071 -0.7071
vn 0.7071 -0.0000 -0.7071
vn -0.7071 -0.0000 0.7071
vn 0.7071 -0.0000 0.7071
vn -0.7071 -0.0000 -0.7071
vn -0.0000 0.7071 0.7071
vn 0.7071 0.7071 -0.0000
vn -0.0000 -0.7071 0.7071
vn -0.7071 0.7071 -0.0000
vn -0.0000 0.7071 -0.7071
vn 0.7071 -0.7071 -0.0000
vn -0.0000 -0.0000 -1.0000
vt 0.990000 0.010000
vt 0.990000 0.990000
vt 0.010000 0.990000
vt 0.010000 0.010000
vt 0.990000 0.990000
vt 0.010000 0.010000
vt 0.990000 0.010000
vt 0.990000 0.990000
vt 0.010000 0.990000
vt 0.010000 0.010000
vt 0.990000 0.010000
vt 0.990000 0.010000
vt 0.990000 0.990000
vt 0.010000 0.010000
vt 0.990000 0.990000
vt 0.010000 0.990000
vt 0.010000 0.010000
vt 0.990000 0.010000
vt 1.000000 0.010000
vt 0.990000 0.000000
vt 1.000000 0.990000
vt 0.990000 1.000000
vt 0.010000 0.000000
vt -0.000000 0.010000
vt 0.010000 1.000000
vt -0.000000 0.990000
vt 1.000000 0.990000
vt 0.990000 1.000000
vt 0.990000 0.000000
vt 1.000000 0.010000
vt 0.010000 1.000000
vt -0.000000 0.990000
vt -0.000000 0.010000
vt 0.010000 0.000000
vt 0.990000 1.000000
vt 0.010000 1.000000
vt 0.990000 1.000000
vt 0.990000 1.000000
vt 0.010000 0.000000
vt 0.990000 0.000000
vt 0.010000 0.990000
vt 0.010000 0.010000
vt 0.990000 0.010000
s 0
usemtl Material
f 18/1/1 4/2/1 12/3/1 22/4/1
f 24/5/2 19/3/2 14/6/2 16/7/2
f 11/8/3 9/9/3 20/10/3 23/11/3
f 2/12/4 15/13/4 21/9/4 8/14/4
f 6/15/5 3/16/5 7/17/5 10/18/5
f 1/19/6 2/12/6 3/20/6
f 4/2/7 5/21/7 6/22/7
f 7/23/8 8/14/8 9/24/8
f 10/25/9 11/26/9 12/3/9
f 13/27/10 14/28/10 15/13/10
f 16/29/11 17/30/11 18/1/11
f 19/31/12 20/32/12 21/9/12
f 22/4/13 23/33/13 24/34/13
f 18/1/14 22/4/14 24/34/14 16/29/14
f 4/2/15 18/1/15 17/30/15 5/21/15
f 3/16/16 6/15/16 5/35/16 1/36/16
f 23/37/17 20/25/17 19/3/17 24/5/17
f 9/9/18 11/8/18 10/38/18 7/31/18
f 13/39/19 17/40/19 16/7/19 14/6/19
f 8/14/20 21/9/20 20/32/20 9/24/20
f 2/12/21 8/14/21 7/23/21 3/20/21
f 22/4/22 12/3/22 11/26/22 23/33/22
f 21/9/23 15/13/23 14/28/23 19/31/23
f 15/13/24 2/12/24 1/19/24 13/27/24
f 12/3/25 4/2/25 6/22/25 10/25/25
f 17/2/26 13/41/26 1/42/26 5/43/26
