# Blender 4.4.3
# www.blender.org
mtllib 01_face.mtl
o Cube.001
v 0.980000 1.000000 0.980000
v 0.980000 0.980000 1.000000
v 1.000000 0.980000 0.980000
v 1.000000 -0.980000 0.980000
v 0.980000 -0.980000 1.000000
v 0.980000 -1.000000 0.980000
v -0.980000 1.000000 0.980000
v -1.000000 0.980000 0.980000
v -0.980000 0.980000 1.000000
v -1.000000 -0.980000 0.980000
v -0.980000 -1.000000 0.980000
v -0.980000 -0.980000 1.000000
vn -0.0000 -0.0000 1.0000
vn 0.5774 0.5774 0.5774
vn 0.5774 -0.5774 0.5774
vn -0.5774 0.5774 0.5774
vn -0.5774 -0.5774 0.5774
vn -0.0000 -0.7071 0.7071
vn 0.7071 -0.0000 0.7071
vn -0.7071 -0.0000 0.7071
vn -0.0000 0.7071 0.7071
vt 0.990000 0.010000
vt 0.990000 0.990000
vt 0.010000 0.990000
vt 0.010000 0.010000
vt 1.000000 0.010000
vt 0.990000 0.000000
vt 0.010000 0.000000
vt -0.000000 0.010000
vt 1.000000 0.990000
vt 0.990000 1.000000
vt 0.010000 1.000000
vt -0.000000 0.990000
s 0
usemtl Material
f 2/1/1 9/2/1 12/3/1 5/4/1
f 1/5/2 2/1/2 3/6/2
f 4/7/3 5/4/3 6/8/3
f 7/9/4 8/10/4 9/2/4
f 10/11/5 11/12/5 12/3/5
f 5/4/6 12/3/6 11/12/6 6/8/6
f 2/1/7 5/4/7 4/7/7 3/6/7
f 12/3/8 9/2/8 8/10/8 10/11/8
f 9/2/9 2/1/9 1/5/9 7/9/9
