# Blender 4.4.3
# www.blender.org
mtllib 02_sphere.mtl
o Icosphere
v 0.000000 -1.000000 0.000000
v 0.723607 -0.447220 0.525725
v -0.276388 -0.447220 0.850649
v -0.894426 -0.447216 0.000000
v -0.276388 -0.447220 -0.850649
v 0.723607 -0.447220 -0.525725
v 0.276388 0.447220 0.850649
v -0.723607 0.447220 0.525725
v -0.723607 0.447220 -0.525725
v 0.276388 0.447220 -0.850649
v 0.894426 0.447216 0.000000
v 0.000000 1.000000 0.000000
v -0.232822 -0.657519 0.716563
v -0.162456 -0.850654 0.499995
v -0.077607 -0.967950 0.238853
v 0.203181 -0.967950 0.147618
v 0.425323 -0.850654 0.309011
v 0.609547 -0.657519 0.442856
v 0.531941 -0.502302 0.681712
v 0.262869 -0.525738 0.809012
v -0.029639 -0.502302 0.864184
v 0.812729 -0.502301 -0.295238
v 0.850648 -0.525736 0.000000
v 0.812729 -0.502301 0.295238
v 0.203181 -0.967950 -0.147618
v 0.425323 -0.850654 -0.309011
v 0.609547 -0.657519 -0.442856
v -0.753442 -0.657515 0.000000
v -0.525730 -0.850652 0.000000
v -0.251147 -0.967949 0.000000
v -0.483971 -0.502302 0.716565
v -0.688189 -0.525736 0.499997
v -0.831051 -0.502299 0.238853
v -0.232822 -0.657519 -0.716563
v -0.162456 -0.850654 -0.499995
v -0.077607 -0.967950 -0.238853
v -0.831051 -0.502299 -0.238853
v -0.688189 -0.525736 -0.499997
v -0.483971 -0.502302 -0.716565
v -0.029639 -0.502302 -0.864184
v 0.262869 -0.525738 -0.809012
v 0.531941 -0.502302 -0.681712
v 0.956626 0.251149 0.147618
v 0.951058 -0.000000 0.309013
v 0.860698 -0.251151 0.442858
v 0.860698 -0.251151 -0.442858
v 0.951058 0.000000 -0.309013
v 0.956626 0.251149 -0.147618
v 0.155215 0.251152 0.955422
v 0.000000 -0.000000 1.000000
v -0.155215 -0.251152 0.955422
v 0.687159 -0.251152 0.681715
v 0.587786 0.000000 0.809017
v 0.436007 0.251152 0.864188
v -0.860698 0.251151 0.442858
v -0.951058 -0.000000 0.309013
v -0.956626 -0.251149 0.147618
v -0.436007 -0.251152 0.864188
v -0.587786 0.000000 0.809017
v -0.687159 0.251152 0.681715
v -0.687159 0.251152 -0.681715
v -0.587786 -0.000000 -0.809017
v -0.436007 -0.251152 -0.864188
v -0.956626 -0.251149 -0.147618
v -0.951058 0.000000 -0.309013
v -0.860698 0.251151 -0.442858
v 0.436007 0.251152 -0.864188
v 0.587786 -0.000000 -0.809017
v 0.687159 -0.251152 -0.681715
v -0.155215 -0.251152 -0.955422
v 0.000000 0.000000 -1.000000
v 0.155215 0.251152 -0.955422
v 0.831051 0.502299 0.238853
v 0.688189 0.525736 0.499997
v 0.483971 0.502302 0.716565
v 0.029639 0.502302 0.864184
v -0.262869 0.525738 0.809012
v -0.531941 0.502302 0.681712
v -0.812729 0.502301 0.295238
v -0.850648 0.525736 0.000000
v -0.812729 0.502301 -0.295238
v -0.531941 0.502302 -0.681712
v -0.262869 0.525738 -0.809012
v 0.029639 0.502302 -0.864184
v 0.483971 0.502302 -0.716565
v 0.688189 0.525736 -0.499997
v 0.831051 0.502299 -0.238853
v 0.077607 0.967950 0.238853
v 0.162456 0.850654 0.499995
v 0.232822 0.657519 0.716563
v 0.753442 0.657515 0.000000
v 0.525730 0.850652 0.000000
v 0.251147 0.967949 0.000000
v -0.203181 0.967950 0.147618
v -0.425323 0.850654 0.309011
v -0.609547 0.657519 0.442856
v -0.203181 0.967950 -0.147618
v -0.425323 0.850654 -0.309011
v -0.609547 0.657519 -0.442856
v 0.077607 0.967950 -0.238853
v 0.162456 0.850654 -0.499995
v 0.232822 0.657519 -0.716563
v 0.361800 0.894429 -0.262863
v 0.638194 0.723610 -0.262864
v 0.447209 0.723612 -0.525728
v -0.138197 0.894430 -0.425319
v -0.052790 0.723612 -0.688185
v -0.361804 0.723612 -0.587778
v -0.447210 0.894429 0.000000
v -0.670817 0.723611 -0.162457
v -0.670817 0.723611 0.162457
v -0.138197 0.894430 0.425319
v -0.361804 0.723612 0.587778
v -0.052790 0.723612 0.688185
v 0.361800 0.894429 0.262863
v 0.447209 0.723612 0.525728
v 0.638194 0.723610 0.262864
v 0.861804 0.276396 -0.425322
v 0.809019 0.000000 -0.587782
v 0.670821 0.276397 -0.688189
v -0.138199 0.276397 -0.951055
v -0.309016 -0.000000 -0.951057
v -0.447215 0.276397 -0.850649
v -0.947213 0.276396 -0.162458
v -1.000000 0.000001 0.000000
v -0.947213 0.276397 0.162458
v -0.447216 0.276397 0.850648
v -0.309017 -0.000001 0.951056
v -0.138199 0.276397 0.951055
v 0.670820 0.276396 0.688190
v 0.809019 -0.000002 0.587783
v 0.861804 0.276394 0.425323
v 0.309017 -0.000000 -0.951056
v 0.447216 -0.276398 -0.850648
v 0.138199 -0.276398 -0.951055
v -0.809018 -0.000000 -0.587783
v -0.670819 -0.276397 -0.688191
v -0.861803 -0.276396 -0.425324
v -0.809018 0.000000 0.587783
v -0.861803 -0.276396 0.425324
v -0.670819 -0.276397 0.688191
v 0.309017 0.000000 0.951056
v 0.138199 -0.276398 0.951055
v 0.447216 -0.276398 0.850648
v 1.000000 0.000000 0.000000
v 0.947213 -0.276396 0.162458
v 0.947213 -0.276396 -0.162458
v 0.361803 -0.723612 -0.587779
v 0.138197 -0.894429 -0.425321
v 0.052789 -0.723611 -0.688186
v -0.447211 -0.723612 -0.525727
v -0.361801 -0.894429 -0.262863
v -0.638195 -0.723609 -0.262863
v -0.638195 -0.723609 0.262864
v -0.361801 -0.894428 0.262864
v -0.447211 -0.723610 0.525729
v 0.670817 -0.723611 -0.162457
v 0.670818 -0.723610 0.162458
v 0.447211 -0.894428 0.000001
v 0.052790 -0.723612 0.688185
v 0.138199 -0.894429 0.425321
v 0.361805 -0.723611 0.587779
vn -0.0000 -1.0000 -0.0000
vn 0.7236 -0.4472 0.5257
vn -0.2764 -0.4472 0.8506
vn -0.8944 -0.4472 -0.0000
vn -0.2764 -0.4472 -0.8506
vn 0.7236 -0.4472 -0.5257
vn 0.2764 0.4472 0.8506
vn -0.7236 0.4472 0.5257
vn -0.7236 0.4472 -0.5257
vn 0.2764 0.4472 -0.8506
vn 0.8944 0.4472 -0.0000
vn -0.0000 1.0000 -0.0000
vn -0.2308 -0.6650 0.7103
vn -0.1625 -0.8507 0.5000
vn -0.0806 -0.9654 0.2480
vn 0.2110 -0.9654 0.1533
vn 0.4253 -0.8507 0.3090
vn 0.6042 -0.6650 0.4390
vn 0.5237 -0.5038 0.6870
vn 0.2629 -0.5257 0.8090
vn -0.0198 -0.5038 0.8636
vn 0.8152 -0.5038 -0.2857
vn 0.8506 -0.5257 -0.0000
vn 0.8152 -0.5038 0.2857
vn 0.2110 -0.9654 -0.1533
vn 0.4253 -0.8507 -0.3090
vn 0.6042 -0.6650 -0.4390
vn -0.7469 -0.6650 -0.0000
vn -0.5257 -0.8507 -0.0000
vn -0.2608 -0.9654 -0.0000
vn -0.4915 -0.5038 0.7103
vn -0.6882 -0.5257 0.5000
vn -0.8274 -0.5038 0.2480
vn -0.2308 -0.6650 -0.7103
vn -0.1625 -0.8507 -0.5000
vn -0.0806 -0.9654 -0.2480
vn -0.8274 -0.5038 -0.2480
vn -0.6882 -0.5257 -0.5000
vn -0.4915 -0.5038 -0.7103
vn -0.0198 -0.5038 -0.8636
vn 0.2629 -0.5257 -0.8090
vn 0.5237 -0.5038 -0.6870
vn 0.9578 0.2431 0.1533
vn 0.9511 -0.0000 0.3090
vn 0.8650 -0.2431 0.4390
vn 0.8650 -0.2431 -0.4390
vn 0.9511 -0.0000 -0.3090
vn 0.9578 0.2431 -0.1533
vn 0.1502 0.2431 0.9583
vn -0.0000 -0.0000 1.0000
vn -0.1502 -0.2431 0.9583
vn 0.6848 -0.2431 0.6870
vn 0.5878 -0.0000 0.8090
vn 0.4417 0.2431 0.8636
vn -0.8650 0.2431 0.4390
vn -0.9511 -0.0000 0.3090
vn -0.9578 -0.2431 0.1533
vn -0.4417 -0.2431 0.8636
vn -0.5878 -0.0000 0.8090
vn -0.6848 0.2431 0.6870
vn -0.6848 0.2431 -0.6870
vn -0.5878 -0.0000 -0.8090
vn -0.4417 -0.2431 -0.8636
vn -0.9578 -0.2431 -0.1533
vn -0.9511 -0.0000 -0.3090
vn -0.8650 0.2431 -0.4390
vn 0.4417 0.2431 -0.8636
vn 0.5878 -0.0000 -0.8090
vn 0.6848 -0.2431 -0.6870
vn -0.1502 -0.2431 -0.9583
vn -0.0000 -0.0000 -1.0000
vn 0.1502 0.2431 -0.9583
vn 0.8274 0.5038 0.2480
vn 0.6882 0.5257 0.5000
vn 0.4915 0.5038 0.7103
vn 0.0198 0.5038 0.8636
vn -0.2629 0.5257 0.8090
vn -0.5237 0.5038 0.6870
vn -0.8152 0.5038 0.2857
vn -0.8506 0.5257 -0.0000
vn -0.8152 0.5038 -0.2857
vn -0.5237 0.5038 -0.6870
vn -0.2629 0.5257 -0.8090
vn 0.0198 0.5038 -0.8636
vn 0.4915 0.5038 -0.7103
vn 0.6882 0.5257 -0.5000
vn 0.8274 0.5038 -0.2480
vn 0.0806 0.9654 0.2480
vn 0.1625 0.8507 0.5000
vn 0.2308 0.6650 0.7103
vn 0.7469 0.6650 -0.0000
vn 0.5257 0.8507 -0.0000
vn 0.2607 0.9654 -0.0000
vn -0.2110 0.9654 0.1533
vn -0.4253 0.8507 0.3090
vn -0.6042 0.6650 0.4390
vn -0.2110 0.9654 -0.1533
vn -0.4253 0.8507 -0.3090
vn -0.6042 0.6650 -0.4390
vn 0.0806 0.9654 -0.2480
vn 0.1625 0.8507 -0.5000
vn 0.2308 0.6650 -0.7103
vn 0.3682 0.8904 -0.2675
vn 0.6317 0.7275 -0.2675
vn 0.4496 0.7276 -0.5182
vn -0.1406 0.8904 -0.4329
vn -0.0592 0.7276 -0.6835
vn -0.3539 0.7276 -0.5878
vn -0.4551 0.8904 -0.0000
vn -0.6683 0.7276 -0.1549
vn -0.6683 0.7276 0.1549
vn -0.1406 0.8904 0.4329
vn -0.3539 0.7276 0.5878
vn -0.0592 0.7276 0.6835
vn 0.3682 0.8904 0.2675
vn 0.4496 0.7276 0.5182
vn 0.6317 0.7275 0.2675
vn 0.8593 0.2724 -0.4329
vn 0.8090 0.0089 -0.5878
vn 0.6772 0.2724 -0.6835
vn -0.1461 0.2724 -0.9510
vn -0.3090 0.0089 -0.9510
vn -0.4408 0.2724 -0.8553
vn -0.9496 0.2724 -0.1549
vn -1.0000 0.0089 -0.0000
vn -0.9496 0.2724 0.1549
vn -0.4408 0.2724 0.8553
vn -0.3090 0.0089 0.9510
vn -0.1461 0.2724 0.9510
vn 0.6772 0.2724 0.6835
vn 0.8090 0.0089 0.5878
vn 0.8593 0.2724 0.4329
vn 0.3090 -0.0089 -0.9510
vn 0.4408 -0.2724 -0.8553
vn 0.1461 -0.2724 -0.9510
vn -0.8090 -0.0089 -0.5878
vn -0.6772 -0.2724 -0.6835
vn -0.8593 -0.2724 -0.4329
vn -0.8090 -0.0089 0.5878
vn -0.8593 -0.2724 0.4329
vn -0.6772 -0.2724 0.6835
vn 0.3090 -0.0089 0.9510
vn 0.1461 -0.2724 0.9510
vn 0.4408 -0.2724 0.8553
vn 1.0000 -0.0089 -0.0000
vn 0.9496 -0.2724 0.1549
vn 0.9496 -0.2724 -0.1549
vn 0.3539 -0.7276 -0.5878
vn 0.1406 -0.8904 -0.4329
vn 0.0592 -0.7276 -0.6835
vn -0.4496 -0.7276 -0.5182
vn -0.3682 -0.8904 -0.2675
vn -0.6317 -0.7275 -0.2675
vn -0.6317 -0.7275 0.2675
vn -0.3682 -0.8904 0.2675
vn -0.4496 -0.7275 0.5182
vn 0.6683 -0.7275 -0.1549
vn 0.6683 -0.7275 0.1549
vn 0.4551 -0.8904 -0.0000
vn 0.0592 -0.7276 0.6835
vn 0.1406 -0.8904 0.4329
vn 0.3539 -0.7276 0.5878
vt 0.280176 0.280460
vt 0.185302 0.269771
vt 0.246513 0.359995
vt 0.193014 0.450858
vt 0.128597 0.380388
vt 0.237569 0.376872
vt 0.338402 0.338561
vt 0.359639 0.246626
vt 0.269284 0.185609
vt 0.274244 0.463810
vt 0.223402 0.641411
vt 0.129827 0.622458
vt 0.183920 0.728341
vt 0.500195 0.500006
vt 0.443143 0.529152
vt 0.510285 0.563272
vt 0.641005 0.222911
vt 0.603741 0.296242
vt 0.697740 0.288031
vt 0.451645 0.192754
vt 0.498759 0.109713
vt 0.535780 0.212265
vt 0.212354 0.535033
vt 0.288644 0.698006
vt 0.563482 0.509961
vt 0.727850 0.183242
vt 0.464431 0.274010
vt 0.358568 0.776598
vt 0.395986 0.703344
vt 0.444599 0.784215
vt 0.549151 0.806948
vt 0.502210 0.890087
vt 0.619624 0.871361
vt 0.807241 0.548303
vt 0.762841 0.622383
vt 0.871805 0.618638
vt 0.777046 0.358972
vt 0.870582 0.378120
vt 0.784488 0.445018
vt 0.499958 0.499797
vt 0.557071 0.470771
vt 0.545214 0.545145
vt 0.661413 0.661581
vt 0.753347 0.640339
vt 0.719517 0.719804
vt 0.600783 0.600827
vt 0.685744 0.577375
vt 0.617096 0.518473
vt 0.777131 0.543988
vt 0.700657 0.483839
vt 0.627200 0.435129
vt 0.703717 0.396240
vt 0.814369 0.730691
vt 0.859517 0.622073
vt 0.879715 0.495394
vt 0.950625 0.730083
vt 1.000000 0.579522
vt 0.999996 0.578622
vt 0.951408 0.729227
vt 0.999894 0.421070
vt 0.999987 0.420373
vt 0.890279 0.501185
vt 0.730211 0.814677
vt 0.857350 0.857918
vt 0.810474 0.719011
vt 0.729326 0.950932
vt 0.858629 0.857672
vt 0.719865 0.809814
vt 0.730383 0.950727
vt 0.698875 0.698260
vt 0.623134 0.762389
vt 0.639984 0.753472
vt 0.621501 0.859605
vt 0.579884 0.999637
vt 0.543585 0.777059
vt 0.578664 1.000000
vt 0.494782 0.879544
vt 0.421635 0.999969
vt 0.420212 0.999572
vt 0.377526 0.870172
vt 0.577157 0.685741
vt 0.483591 0.700463
vt 0.518395 0.616973
vt 0.435031 0.626907
vt 0.470815 0.556851
vt 0.490000 0.436510
vt 0.477772 0.358800
vt 0.553916 0.394165
vt 0.546798 0.303990
vt 0.631149 0.347078
vt 0.627635 0.249846
vt 0.711923 0.302240
vt 0.816711 0.272125
vt 0.858236 0.142346
vt 0.950993 0.270563
vt 0.804360 0.272591
vt 0.857626 0.141709
vt 0.951118 0.269643
vt 0.862721 0.386828
vt 0.750139 0.372316
vt 0.787725 0.464169
vt 0.725983 0.535522
vt 0.641194 0.522185
vt 0.672164 0.604704
vt 0.584160 0.583791
vt 0.605261 0.671750
vt 0.522676 0.640957
vt 0.536195 0.725718
vt 0.464975 0.787613
vt 0.373041 0.750224
vt 0.387795 0.862774
vt 0.273433 0.804659
vt 0.270801 0.951422
vt 0.269806 0.950364
vt 0.142666 0.858206
vt 0.141778 0.857346
vt 0.271641 0.816085
vt 0.301970 0.711359
vt 0.249747 0.626965
vt 0.346971 0.630676
vt 0.304056 0.546237
vt 0.394215 0.553540
vt 0.359006 0.477324
vt 0.436692 0.489710
vt 0.727357 0.195619
vt 0.613117 0.137265
vt 0.730296 0.048862
vt 0.729404 0.048959
vt 0.579564 0.000000
vt 0.578895 0.000067
vt 0.621852 0.129377
vt 0.696000 0.453156
vt 0.652907 0.368807
vt 0.605825 0.446042
vt 0.564856 0.372761
vt 0.529218 0.442892
vt 0.453765 0.695911
vt 0.446458 0.605752
vt 0.369324 0.653000
vt 0.373089 0.564941
vt 0.296654 0.603989
vt 0.195318 0.726576
vt 0.049640 0.730183
vt 0.048555 0.729216
vt 0.137196 0.612217
vt 0.000425 0.579779
vt 0.000000 0.578385
vt 0.109877 0.497803
vt 0.416169 0.415837
vt 0.328209 0.394740
vt 0.395251 0.327834
vt 0.301693 0.301128
vt 0.377568 0.237158
vt 0.381306 0.128193
vt 0.270713 0.048596
vt 0.421316 0.000000
vt 0.377900 0.140454
vt 0.269884 0.049352
vt 0.420444 -0.000030
vt 0.504578 0.120250
vt 0.455989 0.222836
vt 0.554959 0.215474
vt 0.516142 0.299307
vt 0.422608 0.314225
vt 0.481513 0.382870
vt 0.399160 0.399188
vt 0.454845 0.454754
vt 0.383019 0.481576
vt 0.314247 0.422819
vt 0.299530 0.516385
vt 0.222931 0.456395
vt 0.215780 0.555381
vt 0.280936 0.189530
vt 0.190138 0.280144
vt 0.142273 0.141383
vt 0.142055 0.142635
vt 0.049225 0.269633
vt 0.049047 0.270664
vt 0.120448 0.505204
vt 0.140380 0.378483
vt -0.000012 0.421329
vt 0.000323 0.420136
s 1
usemtl Material.001
f 1/1/1 16/2/16 15/3/15
f 2/4/2 18/5/18 24/6/24
f 1/1/1 15/3/15 30/7/30
f 1/1/1 30/7/30 36/8/36
f 1/1/1 36/8/36 25/9/25
f 2/4/2 24/6/24 45/10/45
f 3/11/3 21/12/21 51/13/51
f 4/14/4 33/15/33 57/16/57
f 5/17/5 39/18/39 63/19/63
f 6/20/6 42/21/42 69/22/69
f 2/4/2 45/10/45 52/23/52
f 3/11/3 51/13/51 58/24/58
f 4/14/4 57/16/57 64/25/64
f 5/17/5 63/19/63 70/26/70
f 6/20/6 69/22/69 46/27/46
f 7/28/7 75/29/75 90/30/90
f 8/31/8 78/32/78 96/33/96
f 9/34/9 81/35/81 99/36/99
f 10/37/10 84/38/84 102/39/102
f 11/40/11 87/41/87 91/42/91
f 93/43/93 100/44/100 12/45/12
f 92/46/92 103/47/103 93/43/93
f 91/42/91 104/48/104 92/46/92
f 93/43/93 103/47/103 100/44/100
f 103/47/103 101/49/101 100/44/100
f 92/46/92 104/48/104 103/47/103
f 104/48/104 105/50/105 103/47/103
f 103/47/103 105/50/105 101/49/101
f 105/50/105 102/39/102 101/49/101
f 91/42/91 87/41/87 104/48/104
f 87/41/87 86/51/86 104/48/104
f 104/48/104 86/51/86 105/50/105
f 86/51/86 85/52/85 105/50/105
f 105/50/105 85/52/85 102/39/102
f 85/52/85 10/37/10 102/39/102
f 100/44/100 97/53/97 12/45/12
f 101/49/101 106/54/106 100/44/100
f 102/39/102 107/55/107 101/49/101
f 100/44/100 106/54/106 97/53/97
f 106/54/106 98/56/98 97/53/97
f 101/49/101 107/55/107 106/54/106
f 107/55/107 108/57/108 106/54/106
f 106/54/106 108/57/108 98/56/98
f 108/58/108 99/36/99 98/59/98
f 102/39/102 84/38/84 107/55/107
f 84/38/84 83/60/83 107/55/107
f 107/55/107 83/60/83 108/57/108
f 83/61/83 82/62/82 108/58/108
f 108/58/108 82/62/82 99/36/99
f 82/62/82 9/34/9 99/36/99
f 97/53/97 94/63/94 12/45/12
f 98/56/98 109/64/109 97/53/97
f 99/36/99 110/65/110 98/59/98
f 97/53/97 109/64/109 94/63/94
f 109/64/109 95/66/95 94/63/94
f 98/59/98 110/65/110 109/67/109
f 110/65/110 111/68/111 109/67/109
f 109/67/109 111/68/111 95/69/95
f 111/68/111 96/33/96 95/69/95
f 99/36/99 81/35/81 110/65/110
f 81/35/81 80/70/80 110/65/110
f 110/65/110 80/70/80 111/68/111
f 80/70/80 79/71/79 111/68/111
f 111/68/111 79/71/79 96/33/96
f 79/71/79 8/31/8 96/33/96
f 94/63/94 88/72/88 12/45/12
f 95/66/95 112/73/112 94/63/94
f 96/33/96 113/74/113 95/69/95
f 94/63/94 112/73/112 88/72/88
f 112/73/112 89/75/89 88/72/88
f 95/66/95 113/76/113 112/73/112
f 113/76/113 114/77/114 112/73/112
f 112/73/112 114/77/114 89/75/89
f 114/77/114 90/30/90 89/75/89
f 96/33/96 78/32/78 113/74/113
f 78/32/78 77/78/77 113/74/113
f 113/76/113 77/79/77 114/77/114
f 77/79/77 76/80/76 114/77/114
f 114/77/114 76/80/76 90/30/90
f 76/80/76 7/28/7 90/30/90
f 88/72/88 93/43/93 12/45/12
f 89/75/89 115/81/115 88/72/88
f 90/30/90 116/82/116 89/75/89
f 88/72/88 115/81/115 93/43/93
f 115/81/115 92/46/92 93/43/93
f 89/75/89 116/82/116 115/81/115
f 116/82/116 117/83/117 115/81/115
f 115/81/115 117/83/117 92/46/92
f 117/83/117 91/42/91 92/46/92
f 90/30/90 75/29/75 116/82/116
f 75/29/75 74/84/74 116/82/116
f 116/82/116 74/84/74 117/83/117
f 74/84/74 73/85/73 117/83/117
f 117/83/117 73/85/73 91/42/91
f 73/85/73 11/40/11 91/42/91
f 48/86/48 87/41/87 11/40/11
f 47/87/47 118/88/118 48/86/48
f 46/27/46 119/89/119 47/87/47
f 48/86/48 118/88/118 87/41/87
f 118/88/118 86/51/86 87/41/87
f 47/87/47 119/89/119 118/88/118
f 119/89/119 120/90/120 118/88/118
f 118/88/118 120/90/120 86/51/86
f 120/90/120 85/52/85 86/51/86
f 46/27/46 69/22/69 119/89/119
f 69/22/69 68/91/68 119/89/119
f 119/89/119 68/91/68 120/90/120
f 68/91/68 67/92/67 120/90/120
f 120/90/120 67/92/67 85/52/85
f 67/92/67 10/37/10 85/52/85
f 72/93/72 84/38/84 10/37/10
f 71/94/71 121/95/121 72/93/72
f 70/26/70 122/96/122 71/97/71
f 72/93/72 121/95/121 84/38/84
f 121/95/121 83/60/83 84/38/84
f 71/97/71 122/96/122 121/98/121
f 122/96/122 123/99/123 121/98/121
f 121/98/121 123/99/123 83/61/83
f 123/99/123 82/62/82 83/61/83
f 70/26/70 63/19/63 122/96/122
f 63/19/63 62/100/62 122/96/122
f 122/96/122 62/100/62 123/99/123
f 62/100/62 61/101/61 123/99/123
f 123/99/123 61/101/61 82/62/82
f 61/101/61 9/34/9 82/62/82
f 66/102/66 81/35/81 9/34/9
f 65/103/65 124/104/124 66/102/66
f 64/25/64 125/105/125 65/103/65
f 66/102/66 124/104/124 81/35/81
f 124/104/124 80/70/80 81/35/81
f 65/103/65 125/105/125 124/104/124
f 125/105/125 126/106/126 124/104/124
f 124/104/124 126/106/126 80/70/80
f 126/106/126 79/71/79 80/70/80
f 64/25/64 57/16/57 125/105/125
f 57/16/57 56/107/56 125/105/125
f 125/105/125 56/107/56 126/106/126
f 56/107/56 55/108/55 126/106/126
f 126/106/126 55/108/55 79/71/79
f 55/108/55 8/31/8 79/71/79
f 60/109/60 78/32/78 8/31/8
f 59/110/59 127/111/127 60/109/60
f 58/24/58 128/112/128 59/110/59
f 60/109/60 127/111/127 78/32/78
f 127/111/127 77/78/77 78/32/78
f 59/110/59 128/112/128 127/111/127
f 128/112/128 129/113/129 127/111/127
f 127/111/127 129/113/129 77/78/77
f 129/114/129 76/80/76 77/79/77
f 58/24/58 51/13/51 128/112/128
f 51/13/51 50/115/50 128/112/128
f 128/112/128 50/115/50 129/113/129
f 50/116/50 49/117/49 129/114/129
f 129/114/129 49/117/49 76/80/76
f 49/117/49 7/28/7 76/80/76
f 54/118/54 75/29/75 7/28/7
f 53/119/53 130/120/130 54/118/54
f 52/23/52 131/121/131 53/119/53
f 54/118/54 130/120/130 75/29/75
f 130/120/130 74/84/74 75/29/75
f 53/119/53 131/121/131 130/120/130
f 131/121/131 132/122/132 130/120/130
f 130/120/130 132/122/132 74/84/74
f 132/122/132 73/85/73 74/84/74
f 52/23/52 45/10/45 131/121/131
f 45/10/45 44/123/44 131/121/131
f 131/121/131 44/123/44 132/122/132
f 44/123/44 43/124/43 132/122/132
f 132/122/132 43/124/43 73/85/73
f 43/124/43 11/40/11 73/85/73
f 67/92/67 72/93/72 10/37/10
f 68/91/68 133/125/133 67/92/67
f 69/22/69 134/126/134 68/91/68
f 67/92/67 133/125/133 72/93/72
f 133/125/133 71/94/71 72/93/72
f 68/91/68 134/126/134 133/125/133
f 134/126/134 135/127/135 133/125/133
f 133/125/133 135/127/135 71/94/71
f 135/128/135 70/26/70 71/97/71
f 69/22/69 42/21/42 134/126/134
f 42/21/42 41/129/41 134/126/134
f 134/126/134 41/129/41 135/127/135
f 41/130/41 40/131/40 135/128/135
f 135/128/135 40/131/40 70/26/70
f 40/131/40 5/17/5 70/26/70
f 61/101/61 66/102/66 9/34/9
f 62/100/62 136/132/136 61/101/61
f 63/19/63 137/133/137 62/100/62
f 61/101/61 136/132/136 66/102/66
f 136/132/136 65/103/65 66/102/66
f 62/100/62 137/133/137 136/132/136
f 137/133/137 138/134/138 136/132/136
f 136/132/136 138/134/138 65/103/65
f 138/134/138 64/25/64 65/103/65
f 63/19/63 39/18/39 137/133/137
f 39/18/39 38/135/38 137/133/137
f 137/133/137 38/135/38 138/134/138
f 38/135/38 37/136/37 138/134/138
f 138/134/138 37/136/37 64/25/64
f 37/136/37 4/14/4 64/25/64
f 55/108/55 60/109/60 8/31/8
f 56/107/56 139/137/139 55/108/55
f 57/16/57 140/138/140 56/107/56
f 55/108/55 139/137/139 60/109/60
f 139/137/139 59/110/59 60/109/60
f 56/107/56 140/138/140 139/137/139
f 140/138/140 141/139/141 139/137/139
f 139/137/139 141/139/141 59/110/59
f 141/139/141 58/24/58 59/110/59
f 57/16/57 33/15/33 140/138/140
f 33/15/33 32/140/32 140/138/140
f 140/138/140 32/140/32 141/139/141
f 32/140/32 31/141/31 141/139/141
f 141/139/141 31/141/31 58/24/58
f 31/141/31 3/11/3 58/24/58
f 49/117/49 54/118/54 7/28/7
f 50/116/50 142/142/142 49/117/49
f 51/13/51 143/143/143 50/115/50
f 49/117/49 142/142/142 54/118/54
f 142/142/142 53/119/53 54/118/54
f 50/116/50 143/144/143 142/142/142
f 143/144/143 144/145/144 142/142/142
f 142/142/142 144/145/144 53/119/53
f 144/145/144 52/23/52 53/119/53
f 51/13/51 21/12/21 143/143/143
f 21/12/21 20/146/20 143/143/143
f 143/144/143 20/147/20 144/145/144
f 20/147/20 19/148/19 144/145/144
f 144/145/144 19/148/19 52/23/52
f 19/148/19 2/4/2 52/23/52
f 43/124/43 48/86/48 11/40/11
f 44/123/44 145/149/145 43/124/43
f 45/10/45 146/150/146 44/123/44
f 43/124/43 145/149/145 48/86/48
f 145/149/145 47/87/47 48/86/48
f 44/123/44 146/150/146 145/149/145
f 146/150/146 147/151/147 145/149/145
f 145/149/145 147/151/147 47/87/47
f 147/151/147 46/27/46 47/87/47
f 45/10/45 24/6/24 146/150/146
f 24/6/24 23/152/23 146/150/146
f 146/150/146 23/152/23 147/151/147
f 23/152/23 22/153/22 147/151/147
f 147/151/147 22/153/22 46/27/46
f 22/153/22 6/20/6 46/27/46
f 27/154/27 42/21/42 6/20/6
f 26/155/26 148/156/148 27/154/27
f 25/9/25 149/157/149 26/158/26
f 27/154/27 148/156/148 42/21/42
f 148/156/148 41/129/41 42/21/42
f 26/158/26 149/157/149 148/159/148
f 149/157/149 150/160/150 148/159/148
f 148/159/148 150/160/150 41/130/41
f 150/160/150 40/131/40 41/130/41
f 25/9/25 36/8/36 149/157/149
f 36/8/36 35/161/35 149/157/149
f 149/157/149 35/161/35 150/160/150
f 35/161/35 34/162/34 150/160/150
f 150/160/150 34/162/34 40/131/40
f 34/162/34 5/17/5 40/131/40
f 34/162/34 39/18/39 5/17/5
f 35/161/35 151/163/151 34/162/34
f 36/8/36 152/164/152 35/161/35
f 34/162/34 151/163/151 39/18/39
f 151/163/151 38/135/38 39/18/39
f 35/161/35 152/164/152 151/163/151
f 152/164/152 153/165/153 151/163/151
f 151/163/151 153/165/153 38/135/38
f 153/165/153 37/136/37 38/135/38
f 36/8/36 30/7/30 152/164/152
f 30/7/30 29/166/29 152/164/152
f 152/164/152 29/166/29 153/165/153
f 29/166/29 28/167/28 153/165/153
f 153/165/153 28/167/28 37/136/37
f 28/167/28 4/14/4 37/136/37
f 28/167/28 33/15/33 4/14/4
f 29/166/29 154/168/154 28/167/28
f 30/7/30 155/169/155 29/166/29
f 28/167/28 154/168/154 33/15/33
f 154/168/154 32/140/32 33/15/33
f 29/166/29 155/169/155 154/168/154
f 155/169/155 156/170/156 154/168/154
f 154/168/154 156/170/156 32/140/32
f 156/170/156 31/141/31 32/140/32
f 30/7/30 15/3/15 155/169/155
f 15/3/15 14/171/14 155/169/155
f 155/169/155 14/171/14 156/170/156
f 14/171/14 13/172/13 156/170/156
f 156/170/156 13/172/13 31/141/31
f 13/172/13 3/11/3 31/141/31
f 22/153/22 27/154/27 6/20/6
f 23/152/23 157/173/157 22/153/22
f 24/6/24 158/174/158 23/152/23
f 22/153/22 157/173/157 27/154/27
f 157/173/157 26/155/26 27/154/27
f 23/152/23 158/174/158 157/173/157
f 158/174/158 159/175/159 157/173/157
f 157/173/157 159/175/159 26/155/26
f 159/176/159 25/9/25 26/158/26
f 24/6/24 18/5/18 158/174/158
f 18/5/18 17/177/17 158/174/158
f 158/174/158 17/177/17 159/175/159
f 17/178/17 16/2/16 159/176/159
f 159/176/159 16/2/16 25/9/25
f 16/2/16 1/1/1 25/9/25
f 13/172/13 21/12/21 3/11/3
f 14/171/14 160/179/160 13/172/13
f 15/3/15 161/180/161 14/171/14
f 13/172/13 160/179/160 21/12/21
f 160/179/160 20/146/20 21/12/21
f 14/171/14 161/180/161 160/179/160
f 161/180/161 162/181/162 160/179/160
f 160/179/160 162/181/162 20/146/20
f 162/182/162 19/148/19 20/147/20
f 15/3/15 16/2/16 161/180/161
f 16/2/16 17/178/17 161/180/161
f 161/180/161 17/178/17 162/181/162
f 17/177/17 18/5/18 162/182/162
f 162/182/162 18/5/18 19/148/19
f 18/5/18 2/4/2 19/148/19
