# Blender 4.5.1 LTS
# www.blender.org
mtllib 04_arrow.mtl
o Cylinder
v 0.000000 0.000000 -0.250000
v 2.000000 0.000000 -0.250000
v 0.000000 -0.048773 -0.245196
v 2.000000 -0.048773 -0.245196
v 0.000000 -0.095671 -0.230970
v 2.000000 -0.095671 -0.230970
v 0.000000 -0.138893 -0.207867
v 2.000000 -0.138893 -0.207867
v 0.000000 -0.176777 -0.176777
v 2.000000 -0.176777 -0.176777
v 0.000000 -0.207867 -0.138893
v 2.000000 -0.207867 -0.138893
v 0.000000 -0.230970 -0.095671
v 2.000000 -0.230970 -0.095671
v 0.000000 -0.245196 -0.048773
v 2.000000 -0.245196 -0.048773
v 0.000000 -0.250000 -0.000000
v 2.000000 -0.250000 -0.000000
v 0.000000 -0.245196 0.048773
v 2.000000 -0.245196 0.048773
v 0.000000 -0.230970 0.095671
v 2.000000 -0.230970 0.095671
v 0.000000 -0.207867 0.138893
v 2.000000 -0.207867 0.138893
v 0.000000 -0.176777 0.176777
v 2.000000 -0.176777 0.176777
v 0.000000 -0.138893 0.207867
v 2.000000 -0.138893 0.207867
v 0.000000 -0.095671 0.230970
v 2.000000 -0.095671 0.230970
v 0.000000 -0.048773 0.245196
v 2.000000 -0.048773 0.245196
v 0.000000 0.000000 0.250000
v 2.000000 0.000000 0.250000
v 0.000000 0.048773 0.245196
v 2.000000 0.048773 0.245196
v 0.000000 0.095671 0.230970
v 2.000000 0.095671 0.230970
v 0.000000 0.138893 0.207867
v 2.000000 0.138893 0.207867
v 0.000000 0.176777 0.176777
v 2.000000 0.176777 0.176777
v 0.000000 0.207867 0.138893
v 2.000000 0.207867 0.138893
v 0.000000 0.230970 0.095671
v 2.000000 0.230970 0.095671
v 0.000000 0.245196 0.048773
v 2.000000 0.245196 0.048773
v 0.000000 0.250000 -0.000000
v 2.000000 0.250000 -0.000000
v 0.000000 0.245196 -0.048773
v 2.000000 0.245196 -0.048773
v 0.000000 0.230970 -0.095671
v 2.000000 0.230970 -0.095671
v 0.000000 0.207867 -0.138893
v 2.000000 0.207867 -0.138893
v 0.000000 0.176777 -0.176777
v 2.000000 0.176777 -0.176777
v 0.000000 0.138893 -0.207867
v 2.000000 0.138893 -0.207867
v 0.000000 0.095671 -0.230970
v 2.000000 0.095671 -0.230970
v 0.000000 0.048773 -0.245196
v 2.000000 0.048773 -0.245196
v 2.000000 -0.097545 -0.490393
v 2.000000 0.000000 -0.500000
v 2.000000 -0.191342 -0.461940
v 2.000000 -0.277785 -0.415735
v 2.000000 -0.353553 -0.353553
v 2.000000 -0.415735 -0.277785
v 2.000000 -0.461940 -0.191342
v 2.000000 -0.490393 -0.097545
v 2.000000 -0.500000 -0.000000
v 2.000000 -0.490393 0.097545
v 2.000000 -0.461940 0.191342
v 2.000000 -0.415735 0.277785
v 2.000000 -0.353553 0.353553
v 2.000000 -0.277785 0.415735
v 2.000000 -0.191342 0.461940
v 2.000000 -0.097545 0.490393
v 2.000000 0.000000 0.500000
v 2.000000 0.097545 0.490393
v 2.000000 0.191342 0.461940
v 2.000000 0.277785 0.415735
v 2.000000 0.353553 0.353553
v 2.000000 0.415735 0.277785
v 2.000000 0.461940 0.191342
v 2.000000 0.490393 0.097545
v 2.000000 0.500000 -0.000000
v 2.000000 0.490393 -0.097545
v 2.000000 0.461940 -0.191342
v 2.000000 0.415735 -0.277785
v 2.000000 0.353553 -0.353553
v 2.000000 0.277785 -0.415735
v 2.000000 0.191342 -0.461940
v 2.000000 0.097545 -0.490393
v 3.000000 0.000000 -0.000000
v 2.995000 -0.002452 0.000488
v 2.995000 -0.000488 0.002452
v 2.995000 0.001768 0.001768
v 2.995000 0.002452 0.000488
v 2.995000 -0.000957 -0.002310
v 2.995000 -0.002452 -0.000488
v 2.995000 -0.002310 0.000957
v 2.995000 0.001389 -0.002079
v 2.995000 0.002500 -0.000000
v 2.995000 0.000000 0.002500
v 2.995000 -0.002079 0.001389
v 2.995000 -0.001389 -0.002079
v 2.995000 0.002452 -0.000488
v 2.995000 0.000957 -0.002310
v 2.995000 -0.001768 0.001768
v 2.995000 0.000488 0.002452
v 2.995000 0.002310 -0.000957
v 2.995000 -0.001768 -0.001768
v 2.995000 -0.001389 0.002079
v 2.995000 0.000488 -0.002452
v 2.995000 -0.000488 -0.002452
v 2.995000 0.002079 -0.001389
v 2.995000 0.000957 0.002310
v 2.995000 0.002079 0.001389
v 2.995000 -0.000957 0.002310
v 2.995000 -0.002079 -0.001389
v 2.995000 0.002310 0.000957
v 2.995000 0.000000 -0.002500
v 2.995000 0.001389 0.002079
v 2.995000 -0.002500 -0.000000
v 2.995000 0.001768 -0.001768
v 2.995000 -0.002310 -0.000957
v 2.497500 -0.049016 -0.246422
v 2.497500 0.232125 0.096149
v 2.497500 -0.246422 0.049016
v 2.497500 0.246422 0.049016
v 2.497500 -0.232125 0.096149
v 2.497500 0.251250 -0.000000
v 2.497500 -0.208907 0.139587
v 2.497500 0.246422 -0.049016
v 2.497500 -0.177661 0.177661
v 2.497500 0.232125 -0.096149
v 2.497500 -0.139587 0.208907
v 2.497500 0.208907 -0.139587
v 2.497500 -0.096149 0.232125
v 2.497500 0.177661 -0.177661
v 2.497500 -0.049016 0.246422
v 2.497500 -0.096149 -0.232125
v 2.497500 0.139587 -0.208907
v 2.497500 0.000000 0.251250
v 2.497500 -0.139587 -0.208907
v 2.497500 0.096149 -0.232125
v 2.497500 0.049016 0.246422
v 2.497500 -0.177661 -0.177661
v 2.497500 0.049016 -0.246422
v 2.497500 0.096149 0.232125
v 2.497500 -0.208907 -0.139587
v 2.497500 0.139587 0.208907
v 2.497500 -0.232125 -0.096149
v 2.497500 0.177661 0.177661
v 2.497500 -0.246422 -0.049016
v 2.497500 0.208907 0.139587
v 2.497500 0.000000 -0.251250
v 2.497500 -0.251250 -0.000000
v 2.746250 0.089714 0.089714
v 2.746250 0.105493 0.070488
v 2.746250 0.000000 -0.126875
v 2.746250 -0.126875 -0.000000
v 2.746250 -0.024752 -0.124437
v 2.746250 0.117217 0.048553
v 2.746250 -0.124437 0.024752
v 2.746250 0.124437 0.024752
v 2.746250 -0.117217 0.048553
v 2.746250 0.126875 -0.000000
v 2.746250 -0.105493 0.070488
v 2.746250 0.124437 -0.024752
v 2.746250 -0.089714 0.089714
v 2.746250 0.117217 -0.048553
v 2.746250 -0.070488 0.105493
v 2.746250 0.105493 -0.070488
v 2.746250 -0.048553 0.117217
v 2.746250 0.089714 -0.089714
v 2.746250 -0.024752 0.124437
v 2.746250 -0.048553 -0.117217
v 2.746250 0.070488 -0.105493
v 2.746250 0.000000 0.126875
v 2.746250 -0.070488 -0.105493
v 2.746250 0.048553 -0.117217
v 2.746250 0.024752 0.124437
v 2.746250 -0.089714 -0.089714
v 2.746250 0.024752 -0.124437
v 2.746250 0.048553 0.117217
v 2.746250 -0.105493 -0.070488
v 2.746250 0.070488 0.105493
v 2.746250 -0.117217 -0.048553
v 2.746250 -0.124437 -0.024752
v 2.870625 0.045741 0.045741
v 2.870625 0.053786 0.035938
v 2.870625 0.000000 -0.064688
v 2.870625 -0.064687 -0.000000
v 2.870625 -0.012620 -0.063445
v 2.870625 0.059763 0.024755
v 2.870625 -0.063445 0.012620
v 2.870625 0.063445 0.012620
v 2.870625 -0.059763 0.024755
v 2.870625 0.064687 -0.000000
v 2.870625 -0.053786 0.035938
v 2.870625 0.063445 -0.012620
v 2.870625 -0.045741 0.045741
v 2.870625 0.059763 -0.024755
v 2.870625 -0.035938 0.053786
v 2.870625 0.053786 -0.035938
v 2.870625 -0.024755 0.059763
v 2.870625 0.045741 -0.045741
v 2.870625 -0.012620 0.063445
v 2.870625 -0.024755 -0.059763
v 2.870625 0.035938 -0.053786
v 2.870625 0.000000 0.064687
v 2.870625 -0.035938 -0.053786
v 2.870625 0.024755 -0.059763
v 2.870625 0.012620 0.063445
v 2.870625 -0.045741 -0.045741
v 2.870625 0.012620 -0.063445
v 2.870625 0.024755 0.059763
v 2.870625 -0.053786 -0.035938
v 2.870625 0.035938 0.053786
v 2.870625 -0.059763 -0.024755
v 2.870625 -0.063445 -0.012620
v 2.932812 0.023754 0.023754
v 2.932812 0.027932 0.018664
v 2.932812 0.000000 -0.033594
v 2.932812 -0.033594 -0.000000
v 2.932812 -0.006554 -0.032948
v 2.932812 0.031037 0.012856
v 2.932812 -0.032948 0.006554
v 2.932812 0.032948 0.006554
v 2.932812 -0.031037 0.012856
v 2.932812 0.033594 -0.000000
v 2.932812 -0.027932 0.018664
v 2.932812 0.032948 -0.006554
v 2.932812 -0.023754 0.023754
v 2.932812 0.031037 -0.012856
v 2.932812 -0.018664 0.027932
v 2.932812 0.027932 -0.018664
v 2.932812 -0.012856 0.031037
v 2.932812 0.023754 -0.023754
v 2.932812 -0.006554 0.032948
v 2.932812 -0.012856 -0.031037
v 2.932812 0.018664 -0.027932
v 2.932812 0.000000 0.033594
v 2.932812 -0.018664 -0.027932
v 2.932812 0.012856 -0.031037
v 2.932812 0.006554 0.032948
v 2.932812 -0.023754 -0.023754
v 2.932812 0.006554 -0.032948
v 2.932812 0.012856 0.031037
v 2.932812 -0.027932 -0.018664
v 2.932812 0.018664 0.027932
v 2.932812 -0.031037 -0.012856
v 2.932812 -0.032948 -0.006554
v 2.963906 0.012761 0.012761
v 2.963906 0.015005 0.010026
v 2.963906 0.000000 -0.018047
v 2.963906 -0.018047 -0.000000
v 2.963906 -0.003521 -0.017700
v 2.963906 0.016673 0.006906
v 2.963906 -0.017700 0.003521
v 2.963906 0.017700 0.003521
v 2.963906 -0.016673 0.006906
v 2.963906 0.018047 -0.000000
v 2.963906 -0.015005 0.010026
v 2.963906 0.017700 -0.003521
v 2.963906 -0.012761 0.012761
v 2.963906 0.016673 -0.006906
v 2.963906 -0.010026 0.015005
v 2.963906 0.015005 -0.010026
v 2.963906 -0.006906 0.016673
v 2.963906 0.012761 -0.012761
v 2.963906 -0.003521 0.017700
v 2.963906 -0.006906 -0.016673
v 2.963906 0.010026 -0.015005
v 2.963906 0.000000 0.018047
v 2.963906 -0.010026 -0.015005
v 2.963906 0.006906 -0.016673
v 2.963906 0.003521 0.017700
v 2.963906 -0.012761 -0.012761
v 2.963906 0.003521 -0.017700
v 2.963906 0.006906 0.016673
v 2.963906 -0.015005 -0.010026
v 2.963906 0.010026 0.015005
v 2.963906 -0.016673 -0.006906
v 2.963906 -0.017700 -0.003521
vn -0.0000 -0.0000 -1.0000
vn -0.0000 -0.1951 -0.9808
vn -0.0000 -0.3827 -0.9239
vn -0.0000 -0.5556 -0.8315
vn -0.0000 -0.7071 -0.7071
vn -0.0000 -0.8315 -0.5556
vn -0.0000 -0.9239 -0.3827
vn -0.0000 -0.9808 -0.1951
vn -0.0000 -1.0000 -0.0000
vn -0.0000 -0.9808 0.1951
vn -0.0000 -0.9239 0.3827
vn -0.0000 -0.8315 0.5556
vn -0.0000 -0.7071 0.7071
vn -0.0000 -0.5556 0.8315
vn -0.0000 -0.3827 0.9239
vn -0.0000 -0.1951 0.9808
vn -0.0000 -0.0000 1.0000
vn -0.0000 0.1951 0.9808
vn -0.0000 0.3827 0.9239
vn -0.0000 0.5556 0.8315
vn -0.0000 0.7071 0.7071
vn -0.0000 0.8315 0.5556
vn -0.0000 0.9239 0.3827
vn -0.0000 0.9808 0.1951
vn -0.0000 1.0000 -0.0000
vn -0.0000 0.9808 -0.1951
vn -0.0000 0.9239 -0.3827
vn -0.0000 0.8315 -0.5556
vn -0.0000 0.7071 -0.7071
vn -0.0000 0.5556 -0.8315
vn -0.0000 0.3827 -0.9239
vn -1.0000 -0.0000 -0.0000
vn -0.0000 0.1951 -0.9808
vn 0.4472 0.8263 0.3423
vn 0.4472 0.7437 0.4969
vn 0.4472 0.8263 0.3424
vn 0.4472 -0.8772 0.1745
vn 0.4472 -0.8944 -0.0000
vn 0.4472 0.8772 0.1745
vn 0.4472 -0.8263 0.3423
vn 0.4472 -0.8263 0.3424
vn 0.4472 0.8944 -0.0000
vn 0.4472 -0.7437 0.4969
vn 0.4472 0.8772 -0.1745
vn 0.4472 -0.6325 0.6324
vn 0.4472 0.8263 -0.3423
vn 0.4472 0.8263 -0.3424
vn 0.4472 -0.4969 0.7437
vn 0.4472 0.7437 -0.4969
vn 0.4472 -0.3423 0.8263
vn 0.4472 -0.3423 0.8264
vn 0.4472 -0.1745 -0.8772
vn 0.4472 -0.0000 -0.8944
vn 0.4472 0.6325 -0.6324
vn 0.4472 -0.1745 0.8772
vn 0.4472 -0.3423 -0.8263
vn 0.4472 0.4969 -0.7437
vn 0.4472 -0.0000 0.8944
vn 0.4472 -0.4969 -0.7437
vn 0.4472 0.3423 -0.8263
vn 0.4472 0.1745 0.8772
vn 0.4472 -0.6325 -0.6325
vn 0.4472 -0.6325 -0.6324
vn 0.4472 0.1745 -0.8772
vn 0.4472 0.3423 0.8263
vn 0.4472 -0.7437 -0.4969
vn 0.4472 0.4969 0.7437
vn 0.4472 -0.8263 -0.3423
vn 0.4472 -0.8263 -0.3424
vn 0.4472 -0.8772 -0.1745
vn 0.4472 0.6325 0.6324
vn 1.0000 -0.0000 -0.0000
vn 0.4472 0.6325 0.6325
vn 0.4472 0.6325 -0.6325
vn 0.4472 -0.6325 0.6325
vt 0.974983 0.352693
vt 0.630869 0.455297
vt 0.619532 0.431170
vt 0.937576 0.263048
vt 0.603695 0.409966
vt 0.883474 0.182672
vt 0.585127 0.391603
vt 0.814927 0.114630
vt 0.562951 0.378418
vt 0.734296 0.061258
vt 0.538747 0.369846
vt 0.645085 0.024787
vt 0.513589 0.364864
vt 0.550802 0.006432
vt 0.487804 0.364895
vt 0.454608 0.006783
vt 0.462351 0.371029
vt 0.360156 0.025932
vt 0.438111 0.381032
vt 0.271369 0.063049
vt 0.416945 0.396361
vt 0.191308 0.116896
vt 0.399214 0.415444
vt 0.123310 0.185252
vt 0.384812 0.436882
vt 0.069916 0.265468
vt 0.375764 0.460854
vt 0.033057 0.354801
vt 0.371558 0.485860
vt 0.014305 0.449528
vt 0.372197 0.511248
vt 0.014305 0.545951
vt 0.376721 0.536399
vt 0.032957 0.640381
vt 0.386120 0.560521
vt 0.069679 0.729560
vt 0.401042 0.582260
vt 0.123232 0.810051
vt 0.419851 0.600597
vt 0.191406 0.878492
vt 0.441632 0.614723
vt 0.271541 0.932291
vt 0.465435 0.624155
vt 0.360540 0.969424
vt 0.490295 0.629498
vt 0.455195 0.987689
vt 0.515880 0.629123
vt 0.551469 0.988032
vt 0.541204 0.625059
vt 0.645886 0.969670
vt 0.564936 0.615046
vt 0.735267 0.933059
vt 0.586517 0.600429
vt 0.815760 0.879686
vt 0.605971 0.582492
vt 0.884260 0.811633
vt 0.622213 0.561190
vt 0.937916 0.730200
vt 0.632271 0.535589
vt 0.975251 0.640272
vt 0.636893 0.508704
vt 0.994182 0.544855
vt 0.492705 0.400349
vt 0.473926 0.403138
vt 0.635938 0.481639
vt 0.994055 0.447726
vt 0.928360 0.158934
vt 0.912706 0.158934
vt 0.897353 0.155880
vt 0.882891 0.149890
vt 0.869876 0.141193
vt 0.858807 0.130124
vt 0.850110 0.117109
vt 0.844120 0.102647
vt 0.841066 0.087294
vt 0.841066 0.071640
vt 0.844120 0.056287
vt 0.850110 0.041825
vt 0.858807 0.028810
vt 0.869876 0.017741
vt 0.882891 0.009044
vt 0.897353 0.003054
vt 0.912706 0.000000
vt 0.928360 -0.000000
vt 0.943713 0.003054
vt 0.958175 0.009044
vt 0.971190 0.017741
vt 0.982259 0.028810
vt 0.990956 0.041825
vt 0.996946 0.056287
vt 1.000000 0.071640
vt 1.000000 0.087294
vt 0.996946 0.102647
vt 0.990956 0.117109
vt 0.982259 0.130124
vt 0.971190 0.141193
vt 0.958175 0.149890
vt 0.943713 0.155880
vt 0.503639 0.500667
vt 0.502959 0.500494
vt 0.503982 0.497620
vt 0.504077 0.497644
vt 0.409644 0.523722
vt 0.417162 0.540755
vt 0.547540 0.585063
vt 0.564979 0.575366
vt 0.565401 0.421339
vt 0.549399 0.410114
vt 0.418203 0.450781
vt 0.410564 0.467739
vt 0.471249 0.589600
vt 0.490069 0.594389
vt 0.602365 0.508514
vt 0.603206 0.488636
vt 0.457098 0.411566
vt 0.426297 0.556619
vt 0.578827 0.560972
vt 0.531330 0.401900
vt 0.406261 0.486079
vt 0.509682 0.595722
vt 0.597947 0.469365
vt 0.591036 0.451041
vt 0.441274 0.421464
vt 0.438726 0.570386
vt 0.589358 0.544726
vt 0.511793 0.399344
vt 0.405162 0.505147
vt 0.528986 0.591218
vt 0.580519 0.434209
vt 0.427481 0.434359
vt 0.453914 0.581521
vt 0.597773 0.527502
vt 0.502449 0.494068
vt 0.503056 0.493764
vt 0.503996 0.496688
vt 0.503912 0.496730
vt 0.504347 0.500715
vt 0.504175 0.497651
vt 0.501878 0.494426
vt 0.503833 0.496779
vt 0.505044 0.500553
vt 0.504271 0.497628
vt 0.501380 0.494891
vt 0.503764 0.496844
vt 0.505713 0.500331
vt 0.504364 0.497597
vt 0.501045 0.495484
vt 0.503717 0.496926
vt 0.506343 0.499981
vt 0.504451 0.497549
vt 0.500769 0.496096
vt 0.503679 0.497011
vt 0.506842 0.499461
vt 0.504520 0.497477
vt 0.500614 0.496758
vt 0.503658 0.497102
vt 0.507283 0.495493
vt 0.507533 0.496155
vt 0.504616 0.497019
vt 0.504581 0.496927
vt 0.507223 0.498875
vt 0.504573 0.497396
vt 0.500574 0.497446
vt 0.503652 0.497198
vt 0.506903 0.494886
vt 0.504529 0.496843
vt 0.507526 0.498253
vt 0.504615 0.497309
vt 0.500736 0.498117
vt 0.503674 0.497291
vt 0.506358 0.494421
vt 0.504453 0.496779
vt 0.507692 0.497568
vt 0.504638 0.497215
vt 0.501007 0.498731
vt 0.503712 0.497376
vt 0.505780 0.494016
vt 0.504373 0.496723
vt 0.507722 0.496850
vt 0.504642 0.497115
vt 0.501337 0.499304
vt 0.503758 0.497455
vt 0.505128 0.493720
vt 0.504283 0.496681
vt 0.501786 0.499801
vt 0.503820 0.497524
vt 0.504423 0.493627
vt 0.504185 0.496669
vt 0.503734 0.493664
vt 0.504090 0.496674
vt 0.503896 0.497580
vt 0.504147 0.497158
vt 0.502334 0.500203
vt 0.478905 0.539550
vt 0.487616 0.543610
vt 0.471273 0.533955
vt 0.498398 0.448511
vt 0.488961 0.449913
vt 0.507989 0.448006
vt 0.517807 0.449291
vt 0.465028 0.527037
vt 0.553924 0.492875
vt 0.551281 0.483192
vt 0.526886 0.453419
vt 0.460437 0.519065
vt 0.553502 0.502864
vt 0.534927 0.459059
vt 0.456659 0.510506
vt 0.551194 0.512406
vt 0.542524 0.465526
vt 0.454407 0.501172
vt 0.546965 0.521061
vt 0.547809 0.473984
vt 0.454959 0.491591
vt 0.541674 0.529225
vt 0.457121 0.482375
vt 0.534715 0.536458
vt 0.460960 0.473853
vt 0.525952 0.541330
vt 0.465622 0.465601
vt 0.516628 0.544423
vt 0.472553 0.459122
vt 0.506928 0.546686
vt 0.480505 0.454148
vt 0.497073 0.546016
vt 0.491400 0.518565
vt 0.495799 0.520615
vt 0.487546 0.515739
vt 0.501244 0.472593
vt 0.496478 0.473300
vt 0.506087 0.472338
vt 0.511045 0.472986
vt 0.484393 0.512246
vt 0.529283 0.494995
vt 0.527949 0.490105
vt 0.515630 0.475071
vt 0.482075 0.508220
vt 0.529070 0.500039
vt 0.519690 0.477919
vt 0.480167 0.503898
vt 0.527905 0.504857
vt 0.523526 0.481185
vt 0.479030 0.499185
vt 0.525769 0.509228
vt 0.526195 0.485456
vt 0.479308 0.494347
vt 0.523097 0.513351
vt 0.480400 0.489693
vt 0.519583 0.517003
vt 0.482339 0.485390
vt 0.515158 0.519464
vt 0.484693 0.481222
vt 0.510450 0.521026
vt 0.488193 0.477951
vt 0.505552 0.522169
vt 0.492208 0.475439
vt 0.500575 0.521830
vt 0.497648 0.508072
vt 0.499891 0.509117
vt 0.495683 0.506632
vt 0.502667 0.484633
vt 0.500237 0.484994
vt 0.505136 0.484503
vt 0.507664 0.484834
vt 0.494075 0.504851
vt 0.516963 0.496055
vt 0.516282 0.493562
vt 0.510001 0.485897
vt 0.492893 0.502798
vt 0.516854 0.498627
vt 0.512072 0.487349
vt 0.491921 0.500594
vt 0.516260 0.501083
vt 0.514028 0.489014
vt 0.491341 0.498191
vt 0.515171 0.503312
vt 0.515388 0.491191
vt 0.491483 0.495724
vt 0.513809 0.505414
vt 0.492040 0.493352
vt 0.512017 0.507276
vt 0.493028 0.491158
vt 0.509761 0.508530
vt 0.494228 0.489033
vt 0.507360 0.509327
vt 0.496013 0.487365
vt 0.504863 0.509910
vt 0.498060 0.486084
vt 0.502326 0.509737
vt 0.500772 0.502826
vt 0.501937 0.503369
vt 0.499751 0.502078
vt 0.503378 0.490653
vt 0.502116 0.490841
vt 0.504661 0.490586
vt 0.505973 0.490758
vt 0.498916 0.501153
vt 0.510803 0.496585
vt 0.510449 0.495290
vt 0.507187 0.491310
vt 0.498303 0.500087
vt 0.510746 0.497921
vt 0.508262 0.492064
vt 0.497797 0.498943
vt 0.510437 0.499196
vt 0.509278 0.492928
vt 0.497496 0.497695
vt 0.509872 0.500354
vt 0.509985 0.494059
vt 0.497570 0.496413
vt 0.509164 0.501445
vt 0.497859 0.495181
vt 0.508234 0.502412
vt 0.498373 0.494042
vt 0.507062 0.503064
vt 0.498996 0.492938
vt 0.505816 0.503477
vt 0.499923 0.492072
vt 0.504519 0.503780
vt 0.500986 0.491407
vt 0.503201 0.503690
s 1
usemtl Material.001
f 1/1/1 2/2/1 4/3/2 3/4/2
f 3/4/2 4/3/2 6/5/3 5/6/3
f 5/6/3 6/5/3 8/7/4 7/8/4
f 7/8/4 8/7/4 10/9/5 9/10/5
f 9/10/5 10/9/5 12/11/6 11/12/6
f 11/12/6 12/11/6 14/13/7 13/14/7
f 13/14/7 14/13/7 16/15/8 15/16/8
f 15/16/8 16/15/8 18/17/9 17/18/9
f 17/18/9 18/17/9 20/19/10 19/20/10
f 19/20/10 20/19/10 22/21/11 21/22/11
f 21/22/11 22/21/11 24/23/12 23/24/12
f 23/24/12 24/23/12 26/25/13 25/26/13
f 25/26/13 26/25/13 28/27/14 27/28/14
f 27/28/14 28/27/14 30/29/15 29/30/15
f 29/30/15 30/29/15 32/31/16 31/32/16
f 31/32/16 32/31/16 34/33/17 33/34/17
f 33/34/17 34/33/17 36/35/18 35/36/18
f 35/36/18 36/35/18 38/37/19 37/38/19
f 37/38/19 38/37/19 40/39/20 39/40/20
f 39/40/20 40/39/20 42/41/21 41/42/21
f 41/42/21 42/41/21 44/43/22 43/44/22
f 43/44/22 44/43/22 46/45/23 45/46/23
f 45/46/23 46/45/23 48/47/24 47/48/24
f 47/48/24 48/47/24 50/49/25 49/50/25
f 49/50/25 50/49/25 52/51/26 51/52/26
f 51/52/26 52/51/26 54/53/27 53/54/27
f 53/54/27 54/53/27 56/55/28 55/56/28
f 55/56/28 56/55/28 58/57/29 57/58/29
f 57/58/29 58/57/29 60/59/30 59/60/30
f 59/60/30 60/59/30 62/61/31 61/62/31
f 18/17/32 16/15/32 72/63/32 73/64/32
f 61/62/31 62/61/31 64/65/33 63/66/33
f 63/66/33 64/65/33 2/2/1 1/1/1
s 0
f 1/67/32 3/68/32 5/69/32 7/70/32 9/71/32 11/72/32 13/73/32 15/74/32 17/75/32 19/76/32 21/77/32 23/78/32 25/79/32 27/80/32 29/81/32 31/82/32 33/83/32 35/84/32 37/85/32 39/86/32 41/87/32 43/88/32 45/89/32 47/90/32 49/91/32 51/92/32 53/93/32 55/94/32 57/95/32 59/96/32 61/97/32 63/98/32
s 1
f 263/99/34 259/100/35 121/101/35 124/102/36
f 36/35/32 34/33/32 81/103/32 82/104/32
f 54/53/32 52/51/32 90/105/32 91/106/32
f 10/9/32 8/7/32 68/107/32 69/108/32
f 28/27/32 26/25/32 77/109/32 78/110/32
f 46/45/32 44/43/32 86/111/32 87/112/32
f 64/65/32 62/61/32 95/113/32 96/114/32
f 20/19/32 18/17/32 73/64/32 74/115/32
f 38/37/32 36/35/32 82/104/32 83/116/32
f 56/55/32 54/53/32 91/106/32 92/117/32
f 12/11/32 10/9/32 69/108/32 70/118/32
f 30/29/32 28/27/32 78/110/32 79/119/32
f 48/47/32 46/45/32 87/112/32 88/120/32
f 4/3/32 2/2/32 66/121/32 65/122/32
f 2/2/32 64/65/32 96/114/32 66/121/32
f 22/21/32 20/19/32 74/115/32 75/123/32
f 40/39/32 38/37/32 83/116/32 84/124/32
f 58/57/32 56/55/32 92/117/32 93/125/32
f 14/13/32 12/11/32 70/118/32 71/126/32
f 32/31/32 30/29/32 79/119/32 80/127/32
f 50/49/32 48/47/32 88/120/32 89/128/32
f 6/5/32 4/3/32 65/122/32 67/129/32
f 24/23/32 22/21/32 75/123/32 76/130/32
f 42/41/32 40/39/32 84/124/32 85/131/32
f 60/59/32 58/57/32 93/125/32 94/132/32
f 16/15/32 14/13/32 71/126/32 72/63/32
f 34/33/32 32/31/32 80/127/32 81/103/32
f 52/51/32 50/49/32 89/128/32 90/105/32
f 8/7/32 6/5/32 67/129/32 68/107/32
f 26/25/32 24/23/32 76/130/32 77/109/32
f 44/43/32 42/41/32 85/131/32 86/111/32
f 62/61/32 60/59/32 94/132/32 95/113/32
f 264/133/37 261/134/38 127/135/38 98/136/37
f 265/137/39 263/99/34 124/102/36 101/138/39
f 266/139/40 264/133/37 98/136/37 104/140/41
f 267/141/42 265/137/39 101/138/39 106/142/42
f 268/143/43 266/139/40 104/140/41 108/144/43
f 269/145/44 267/141/42 106/142/42 110/146/44
f 270/147/45 268/143/43 108/144/43 112/148/45
f 271/149/46 269/145/44 110/146/44 114/150/47
f 272/151/48 270/147/45 112/148/45 116/152/48
f 273/153/49 271/149/46 114/150/47 119/154/49
f 274/155/50 272/151/48 116/152/48 122/156/51
f 262/157/52 260/158/53 125/159/53 118/160/52
f 275/161/54 273/153/49 119/154/49 128/162/54
f 276/163/55 274/155/50 122/156/51 99/164/55
f 277/165/56 262/157/52 118/160/52 102/166/56
f 278/167/57 275/161/54 128/162/54 105/168/57
f 279/169/58 276/163/55 99/164/55 107/170/58
f 280/171/59 277/165/56 102/166/56 109/172/59
f 281/173/60 278/167/57 105/168/57 111/174/60
f 282/175/61 279/169/58 107/170/58 113/176/61
f 283/177/62 280/171/59 109/172/59 115/178/63
f 284/179/64 281/173/60 111/174/60 117/180/64
f 285/181/65 282/175/61 113/176/61 120/182/65
f 286/183/66 283/177/62 115/178/63 123/184/66
f 260/158/53 284/179/64 117/180/64 125/159/53
f 287/185/67 285/181/65 120/182/65 126/186/67
f 288/187/68 286/183/66 123/184/66 129/188/69
f 289/189/70 288/187/68 129/188/69 103/190/70
f 121/101/35 100/191/71 97/192/72
f 261/134/38 289/189/70 103/190/70 127/135/38
f 100/191/71 126/186/67 97/192/72
f 115/178/63 109/172/59 97/192/72
f 123/184/66 115/178/63 97/192/72
f 117/180/64 111/174/60 97/192/72
f 106/142/42 101/138/39 97/192/72
f 120/182/65 113/176/61 97/192/72
f 108/144/43 104/140/41 97/192/72
f 124/102/36 121/101/35 97/192/72
f 110/146/44 106/142/42 97/192/72
f 125/159/53 117/180/64 97/192/72
f 112/148/45 108/144/43 97/192/72
f 126/186/67 120/182/65 97/192/72
f 114/150/47 110/146/44 97/192/72
f 129/188/69 123/184/66 97/192/72
f 116/152/48 112/148/45 97/192/72
f 287/185/67 126/186/67 100/191/71 258/193/73
f 119/154/49 114/150/47 97/192/72
f 103/190/70 129/188/69 97/192/72
f 122/156/51 116/152/48 97/192/72
f 258/193/73 100/191/71 121/101/35 259/100/35
f 118/160/52 125/159/53 97/192/72
f 127/135/38 103/190/70 97/192/72
f 128/162/54 119/154/49 97/192/72
f 104/140/41 98/136/37 97/192/72
f 99/164/55 122/156/51 97/192/72
f 102/166/56 118/160/52 97/192/72
f 105/168/57 128/162/54 97/192/72
f 107/170/58 99/164/55 97/192/72
f 109/172/59 102/166/56 97/192/72
f 111/174/60 105/168/57 97/192/72
f 98/136/37 127/135/38 97/192/72
f 113/176/61 107/170/58 97/192/72
f 101/138/39 124/102/36 97/192/72
f 85/131/73 157/194/73 159/195/35 86/111/35
f 84/124/67 155/196/67 157/194/73 85/131/73
f 73/64/38 72/63/70 158/197/70 161/198/38
f 72/63/70 71/126/68 156/199/68 158/197/70
f 71/126/68 70/118/66 154/200/66 156/199/68
f 84/124/67 83/116/65 153/201/65 155/196/67
f 66/121/53 96/114/64 152/202/64 160/203/53
f 70/118/66 69/108/62 151/204/62 154/200/66
f 83/116/65 82/104/61 150/205/61 153/201/65
f 96/114/64 95/113/60 149/206/60 152/202/64
f 69/108/62 68/107/59 148/207/59 151/204/62
f 82/104/61 81/103/58 147/208/58 150/205/61
f 95/113/60 94/132/57 146/209/57 149/206/60
f 68/107/59 67/129/56 145/210/56 148/207/59
f 81/103/58 80/127/55 144/211/55 147/208/58
f 94/132/57 93/125/74 143/212/74 146/209/57
f 67/129/56 65/122/52 130/213/52 145/210/56
f 80/127/55 79/119/50 142/214/50 144/211/55
f 93/125/74 92/117/49 141/215/49 143/212/74
f 65/122/52 66/121/53 160/203/53 130/213/52
f 79/119/50 78/110/48 140/216/48 142/214/50
f 92/117/49 91/106/46 139/217/46 141/215/49
f 78/110/48 77/109/75 138/218/75 140/216/48
f 91/106/46 90/105/44 137/219/44 139/217/46
f 77/109/75 76/130/43 136/220/43 138/218/75
f 90/105/44 89/128/42 135/221/42 137/219/44
f 76/130/43 75/123/40 134/222/40 136/220/43
f 89/128/42 88/120/39 133/223/39 135/221/42
f 75/123/40 74/115/37 132/224/37 134/222/40
f 88/120/39 87/112/34 131/225/34 133/223/39
f 74/115/37 73/64/38 161/198/38 132/224/37
f 87/112/34 86/111/35 159/195/35 131/225/34
f 157/194/73 162/226/73 163/227/35 159/195/35
f 155/196/67 191/228/67 162/226/73 157/194/73
f 161/198/38 158/197/70 193/229/70 165/230/38
f 158/197/70 156/199/68 192/231/68 193/229/70
f 156/199/68 154/200/66 190/232/66 192/231/68
f 155/196/67 153/201/65 189/233/65 191/228/67
f 160/203/53 152/202/64 188/234/64 164/235/53
f 154/200/66 151/204/62 187/236/62 190/232/66
f 153/201/65 150/205/61 186/237/61 189/233/65
f 152/202/64 149/206/60 185/238/60 188/234/64
f 151/204/62 148/207/59 184/239/59 187/236/62
f 150/205/61 147/208/58 183/240/58 186/237/61
f 149/206/60 146/209/57 182/241/57 185/238/60
f 148/207/59 145/210/56 181/242/56 184/239/59
f 147/208/58 144/211/55 180/243/55 183/240/58
f 146/209/57 143/212/74 179/244/74 182/241/57
f 145/210/56 130/213/52 166/245/52 181/242/56
f 144/211/55 142/214/50 178/246/50 180/243/55
f 143/212/74 141/215/49 177/247/49 179/244/74
f 130/213/52 160/203/53 164/235/53 166/245/52
f 142/214/50 140/216/48 176/248/48 178/246/50
f 141/215/49 139/217/46 175/249/46 177/247/49
f 140/216/48 138/218/75 174/250/75 176/248/48
f 139/217/46 137/219/44 173/251/44 175/249/46
f 138/218/75 136/220/43 172/252/43 174/250/75
f 137/219/44 135/221/42 171/253/42 173/251/44
f 136/220/43 134/222/40 170/254/40 172/252/43
f 135/221/42 133/223/39 169/255/39 171/253/42
f 134/222/40 132/224/37 168/256/37 170/254/40
f 133/223/39 131/225/34 167/257/34 169/255/39
f 132/224/37 161/198/38 165/230/38 168/256/37
f 131/225/34 159/195/35 163/227/35 167/257/34
f 162/226/73 194/258/73 195/259/35 163/227/35
f 191/228/67 223/260/67 194/258/73 162/226/73
f 165/230/38 193/229/70 225/261/70 197/262/38
f 193/229/70 192/231/68 224/263/68 225/261/70
f 192/231/68 190/232/66 222/264/66 224/263/68
f 191/228/67 189/233/65 221/265/65 223/260/67
f 164/235/53 188/234/64 220/266/64 196/267/53
f 190/232/66 187/236/62 219/268/62 222/264/66
f 189/233/65 186/237/61 218/269/61 221/265/65
f 188/234/64 185/238/60 217/270/60 220/266/64
f 187/236/62 184/239/59 216/271/59 219/268/62
f 186/237/61 183/240/58 215/272/58 218/269/61
f 185/238/60 182/241/57 214/273/57 217/270/60
f 184/239/59 181/242/56 213/274/56 216/271/59
f 183/240/58 180/243/55 212/275/55 215/272/58
f 182/241/57 179/244/74 211/276/74 214/273/57
f 181/242/56 166/245/52 198/277/52 213/274/56
f 180/243/55 178/246/50 210/278/50 212/275/55
f 179/244/74 177/247/49 209/279/49 211/276/74
f 166/245/52 164/235/53 196/267/53 198/277/52
f 178/246/50 176/248/48 208/280/48 210/278/50
f 177/247/49 175/249/46 207/281/46 209/279/49
f 176/248/48 174/250/75 206/282/75 208/280/48
f 175/249/46 173/251/44 205/283/44 207/281/46
f 174/250/75 172/252/43 204/284/43 206/282/75
f 173/251/44 171/253/42 203/285/42 205/283/44
f 172/252/43 170/254/40 202/286/40 204/284/43
f 171/253/42 169/255/39 201/287/39 203/285/42
f 170/254/40 168/256/37 200/288/37 202/286/40
f 169/255/39 167/257/34 199/289/34 201/287/39
f 168/256/37 165/230/38 197/262/38 200/288/37
f 167/257/34 163/227/35 195/259/35 199/289/34
f 194/258/73 226/290/73 227/291/35 195/259/35
f 223/260/67 255/292/67 226/290/73 194/258/73
f 197/262/38 225/261/70 257/293/70 229/294/38
f 225/261/70 224/263/68 256/295/68 257/293/70
f 224/263/68 222/264/66 254/296/66 256/295/68
f 223/260/67 221/265/65 253/297/65 255/292/67
f 196/267/53 220/266/64 252/298/64 228/299/53
f 222/264/66 219/268/62 251/300/62 254/296/66
f 221/265/65 218/269/61 250/301/61 253/297/65
f 220/266/64 217/270/60 249/302/60 252/298/64
f 219/268/62 216/271/59 248/303/59 251/300/62
f 218/269/61 215/272/58 247/304/58 250/301/61
f 217/270/60 214/273/57 246/305/57 249/302/60
f 216/271/59 213/274/56 245/306/56 248/303/59
f 215/272/58 212/275/55 244/307/55 247/304/58
f 214/273/57 211/276/74 243/308/74 246/305/57
f 213/274/56 198/277/52 230/309/52 245/306/56
f 212/275/55 210/278/50 242/310/50 244/307/55
f 211/276/74 209/279/49 241/311/49 243/308/74
f 198/277/52 196/267/53 228/299/53 230/309/52
f 210/278/50 208/280/48 240/312/48 242/310/50
f 209/279/49 207/281/46 239/313/46 241/311/49
f 208/280/48 206/282/75 238/314/75 240/312/48
f 207/281/46 205/283/44 237/315/44 239/313/46
f 206/282/75 204/284/43 236/316/43 238/314/75
f 205/283/44 203/285/42 235/317/42 237/315/44
f 204/284/43 202/286/40 234/318/40 236/316/43
f 203/285/42 201/287/39 233/319/39 235/317/42
f 202/286/40 200/288/37 232/320/37 234/318/40
f 201/287/39 199/289/34 231/321/34 233/319/39
f 200/288/37 197/262/38 229/294/38 232/320/37
f 199/289/34 195/259/35 227/291/35 231/321/34
f 226/290/73 258/193/73 259/100/35 227/291/35
f 255/292/67 287/185/67 258/193/73 226/290/73
f 229/294/38 257/293/70 289/189/70 261/134/38
f 257/293/70 256/295/68 288/187/68 289/189/70
f 256/295/68 254/296/66 286/183/66 288/187/68
f 255/292/67 253/297/65 285/181/65 287/185/67
f 228/299/53 252/298/64 284/179/64 260/158/53
f 254/296/66 251/300/62 283/177/62 286/183/66
f 253/297/65 250/301/61 282/175/61 285/181/65
f 252/298/64 249/302/60 281/173/60 284/179/64
f 251/300/62 248/303/59 280/171/59 283/177/62
f 250/301/61 247/304/58 279/169/58 282/175/61
f 249/302/60 246/305/57 278/167/57 281/173/60
f 248/303/59 245/306/56 277/165/56 280/171/59
f 247/304/58 244/307/55 276/163/55 279/169/58
f 246/305/57 243/308/74 275/161/54 278/167/57
f 245/306/56 230/309/52 262/157/52 277/165/56
f 244/307/55 242/310/50 274/155/50 276/163/55
f 243/308/74 241/311/49 273/153/49 275/161/54
f 230/309/52 228/299/53 260/158/53 262/157/52
f 242/310/50 240/312/48 272/151/48 274/155/50
f 241/311/49 239/313/46 271/149/46 273/153/49
f 240/312/48 238/314/75 270/147/45 272/151/48
f 239/313/46 237/315/44 269/145/44 271/149/46
f 238/314/75 236/316/43 268/143/43 270/147/45
f 237/315/44 235/317/42 267/141/42 269/145/44
f 236/316/43 234/318/40 266/139/40 268/143/43
f 235/317/42 233/319/39 265/137/39 267/141/42
f 234/318/40 232/320/37 264/133/37 266/139/40
f 233/319/39 231/321/34 263/99/34 265/137/39
f 232/320/37 229/294/38 261/134/38 264/133/37
f 231/321/34 227/291/35 259/100/35 263/99/34
