# Blender 5.1.2
# www.blender.org
mtllib door_right.mtl
o Cube.001
v 1.000000 0.099859 0.072600
v 1.000000 0.099859 1.815403
v 1.000000 -0.028871 0.072600
v 1.000000 -0.028871 1.815403
v 1.304329 -0.028871 0.072600
v 1.377892 -0.028871 0.149841
v 1.377892 -0.028871 1.738162
v 1.304329 -0.028871 1.815403
v 1.377892 0.099859 0.149841
v 1.304329 0.099859 0.072600
v 1.304329 0.099859 1.815403
v 1.377892 0.099859 1.738162
vn -1.0000 -0.0000 -0.0000
vn 0.7241 -0.0000 -0.6897
vn 0.7241 -0.0000 0.6897
vn -0.0000 -0.0000 -1.0000
vn 1.0000 -0.0000 -0.0000
vn -0.0000 -1.0000 -0.0000
vn -0.0000 -0.0000 1.0000
vn -0.0000 1.0000 -0.0000
vt 0.757927 0.709992
vt 0.773051 0.503990
vt 0.773051 0.715268
vt 0.720107 0.502756
vt 0.696136 0.511669
vt 0.718734 0.489062
vt 0.720313 0.732126
vt 0.712614 0.705392
vt 0.722725 0.713780
vt 0.757728 0.511316
vt 0.711501 0.513842
vt 0.663421 0.581988
vt 0.654317 0.777885
vt 0.616764 0.572941
vt 0.697630 0.707220
vt 0.654308 0.572907
vt 0.663434 0.768803
vt 0.616764 0.777852
s 0
usemtl Material
f 2/1/1 3/2/1 4/3/1
f 10/4/2 6/5/2 5/6/2
f 8/7/3 12/8/3 11/9/3
f 10/4/4 3/2/4 1/10/4
f 12/8/5 6/5/5 9/11/5
f 6/12/6 8/13/6 3/14/6
f 2/1/7 8/7/7 11/9/7
f 2/1/8 12/8/8 10/4/8
f 2/1/1 1/10/1 3/2/1
f 10/4/2 9/11/2 6/5/2
f 8/7/3 7/15/3 12/8/3
f 10/4/4 5/6/4 3/2/4
f 12/8/5 7/15/5 6/5/5
f 3/14/6 5/16/6 6/12/6
f 6/12/6 7/17/6 8/13/6
f 8/13/6 4/18/6 3/14/6
f 2/1/7 4/3/7 8/7/7
f 10/4/8 1/10/8 2/1/8
f 2/1/8 11/9/8 12/8/8
f 12/8/8 9/11/8 10/4/8
