# Blender 5.1.2
# www.blender.org
mtllib door_left.mtl
o Cube.003
v 1.000000 0.099859 0.072600
v 1.000000 0.099859 1.815403
v 1.000000 -0.028871 0.072600
v 1.000000 -0.028871 1.815403
v 0.695671 -0.028871 0.072600
v 0.622109 -0.028871 0.149841
v 0.622109 -0.028871 1.738162
v 0.695671 -0.028871 1.815403
v 0.622109 0.099859 0.149841
v 0.695671 0.099859 0.072600
v 0.695671 0.099859 1.815403
v 0.622109 0.099859 1.738162
vn 1.0000 -0.0000 -0.0000
vn -0.7241 -0.0000 -0.6897
vn -0.7241 -0.0000 0.6897
vn -0.0000 -0.0000 -1.0000
vn -1.0000 -0.0000 -0.0000
vn -0.0000 -1.0000 -0.0000
vn -0.0000 -0.0000 1.0000
vn -0.0000 1.0000 -0.0000
vt 0.245494 0.988895
vt 0.039492 0.973771
vt 0.034216 0.988895
vt 0.237815 0.911980
vt 0.246728 0.935951
vt 0.260422 0.934578
vt 0.044092 0.928458
vt 0.017358 0.936157
vt 0.035704 0.938569
vt 0.238168 0.973572
vt 0.235642 0.927345
vt 0.616764 0.783879
vt 0.654317 0.988822
vt 0.663421 0.792926
vt 0.042264 0.913474
vt 0.654308 0.783845
vt 0.616764 0.988790
vt 0.663434 0.979740
s 0
usemtl Material
f 3/1/1 2/2/1 4/3/1
f 6/4/2 10/5/2 5/6/2
f 12/7/3 8/8/3 11/9/3
f 3/1/4 10/5/4 1/10/4
f 6/4/5 12/7/5 9/11/5
f 3/12/6 8/13/6 6/14/6
f 8/8/7 2/2/7 11/9/7
f 10/5/8 12/7/8 2/2/8
f 3/1/1 1/10/1 2/2/1
f 6/4/2 9/11/2 10/5/2
f 12/7/3 7/15/3 8/8/3
f 3/1/4 5/6/4 10/5/4
f 6/4/5 7/15/5 12/7/5
f 6/14/6 5/16/6 3/12/6
f 3/12/6 4/17/6 8/13/6
f 8/13/6 7/18/6 6/14/6
f 8/8/7 4/3/7 2/2/7
f 2/2/8 1/10/8 10/5/8
f 10/5/8 9/11/8 12/7/8
f 12/7/8 11/9/8 2/2/8
