# Blender 5.1.2
# www.blender.org
mtllib frame.mtl
o Cube
v 0.047619 1.951220 0.000000
v 1.952381 1.951220 0.000000
v 0.047619 0.097561 0.000000
v 1.952381 0.097561 0.000000
v 0.502080 0.278741 1.955695
v 0.571271 0.244063 2.000000
v 0.560863 0.335184 1.975798
v 1.439137 0.335184 1.975798
v 1.428729 0.244063 2.000000
v 1.497920 0.278741 1.955695
v 0.571271 0.097561 2.000000
v 0.502080 0.097561 1.955695
v 1.497920 0.097561 1.955695
v 1.428729 0.097561 2.000000
v 0.058805 1.851835 0.548431
v 0.104912 1.920847 0.538915
v 1.895088 1.920847 0.538915
v 1.941195 1.851835 0.548431
v 1.941195 0.097561 0.548431
v 0.058805 0.097561 0.548431
v 0.339377 1.153500 1.456480
v 0.317901 1.186948 1.430333
v 0.267397 1.146947 1.451569
v 0.303762 1.001181 1.479095
v 1.682100 1.186948 1.430333
v 1.660624 1.153500 1.456480
v 1.696239 1.001181 1.479095
v 1.732603 1.146947 1.451569
v 1.732603 0.097561 1.451569
v 1.696238 0.097561 1.479095
v 0.303762 0.097561 1.479095
v 0.267397 0.097561 1.451569
v 2.000000 2.000000 0.000000
v 0.000000 2.000000 0.000000
v 2.000000 0.097561 0.000000
v 0.000000 0.097561 0.000000
v 0.000000 2.000000 0.450165
v 0.011745 1.895646 0.536688
v 0.060158 1.968109 0.527171
v 2.000000 2.000000 0.450165
v 1.939842 1.968109 0.527171
v 1.988255 1.895646 0.536688
v 2.000000 0.097561 0.450165
v 1.988255 0.097561 0.536688
v 0.011745 0.097561 0.536688
v 0.000000 0.097561 0.450165
v 0.342361 0.166253 1.482069
v 0.522192 0.166253 1.920974
v 0.522192 0.282520 1.920974
v 0.342361 0.938766 1.482069
v 0.399907 1.131337 1.450349
v 0.601099 0.355089 1.924802
v 1.398901 0.355089 1.924802
v 1.600093 1.131337 1.450349
v 1.657640 0.938766 1.482069
v 1.477808 0.282520 1.920974
v 1.477808 0.166253 1.920974
v 1.657639 0.166253 1.482069
v 0.186925 1.861461 0.559503
v 0.380398 1.182741 1.410792
v 1.619602 1.182741 1.410792
v 1.813075 1.861461 0.559503
v 0.100450 0.166253 0.581635
v 0.289930 0.166253 1.402022
v 0.289930 1.110548 1.402022
v 0.100450 1.750851 0.581635
v 1.899550 1.750851 0.581635
v 1.710070 1.110548 1.402022
v 1.710070 0.166252 1.402022
v 1.899550 0.166252 0.581635
v 0.117326 1.879813 0.060513
v 1.882674 1.879813 0.060513
v 0.117326 0.071407 0.060513
v 1.882674 0.071407 0.060513
v 1.844201 1.798958 0.543455
v 0.155800 1.798958 0.543455
v 1.844201 0.071407 0.543455
v 0.155799 0.071407 0.543455
v 1.668839 1.147473 1.419991
v 0.331161 1.147473 1.419991
v 1.668839 0.071407 1.405645
v 0.331161 0.071407 1.405645
v 1.410724 0.307737 1.927744
v 0.589277 0.307737 1.927744
v 1.410724 0.071407 1.927744
v 0.589277 0.071407 1.927744
v 0.047619 0.000000 0.000000
v 1.952381 0.000000 0.000000
v 1.941195 0.000000 0.548431
v 1.988255 0.000000 0.536688
v 0.000000 0.000000 0.000000
v 0.047619 0.000000 0.450165
v 0.000000 0.000000 0.450165
v 1.952381 0.000000 0.450165
v 0.058805 0.000000 0.548431
v 1.732603 0.000000 1.451569
v 1.699687 0.000000 1.523866
v 0.300313 0.000000 1.523866
v 0.267397 0.000000 1.451569
v 1.428729 0.000000 2.000000
v 1.497920 0.000000 1.955695
v 0.502080 0.000000 1.955695
v 0.571271 0.000000 2.000000
v 2.000000 0.000000 0.450165
v 2.000000 0.000000 0.000000
v 0.011745 0.000000 0.536688
v 0.645261 0.071407 0.232103
v 0.704116 0.071407 0.170305
v 1.354739 0.071407 0.232103
v 1.295884 0.071407 0.170305
v 0.645261 0.071407 1.658502
v 1.354739 0.071407 1.658502
v 0.704116 0.071407 1.720299
v 1.295884 0.071407 1.720299
v 0.645261 0.000000 1.658502
v 0.704116 0.000000 1.720299
v 1.354739 0.000000 1.658502
v 1.295884 0.000000 1.720299
v 0.645261 0.000000 0.232103
v 0.704116 0.000000 0.170305
v 1.295884 0.000000 0.170305
v 1.354739 0.000000 0.232103
vn -0.0000 -0.0000 -1.0000
vn -0.4663 0.1769 0.8667
vn 0.4663 0.1769 0.8667
vn -0.0000 -0.0000 1.0000
vn 0.9743 -0.0000 0.2250
vn -0.0821 0.1651 0.9829
vn 0.1074 0.5686 0.8156
vn -1.0000 -0.0000 -0.0000
vn -0.9060 -0.0000 0.4233
vn -0.6701 0.2599 0.6953
vn -0.0000 0.2567 0.9665
vn 0.5392 -0.0000 0.8421
vn -0.5392 -0.0000 0.8421
vn 0.3028 0.7161 0.6289
vn 0.2421 -0.0000 0.9702
vn -0.6431 0.5086 0.5724
vn 0.5760 0.3341 0.7461
vn -0.6035 -0.0000 0.7973
vn 0.6035 -0.0000 0.7973
vn -0.0000 0.6159 0.7879
vn -0.9743 -0.0000 0.2250
vn -0.8884 0.2170 0.4045
vn -0.0000 0.2411 0.9705
vn -0.9909 -0.0000 0.1345
vn -0.5856 0.4773 0.6552
vn 0.5856 0.4773 0.6552
vn 0.9909 -0.0000 0.1345
vn -0.0000 0.9239 0.3826
vn -0.0000 1.0000 -0.0000
vn 1.0000 -0.0000 -0.0000
vn -0.2421 -0.0000 0.9702
vn 0.0712 0.1765 0.9817
vn -0.0732 0.1841 0.9802
vn -0.8373 0.4213 0.3484
vn -0.8653 -0.0000 -0.5012
vn -0.7599 -0.4902 -0.4269
vn -0.0768 -0.0000 0.9970
vn 0.5372 0.5508 0.6388
vn -0.0000 0.9316 0.3636
vn -0.5372 0.5508 0.6388
vn -0.0000 -0.2666 0.9638
vn 0.7598 -0.4903 -0.4270
vn 0.8653 -0.0000 -0.5012
vn 0.8373 0.4213 0.3484
vn 0.0768 -0.0000 0.9970
vn 0.4124 0.7492 0.5183
vn -0.0000 0.9776 -0.2105
vn -0.4124 0.7492 0.5183
vn -0.0000 0.3276 0.9448
vn -0.8777 0.4341 0.2027
vn -0.9103 -0.0000 -0.4140
vn -0.9054 -0.4098 -0.1107
vn -0.6234 -0.0000 0.7819
vn 0.9054 -0.4098 -0.1107
vn 0.9103 -0.0000 -0.4140
vn 0.8777 0.4342 0.2027
vn 0.6234 -0.0000 0.7819
vn -0.5678 -0.0000 0.8232
vn -0.0000 -0.9863 -0.1651
vn 0.9968 -0.0000 -0.0794
vn -0.9968 -0.0000 -0.0794
vn 0.5678 -0.0000 0.8232
vn -0.0000 -0.2487 0.9686
vn -0.0000 -0.8830 -0.4694
vn 0.9894 -0.0000 -0.1450
vn -0.9854 0.0023 -0.1702
vn -0.0000 -1.0000 -0.0000
vn 0.9037 0.2045 0.3761
vn -0.8208 0.5462 -0.1670
vn -0.1177 0.0132 -0.9930
vn -0.6791 -0.4943 -0.5426
vn -0.8694 0.2437 -0.4298
vn -0.1004 -0.0000 -0.9949
vn -0.2662 -0.4844 -0.8334
vn -0.8446 -0.3082 -0.4377
vn -0.0000 -0.2524 -0.9676
vn 0.3897 -0.7001 -0.5983
vn 0.2370 -0.7564 -0.6096
vn 0.3995 -0.0000 -0.9167
vn 0.8999 0.3833 -0.2079
vn 0.7627 -0.1464 -0.6299
vn 0.1004 -0.0000 -0.9949
vn 0.7838 0.5315 -0.3212
vn -0.2702 -0.4502 -0.8511
vn -0.0000 -0.0620 -0.9981
vn 0.6816 -0.2137 -0.6999
vn 0.7241 -0.0000 0.6897
vn 0.7241 -0.0000 -0.6897
vn -0.7241 -0.0000 0.6897
vn -0.7241 -0.0000 -0.6897
vn -0.1074 0.5686 0.8156
vn 0.0821 0.1651 0.9829
vn -0.9037 0.2045 0.3761
vn -0.5760 0.3341 0.7461
vn -0.5393 -0.0000 0.8421
vn 0.6432 0.5086 0.5724
vn -0.3028 0.7161 0.6289
vn 0.6701 0.2599 0.6953
vn 0.0732 0.1841 0.9802
vn -0.0712 0.1765 0.9817
vn -0.8265 0.4498 0.3386
vn -0.7179 -0.5121 -0.4716
vn 0.2818 0.5525 0.7845
vn -0.2818 0.5525 0.7845
vn 0.7179 -0.5121 -0.4716
vn 0.8265 0.4498 0.3386
vn 0.2322 0.7856 0.5735
vn -0.2322 0.7856 0.5735
vn 0.8777 0.4341 0.2027
vn 0.9854 0.0023 -0.1702
vn -0.9894 -0.0000 -0.1450
vn 0.9060 -0.0000 0.4233
vn 0.8884 0.2170 0.4045
vn -0.8999 0.3833 -0.2079
vn -0.3995 -0.0000 -0.9167
vn -0.2370 -0.7564 -0.6096
vn -0.7838 0.5315 -0.3212
vn -0.7627 -0.1464 -0.6299
vn -0.3897 -0.7001 -0.5983
vn 0.8446 -0.3082 -0.4377
vn 0.6791 -0.4943 -0.5426
vn 0.1177 0.0132 -0.9930
vn 0.8208 0.5462 -0.1670
vn 0.2662 -0.4844 -0.8334
vn 0.8694 0.2437 -0.4298
vn -0.6816 -0.2137 -0.6999
vn 0.2702 -0.4502 -0.8511
vt 0.400557 0.282587
vt 0.621617 0.496418
vt 0.408894 0.502477
vt 0.583529 0.013732
vt 0.573708 0.018206
vt 0.575367 0.006967
vt 0.461875 0.003131
vt 0.462546 0.014492
vt 0.453190 0.009067
vt 0.627021 0.502001
vt 0.403811 0.508428
vt 0.572974 0.035533
vt 0.462926 0.043124
vt 0.461906 0.031887
vt 0.620564 0.283341
vt 0.623875 0.275007
vt 0.626223 0.282294
vt 0.401454 0.102303
vt 0.363047 0.232450
vt 0.337076 0.248734
vt 0.158805 0.390296
vt 0.165649 0.396063
vt 0.144479 0.399019
vt 0.162535 0.190227
vt 0.169425 0.184790
vt 0.173602 0.192541
vt 0.663568 0.248977
vt 0.675775 0.259738
vt 0.586260 0.040696
vt 0.611560 0.100030
vt 0.579337 0.050613
vt 0.003131 0.372201
vt 0.447872 0.036257
vt 0.324772 0.184485
vt 0.341401 0.538711
vt 0.342358 0.252614
vt 0.348598 0.541873
vt 0.358745 0.240099
vt 0.323553 0.405100
vt 0.169492 0.388681
vt 0.330813 0.397639
vt 0.148338 0.180995
vt 0.003194 0.201636
vt 0.007650 0.167338
vt 0.114760 0.538062
vt 0.104337 0.529750
vt 0.129732 0.039036
vt 0.689873 0.250181
vt 0.617493 0.111774
vt 0.628354 0.107252
vt 0.621931 0.094008
vt 0.394869 0.281510
vt 0.369865 0.566645
vt 0.658749 0.559463
vt 0.655193 0.566645
vt 0.454605 0.046224
vt 0.667845 0.242203
vt 0.684628 0.253944
vt 0.678195 0.542200
vt 0.664904 0.549217
vt 0.366723 0.559407
vt 0.361375 0.549109
vt 0.351303 0.258696
vt 0.362919 0.246678
vt 0.685486 0.539328
vt 0.018799 0.456288
vt 0.013644 0.466315
vt 0.004243 0.404547
vt 0.135679 0.403099
vt 0.103702 0.516693
vt 0.010476 0.361250
vt 0.009877 0.213236
vt 0.156036 0.196794
vt 0.139816 0.176439
vt 0.027198 0.115264
vt 0.022898 0.104728
vt 0.118252 0.047165
vt 0.116569 0.060429
vt 0.323139 0.388501
vt 0.176540 0.379729
vt 0.322899 0.200654
vt 0.330813 0.191911
vt 0.123791 0.532343
vt 0.250465 0.583795
vt 0.312080 0.412478
vt 0.314196 0.176643
vt 0.138380 0.045291
vt 0.267979 0.003131
vt 0.946434 0.053779
vt 0.746709 0.262731
vt 0.746982 0.044548
vt 0.304126 0.170608
vt 0.264047 0.012594
vt 0.996869 0.003131
vt 0.950470 0.268762
vt 0.696136 0.003131
vt 0.301378 0.417881
vt 0.247351 0.573987
vt 0.237524 0.562075
vt 0.314786 0.205733
vt 0.314639 0.383091
vt 0.030278 0.233988
vt 0.014368 0.356973
vt 0.013955 0.217286
vt 0.144270 0.207994
vt 0.152771 0.383325
vt 0.142869 0.371605
vt 0.096530 0.497935
vt 0.107971 0.078751
vt 0.121119 0.160106
vt 0.657494 0.242996
vt 0.464658 0.242531
vt 0.400660 0.272079
vt 0.368430 0.241058
vt 0.620525 0.272929
vt 0.557028 0.242730
vt 0.663174 0.234612
vt 0.571486 0.046615
vt 0.476298 0.076031
vt 0.397063 0.274217
vt 0.419150 0.095537
vt 0.409318 0.089075
vt 0.412688 0.107260
vt 0.146488 0.050434
vt 0.253277 0.023796
vt 0.177375 0.172789
vt 0.173304 0.177384
vt 0.032648 0.123426
vt 0.024379 0.148579
vt 0.014323 0.159257
vt 0.180574 0.202190
vt 0.185353 0.371543
vt 0.190011 0.211093
vt 0.172902 0.408363
vt 0.169124 0.403572
vt 0.132514 0.527848
vt 0.018690 0.422831
vt 0.115816 0.418142
vt 0.009889 0.412215
vt 0.024919 0.448546
vt 0.099687 0.774418
vt 0.094229 0.790089
vt 0.092350 0.781427
vt 0.094349 0.590058
vt 0.099714 0.605726
vt 0.092460 0.598715
vt 0.016943 0.789859
vt 0.011693 0.774370
vt 0.018921 0.781393
vt 0.011715 0.605696
vt 0.017001 0.590206
vt 0.018963 0.598676
vt 0.108247 0.775021
vt 0.108247 0.605118
vt 0.003131 0.774971
vt 0.003182 0.605085
vt 0.555657 0.078056
vt 0.564076 0.085261
vt 0.467409 0.082703
vt 0.547969 0.250371
vt 0.474632 0.250391
vt 0.811984 0.279776
vt 0.800690 0.287841
vt 0.751657 0.414462
vt 0.935457 0.420740
vt 0.894007 0.290868
vt 0.794446 0.447558
vt 0.787750 0.479212
vt 0.890431 0.450707
vt 0.894439 0.482799
vt 0.881751 0.457746
vt 0.802524 0.455041
vt 0.993305 0.303061
vt 0.703644 0.295708
vt 0.032004 0.340428
vt 0.885011 0.282462
s 0
usemtl Material
f 4/1/1 1/2/1 2/3/1
f 5/4/2 6/5/2 7/6/2
f 8/7/3 9/8/3 10/9/3
f 2/3/1 34/10/1 33/11/1
f 11/12/4 100/13/4 14/14/4
f 3/15/1 91/16/1 36/17/1
f 29/18/5 89/19/5 19/20/5
f 21/21/6 23/22/6 24/23/6
f 26/24/7 28/25/7 25/26/7
f 36/17/8 93/27/8 46/28/8
f 12/29/9 98/30/9 102/31/9
f 24/23/10 7/32/10 21/21/10
f 6/5/11 8/7/11 7/6/11
f 9/8/12 13/33/12 10/9/12
f 6/5/13 12/29/13 11/12/13
f 18/34/14 25/26/14 28/25/14
f 1/2/1 36/17/1 34/10/1
f 18/35/15 44/36/15 42/37/15
f 19/20/15 90/38/15 44/36/15
f 15/39/16 22/40/16 16/41/16
f 27/42/17 8/43/17 10/44/17
f 24/23/18 32/45/18 31/46/18
f 27/42/19 29/47/19 28/25/19
f 26/24/20 22/40/20 21/21/20
f 9/8/4 11/12/4 14/14/4
f 20/48/21 99/49/21 32/50/21
f 31/51/22 99/49/22 98/30/22
f 2/3/1 35/52/1 4/1/1
f 17/53/23 39/54/23 16/55/23
f 14/14/12 101/56/12 13/33/12
f 46/28/24 106/57/24 45/58/24
f 38/59/25 39/54/25 37/60/25
f 41/61/26 42/37/26 40/62/26
f 38/59/24 46/28/24 45/58/24
f 42/37/27 43/63/27 40/62/27
f 41/61/28 37/60/28 39/54/28
f 37/60/29 33/11/29 34/10/29
f 46/28/8 34/10/8 36/17/8
f 40/62/30 35/52/30 33/11/30
f 44/36/27 104/64/27 43/63/27
f 15/65/31 45/58/31 20/48/31
f 17/53/32 42/37/32 41/61/32
f 16/55/33 38/59/33 15/65/33
f 48/66/34 31/46/34 12/67/34
f 5/68/35 48/66/35 12/67/35
f 50/69/36 5/68/36 24/23/36
f 47/70/37 24/23/37 31/46/37
f 52/71/38 21/21/38 7/32/38
f 53/72/39 7/32/39 8/43/39
f 26/24/40 53/72/40 8/43/40
f 21/21/41 54/73/41 26/24/41
f 10/44/42 55/74/42 27/42/42
f 57/75/43 10/44/43 13/76/43
f 30/77/44 57/75/44 13/76/44
f 27/42/45 58/78/45 30/77/45
f 22/40/46 59/79/46 16/41/46
f 25/26/47 60/80/47 22/40/47
f 62/81/48 25/26/48 17/82/48
f 59/79/49 17/82/49 16/41/49
f 64/83/50 20/84/50 32/45/50
f 23/22/51 64/83/51 32/45/51
f 66/85/52 23/22/52 15/39/52
f 20/84/53 66/85/53 15/39/53
f 28/25/54 67/86/54 18/34/54
f 69/87/55 28/25/55 29/47/55
f 19/88/56 69/87/56 29/47/56
f 67/86/57 19/88/57 18/34/57
f 71/89/4 74/90/4 72/91/4
f 75/92/58 70/93/58 67/86/58
f 72/91/59 76/94/59 71/89/59
f 76/94/60 73/95/60 71/89/60
f 74/90/61 75/96/61 72/91/61
f 76/97/62 63/98/62 78/99/62
f 75/100/63 59/79/63 76/101/63
f 85/102/1 84/103/1 83/104/1
f 79/105/64 51/106/64 80/107/64
f 82/108/65 50/69/65 47/70/65
f 81/109/66 55/74/66 79/110/66
f 92/111/67 106/57/67 93/27/67
f 122/112/67 88/113/67 94/114/67
f 87/115/67 119/116/67 95/117/67
f 103/118/67 118/119/67 100/13/67
f 118/119/67 101/56/67 100/13/67
f 92/111/67 91/16/67 87/115/67
f 88/113/67 104/64/67 94/114/67
f 94/114/67 90/38/67 89/19/67
f 12/29/13 103/118/13 11/12/13
f 43/63/30 105/120/30 35/52/30
f 4/1/1 105/120/1 88/113/1
f 13/33/68 97/121/68 30/122/68
f 20/48/31 106/57/31 95/117/31
f 30/122/19 96/123/19 29/18/19
f 4/1/1 87/115/1 3/15/1
f 81/124/69 70/93/69 77/125/69
f 79/126/70 69/87/70 81/124/70
f 79/126/71 67/86/71 68/127/71
f 85/128/72 58/78/72 81/109/72
f 83/129/73 57/75/73 85/128/73
f 83/129/74 55/74/74 56/130/74
f 75/100/75 61/131/75 62/81/75
f 80/132/76 61/131/76 79/133/76
f 76/101/77 60/80/77 80/132/77
f 80/134/78 66/85/78 76/97/78
f 80/134/79 64/83/79 65/135/79
f 82/136/80 63/98/80 64/83/80
f 84/137/81 50/69/81 80/138/81
f 84/137/82 48/66/82 49/139/82
f 86/140/83 47/70/83 48/66/83
f 79/105/84 53/72/84 54/73/84
f 84/103/85 53/72/85 83/104/85
f 80/107/86 52/71/86 84/103/86
f 107/141/87 120/142/87 108/143/87
f 116/144/88 111/145/88 113/146/88
f 121/147/89 109/148/89 110/149/89
f 112/150/90 118/151/90 114/152/90
f 110/149/4 120/142/4 121/147/4
f 119/153/30 111/145/30 115/154/30
f 114/152/1 116/144/1 113/146/1
f 112/150/8 122/155/8 117/156/8
f 116/157/67 102/31/67 115/158/67
f 97/121/67 117/159/67 96/123/67
f 98/30/67 115/158/67 102/31/67
f 99/49/67 119/116/67 115/158/67
f 96/123/67 122/112/67 89/19/67
f 120/160/67 88/113/67 121/161/67
f 73/95/29 110/162/29 74/90/29
f 74/90/29 109/163/29 81/164/29
f 82/165/29 107/166/29 73/95/29
f 112/167/29 85/168/29 81/164/29
f 111/169/29 86/170/29 113/171/29
f 86/170/29 114/172/29 113/171/29
f 4/1/1 3/15/1 1/2/1
f 2/3/1 1/2/1 34/10/1
f 11/12/4 103/118/4 100/13/4
f 3/15/1 87/115/1 91/16/1
f 29/18/5 96/123/5 89/19/5
f 21/21/91 22/40/91 23/22/91
f 26/24/92 27/42/92 28/25/92
f 36/17/8 91/16/8 93/27/8
f 12/29/93 31/51/93 98/30/93
f 24/23/94 5/68/94 7/32/94
f 6/5/11 9/8/11 8/7/11
f 9/8/12 14/14/12 13/33/12
f 6/5/95 5/4/95 12/29/95
f 18/34/96 17/82/96 25/26/96
f 1/2/1 3/15/1 36/17/1
f 18/35/15 19/20/15 44/36/15
f 19/20/15 89/19/15 90/38/15
f 15/39/97 23/22/97 22/40/97
f 27/42/98 26/24/98 8/43/98
f 24/23/18 23/22/18 32/45/18
f 27/42/19 30/77/19 29/47/19
f 26/24/20 25/26/20 22/40/20
f 9/8/4 6/5/4 11/12/4
f 20/48/21 95/117/21 99/49/21
f 31/51/18 32/50/18 99/49/18
f 2/3/1 33/11/1 35/52/1
f 17/53/23 41/61/23 39/54/23
f 14/14/12 100/13/12 101/56/12
f 46/28/24 93/27/24 106/57/24
f 38/59/24 37/60/24 46/28/24
f 42/37/27 44/36/27 43/63/27
f 41/61/28 40/62/28 37/60/28
f 37/60/29 40/62/29 33/11/29
f 46/28/8 37/60/8 34/10/8
f 40/62/30 43/63/30 35/52/30
f 44/36/27 90/38/27 104/64/27
f 15/65/31 38/59/31 45/58/31
f 17/53/99 18/35/99 42/37/99
f 16/55/100 39/54/100 38/59/100
f 48/66/101 47/70/101 31/46/101
f 5/68/35 49/139/35 48/66/35
f 50/69/102 49/139/102 5/68/102
f 47/70/37 50/69/37 24/23/37
f 52/71/103 51/106/103 21/21/103
f 53/72/39 52/71/39 7/32/39
f 26/24/104 54/73/104 53/72/104
f 21/21/41 51/106/41 54/73/41
f 10/44/105 56/130/105 55/74/105
f 57/75/43 56/130/43 10/44/43
f 30/77/106 58/78/106 57/75/106
f 27/42/45 55/74/45 58/78/45
f 22/40/107 60/80/107 59/79/107
f 25/26/47 61/131/47 60/80/47
f 62/81/108 61/131/108 25/26/108
f 59/79/49 62/81/49 17/82/49
f 64/83/50 63/98/50 20/84/50
f 23/22/51 65/135/51 64/83/51
f 66/85/52 65/135/52 23/22/52
f 20/84/53 63/98/53 66/85/53
f 28/25/54 68/127/54 67/86/54
f 69/87/55 68/127/55 28/25/55
f 19/88/109 70/93/109 69/87/109
f 67/86/57 70/93/57 19/88/57
f 71/89/4 73/95/4 74/90/4
f 75/92/58 77/125/58 70/93/58
f 72/91/59 75/96/59 76/94/59
f 76/94/60 78/173/60 73/95/60
f 74/90/61 77/174/61 75/96/61
f 76/97/62 66/85/62 63/98/62
f 75/100/63 62/81/63 59/79/63
f 85/102/1 86/175/1 84/103/1
f 79/105/64 54/73/64 51/106/64
f 82/108/110 80/138/110 50/69/110
f 81/109/111 58/78/111 55/74/111
f 92/111/67 95/117/67 106/57/67
f 94/114/67 89/19/67 122/112/67
f 122/112/67 121/161/67 88/113/67
f 95/117/67 92/111/67 87/115/67
f 87/115/67 120/160/67 119/116/67
f 103/118/67 116/157/67 118/119/67
f 118/119/67 117/159/67 101/56/67
f 92/111/67 93/27/67 91/16/67
f 88/113/67 105/120/67 104/64/67
f 94/114/67 104/64/67 90/38/67
f 12/29/13 102/31/13 103/118/13
f 43/63/30 104/64/30 105/120/30
f 4/1/1 35/52/1 105/120/1
f 13/33/112 101/56/112 97/121/112
f 20/48/31 45/58/31 106/57/31
f 30/122/113 97/121/113 96/123/113
f 4/1/1 88/113/1 87/115/1
f 81/124/114 69/87/114 70/93/114
f 79/126/115 68/127/115 69/87/115
f 79/126/116 75/92/116 67/86/116
f 85/128/117 57/75/117 58/78/117
f 83/129/73 56/130/73 57/75/73
f 83/129/118 79/110/118 55/74/118
f 75/100/119 79/133/119 61/131/119
f 80/132/76 60/80/76 61/131/76
f 76/101/120 59/79/120 60/80/120
f 80/134/121 65/135/121 66/85/121
f 80/134/122 82/136/122 64/83/122
f 82/136/123 78/99/123 63/98/123
f 84/137/124 49/139/124 50/69/124
f 84/137/82 86/140/82 48/66/82
f 86/140/125 82/108/125 47/70/125
f 79/105/126 83/104/126 53/72/126
f 84/103/85 52/71/85 53/72/85
f 80/107/127 51/106/127 52/71/127
f 107/141/87 119/153/87 120/142/87
f 116/144/88 115/154/88 111/145/88
f 121/147/89 122/155/89 109/148/89
f 112/150/90 117/156/90 118/151/90
f 110/149/4 108/143/4 120/142/4
f 119/153/30 107/141/30 111/145/30
f 114/152/1 118/151/1 116/144/1
f 112/150/8 109/148/8 122/155/8
f 116/157/67 103/118/67 102/31/67
f 97/121/67 101/56/67 117/159/67
f 98/30/67 99/49/67 115/158/67
f 99/49/67 95/117/67 119/116/67
f 96/123/67 117/159/67 122/112/67
f 120/160/67 87/115/67 88/113/67
f 73/95/29 108/176/29 110/162/29
f 81/164/29 77/174/29 74/90/29
f 74/90/29 110/162/29 109/163/29
f 109/163/29 112/167/29 81/164/29
f 73/95/29 78/173/29 82/165/29
f 82/165/29 111/169/29 107/166/29
f 107/166/29 108/176/29 73/95/29
f 112/167/29 114/172/29 85/168/29
f 111/169/29 82/165/29 86/170/29
f 86/170/29 85/168/29 114/172/29
