# Blender 5.1.2
# www.blender.org
mtllib glass.mtl
o Cube.002
v 0.560519 0.142560 1.915210
v 0.353522 0.142560 1.458468
v 0.333521 0.985941 1.458468
v 0.560519 0.288166 1.915210
v 0.390556 1.150822 1.421269
v 0.596063 0.329164 1.895617
v 1.403937 0.329164 1.895617
v 1.609444 1.150822 1.421269
v 1.666479 0.985941 1.458468
v 1.439482 0.288166 1.915210
v 1.439482 0.142560 1.915210
v 1.646479 0.142560 1.458468
v 0.183064 1.836324 0.530214
v 0.378981 1.174269 1.415560
v 1.621019 1.174269 1.415560
v 1.816936 1.836324 0.530214
v 0.133973 0.156007 0.563775
v 0.327521 0.156007 1.401775
v 0.327521 1.111685 1.401775
v 0.133973 1.765734 0.563775
v 1.866027 1.765734 0.563775
v 1.672479 1.111685 1.401775
v 1.672479 0.156007 1.401775
v 1.866027 0.156007 0.563775
v 1.698899 0.985941 1.475999
v 1.471901 0.288166 1.932740
v 1.471901 0.142560 1.932741
v 1.678899 0.142560 1.475999
v 0.183064 1.865494 0.554133
v 0.378981 1.184125 1.419287
v 1.621019 1.184125 1.419287
v 1.816936 1.865494 0.554133
v 0.390556 1.154900 1.437300
v 0.596063 0.347305 1.929088
v 1.403937 0.347305 1.929088
v 1.609444 1.154900 1.437300
v 0.321102 0.142560 1.475998
v 0.528099 0.142560 1.932740
v 0.528099 0.288166 1.932740
v 0.301102 0.985941 1.475998
v 0.098534 0.156007 0.572799
v 0.292082 0.156007 1.410799
v 0.292082 1.111685 1.410799
v 0.098534 1.765734 0.572799
v 1.901466 1.765734 0.572799
v 1.707918 1.111685 1.410799
v 1.707918 0.156007 1.410799
v 1.901466 0.156007 0.572799
vn -0.9743 -0.0000 -0.2250
vn -0.9108 -0.0000 -0.4128
vn -0.0000 -0.5000 -0.8660
vn -0.0000 -0.8008 -0.5989
vn 0.9743 -0.0000 -0.2250
vn 0.9108 -0.0000 -0.4128
vn 0.9080 -0.0215 0.4184
vn -0.3841 0.5899 0.7103
vn -0.4756 -0.0000 0.8796
vn -0.0000 -1.0000 -0.0000
vn 0.4756 -0.0113 -0.8796
vn -0.0000 0.7856 0.6187
vn -0.9834 -0.0642 0.1696
vn -0.0000 -0.3537 0.9354
vn 0.9834 -0.0642 0.1696
vn -0.0000 0.6341 -0.7733
vn -0.0000 0.5201 0.8541
vn -0.9756 -0.2128 0.0541
vn -0.0000 -0.8792 0.4765
vn 0.9756 -0.2128 0.0541
vn -0.0000 0.9691 -0.2465
vn -0.9080 -0.0215 0.4184
vn 0.4756 -0.0000 0.8796
vn 0.3841 0.5899 0.7103
vn -0.4756 -0.0113 -0.8796
vn -0.9743 -0.0000 0.2250
vn 0.2468 -0.0000 0.9691
vn 0.1494 0.7959 0.5867
vn -0.2468 -0.0000 -0.9691
vn 0.9743 -0.0000 0.2250
vn -0.1494 0.7959 0.5867
vn -0.2468 -0.0000 0.9691
vn 0.2468 -0.0000 -0.9691
vn -0.9080 0.0215 -0.4184
vn 0.9080 0.0215 -0.4184
vn 0.9108 -0.0000 0.4128
vn -0.9845 -0.1111 0.1355
vn 0.9845 -0.1111 0.1355
vn -0.9771 -0.1869 0.1013
vn 0.9771 -0.1869 0.1013
vn -0.9108 -0.0000 0.4128
vt 0.779314 0.773293
vt 0.881461 0.889314
vt 0.779339 0.889340
vt 0.236386 0.781809
vt 0.289327 0.797848
vt 0.236400 0.797858
vt 0.337094 0.815309
vt 0.439283 0.941351
vt 0.337076 0.915798
vt 0.610502 0.572907
vt 0.481839 0.751753
vt 0.481822 0.597267
vt 0.670904 0.933807
vt 0.773051 0.817787
vt 0.773026 0.933834
vt 0.236386 0.690816
vt 0.289327 0.674777
vt 0.289313 0.690826
vt 0.118276 0.823589
vt 0.182883 0.798298
vt 0.183809 0.886338
vt 0.114510 0.825992
vt 0.186648 0.892599
vt 0.117866 0.802583
vt 0.186648 0.794938
vt 0.471479 0.600076
vt 0.340956 0.779363
vt 0.340864 0.577049
vt 0.337076 0.572907
vt 0.475560 0.596903
vt 0.470603 0.757344
vt 0.474565 0.760564
vt 0.337076 0.783507
vt 0.485927 0.912316
vt 0.590226 0.786697
vt 0.590327 0.936813
vt 0.481822 0.915623
vt 0.594032 0.941028
vt 0.486787 0.809213
vt 0.482922 0.805992
vt 0.594032 0.782364
vt 0.071504 0.890652
vt 0.006898 0.865362
vt 0.072430 0.802612
vt 0.006488 0.886367
vt 0.075270 0.894013
vt 0.003131 0.862959
vt 0.008900 0.882241
vt 0.075270 0.796352
vt 0.890749 0.683475
vt 0.783825 0.564006
vt 0.891410 0.494515
vt 0.784630 0.687632
vt 0.894788 0.686793
vt 0.779314 0.561448
vt 0.894788 0.489062
vt 0.118781 0.713698
vt 0.225909 0.594648
vt 0.226887 0.783126
vt 0.114510 0.715983
vt 0.230123 0.788675
vt 0.123410 0.593787
vt 0.119774 0.590058
vt 0.230123 0.591156
vt 0.881461 0.693895
vt 0.289327 0.697089
vt 0.439283 0.789769
vt 0.610502 0.776101
vt 0.670904 0.738388
vt 0.236386 0.590058
vt 0.120279 0.806710
vt 0.788278 0.683751
s 0
usemtl Material
f 22/1/1 24/2/1 23/3/1
f 10/4/2 12/5/2 11/6/2
f 6/7/3 8/8/3 7/9/3
f 13/10/4 15/11/4 14/12/4
f 17/13/5 19/14/5 18/15/5
f 2/16/6 4/17/6 1/18/6
f 26/19/7 28/20/7 25/21/7
f 10/22/8 25/21/8 9/23/8
f 11/24/9 26/19/9 10/22/9
f 28/20/10 11/24/10 12/25/10
f 9/23/11 28/20/11 12/25/11
f 30/26/12 32/27/12 29/28/12
f 30/26/13 13/29/13 14/30/13
f 31/31/14 14/30/14 15/32/14
f 16/33/15 31/31/15 15/32/15
f 29/28/16 16/33/16 13/29/16
f 34/34/17 36/35/17 33/36/17
f 6/37/18 33/36/18 5/38/18
f 35/39/19 6/37/19 7/40/19
f 36/35/20 7/40/20 8/41/20
f 33/36/21 8/41/21 5/38/21
f 37/42/22 39/43/22 40/44/22
f 1/45/10 37/42/10 2/46/10
f 4/47/23 38/48/23 1/45/23
f 40/44/24 4/47/24 3/49/24
f 37/42/25 3/49/25 2/46/25
f 41/50/26 43/51/26 44/52/26
f 18/53/10 41/50/10 17/54/10
f 43/51/27 18/53/27 19/55/27
f 44/52/28 19/55/28 20/56/28
f 41/50/29 20/56/29 17/54/29
f 46/57/30 48/58/30 45/59/30
f 22/60/31 45/59/31 21/61/31
f 47/62/32 22/60/32 23/63/32
f 48/58/10 23/63/10 24/64/10
f 45/59/33 24/64/33 21/61/33
f 22/1/1 21/65/1 24/2/1
f 10/4/34 9/66/34 12/5/34
f 6/7/3 5/67/3 8/8/3
f 13/10/4 16/68/4 15/11/4
f 17/13/5 20/69/5 19/14/5
f 2/16/35 3/70/35 4/17/35
f 26/19/36 27/71/36 28/20/36
f 10/22/8 26/19/8 25/21/8
f 11/24/9 27/71/9 26/19/9
f 28/20/10 27/71/10 11/24/10
f 9/23/11 25/21/11 28/20/11
f 30/26/12 31/31/12 32/27/12
f 30/26/37 29/28/37 13/29/37
f 31/31/14 30/26/14 14/30/14
f 16/33/38 32/27/38 31/31/38
f 29/28/16 32/27/16 16/33/16
f 34/34/17 35/39/17 36/35/17
f 6/37/39 34/34/39 33/36/39
f 35/39/19 34/34/19 6/37/19
f 36/35/40 35/39/40 7/40/40
f 33/36/21 36/35/21 8/41/21
f 37/42/41 38/48/41 39/43/41
f 1/45/10 38/48/10 37/42/10
f 4/47/23 39/43/23 38/48/23
f 40/44/24 39/43/24 4/47/24
f 37/42/25 40/44/25 3/49/25
f 41/50/26 42/72/26 43/51/26
f 18/53/10 42/72/10 41/50/10
f 43/51/27 42/72/27 18/53/27
f 44/52/28 43/51/28 19/55/28
f 41/50/29 44/52/29 20/56/29
f 46/57/30 47/62/30 48/58/30
f 22/60/31 46/57/31 45/59/31
f 47/62/32 46/57/32 22/60/32
f 48/58/10 47/62/10 23/63/10
f 45/59/33 48/58/33 24/64/33
