# Blender 5.1.2
# www.blender.org
mtllib cockpit.mtl
o Cube
v 0.000000 2.000000 0.000000
v 2.000000 2.000000 0.000000
v 0.000000 0.100000 0.000000
v 2.000000 0.100000 0.000000
v 0.477184 0.285710 1.955695
v 0.549835 0.250165 2.000000
v 0.538906 0.343564 1.975798
v 1.461094 0.343564 1.975798
v 1.450165 0.250165 2.000000
v 1.522816 0.285710 1.955695
v 0.549835 0.100000 2.000000
v 0.477184 0.100000 1.955695
v 1.522816 0.100000 1.955695
v 1.450165 0.100000 2.000000
v 0.011745 1.898131 0.548431
v 0.060158 1.968868 0.538915
v 1.939842 1.968868 0.538915
v 1.988255 1.898131 0.548431
v 1.988255 0.100000 0.548431
v 0.011745 0.100000 0.548431
v 0.306345 1.156436 1.524202
v 0.283796 1.231132 1.461085
v 0.230767 1.175621 1.451569
v 0.265328 1.026211 1.544305
v 1.716205 1.231132 1.461085
v 1.693655 1.156436 1.524202
v 1.734672 1.026211 1.544305
v 1.769233 1.175620 1.451569
v 1.769233 0.100000 1.451569
v 1.734672 0.100000 1.544305
v 0.265328 0.100000 1.544305
v 0.230767 0.100000 1.451569
v 2.050000 2.050000 0.000000
v -0.050000 2.050000 0.000000
v 2.050000 0.100000 0.000000
v -0.050000 0.100000 0.000000
v -0.050000 2.050000 0.450165
v -0.037668 1.943037 0.536688
v 0.013166 2.017312 0.527171
v 2.050000 2.050000 0.450165
v 1.986834 2.017312 0.527171
v 2.037668 1.943037 0.536688
v 2.050000 0.100000 0.450165
v 2.037668 0.100000 0.536688
v -0.037668 0.100000 0.536688
v -0.050000 0.100000 0.450165
v 0.305857 0.170409 1.547279
v 0.498302 0.170409 1.920974
v 0.498302 0.289583 1.920974
v 0.305857 0.962235 1.547279
v 0.369902 1.102359 1.514583
v 0.581154 0.363966 1.924802
v 1.418846 0.363966 1.924802
v 1.630098 1.102359 1.514583
v 1.694143 0.962235 1.547279
v 1.501698 0.289583 1.920974
v 1.501698 0.170409 1.920974
v 1.694143 0.170409 1.547279
v 0.146272 1.907997 0.559503
v 0.349418 1.237857 1.397180
v 1.650582 1.237856 1.397180
v 1.853729 1.907997 0.559503
v 0.055473 0.170409 0.581635
v 0.254427 0.170409 1.402022
v 0.254427 1.138312 1.402022
v 0.055473 1.794622 0.581635
v 1.944527 1.794622 0.581635
v 1.745573 1.138312 1.402022
v 1.745573 0.170409 1.402022
v 1.944527 0.170409 0.581635
v 0.073192 1.926808 0.060513
v 1.926808 1.926808 0.060513
v 0.073192 0.073192 0.060513
v 1.926808 0.073192 0.060513
v 1.886411 1.843932 0.543455
v 0.113589 1.843932 0.543455
v 1.886411 0.073192 0.543455
v 0.113589 0.073192 0.543455
v 1.702281 1.159728 1.405645
v 0.297719 1.159728 1.405645
v 1.702281 0.073192 1.405645
v 0.297719 0.073192 1.405645
v 1.431260 0.315431 1.927744
v 0.568740 0.315431 1.927744
v 1.431260 0.073192 1.927744
v 0.568740 0.073192 1.927744
v -0.000000 0.000000 0.000000
v 2.000000 0.000000 0.000000
v 1.988255 0.000000 0.548431
v 2.037668 0.000000 0.536688
v -0.050000 0.000000 0.000000
v -0.000000 0.000000 0.450165
v -0.050000 0.000000 0.450165
v 2.000000 0.000000 0.450165
v 0.011745 0.000000 0.548431
v 1.769233 0.000000 1.451569
v 1.734672 0.000000 1.544305
v 0.265328 0.000000 1.544305
v 0.230767 0.000000 1.451569
v 1.450165 0.000000 2.000000
v 1.522816 0.000000 1.955695
v 0.477184 0.000000 1.955695
v 0.549835 0.000000 2.000000
v 2.050000 0.000000 0.450165
v 2.050000 0.000000 0.000000
v -0.037668 0.000000 0.536688
v 0.627524 0.073192 0.232103
v 0.689322 0.073192 0.170305
v 1.372476 0.073192 0.232103
v 1.310678 0.073192 0.170305
v 0.627524 0.073192 1.658502
v 1.372476 0.073192 1.658502
v 0.689322 0.073192 1.720299
v 1.310678 0.073192 1.720299
v 0.627524 0.000000 1.658502
v 0.689322 0.000000 1.720299
v 1.372476 0.000000 1.658502
v 1.310678 0.000000 1.720299
v 0.627524 0.000000 0.232103
v 0.689322 0.000000 0.170305
v 1.310678 0.000000 0.170305
v 1.372476 0.000000 0.232103
vn -0.0000 -0.0000 -1.0000
vn -0.4490 0.1745 0.8763
vn 0.4490 0.1745 0.8763
vn -0.0000 -0.0000 1.0000
vn 0.9718 -0.0000 0.2357
vn -0.6180 0.3064 0.7240
vn 0.5696 0.4233 0.7045
vn -1.0000 -0.0000 -0.0000
vn -0.8890 -0.0000 0.4578
vn -0.5313 0.2902 0.7960
vn -0.0000 0.2508 0.9680
vn 0.5207 -0.0000 0.8538
vn -0.5207 -0.0000 0.8538
vn 0.6416 0.5155 0.5680
vn 0.2312 -0.0000 0.9729
vn -0.6416 0.5155 0.5680
vn 0.5313 0.2902 0.7960
vn -0.9370 -0.0000 0.3492
vn 0.9370 -0.0000 0.3492
vn -0.0000 0.6454 0.7638
vn -0.9718 -0.0000 0.2357
vn -0.0000 0.2356 0.9719
vn -0.9900 -0.0000 0.1411
vn -0.5701 0.4760 0.6697
vn 0.5701 0.4760 0.6697
vn 0.9900 -0.0000 0.1411
vn -0.0000 0.9205 0.3907
vn -0.0000 1.0000 -0.0000
vn 1.0000 -0.0000 -0.0000
vn -0.2312 -0.0000 0.9729
vn 0.0679 0.1724 0.9827
vn -0.0698 0.1798 0.9812
vn -0.7976 0.4418 0.4107
vn -0.8544 -0.0000 -0.5197
vn -0.7239 -0.4816 -0.4940
vn -0.0732 -0.0000 0.9973
vn 0.5431 0.5211 0.6584
vn -0.0000 0.9285 0.3715
vn -0.5431 0.5211 0.6584
vn -0.0000 -0.1751 0.9845
vn 0.7239 -0.4816 -0.4940
vn 0.8544 -0.0000 -0.5197
vn 0.7976 0.4418 0.4107
vn 0.0732 -0.0000 0.9973
vn 0.4144 0.7571 0.5052
vn -0.0000 0.9945 0.1046
vn -0.4144 0.7571 0.5052
vn -0.0000 0.3204 0.9473
vn -0.8719 0.4418 0.2114
vn -0.9024 -0.0000 -0.4309
vn -0.9011 -0.4178 -0.1157
vn -0.6047 -0.0000 0.7964
vn 0.9011 -0.4178 -0.1157
vn 0.9024 -0.0000 -0.4309
vn 0.8719 0.4418 0.2114
vn 0.6047 -0.0000 0.7964
vn -0.5491 -0.0000 0.8358
vn -0.0000 -0.9856 -0.1691
vn 0.9965 -0.0000 -0.0834
vn -0.9965 -0.0000 -0.0834
vn 0.5491 -0.0000 0.8358
vn -0.0000 -0.2430 0.9700
vn -0.0000 -0.8848 -0.4660
vn 0.9984 -0.0000 -0.0574
vn -0.9984 -0.0000 -0.0574
vn -0.0000 -1.0000 -0.0000
vn 0.8890 -0.0000 0.4578
vn -0.8137 0.5547 -0.1738
vn -0.0834 -0.0000 -0.9965
vn -0.3856 -0.6726 -0.6316
vn -0.7621 0.5126 -0.3956
vn -0.0957 -0.0000 -0.9954
vn -0.2379 -0.4188 -0.8764
vn -0.8351 -0.3126 -0.4526
vn -0.0000 -0.1077 -0.9942
vn 0.6720 -0.5035 -0.5431
vn 0.2131 -0.7427 -0.6349
vn 0.0834 -0.0000 -0.9965
vn 0.8947 0.3904 -0.2170
vn -0.2740 -0.5679 -0.7761
vn 0.0957 -0.0000 -0.9954
vn 0.7582 0.5222 -0.3905
vn -0.8024 -0.1056 -0.5873
vn -0.0000 -0.0605 -0.9982
vn 0.6590 -0.2123 -0.7215
vn 0.7071 -0.0000 0.7071
vn 0.7071 -0.0000 -0.7071
vn -0.7071 -0.0000 0.7071
vn -0.7071 -0.0000 -0.7071
vn -0.5696 0.4233 0.7045
vn 0.6180 0.3064 0.7240
vn 0.0698 0.1798 0.9812
vn -0.0679 0.1724 0.9827
vn -0.8947 0.3904 -0.2170
vn -0.2131 -0.7427 -0.6349
vn -0.7582 0.5222 -0.3905
vn 0.2740 -0.5679 -0.7761
vn -0.6720 -0.5035 -0.5431
vn 0.8351 -0.3126 -0.4526
vn 0.3856 -0.6726 -0.6316
vn 0.8137 0.5547 -0.1738
vn 0.2379 -0.4188 -0.8764
vn 0.7621 0.5126 -0.3956
vn -0.6590 -0.2123 -0.7215
vn 0.8024 -0.1056 -0.5873
vt 0.400557 0.282587
vt 0.621617 0.496418
vt 0.408894 0.502477
vt 0.583529 0.013732
vt 0.573708 0.018206
vt 0.575367 0.006967
vt 0.461875 0.003131
vt 0.462546 0.014492
vt 0.453190 0.009067
vt 0.403811 0.508428
vt 0.572974 0.035533
vt 0.462926 0.043124
vt 0.461906 0.031887
vt 0.620564 0.283341
vt 0.623875 0.275007
vt 0.626223 0.282294
vt 0.401454 0.102303
vt 0.363047 0.232450
vt 0.337076 0.248734
vt 0.158805 0.390296
vt 0.165649 0.396063
vt 0.144479 0.399019
vt 0.162535 0.190227
vt 0.169425 0.184790
vt 0.173602 0.192541
vt 0.663568 0.248977
vt 0.675775 0.259738
vt 0.621931 0.094008
vt 0.579337 0.050613
vt 0.586260 0.040696
vt 0.003131 0.372201
vt 0.447872 0.036257
vt 0.324772 0.184485
vt 0.627021 0.502001
vt 0.341401 0.538711
vt 0.342358 0.252614
vt 0.348598 0.541873
vt 0.358745 0.240099
vt 0.323553 0.405100
vt 0.169492 0.388681
vt 0.330813 0.397639
vt 0.148338 0.180995
vt 0.003194 0.201636
vt 0.007650 0.167338
vt 0.114760 0.538062
vt 0.104337 0.529750
vt 0.129732 0.039036
vt 0.628354 0.107252
vt 0.663174 0.234612
vt 0.617493 0.111774
vt 0.611560 0.100030
vt 0.394869 0.281510
vt 0.369865 0.566645
vt 0.658749 0.559463
vt 0.655193 0.566645
vt 0.454605 0.046224
vt 0.667845 0.242203
vt 0.684628 0.253944
vt 0.678195 0.542200
vt 0.664904 0.549217
vt 0.366723 0.559407
vt 0.361375 0.549109
vt 0.351303 0.258696
vt 0.362919 0.246678
vt 0.685486 0.539328
vt 0.689873 0.250181
vt 0.018799 0.456288
vt 0.013644 0.466315
vt 0.004243 0.404547
vt 0.135679 0.403099
vt 0.103702 0.516693
vt 0.152771 0.383325
vt 0.009877 0.213236
vt 0.156036 0.196794
vt 0.139816 0.176439
vt 0.027198 0.115264
vt 0.022898 0.104728
vt 0.116569 0.060429
vt 0.118252 0.047165
vt 0.323139 0.388501
vt 0.180574 0.202190
vt 0.322899 0.200654
vt 0.330813 0.191911
vt 0.123791 0.532343
vt 0.250465 0.583795
vt 0.312080 0.412478
vt 0.314196 0.176643
vt 0.138380 0.045291
vt 0.264047 0.012594
vt 0.267979 0.003131
vt 0.946434 0.053779
vt 0.746709 0.262731
vt 0.746982 0.044548
vt 0.304126 0.170608
vt 0.696136 0.003131
vt 0.996869 0.003131
vt 0.950470 0.268762
vt 0.301378 0.417881
vt 0.247351 0.573987
vt 0.237524 0.562075
vt 0.314786 0.205733
vt 0.314639 0.383091
vt 0.030278 0.233988
vt 0.014368 0.356973
vt 0.013955 0.217286
vt 0.142869 0.371605
vt 0.096530 0.497935
vt 0.107971 0.078751
vt 0.121119 0.160106
vt 0.657494 0.242996
vt 0.464658 0.242531
vt 0.400660 0.272079
vt 0.368430 0.241058
vt 0.620525 0.272929
vt 0.557028 0.242730
vt 0.571486 0.046615
vt 0.476298 0.076031
vt 0.397063 0.274217
vt 0.419150 0.095537
vt 0.409318 0.089075
vt 0.412688 0.107260
vt 0.146488 0.050434
vt 0.253277 0.023796
vt 0.177375 0.172789
vt 0.173304 0.177384
vt 0.032648 0.123426
vt 0.024379 0.148579
vt 0.014323 0.159257
vt 0.185353 0.371543
vt 0.190011 0.211093
vt 0.176540 0.379729
vt 0.172902 0.408363
vt 0.169124 0.403572
vt 0.132514 0.527848
vt 0.018690 0.422831
vt 0.115816 0.418142
vt 0.009889 0.412215
vt 0.024919 0.448546
vt 0.144270 0.207994
vt 0.010476 0.361250
vt 0.099687 0.774418
vt 0.094229 0.790089
vt 0.092350 0.781427
vt 0.094349 0.590058
vt 0.099714 0.605726
vt 0.092460 0.598715
vt 0.016943 0.789859
vt 0.011693 0.774370
vt 0.018921 0.781393
vt 0.011715 0.605696
vt 0.017001 0.590206
vt 0.018963 0.598676
vt 0.108247 0.775021
vt 0.108247 0.605118
vt 0.003131 0.774971
vt 0.003182 0.605085
vt 0.555657 0.078056
vt 0.564076 0.085261
vt 0.467409 0.082703
vt 0.547969 0.250371
vt 0.474632 0.250391
vt 0.885011 0.282462
vt 0.811984 0.279776
vt 0.800690 0.287841
vt 0.751657 0.414462
vt 0.935457 0.420740
vt 0.894007 0.290868
vt 0.794446 0.447558
vt 0.787750 0.479212
vt 0.890431 0.450707
vt 0.894439 0.482799
vt 0.881751 0.457746
vt 0.802524 0.455041
vt 0.993305 0.303061
vt 0.703644 0.295708
vt 0.032004 0.340428
s 0
usemtl Material
f 4/1/1 1/2/1 2/3/1
f 5/4/2 6/5/2 7/6/2
f 8/7/3 9/8/3 10/9/3
f 1/2/1 33/10/1 2/3/1
f 11/11/4 100/12/4 14/13/4
f 3/14/1 91/15/1 36/16/1
f 29/17/5 89/18/5 19/19/5
f 21/20/6 23/21/6 24/22/6
f 26/23/7 28/24/7 25/25/7
f 36/16/8 93/26/8 46/27/8
f 31/28/9 102/29/9 12/30/9
f 24/22/10 7/31/10 21/20/10
f 9/8/11 7/6/11 6/5/11
f 9/8/12 13/32/12 10/9/12
f 6/5/13 12/30/13 11/11/13
f 18/33/14 25/25/14 28/24/14
f 1/2/1 36/16/1 34/34/1
f 18/35/15 44/36/15 42/37/15
f 19/19/15 90/38/15 44/36/15
f 15/39/16 22/40/16 16/41/16
f 27/42/17 8/43/17 10/44/17
f 24/22/18 32/45/18 31/46/18
f 27/42/19 29/47/19 28/24/19
f 26/23/20 22/40/20 21/20/20
f 9/8/4 11/11/4 14/13/4
f 32/48/21 95/49/21 99/50/21
f 32/48/18 98/51/18 31/28/18
f 2/3/1 35/52/1 4/1/1
f 17/53/22 39/54/22 16/55/22
f 14/13/12 101/56/12 13/32/12
f 46/27/23 106/57/23 45/58/23
f 38/59/24 39/54/24 37/60/24
f 41/61/25 42/37/25 40/62/25
f 38/59/23 46/27/23 45/58/23
f 42/37/26 43/63/26 40/62/26
f 41/61/27 37/60/27 39/54/27
f 37/60/28 33/10/28 34/34/28
f 46/27/8 34/34/8 36/16/8
f 40/62/29 35/52/29 33/10/29
f 44/36/26 104/64/26 43/63/26
f 15/65/30 45/58/30 20/66/30
f 17/53/31 42/37/31 41/61/31
f 16/55/32 38/59/32 15/65/32
f 48/67/33 31/46/33 12/68/33
f 5/69/34 48/67/34 12/68/34
f 50/70/35 5/69/35 24/22/35
f 47/71/36 24/22/36 31/46/36
f 7/31/37 51/72/37 21/20/37
f 53/73/38 7/31/38 8/43/38
f 54/74/39 8/43/39 26/23/39
f 21/20/40 54/74/40 26/23/40
f 10/44/41 55/75/41 27/42/41
f 57/76/42 10/44/42 13/77/42
f 58/78/43 13/77/43 30/79/43
f 27/42/44 58/78/44 30/79/44
f 22/40/45 59/80/45 16/41/45
f 61/81/46 22/40/46 25/25/46
f 62/82/47 25/25/47 17/83/47
f 16/41/48 62/82/48 17/83/48
f 64/84/49 20/85/49 32/45/49
f 23/21/50 64/84/50 32/45/50
f 66/86/51 23/21/51 15/39/51
f 20/85/52 66/86/52 15/39/52
f 28/24/53 67/87/53 18/33/53
f 69/88/54 28/24/54 29/47/54
f 70/89/55 29/47/55 19/90/55
f 67/87/56 19/90/56 18/33/56
f 71/91/4 74/92/4 72/93/4
f 75/94/57 70/89/57 67/87/57
f 75/95/58 71/91/58 72/93/58
f 76/96/59 73/97/59 71/91/59
f 74/92/60 75/95/60 72/93/60
f 76/98/61 63/99/61 78/100/61
f 75/101/62 59/80/62 76/102/62
f 85/103/1 84/104/1 83/105/1
f 80/106/63 54/74/63 51/72/63
f 82/107/64 50/70/64 47/71/64
f 81/108/65 55/75/65 79/109/65
f 92/110/66 106/57/66 93/26/66
f 122/111/66 88/112/66 94/113/66
f 87/114/66 119/115/66 95/49/66
f 103/116/66 118/117/66 100/12/66
f 118/117/66 101/56/66 100/12/66
f 92/110/66 91/15/66 87/114/66
f 88/112/66 104/64/66 94/113/66
f 94/113/66 90/38/66 89/18/66
f 12/30/13 103/116/13 11/11/13
f 43/63/29 105/118/29 35/52/29
f 4/1/1 105/118/1 88/112/1
f 13/32/67 97/119/67 30/120/67
f 20/66/30 106/57/30 95/49/30
f 30/120/19 96/121/19 29/17/19
f 4/1/1 87/114/1 3/14/1
f 81/122/68 70/89/68 77/123/68
f 79/124/69 69/88/69 81/122/69
f 79/124/70 67/87/70 68/125/70
f 85/126/71 58/78/71 81/108/71
f 83/127/72 57/76/72 85/126/72
f 83/127/73 55/75/73 56/128/73
f 75/101/74 61/81/74 62/82/74
f 80/129/75 61/81/75 79/130/75
f 76/102/76 60/131/76 80/129/76
f 80/132/77 66/86/77 76/98/77
f 80/132/78 64/84/78 65/133/78
f 82/134/79 63/99/79 64/84/79
f 84/135/80 50/70/80 80/136/80
f 84/135/81 48/67/81 49/137/81
f 86/138/82 47/71/82 48/67/82
f 83/105/83 54/74/83 79/139/83
f 84/104/84 53/73/84 83/105/84
f 84/104/85 51/72/85 52/140/85
f 107/141/86 120/142/86 108/143/86
f 116/144/87 111/145/87 113/146/87
f 121/147/88 109/148/88 110/149/88
f 112/150/89 118/151/89 114/152/89
f 110/149/4 120/142/4 121/147/4
f 119/153/29 111/145/29 115/154/29
f 114/152/1 116/144/1 113/146/1
f 112/150/8 122/155/8 117/156/8
f 116/157/66 102/29/66 115/158/66
f 97/119/66 117/159/66 96/121/66
f 98/51/66 115/158/66 102/29/66
f 99/50/66 119/115/66 115/158/66
f 96/121/66 122/111/66 89/18/66
f 120/160/66 88/112/66 121/161/66
f 74/92/28 108/162/28 110/163/28
f 74/92/28 109/164/28 81/165/28
f 82/166/28 107/167/28 73/97/28
f 112/168/28 85/169/28 81/165/28
f 111/170/28 86/171/28 113/172/28
f 86/171/28 114/173/28 113/172/28
f 4/1/1 3/14/1 1/2/1
f 1/2/1 34/34/1 33/10/1
f 11/11/4 103/116/4 100/12/4
f 3/14/1 87/114/1 91/15/1
f 29/17/5 96/121/5 89/18/5
f 21/20/90 22/40/90 23/21/90
f 26/23/91 27/42/91 28/24/91
f 36/16/8 91/15/8 93/26/8
f 31/28/9 98/51/9 102/29/9
f 24/22/10 5/69/10 7/31/10
f 9/8/11 8/7/11 7/6/11
f 9/8/12 14/13/12 13/32/12
f 6/5/13 5/4/13 12/30/13
f 18/33/14 17/83/14 25/25/14
f 1/2/1 3/14/1 36/16/1
f 18/35/15 19/19/15 44/36/15
f 19/19/15 89/18/15 90/38/15
f 15/39/16 23/21/16 22/40/16
f 27/42/17 26/23/17 8/43/17
f 24/22/18 23/21/18 32/45/18
f 27/42/19 30/79/19 29/47/19
f 26/23/20 25/25/20 22/40/20
f 9/8/4 6/5/4 11/11/4
f 32/48/21 20/66/21 95/49/21
f 32/48/18 99/50/18 98/51/18
f 2/3/1 33/10/1 35/52/1
f 17/53/22 41/61/22 39/54/22
f 14/13/12 100/12/12 101/56/12
f 46/27/23 93/26/23 106/57/23
f 38/59/23 37/60/23 46/27/23
f 42/37/26 44/36/26 43/63/26
f 41/61/27 40/62/27 37/60/27
f 37/60/28 40/62/28 33/10/28
f 46/27/8 37/60/8 34/34/8
f 40/62/29 43/63/29 35/52/29
f 44/36/26 90/38/26 104/64/26
f 15/65/30 38/59/30 45/58/30
f 17/53/92 18/35/92 42/37/92
f 16/55/93 39/54/93 38/59/93
f 48/67/33 47/71/33 31/46/33
f 5/69/34 49/137/34 48/67/34
f 50/70/35 49/137/35 5/69/35
f 47/71/36 50/70/36 24/22/36
f 7/31/37 52/140/37 51/72/37
f 53/73/38 52/140/38 7/31/38
f 54/74/39 53/73/39 8/43/39
f 21/20/40 51/72/40 54/74/40
f 10/44/41 56/128/41 55/75/41
f 57/76/42 56/128/42 10/44/42
f 58/78/43 57/76/43 13/77/43
f 27/42/44 55/75/44 58/78/44
f 22/40/45 60/131/45 59/80/45
f 61/81/46 60/131/46 22/40/46
f 62/82/47 61/81/47 25/25/47
f 16/41/48 59/80/48 62/82/48
f 64/84/49 63/99/49 20/85/49
f 23/21/50 65/133/50 64/84/50
f 66/86/51 65/133/51 23/21/51
f 20/85/52 63/99/52 66/86/52
f 28/24/53 68/125/53 67/87/53
f 69/88/54 68/125/54 28/24/54
f 70/89/55 69/88/55 29/47/55
f 67/87/56 70/89/56 19/90/56
f 71/91/4 73/97/4 74/92/4
f 75/94/57 77/123/57 70/89/57
f 75/95/58 76/96/58 71/91/58
f 76/96/59 78/174/59 73/97/59
f 74/92/60 77/175/60 75/95/60
f 76/98/61 66/86/61 63/99/61
f 75/101/62 62/82/62 59/80/62
f 85/103/1 86/176/1 84/104/1
f 80/106/63 79/139/63 54/74/63
f 82/107/64 80/136/64 50/70/64
f 81/108/65 58/78/65 55/75/65
f 92/110/66 95/49/66 106/57/66
f 94/113/66 89/18/66 122/111/66
f 122/111/66 121/161/66 88/112/66
f 95/49/66 92/110/66 87/114/66
f 87/114/66 120/160/66 119/115/66
f 103/116/66 116/157/66 118/117/66
f 118/117/66 117/159/66 101/56/66
f 92/110/66 93/26/66 91/15/66
f 88/112/66 105/118/66 104/64/66
f 94/113/66 104/64/66 90/38/66
f 12/30/13 102/29/13 103/116/13
f 43/63/29 104/64/29 105/118/29
f 4/1/1 35/52/1 105/118/1
f 13/32/67 101/56/67 97/119/67
f 20/66/30 45/58/30 106/57/30
f 30/120/19 97/119/19 96/121/19
f 4/1/1 88/112/1 87/114/1
f 81/122/94 69/88/94 70/89/94
f 79/124/69 68/125/69 69/88/69
f 79/124/95 75/94/95 67/87/95
f 85/126/96 57/76/96 58/78/96
f 83/127/72 56/128/72 57/76/72
f 83/127/97 79/109/97 55/75/97
f 75/101/98 79/130/98 61/81/98
f 80/129/75 60/131/75 61/81/75
f 76/102/99 59/80/99 60/131/99
f 80/132/100 65/133/100 66/86/100
f 80/132/78 82/134/78 64/84/78
f 82/134/101 78/100/101 63/99/101
f 84/135/102 49/137/102 50/70/102
f 84/135/81 86/138/81 48/67/81
f 86/138/103 82/107/103 47/71/103
f 83/105/104 53/73/104 54/74/104
f 84/104/84 52/140/84 53/73/84
f 84/104/105 80/106/105 51/72/105
f 107/141/86 119/153/86 120/142/86
f 116/144/87 115/154/87 111/145/87
f 121/147/88 122/155/88 109/148/88
f 112/150/89 117/156/89 118/151/89
f 110/149/4 108/143/4 120/142/4
f 119/153/29 107/141/29 111/145/29
f 114/152/1 118/151/1 116/144/1
f 112/150/8 109/148/8 122/155/8
f 116/157/66 103/116/66 102/29/66
f 97/119/66 101/56/66 117/159/66
f 98/51/66 99/50/66 115/158/66
f 99/50/66 95/49/66 119/115/66
f 96/121/66 117/159/66 122/111/66
f 120/160/66 87/114/66 88/112/66
f 74/92/28 73/97/28 108/162/28
f 81/165/28 77/175/28 74/92/28
f 74/92/28 110/163/28 109/164/28
f 109/164/28 112/168/28 81/165/28
f 73/97/28 78/174/28 82/166/28
f 82/166/28 111/170/28 107/167/28
f 107/167/28 108/162/28 73/97/28
f 112/168/28 114/173/28 85/169/28
f 111/170/28 82/166/28 86/171/28
f 86/171/28 85/169/28 114/173/28
o Cube.002
v 0.538544 0.159907 1.915210
v 0.333922 0.159907 1.517866
v 0.333922 1.010589 1.517866
v 0.538544 0.295370 1.915210
v 0.360084 1.091619 1.476603
v 0.575866 0.337393 1.895617
v 1.424134 0.337393 1.895617
v 1.639916 1.091619 1.476603
v 1.666079 1.010589 1.517866
v 1.461456 0.295370 1.915210
v 1.461456 0.159907 1.915210
v 1.666079 0.159907 1.517866
v 0.142217 1.882232 0.530214
v 0.347930 1.203625 1.378472
v 1.652070 1.203625 1.378472
v 1.857783 1.882232 0.530214
v 0.090672 0.159907 0.563775
v 0.293897 0.159907 1.401775
v 0.293897 1.139477 1.401775
v 0.090672 1.809878 0.563775
v 1.909328 1.809878 0.563775
v 1.706103 1.139477 1.401775
v 1.706103 0.159907 1.401775
v 1.909328 0.159907 0.563775
v 1.700119 1.010589 1.535396
v 1.495496 0.295370 1.932740
v 1.495496 0.159907 1.932741
v 1.700119 0.159907 1.535396
v 0.142217 1.912131 0.554133
v 0.347930 1.233524 1.402391
v 1.652070 1.233524 1.402391
v 1.857783 1.912131 0.554133
v 0.360084 1.110214 1.510074
v 0.575866 0.355987 1.929088
v 1.424134 0.355987 1.929088
v 1.639916 1.110214 1.510074
v 0.299881 0.159907 1.535396
v 0.504504 0.159907 1.932740
v 0.504504 0.295370 1.932740
v 0.299881 1.010589 1.535396
v 0.053461 0.159907 0.572799
v 0.256686 0.159907 1.410799
v 0.256686 1.139477 1.410799
v 0.053461 1.809878 0.572799
v 1.946539 1.809877 0.572799
v 1.743314 1.139477 1.410799
v 1.743314 0.159907 1.410799
v 1.946539 0.159907 0.572799
vn -0.9718 -0.0000 -0.2357
vn -0.8890 -0.0000 -0.4578
vn -0.0000 -0.4856 -0.8742
vn -0.0000 -0.7809 -0.6247
vn 0.9718 -0.0000 -0.2357
vn 0.8890 -0.0000 -0.4578
vn 0.8890 -0.0000 0.4578
vn -0.3883 0.5299 0.7539
vn -0.4578 -0.0000 0.8890
vn -0.0000 -1.0000 -0.0000
vn 0.4578 -0.0000 -0.8890
vn -0.0000 0.7809 0.6247
vn -0.9825 -0.1162 0.1453
vn -0.0000 -0.6247 0.7809
vn 0.9825 -0.1162 0.1453
vn -0.0000 0.6247 -0.7809
vn -0.0000 0.4856 0.8742
vn -0.9701 -0.2121 0.1178
vn -0.0000 -0.8742 0.4856
vn 0.9701 -0.2121 0.1178
vn -0.0000 0.8742 -0.4856
vn -0.8890 -0.0000 0.4578
vn 0.4578 -0.0000 0.8890
vn 0.3883 0.5299 0.7539
vn -0.4578 -0.0000 -0.8890
vn -0.9718 -0.0000 0.2357
vn 0.2357 -0.0000 0.9718
vn 0.1447 0.7895 0.5965
vn -0.2357 -0.0000 -0.9718
vn 0.9718 -0.0000 0.2357
vn -0.1447 0.7895 0.5965
vn -0.2357 -0.0000 0.9718
vn 0.2357 -0.0000 -0.9718
vt 0.779314 0.773293
vt 0.881461 0.889314
vt 0.779339 0.889340
vt 0.236386 0.781809
vt 0.289327 0.797848
vt 0.236400 0.797858
vt 0.439283 0.789769
vt 0.337076 0.915798
vt 0.337094 0.815309
vt 0.610502 0.572907
vt 0.481839 0.751753
vt 0.481822 0.597267
vt 0.670904 0.933807
vt 0.773051 0.817787
vt 0.773026 0.933834
vt 0.236386 0.690816
vt 0.289327 0.674777
vt 0.289313 0.690826
vt 0.118276 0.823589
vt 0.182883 0.798298
vt 0.183809 0.886338
vt 0.114510 0.825992
vt 0.186648 0.892599
vt 0.117866 0.802583
vt 0.186648 0.794938
vt 0.471479 0.600076
vt 0.340956 0.779363
vt 0.340864 0.577049
vt 0.475560 0.596903
vt 0.337076 0.572907
vt 0.470603 0.757344
vt 0.474565 0.760564
vt 0.337076 0.783507
vt 0.485927 0.912316
vt 0.590226 0.786697
vt 0.590327 0.936813
vt 0.481822 0.915623
vt 0.594032 0.941028
vt 0.486787 0.809213
vt 0.482922 0.805992
vt 0.594032 0.782364
vt 0.071504 0.890652
vt 0.006898 0.865362
vt 0.072430 0.802612
vt 0.008900 0.882241
vt 0.075270 0.894013
vt 0.006488 0.886367
vt 0.003131 0.862959
vt 0.075270 0.796352
vt 0.890749 0.683475
vt 0.783825 0.564006
vt 0.891410 0.494515
vt 0.784630 0.687632
vt 0.894788 0.686793
vt 0.779314 0.561448
vt 0.894788 0.489062
vt 0.118781 0.713698
vt 0.225909 0.594648
vt 0.226887 0.783126
vt 0.230123 0.788675
vt 0.114510 0.715983
vt 0.123410 0.593787
vt 0.119774 0.590058
vt 0.230123 0.591156
vt 0.881461 0.693895
vt 0.289327 0.697089
vt 0.439283 0.941351
vt 0.610502 0.776101
vt 0.670904 0.738388
vt 0.236386 0.590058
vt 0.120279 0.806710
vt 0.788278 0.683751
s 0
usemtl Material
f 144/177/106 146/178/106 145/179/106
f 132/180/107 134/181/107 133/182/107
f 127/183/108 129/184/108 128/185/108
f 135/186/109 137/187/109 136/188/109
f 139/189/110 141/190/110 140/191/110
f 124/192/111 126/193/111 123/194/111
f 148/195/112 150/196/112 147/197/112
f 132/198/113 147/197/113 131/199/113
f 133/200/114 148/195/114 132/198/114
f 150/196/115 133/200/115 134/201/115
f 147/197/116 134/201/116 131/199/116
f 152/202/117 154/203/117 151/204/117
f 136/205/118 151/204/118 135/206/118
f 153/207/119 136/205/119 137/208/119
f 154/203/120 137/208/120 138/209/120
f 151/204/121 138/209/121 135/206/121
f 156/210/122 158/211/122 155/212/122
f 128/213/123 155/212/123 127/214/123
f 157/215/124 128/213/124 129/216/124
f 130/217/125 157/215/125 129/216/125
f 155/212/126 130/217/126 127/214/126
f 159/218/127 161/219/127 162/220/127
f 160/221/115 124/222/115 123/223/115
f 126/224/128 160/221/128 123/223/128
f 162/220/129 126/224/129 125/225/129
f 159/218/130 125/225/130 124/222/130
f 163/226/131 165/227/131 166/228/131
f 140/229/115 163/226/115 139/230/115
f 165/227/132 140/229/132 141/231/132
f 142/232/133 165/227/133 141/231/133
f 139/230/134 166/228/134 142/232/134
f 168/233/135 170/234/135 167/235/135
f 168/233/136 143/236/136 144/237/136
f 169/238/137 144/237/137 145/239/137
f 146/240/115 169/238/115 145/239/115
f 167/235/138 146/240/138 143/236/138
f 144/177/106 143/241/106 146/178/106
f 132/180/107 131/242/107 134/181/107
f 127/183/108 130/243/108 129/184/108
f 135/186/109 138/244/109 137/187/109
f 139/189/110 142/245/110 141/190/110
f 124/192/111 125/246/111 126/193/111
f 148/195/112 149/247/112 150/196/112
f 132/198/113 148/195/113 147/197/113
f 133/200/114 149/247/114 148/195/114
f 150/196/115 149/247/115 133/200/115
f 147/197/116 150/196/116 134/201/116
f 152/202/117 153/207/117 154/203/117
f 136/205/118 152/202/118 151/204/118
f 153/207/119 152/202/119 136/205/119
f 154/203/120 153/207/120 137/208/120
f 151/204/121 154/203/121 138/209/121
f 156/210/122 157/215/122 158/211/122
f 128/213/123 156/210/123 155/212/123
f 157/215/124 156/210/124 128/213/124
f 130/217/125 158/211/125 157/215/125
f 155/212/126 158/211/126 130/217/126
f 159/218/127 160/221/127 161/219/127
f 160/221/115 159/218/115 124/222/115
f 126/224/128 161/219/128 160/221/128
f 162/220/129 161/219/129 126/224/129
f 159/218/130 162/220/130 125/225/130
f 163/226/131 164/248/131 165/227/131
f 140/229/115 164/248/115 163/226/115
f 165/227/132 164/248/132 140/229/132
f 142/232/133 166/228/133 165/227/133
f 139/230/134 163/226/134 166/228/134
f 168/233/135 169/238/135 170/234/135
f 168/233/136 167/235/136 143/236/136
f 169/238/137 168/233/137 144/237/137
f 146/240/115 170/234/115 169/238/115
f 167/235/138 170/234/138 146/240/138
o Cube.003
v 1.000000 0.102356 0.072600
v 1.000000 0.102356 1.815403
v 1.000000 -0.029593 0.072600
v 1.000000 -0.029593 1.815403
v 1.319545 -0.029593 0.072600
v 1.396786 -0.029593 0.149841
v 1.396786 -0.029593 1.738162
v 1.319545 -0.029593 1.815403
v 1.396786 0.102356 0.149841
v 1.319545 0.102356 0.072600
v 1.319545 0.102356 1.815403
v 1.396786 0.102356 1.738162
v 1.000000 0.102356 0.072600
v 1.000000 0.102356 1.815403
v 1.000000 -0.029593 0.072600
v 1.000000 -0.029593 1.815403
v 0.680455 -0.029593 0.072600
v 0.603214 -0.029593 0.149841
v 0.603214 -0.029593 1.738162
v 0.680455 -0.029593 1.815403
v 0.603214 0.102356 0.149841
v 0.680455 0.102356 0.072600
v 0.680455 0.102356 1.815403
v 0.603214 0.102356 1.738162
vn -1.0000 -0.0000 -0.0000
vn 0.7071 -0.0000 -0.7071
vn 0.7071 -0.0000 0.7071
vn -0.0000 -0.0000 -1.0000
vn 1.0000 -0.0000 -0.0000
vn -0.0000 -1.0000 -0.0000
vn -0.0000 -0.0000 1.0000
vn -0.0000 1.0000 -0.0000
vn -0.7071 -0.0000 -0.7071
vn -0.7071 -0.0000 0.7071
vt 0.757927 0.709992
vt 0.773051 0.503990
vt 0.773051 0.715268
vt 0.720107 0.502756
vt 0.696136 0.511669
vt 0.718734 0.489062
vt 0.720313 0.732126
vt 0.712614 0.705392
vt 0.722725 0.713780
vt 0.757728 0.511316
vt 0.711501 0.513842
vt 0.663421 0.581988
vt 0.654317 0.777885
vt 0.616764 0.572941
vt 0.245494 0.988895
vt 0.039492 0.973771
vt 0.034216 0.988895
vt 0.237815 0.911980
vt 0.246728 0.935951
vt 0.260422 0.934578
vt 0.044092 0.928458
vt 0.017358 0.936157
vt 0.035704 0.938569
vt 0.238168 0.973572
vt 0.235642 0.927345
vt 0.616764 0.783879
vt 0.654317 0.988822
vt 0.663421 0.792926
vt 0.697630 0.707220
vt 0.654308 0.572907
vt 0.663434 0.768803
vt 0.616764 0.777852
vt 0.042264 0.913474
vt 0.654308 0.783845
vt 0.616764 0.988790
vt 0.663434 0.979740
s 0
usemtl Material
f 172/249/139 173/250/139 174/251/139
f 180/252/140 176/253/140 175/254/140
f 178/255/141 182/256/141 181/257/141
f 180/252/142 173/250/142 171/258/142
f 182/256/143 176/253/143 179/259/143
f 176/260/144 178/261/144 173/262/144
f 172/249/145 178/255/145 181/257/145
f 172/249/146 182/256/146 180/252/146
f 185/263/143 184/264/143 186/265/143
f 188/266/147 192/267/147 187/268/147
f 194/269/148 190/270/148 193/271/148
f 185/263/142 192/267/142 183/272/142
f 188/266/139 194/269/139 191/273/139
f 185/274/144 190/275/144 188/276/144
f 190/270/145 184/264/145 193/271/145
f 192/267/146 194/269/146 184/264/146
f 172/249/139 171/258/139 173/250/139
f 180/252/140 179/259/140 176/253/140
f 178/255/141 177/277/141 182/256/141
f 180/252/142 175/254/142 173/250/142
f 182/256/143 177/277/143 176/253/143
f 173/262/144 175/278/144 176/260/144
f 176/260/144 177/279/144 178/261/144
f 178/261/144 174/280/144 173/262/144
f 172/249/145 174/251/145 178/255/145
f 180/252/146 171/258/146 172/249/146
f 172/249/146 181/257/146 182/256/146
f 182/256/146 179/259/146 180/252/146
f 185/263/143 183/272/143 184/264/143
f 188/266/147 191/273/147 192/267/147
f 194/269/148 189/281/148 190/270/148
f 185/263/142 187/268/142 192/267/142
f 188/266/139 189/281/139 194/269/139
f 188/276/144 187/282/144 185/274/144
f 185/274/144 186/283/144 190/275/144
f 190/275/144 189/284/144 188/276/144
f 190/270/145 186/265/145 184/264/145
f 184/264/146 183/272/146 192/267/146
f 192/267/146 191/273/146 194/269/146
f 194/269/146 193/271/146 184/264/146
